ISO-10303-21;
HEADER;
/* Generated by software containing ST-Developer
 * from STEP Tools, Inc. (www.steptools.com) 
 */
/* OPTION: using custom schema-name function */

FILE_DESCRIPTION(
/* description */ (''),
/* implementation_level */ '2;1');

FILE_NAME(
/* name */ '13783284_3D_STP.stp',
/* time_stamp */ '2024-04-22T18:32:30+05:00',
/* author */ (''),
/* organization */ (''),
/* preprocessor_version */ 'ST-DEVELOPER v16',
/* originating_system */ 'SIEMENS PLM Software NX 11.0',
/* authorisation */ '');

FILE_SCHEMA (('AUTOMOTIVE_DESIGN { 1 0 10303 214 3 1 1 1 }'));
ENDSEC;

DATA;
#10=PROPERTY_DEFINITION_REPRESENTATION(#14,#12);
#11=PROPERTY_DEFINITION_REPRESENTATION(#15,#13);
#12=REPRESENTATION('',(#16),#1114);
#13=REPRESENTATION('',(#17),#1114);
#14=PROPERTY_DEFINITION('pmi validation property','',#21);
#15=PROPERTY_DEFINITION('pmi validation property','',#21);
#16=VALUE_REPRESENTATION_ITEM('number of annotations',COUNT_MEASURE(0.));
#17=VALUE_REPRESENTATION_ITEM('number of views',COUNT_MEASURE(0.));
#18=SHAPE_REPRESENTATION_RELATIONSHIP('None',
'relationship between hy3t598C8991btri-None and hy3t598C8991btri-None',
#30,#19);
#19=ADVANCED_BREP_SHAPE_REPRESENTATION('hy3t598C8991btri-None',(#40),#1114);
#20=SHAPE_DEFINITION_REPRESENTATION(#21,#30);
#21=PRODUCT_DEFINITION_SHAPE('','',#22);
#22=PRODUCT_DEFINITION(' ','',#24,#23);
#23=PRODUCT_DEFINITION_CONTEXT('part definition',#29,'design');
#24=PRODUCT_DEFINITION_FORMATION_WITH_SPECIFIED_SOURCE(' ',' ',#26,
 .NOT_KNOWN.);
#25=PRODUCT_RELATED_PRODUCT_CATEGORY('part','',(#26));
#26=PRODUCT('hy3t598C8991btri','hy3t598C8991btri',' ',(#27));
#27=PRODUCT_CONTEXT(' ',#29,'mechanical');
#28=APPLICATION_PROTOCOL_DEFINITION('international standard',
'automotive_design',2010,#29);
#29=APPLICATION_CONTEXT(
'core data for automotive mechanical design processes');
#30=SHAPE_REPRESENTATION('hy3t598C8991btri-None',(#648),#1114);
#31=PRESENTATION_LAYER_ASSIGNMENT('1','Layer 1',(#40));
#32=STYLED_ITEM('',(#33),#40);
#33=PRESENTATION_STYLE_ASSIGNMENT((#34));
#34=SURFACE_STYLE_USAGE(.BOTH.,#35);
#35=SURFACE_SIDE_STYLE('',(#36));
#36=SURFACE_STYLE_FILL_AREA(#37);
#37=FILL_AREA_STYLE('',(#38));
#38=FILL_AREA_STYLE_COLOUR('',#39);
#39=DRAUGHTING_PRE_DEFINED_COLOUR('magenta');
#40=BREP_WITH_VOIDS('HEALED_BODY_1  ',#42,(#41));
#41=ORIENTED_CLOSED_SHELL('',*,#43,.F.);
#42=CLOSED_SHELL('',(#84,#85,#86,#87,#88,#89,#90,#91,#92,#93,#94,#95,#96,
#97,#98,#99,#100,#101,#102,#103,#104,#105,#106,#107,#108,#109,#110,#111,
#112,#113,#114,#115,#116,#117,#118,#119,#120));
#43=CLOSED_SHELL('',(#121,#122,#123));
#44=ELLIPSE('',#673,2.20325119023986,2.2);
#45=ELLIPSE('',#676,2.20325119023986,2.2);
#46=ELLIPSE('',#679,1.79665119785924,1.794);
#47=ELLIPSE('',#681,1.79665119785924,1.794);
#48=CONICAL_SURFACE('',#664,1.2,30.5497154280244);
#49=(
BOUNDED_SURFACE()
B_SPLINE_SURFACE(3,3,((#942,#943,#944,#945,#946,#947,#948),(#949,#950,#951,
#952,#953,#954,#955),(#956,#957,#958,#959,#960,#961,#962),(#963,#964,#965,
#966,#967,#968,#969)),.UNSPECIFIED.,.F.,.T.,.F.)
B_SPLINE_SURFACE_WITH_KNOTS((4,4),(1,3,3,3,1),(0.,1.),(-0.5,0.,0.5,1.,1.5),
 .UNSPECIFIED.)
GEOMETRIC_REPRESENTATION_ITEM()
RATIONAL_B_SPLINE_SURFACE(((1.,0.333333333333333,0.333333333333333,1.,0.333333333333333,
0.333333333333333,1.),(0.860379610028063,0.286793203342688,0.286793203342688,
0.860379610028063,0.286793203342688,0.286793203342688,0.860379610028063),
(0.860379610028063,0.286793203342688,0.286793203342688,0.860379610028063,
0.286793203342688,0.286793203342688,0.860379610028063),(1.,0.333333333333333,
0.333333333333333,1.,0.333333333333333,0.333333333333333,1.)))
REPRESENTATION_ITEM('')
SURFACE()
);
#50=VERTEX_LOOP('',#431);
#51=CYLINDRICAL_SURFACE('',#657,1.2);
#52=CYLINDRICAL_SURFACE('',#659,2.35);
#53=CYLINDRICAL_SURFACE('',#663,1.875);
#54=CYLINDRICAL_SURFACE('',#665,1.875);
#55=CYLINDRICAL_SURFACE('',#674,2.2);
#56=CYLINDRICAL_SURFACE('',#677,2.2);
#57=CYLINDRICAL_SURFACE('',#680,1.794);
#58=CYLINDRICAL_SURFACE('',#684,1.794);
#59=CYLINDRICAL_SURFACE('',#698,1.2);
#60=CYLINDRICAL_SURFACE('',#701,0.794);
#61=CYLINDRICAL_SURFACE('',#706,0.794);
#62=CYLINDRICAL_SURFACE('',#708,1.2);
#63=CYLINDRICAL_SURFACE('',#713,1.944);
#64=FACE_BOUND('',#180,.T.);
#65=FACE_BOUND('',#181,.T.);
#66=FACE_BOUND('',#182,.T.);
#67=FACE_BOUND('',#183,.T.);
#68=FACE_BOUND('',#184,.T.);
#69=FACE_BOUND('',#50,.T.);
#70=FACE_BOUND('',#185,.T.);
#71=FACE_BOUND('',#186,.T.);
#72=FACE_BOUND('',#187,.T.);
#73=FACE_BOUND('',#188,.T.);
#74=FACE_BOUND('',#189,.T.);
#75=FACE_BOUND('',#190,.T.);
#76=FACE_BOUND('',#191,.T.);
#77=FACE_BOUND('',#192,.T.);
#78=FACE_BOUND('',#193,.T.);
#79=FACE_BOUND('',#194,.T.);
#80=FACE_BOUND('',#204,.T.);
#81=FACE_BOUND('',#205,.T.);
#82=FACE_BOUND('',#225,.F.);
#83=FACE_BOUND('',#226,.F.);
#84=ADVANCED_FACE('',(#149),#124,.T.);
#85=ADVANCED_FACE('',(#64,#65),#125,.T.);
#86=ADVANCED_FACE('',(#66,#67),#51,.T.);
#87=ADVANCED_FACE('',(#68,#69),#49,.T.);
#88=ADVANCED_FACE('',(#70,#71),#52,.T.);
#89=ADVANCED_FACE('',(#72,#73),#126,.T.);
#90=ADVANCED_FACE('',(#74,#75),#53,.T.);
#91=ADVANCED_FACE('',(#76,#77),#48,.T.);
#92=ADVANCED_FACE('',(#78,#79),#54,.T.);
#93=ADVANCED_FACE('',(#150),#127,.F.);
#94=ADVANCED_FACE('',(#151),#128,.T.);
#95=ADVANCED_FACE('',(#152),#129,.T.);
#96=ADVANCED_FACE('',(#153),#130,.F.);
#97=ADVANCED_FACE('',(#154),#131,.T.);
#98=ADVANCED_FACE('',(#155),#132,.F.);
#99=ADVANCED_FACE('',(#156),#55,.T.);
#100=ADVANCED_FACE('',(#157),#56,.T.);
#101=ADVANCED_FACE('',(#158),#57,.F.);
#102=ADVANCED_FACE('',(#80,#81),#133,.F.);
#103=ADVANCED_FACE('',(#159),#58,.F.);
#104=ADVANCED_FACE('',(#160),#134,.T.);
#105=ADVANCED_FACE('',(#161),#135,.T.);
#106=ADVANCED_FACE('',(#162),#136,.F.);
#107=ADVANCED_FACE('',(#163),#137,.F.);
#108=ADVANCED_FACE('',(#164),#138,.F.);
#109=ADVANCED_FACE('',(#165),#139,.T.);
#110=ADVANCED_FACE('',(#166),#140,.T.);
#111=ADVANCED_FACE('',(#167),#141,.F.);
#112=ADVANCED_FACE('',(#168),#59,.T.);
#113=ADVANCED_FACE('',(#169),#142,.F.);
#114=ADVANCED_FACE('',(#170),#60,.F.);
#115=ADVANCED_FACE('',(#171),#143,.F.);
#116=ADVANCED_FACE('',(#172),#144,.F.);
#117=ADVANCED_FACE('',(#173),#61,.F.);
#118=ADVANCED_FACE('',(#174),#145,.T.);
#119=ADVANCED_FACE('',(#175),#62,.T.);
#120=ADVANCED_FACE('',(#176),#146,.F.);
#121=ADVANCED_FACE('',(#177),#147,.T.);
#122=ADVANCED_FACE('',(#82,#83),#63,.T.);
#123=ADVANCED_FACE('',(#178),#148,.T.);
#124=PLANE('',#651);
#125=PLANE('',#654);
#126=PLANE('',#661);
#127=PLANE('',#666);
#128=PLANE('',#667);
#129=PLANE('',#668);
#130=PLANE('',#669);
#131=PLANE('',#670);
#132=PLANE('',#671);
#133=PLANE('',#682);
#134=PLANE('',#685);
#135=PLANE('',#686);
#136=PLANE('',#687);
#137=PLANE('',#688);
#138=PLANE('',#689);
#139=PLANE('',#694);
#140=PLANE('',#695);
#141=PLANE('',#696);
#142=PLANE('',#699);
#143=PLANE('',#702);
#144=PLANE('',#705);
#145=PLANE('',#707);
#146=PLANE('',#709);
#147=PLANE('',#711);
#148=PLANE('',#714);
#149=FACE_OUTER_BOUND('',#179,.T.);
#150=FACE_OUTER_BOUND('',#195,.T.);
#151=FACE_OUTER_BOUND('',#196,.T.);
#152=FACE_OUTER_BOUND('',#197,.T.);
#153=FACE_OUTER_BOUND('',#198,.T.);
#154=FACE_OUTER_BOUND('',#199,.T.);
#155=FACE_OUTER_BOUND('',#200,.T.);
#156=FACE_OUTER_BOUND('',#201,.T.);
#157=FACE_OUTER_BOUND('',#202,.T.);
#158=FACE_OUTER_BOUND('',#203,.T.);
#159=FACE_OUTER_BOUND('',#206,.T.);
#160=FACE_OUTER_BOUND('',#207,.T.);
#161=FACE_OUTER_BOUND('',#208,.T.);
#162=FACE_OUTER_BOUND('',#209,.T.);
#163=FACE_OUTER_BOUND('',#210,.T.);
#164=FACE_OUTER_BOUND('',#211,.T.);
#165=FACE_OUTER_BOUND('',#212,.T.);
#166=FACE_OUTER_BOUND('',#213,.T.);
#167=FACE_OUTER_BOUND('',#214,.T.);
#168=FACE_OUTER_BOUND('',#215,.T.);
#169=FACE_OUTER_BOUND('',#216,.T.);
#170=FACE_OUTER_BOUND('',#217,.T.);
#171=FACE_OUTER_BOUND('',#218,.T.);
#172=FACE_OUTER_BOUND('',#219,.T.);
#173=FACE_OUTER_BOUND('',#220,.T.);
#174=FACE_OUTER_BOUND('',#221,.T.);
#175=FACE_OUTER_BOUND('',#222,.T.);
#176=FACE_OUTER_BOUND('',#223,.T.);
#177=FACE_OUTER_BOUND('',#224,.F.);
#178=FACE_OUTER_BOUND('',#227,.F.);
#179=EDGE_LOOP('',(#256,#257,#258,#259,#260,#261,#262,#263,#264,#265));
#180=EDGE_LOOP('',(#266));
#181=EDGE_LOOP('',(#267));
#182=EDGE_LOOP('',(#268));
#183=EDGE_LOOP('',(#269));
#184=EDGE_LOOP('',(#270));
#185=EDGE_LOOP('',(#271));
#186=EDGE_LOOP('',(#272));
#187=EDGE_LOOP('',(#273));
#188=EDGE_LOOP('',(#274));
#189=EDGE_LOOP('',(#275));
#190=EDGE_LOOP('',(#276));
#191=EDGE_LOOP('',(#277));
#192=EDGE_LOOP('',(#278));
#193=EDGE_LOOP('',(#279,#280,#281,#282,#283,#284));
#194=EDGE_LOOP('',(#285));
#195=EDGE_LOOP('',(#286,#287,#288,#289));
#196=EDGE_LOOP('',(#290,#291,#292,#293));
#197=EDGE_LOOP('',(#294,#295,#296,#297));
#198=EDGE_LOOP('',(#298,#299,#300,#301));
#199=EDGE_LOOP('',(#302,#303,#304,#305));
#200=EDGE_LOOP('',(#306,#307,#308,#309));
#201=EDGE_LOOP('',(#310,#311,#312,#313));
#202=EDGE_LOOP('',(#314,#315,#316,#317));
#203=EDGE_LOOP('',(#318,#319,#320,#321));
#204=EDGE_LOOP('',(#322,#323,#324,#325));
#205=EDGE_LOOP('',(#326,#327,#328,#329));
#206=EDGE_LOOP('',(#330,#331,#332,#333));
#207=EDGE_LOOP('',(#334,#335,#336,#337,#338,#339,#340,#341));
#208=EDGE_LOOP('',(#342,#343,#344,#345));
#209=EDGE_LOOP('',(#346,#347,#348,#349));
#210=EDGE_LOOP('',(#350,#351,#352,#353));
#211=EDGE_LOOP('',(#354,#355,#356,#357));
#212=EDGE_LOOP('',(#358,#359,#360,#361,#362,#363,#364,#365));
#213=EDGE_LOOP('',(#366,#367,#368,#369));
#214=EDGE_LOOP('',(#370,#371,#372,#373));
#215=EDGE_LOOP('',(#374,#375,#376,#377));
#216=EDGE_LOOP('',(#378,#379,#380,#381));
#217=EDGE_LOOP('',(#382,#383,#384,#385));
#218=EDGE_LOOP('',(#386,#387,#388,#389));
#219=EDGE_LOOP('',(#390,#391,#392,#393,#394,#395,#396,#397));
#220=EDGE_LOOP('',(#398,#399,#400,#401));
#221=EDGE_LOOP('',(#402,#403,#404,#405));
#222=EDGE_LOOP('',(#406,#407,#408,#409));
#223=EDGE_LOOP('',(#410,#411,#412,#413));
#224=EDGE_LOOP('',(#414));
#225=EDGE_LOOP('',(#415));
#226=EDGE_LOOP('',(#416));
#227=EDGE_LOOP('',(#417));
#228=B_SPLINE_CURVE_WITH_KNOTS('',3,(#906,#907,#908,#909),.UNSPECIFIED.,
 .F.,.F.,(4,4),(0.,1.),.UNSPECIFIED.);
#229=B_SPLINE_CURVE_WITH_KNOTS('',3,(#911,#912,#913,#914),.UNSPECIFIED.,
 .F.,.F.,(4,4),(0.,1.),.UNSPECIFIED.);
#230=B_SPLINE_CURVE_WITH_KNOTS('',3,(#918,#919,#920,#921),.UNSPECIFIED.,
 .F.,.F.,(4,4),(0.,1.),.UNSPECIFIED.);
#231=B_SPLINE_CURVE_WITH_KNOTS('',3,(#923,#924,#925,#926),.UNSPECIFIED.,
 .F.,.F.,(4,4),(0.,1.),.UNSPECIFIED.);
#232=B_SPLINE_CURVE_WITH_KNOTS('',3,(#995,#996,#997,#998),.UNSPECIFIED.,
 .F.,.F.,(4,4),(0.,1.),.UNSPECIFIED.);
#233=CIRCLE('',#649,1.875);
#234=CIRCLE('',#650,1.875);
#235=CIRCLE('',#652,2.35);
#236=CIRCLE('',#653,1.875);
#237=CIRCLE('',#655,1.2);
#238=CIRCLE('',#656,1.2);
#239=CIRCLE('',#658,2.35);
#240=CIRCLE('',#660,1.875);
#241=CIRCLE('',#662,1.875);
#242=CIRCLE('',#672,2.2);
#243=CIRCLE('',#675,2.2);
#244=CIRCLE('',#678,1.794);
#245=CIRCLE('',#683,1.794);
#246=CIRCLE('',#690,1.2);
#247=CIRCLE('',#691,1.2);
#248=CIRCLE('',#692,0.794);
#249=CIRCLE('',#693,0.794);
#250=CIRCLE('',#697,1.2);
#251=CIRCLE('',#700,0.794);
#252=CIRCLE('',#703,0.794);
#253=CIRCLE('',#704,1.2);
#254=CIRCLE('',#710,1.944);
#255=CIRCLE('',#712,1.944);
#256=ORIENTED_EDGE('',*,*,#469,.T.);
#257=ORIENTED_EDGE('',*,*,#470,.T.);
#258=ORIENTED_EDGE('',*,*,#471,.T.);
#259=ORIENTED_EDGE('',*,*,#472,.T.);
#260=ORIENTED_EDGE('',*,*,#473,.T.);
#261=ORIENTED_EDGE('',*,*,#474,.T.);
#262=ORIENTED_EDGE('',*,*,#475,.T.);
#263=ORIENTED_EDGE('',*,*,#476,.T.);
#264=ORIENTED_EDGE('',*,*,#477,.T.);
#265=ORIENTED_EDGE('',*,*,#478,.F.);
#266=ORIENTED_EDGE('',*,*,#479,.T.);
#267=ORIENTED_EDGE('',*,*,#480,.T.);
#268=ORIENTED_EDGE('',*,*,#481,.T.);
#269=ORIENTED_EDGE('',*,*,#482,.F.);
#270=ORIENTED_EDGE('',*,*,#482,.T.);
#271=ORIENTED_EDGE('',*,*,#479,.F.);
#272=ORIENTED_EDGE('',*,*,#483,.T.);
#273=ORIENTED_EDGE('',*,*,#483,.F.);
#274=ORIENTED_EDGE('',*,*,#484,.F.);
#275=ORIENTED_EDGE('',*,*,#484,.T.);
#276=ORIENTED_EDGE('',*,*,#485,.T.);
#277=ORIENTED_EDGE('',*,*,#485,.F.);
#278=ORIENTED_EDGE('',*,*,#481,.F.);
#279=ORIENTED_EDGE('',*,*,#472,.F.);
#280=ORIENTED_EDGE('',*,*,#471,.F.);
#281=ORIENTED_EDGE('',*,*,#476,.F.);
#282=ORIENTED_EDGE('',*,*,#475,.F.);
#283=ORIENTED_EDGE('',*,*,#474,.F.);
#284=ORIENTED_EDGE('',*,*,#473,.F.);
#285=ORIENTED_EDGE('',*,*,#480,.F.);
#286=ORIENTED_EDGE('',*,*,#477,.F.);
#287=ORIENTED_EDGE('',*,*,#486,.F.);
#288=ORIENTED_EDGE('',*,*,#487,.F.);
#289=ORIENTED_EDGE('',*,*,#488,.F.);
#290=ORIENTED_EDGE('',*,*,#489,.T.);
#291=ORIENTED_EDGE('',*,*,#469,.F.);
#292=ORIENTED_EDGE('',*,*,#490,.T.);
#293=ORIENTED_EDGE('',*,*,#491,.T.);
#294=ORIENTED_EDGE('',*,*,#490,.F.);
#295=ORIENTED_EDGE('',*,*,#478,.T.);
#296=ORIENTED_EDGE('',*,*,#488,.T.);
#297=ORIENTED_EDGE('',*,*,#492,.F.);
#298=ORIENTED_EDGE('',*,*,#493,.T.);
#299=ORIENTED_EDGE('',*,*,#486,.T.);
#300=ORIENTED_EDGE('',*,*,#470,.F.);
#301=ORIENTED_EDGE('',*,*,#489,.F.);
#302=ORIENTED_EDGE('',*,*,#494,.F.);
#303=ORIENTED_EDGE('',*,*,#495,.F.);
#304=ORIENTED_EDGE('',*,*,#496,.T.);
#305=ORIENTED_EDGE('',*,*,#497,.T.);
#306=ORIENTED_EDGE('',*,*,#498,.T.);
#307=ORIENTED_EDGE('',*,*,#499,.F.);
#308=ORIENTED_EDGE('',*,*,#500,.F.);
#309=ORIENTED_EDGE('',*,*,#501,.T.);
#310=ORIENTED_EDGE('',*,*,#502,.F.);
#311=ORIENTED_EDGE('',*,*,#503,.F.);
#312=ORIENTED_EDGE('',*,*,#504,.T.);
#313=ORIENTED_EDGE('',*,*,#495,.T.);
#314=ORIENTED_EDGE('',*,*,#505,.F.);
#315=ORIENTED_EDGE('',*,*,#497,.F.);
#316=ORIENTED_EDGE('',*,*,#506,.T.);
#317=ORIENTED_EDGE('',*,*,#507,.T.);
#318=ORIENTED_EDGE('',*,*,#508,.T.);
#319=ORIENTED_EDGE('',*,*,#509,.F.);
#320=ORIENTED_EDGE('',*,*,#510,.F.);
#321=ORIENTED_EDGE('',*,*,#499,.T.);
#322=ORIENTED_EDGE('',*,*,#500,.T.);
#323=ORIENTED_EDGE('',*,*,#510,.T.);
#324=ORIENTED_EDGE('',*,*,#511,.T.);
#325=ORIENTED_EDGE('',*,*,#512,.T.);
#326=ORIENTED_EDGE('',*,*,#506,.F.);
#327=ORIENTED_EDGE('',*,*,#496,.F.);
#328=ORIENTED_EDGE('',*,*,#504,.F.);
#329=ORIENTED_EDGE('',*,*,#513,.F.);
#330=ORIENTED_EDGE('',*,*,#514,.T.);
#331=ORIENTED_EDGE('',*,*,#501,.F.);
#332=ORIENTED_EDGE('',*,*,#512,.F.);
#333=ORIENTED_EDGE('',*,*,#515,.T.);
#334=ORIENTED_EDGE('',*,*,#505,.T.);
#335=ORIENTED_EDGE('',*,*,#516,.T.);
#336=ORIENTED_EDGE('',*,*,#508,.F.);
#337=ORIENTED_EDGE('',*,*,#498,.F.);
#338=ORIENTED_EDGE('',*,*,#514,.F.);
#339=ORIENTED_EDGE('',*,*,#517,.T.);
#340=ORIENTED_EDGE('',*,*,#502,.T.);
#341=ORIENTED_EDGE('',*,*,#494,.T.);
#342=ORIENTED_EDGE('',*,*,#518,.T.);
#343=ORIENTED_EDGE('',*,*,#507,.F.);
#344=ORIENTED_EDGE('',*,*,#513,.T.);
#345=ORIENTED_EDGE('',*,*,#503,.T.);
#346=ORIENTED_EDGE('',*,*,#519,.T.);
#347=ORIENTED_EDGE('',*,*,#520,.F.);
#348=ORIENTED_EDGE('',*,*,#516,.F.);
#349=ORIENTED_EDGE('',*,*,#521,.T.);
#350=ORIENTED_EDGE('',*,*,#522,.T.);
#351=ORIENTED_EDGE('',*,*,#515,.F.);
#352=ORIENTED_EDGE('',*,*,#511,.F.);
#353=ORIENTED_EDGE('',*,*,#509,.T.);
#354=ORIENTED_EDGE('',*,*,#523,.T.);
#355=ORIENTED_EDGE('',*,*,#524,.F.);
#356=ORIENTED_EDGE('',*,*,#517,.F.);
#357=ORIENTED_EDGE('',*,*,#525,.T.);
#358=ORIENTED_EDGE('',*,*,#519,.F.);
#359=ORIENTED_EDGE('',*,*,#526,.T.);
#360=ORIENTED_EDGE('',*,*,#527,.T.);
#361=ORIENTED_EDGE('',*,*,#528,.T.);
#362=ORIENTED_EDGE('',*,*,#523,.F.);
#363=ORIENTED_EDGE('',*,*,#529,.F.);
#364=ORIENTED_EDGE('',*,*,#530,.F.);
#365=ORIENTED_EDGE('',*,*,#531,.F.);
#366=ORIENTED_EDGE('',*,*,#532,.F.);
#367=ORIENTED_EDGE('',*,*,#533,.F.);
#368=ORIENTED_EDGE('',*,*,#530,.T.);
#369=ORIENTED_EDGE('',*,*,#534,.T.);
#370=ORIENTED_EDGE('',*,*,#535,.T.);
#371=ORIENTED_EDGE('',*,*,#536,.F.);
#372=ORIENTED_EDGE('',*,*,#527,.F.);
#373=ORIENTED_EDGE('',*,*,#537,.T.);
#374=ORIENTED_EDGE('',*,*,#538,.T.);
#375=ORIENTED_EDGE('',*,*,#539,.F.);
#376=ORIENTED_EDGE('',*,*,#528,.F.);
#377=ORIENTED_EDGE('',*,*,#536,.T.);
#378=ORIENTED_EDGE('',*,*,#540,.T.);
#379=ORIENTED_EDGE('',*,*,#521,.F.);
#380=ORIENTED_EDGE('',*,*,#518,.F.);
#381=ORIENTED_EDGE('',*,*,#524,.T.);
#382=ORIENTED_EDGE('',*,*,#541,.F.);
#383=ORIENTED_EDGE('',*,*,#542,.F.);
#384=ORIENTED_EDGE('',*,*,#531,.T.);
#385=ORIENTED_EDGE('',*,*,#533,.T.);
#386=ORIENTED_EDGE('',*,*,#543,.T.);
#387=ORIENTED_EDGE('',*,*,#525,.F.);
#388=ORIENTED_EDGE('',*,*,#522,.F.);
#389=ORIENTED_EDGE('',*,*,#520,.T.);
#390=ORIENTED_EDGE('',*,*,#544,.T.);
#391=ORIENTED_EDGE('',*,*,#487,.T.);
#392=ORIENTED_EDGE('',*,*,#538,.F.);
#393=ORIENTED_EDGE('',*,*,#535,.F.);
#394=ORIENTED_EDGE('',*,*,#545,.F.);
#395=ORIENTED_EDGE('',*,*,#491,.F.);
#396=ORIENTED_EDGE('',*,*,#541,.T.);
#397=ORIENTED_EDGE('',*,*,#532,.T.);
#398=ORIENTED_EDGE('',*,*,#544,.F.);
#399=ORIENTED_EDGE('',*,*,#534,.F.);
#400=ORIENTED_EDGE('',*,*,#529,.T.);
#401=ORIENTED_EDGE('',*,*,#546,.T.);
#402=ORIENTED_EDGE('',*,*,#492,.T.);
#403=ORIENTED_EDGE('',*,*,#546,.F.);
#404=ORIENTED_EDGE('',*,*,#543,.F.);
#405=ORIENTED_EDGE('',*,*,#542,.T.);
#406=ORIENTED_EDGE('',*,*,#545,.T.);
#407=ORIENTED_EDGE('',*,*,#537,.F.);
#408=ORIENTED_EDGE('',*,*,#526,.F.);
#409=ORIENTED_EDGE('',*,*,#547,.T.);
#410=ORIENTED_EDGE('',*,*,#493,.F.);
#411=ORIENTED_EDGE('',*,*,#547,.F.);
#412=ORIENTED_EDGE('',*,*,#540,.F.);
#413=ORIENTED_EDGE('',*,*,#539,.T.);
#414=ORIENTED_EDGE('',*,*,#548,.T.);
#415=ORIENTED_EDGE('',*,*,#549,.T.);
#416=ORIENTED_EDGE('',*,*,#548,.F.);
#417=ORIENTED_EDGE('',*,*,#549,.F.);
#418=VERTEX_POINT('',#900);
#419=VERTEX_POINT('',#901);
#420=VERTEX_POINT('',#903);
#421=VERTEX_POINT('',#905);
#422=VERTEX_POINT('',#910);
#423=VERTEX_POINT('',#915);
#424=VERTEX_POINT('',#917);
#425=VERTEX_POINT('',#922);
#426=VERTEX_POINT('',#928);
#427=VERTEX_POINT('',#932);
#428=VERTEX_POINT('',#934);
#429=VERTEX_POINT('',#937);
#430=VERTEX_POINT('',#939);
#431=VERTEX_POINT('',#941);
#432=VERTEX_POINT('',#971);
#433=VERTEX_POINT('',#974);
#434=VERTEX_POINT('',#977);
#435=VERTEX_POINT('',#982);
#436=VERTEX_POINT('',#984);
#437=VERTEX_POINT('',#988);
#438=VERTEX_POINT('',#990);
#439=VERTEX_POINT('',#1001);
#440=VERTEX_POINT('',#1002);
#441=VERTEX_POINT('',#1004);
#442=VERTEX_POINT('',#1006);
#443=VERTEX_POINT('',#1010);
#444=VERTEX_POINT('',#1011);
#445=VERTEX_POINT('',#1013);
#446=VERTEX_POINT('',#1015);
#447=VERTEX_POINT('',#1019);
#448=VERTEX_POINT('',#1021);
#449=VERTEX_POINT('',#1025);
#450=VERTEX_POINT('',#1027);
#451=VERTEX_POINT('',#1031);
#452=VERTEX_POINT('',#1033);
#453=VERTEX_POINT('',#1037);
#454=VERTEX_POINT('',#1042);
#455=VERTEX_POINT('',#1051);
#456=VERTEX_POINT('',#1052);
#457=VERTEX_POINT('',#1059);
#458=VERTEX_POINT('',#1060);
#459=VERTEX_POINT('',#1065);
#460=VERTEX_POINT('',#1067);
#461=VERTEX_POINT('',#1070);
#462=VERTEX_POINT('',#1072);
#463=VERTEX_POINT('',#1076);
#464=VERTEX_POINT('',#1077);
#465=VERTEX_POINT('',#1082);
#466=VERTEX_POINT('',#1083);
#467=VERTEX_POINT('',#1107);
#468=VERTEX_POINT('',#1110);
#469=EDGE_CURVE('',#418,#419,#550,.T.);
#470=EDGE_CURVE('',#419,#420,#551,.T.);
#471=EDGE_CURVE('',#420,#421,#233,.T.);
#472=EDGE_CURVE('',#421,#422,#228,.T.);
#473=EDGE_CURVE('',#422,#423,#229,.T.);
#474=EDGE_CURVE('',#423,#424,#234,.T.);
#475=EDGE_CURVE('',#424,#425,#230,.T.);
#476=EDGE_CURVE('',#425,#420,#231,.T.);
#477=EDGE_CURVE('',#420,#426,#552,.T.);
#478=EDGE_CURVE('',#418,#426,#553,.T.);
#479=EDGE_CURVE('',#427,#427,#235,.T.);
#480=EDGE_CURVE('',#428,#428,#236,.T.);
#481=EDGE_CURVE('',#429,#429,#237,.T.);
#482=EDGE_CURVE('',#430,#430,#238,.T.);
#483=EDGE_CURVE('',#432,#432,#239,.T.);
#484=EDGE_CURVE('',#433,#433,#240,.T.);
#485=EDGE_CURVE('',#434,#434,#241,.T.);
#486=EDGE_CURVE('',#435,#420,#554,.T.);
#487=EDGE_CURVE('',#436,#435,#555,.T.);
#488=EDGE_CURVE('',#426,#436,#556,.T.);
#489=EDGE_CURVE('',#437,#419,#557,.T.);
#490=EDGE_CURVE('',#418,#438,#558,.T.);
#491=EDGE_CURVE('',#438,#437,#559,.T.);
#492=EDGE_CURVE('',#438,#436,#560,.T.);
#493=EDGE_CURVE('',#437,#435,#232,.T.);
#494=EDGE_CURVE('',#439,#440,#561,.T.);
#495=EDGE_CURVE('',#441,#439,#562,.T.);
#496=EDGE_CURVE('',#441,#442,#563,.T.);
#497=EDGE_CURVE('',#442,#440,#564,.T.);
#498=EDGE_CURVE('',#443,#444,#565,.T.);
#499=EDGE_CURVE('',#445,#444,#566,.T.);
#500=EDGE_CURVE('',#446,#445,#567,.T.);
#501=EDGE_CURVE('',#446,#443,#568,.T.);
#502=EDGE_CURVE('',#447,#439,#242,.T.);
#503=EDGE_CURVE('',#448,#447,#569,.T.);
#504=EDGE_CURVE('',#448,#441,#44,.T.);
#505=EDGE_CURVE('',#440,#449,#243,.T.);
#506=EDGE_CURVE('',#442,#450,#45,.T.);
#507=EDGE_CURVE('',#450,#449,#570,.T.);
#508=EDGE_CURVE('',#444,#451,#244,.T.);
#509=EDGE_CURVE('',#452,#451,#571,.T.);
#510=EDGE_CURVE('',#445,#452,#46,.T.);
#511=EDGE_CURVE('',#452,#453,#572,.T.);
#512=EDGE_CURVE('',#453,#446,#47,.T.);
#513=EDGE_CURVE('',#450,#448,#573,.T.);
#514=EDGE_CURVE('',#454,#443,#245,.T.);
#515=EDGE_CURVE('',#453,#454,#574,.T.);
#516=EDGE_CURVE('',#449,#451,#575,.T.);
#517=EDGE_CURVE('',#454,#447,#576,.T.);
#518=EDGE_CURVE('',#447,#449,#577,.T.);
#519=EDGE_CURVE('',#455,#456,#578,.T.);
#520=EDGE_CURVE('',#451,#456,#579,.T.);
#521=EDGE_CURVE('',#449,#455,#580,.T.);
#522=EDGE_CURVE('',#451,#454,#581,.T.);
#523=EDGE_CURVE('',#457,#458,#582,.T.);
#524=EDGE_CURVE('',#447,#458,#583,.T.);
#525=EDGE_CURVE('',#454,#457,#584,.T.);
#526=EDGE_CURVE('',#455,#459,#246,.T.);
#527=EDGE_CURVE('',#459,#460,#585,.T.);
#528=EDGE_CURVE('',#460,#458,#247,.T.);
#529=EDGE_CURVE('',#461,#457,#248,.T.);
#530=EDGE_CURVE('',#462,#461,#586,.T.);
#531=EDGE_CURVE('',#456,#462,#249,.T.);
#532=EDGE_CURVE('',#463,#464,#587,.T.);
#533=EDGE_CURVE('',#462,#463,#588,.T.);
#534=EDGE_CURVE('',#461,#464,#589,.T.);
#535=EDGE_CURVE('',#465,#466,#590,.T.);
#536=EDGE_CURVE('',#460,#466,#591,.T.);
#537=EDGE_CURVE('',#459,#465,#592,.T.);
#538=EDGE_CURVE('',#466,#435,#250,.T.);
#539=EDGE_CURVE('',#458,#435,#593,.T.);
#540=EDGE_CURVE('',#458,#455,#594,.T.);
#541=EDGE_CURVE('',#438,#463,#251,.T.);
#542=EDGE_CURVE('',#456,#438,#595,.T.);
#543=EDGE_CURVE('',#456,#457,#596,.T.);
#544=EDGE_CURVE('',#464,#436,#252,.T.);
#545=EDGE_CURVE('',#437,#465,#253,.T.);
#546=EDGE_CURVE('',#457,#436,#597,.T.);
#547=EDGE_CURVE('',#455,#437,#598,.T.);
#548=EDGE_CURVE('',#467,#467,#254,.T.);
#549=EDGE_CURVE('',#468,#468,#255,.T.);
#550=LINE('',#899,#599);
#551=LINE('',#902,#600);
#552=LINE('',#927,#601);
#553=LINE('',#929,#602);
#554=LINE('',#981,#603);
#555=LINE('',#983,#604);
#556=LINE('',#985,#605);
#557=LINE('',#987,#606);
#558=LINE('',#989,#607);
#559=LINE('',#991,#608);
#560=LINE('',#993,#609);
#561=LINE('',#1000,#610);
#562=LINE('',#1003,#611);
#563=LINE('',#1005,#612);
#564=LINE('',#1007,#613);
#565=LINE('',#1009,#614);
#566=LINE('',#1012,#615);
#567=LINE('',#1014,#616);
#568=LINE('',#1016,#617);
#569=LINE('',#1020,#618);
#570=LINE('',#1028,#619);
#571=LINE('',#1032,#620);
#572=LINE('',#1036,#621);
#573=LINE('',#1039,#622);
#574=LINE('',#1043,#623);
#575=LINE('',#1045,#624);
#576=LINE('',#1046,#625);
#577=LINE('',#1048,#626);
#578=LINE('',#1050,#627);
#579=LINE('',#1053,#628);
#580=LINE('',#1054,#629);
#581=LINE('',#1056,#630);
#582=LINE('',#1058,#631);
#583=LINE('',#1061,#632);
#584=LINE('',#1062,#633);
#585=LINE('',#1066,#634);
#586=LINE('',#1071,#635);
#587=LINE('',#1075,#636);
#588=LINE('',#1078,#637);
#589=LINE('',#1079,#638);
#590=LINE('',#1081,#639);
#591=LINE('',#1084,#640);
#592=LINE('',#1085,#641);
#593=LINE('',#1088,#642);
#594=LINE('',#1090,#643);
#595=LINE('',#1093,#644);
#596=LINE('',#1095,#645);
#597=LINE('',#1100,#646);
#598=LINE('',#1103,#647);
#599=VECTOR('',#717,1.);
#600=VECTOR('',#718,1.);
#601=VECTOR('',#723,1.);
#602=VECTOR('',#724,1.);
#603=VECTOR('',#755,1.);
#604=VECTOR('',#756,1.);
#605=VECTOR('',#757,1.);
#606=VECTOR('',#760,1.);
#607=VECTOR('',#761,1.);
#608=VECTOR('',#762,1.);
#609=VECTOR('',#765,1.);
#610=VECTOR('',#770,1.);
#611=VECTOR('',#771,1.);
#612=VECTOR('',#772,1.);
#613=VECTOR('',#773,1.);
#614=VECTOR('',#776,1.);
#615=VECTOR('',#777,1.);
#616=VECTOR('',#778,1.);
#617=VECTOR('',#779,1.);
#618=VECTOR('',#784,1.);
#619=VECTOR('',#793,1.);
#620=VECTOR('',#798,1.);
#621=VECTOR('',#803,1.);
#622=VECTOR('',#806,1.);
#623=VECTOR('',#811,1.);
#624=VECTOR('',#814,1.);
#625=VECTOR('',#815,1.);
#626=VECTOR('',#818,1.);
#627=VECTOR('',#821,1.);
#628=VECTOR('',#822,1.);
#629=VECTOR('',#823,1.);
#630=VECTOR('',#826,1.);
#631=VECTOR('',#829,1.);
#632=VECTOR('',#830,1.);
#633=VECTOR('',#831,1.);
#634=VECTOR('',#836,1.);
#635=VECTOR('',#841,1.);
#636=VECTOR('',#846,1.);
#637=VECTOR('',#847,1.);
#638=VECTOR('',#848,1.);
#639=VECTOR('',#851,1.);
#640=VECTOR('',#852,1.);
#641=VECTOR('',#853,1.);
#642=VECTOR('',#858,1.);
#643=VECTOR('',#861,1.);
#644=VECTOR('',#866,1.);
#645=VECTOR('',#869,1.);
#646=VECTOR('',#878,1.);
#647=VECTOR('',#883,1.);
#648=AXIS2_PLACEMENT_3D('',#898,#715,#716);
#649=AXIS2_PLACEMENT_3D('',#904,#719,#720);
#650=AXIS2_PLACEMENT_3D('',#916,#721,#722);
#651=AXIS2_PLACEMENT_3D('',#930,#725,#726);
#652=AXIS2_PLACEMENT_3D('',#931,#727,#728);
#653=AXIS2_PLACEMENT_3D('',#933,#729,#730);
#654=AXIS2_PLACEMENT_3D('',#935,#731,#732);
#655=AXIS2_PLACEMENT_3D('',#936,#733,#734);
#656=AXIS2_PLACEMENT_3D('',#938,#735,#736);
#657=AXIS2_PLACEMENT_3D('',#940,#737,#738);
#658=AXIS2_PLACEMENT_3D('',#970,#739,#740);
#659=AXIS2_PLACEMENT_3D('',#972,#741,#742);
#660=AXIS2_PLACEMENT_3D('',#973,#743,#744);
#661=AXIS2_PLACEMENT_3D('',#975,#745,#746);
#662=AXIS2_PLACEMENT_3D('',#976,#747,#748);
#663=AXIS2_PLACEMENT_3D('',#978,#749,#750);
#664=AXIS2_PLACEMENT_3D('',#979,#751,#752);
#665=AXIS2_PLACEMENT_3D('',#980,#753,#754);
#666=AXIS2_PLACEMENT_3D('',#986,#758,#759);
#667=AXIS2_PLACEMENT_3D('',#992,#763,#764);
#668=AXIS2_PLACEMENT_3D('',#994,#766,#767);
#669=AXIS2_PLACEMENT_3D('',#999,#768,#769);
#670=AXIS2_PLACEMENT_3D('',#1008,#774,#775);
#671=AXIS2_PLACEMENT_3D('',#1017,#780,#781);
#672=AXIS2_PLACEMENT_3D('',#1018,#782,#783);
#673=AXIS2_PLACEMENT_3D('',#1022,#785,#786);
#674=AXIS2_PLACEMENT_3D('',#1023,#787,#788);
#675=AXIS2_PLACEMENT_3D('',#1024,#789,#790);
#676=AXIS2_PLACEMENT_3D('',#1026,#791,#792);
#677=AXIS2_PLACEMENT_3D('',#1029,#794,#795);
#678=AXIS2_PLACEMENT_3D('',#1030,#796,#797);
#679=AXIS2_PLACEMENT_3D('',#1034,#799,#800);
#680=AXIS2_PLACEMENT_3D('',#1035,#801,#802);
#681=AXIS2_PLACEMENT_3D('',#1038,#804,#805);
#682=AXIS2_PLACEMENT_3D('',#1040,#807,#808);
#683=AXIS2_PLACEMENT_3D('',#1041,#809,#810);
#684=AXIS2_PLACEMENT_3D('',#1044,#812,#813);
#685=AXIS2_PLACEMENT_3D('',#1047,#816,#817);
#686=AXIS2_PLACEMENT_3D('',#1049,#819,#820);
#687=AXIS2_PLACEMENT_3D('',#1055,#824,#825);
#688=AXIS2_PLACEMENT_3D('',#1057,#827,#828);
#689=AXIS2_PLACEMENT_3D('',#1063,#832,#833);
#690=AXIS2_PLACEMENT_3D('',#1064,#834,#835);
#691=AXIS2_PLACEMENT_3D('',#1068,#837,#838);
#692=AXIS2_PLACEMENT_3D('',#1069,#839,#840);
#693=AXIS2_PLACEMENT_3D('',#1073,#842,#843);
#694=AXIS2_PLACEMENT_3D('',#1074,#844,#845);
#695=AXIS2_PLACEMENT_3D('',#1080,#849,#850);
#696=AXIS2_PLACEMENT_3D('',#1086,#854,#855);
#697=AXIS2_PLACEMENT_3D('',#1087,#856,#857);
#698=AXIS2_PLACEMENT_3D('',#1089,#859,#860);
#699=AXIS2_PLACEMENT_3D('',#1091,#862,#863);
#700=AXIS2_PLACEMENT_3D('',#1092,#864,#865);
#701=AXIS2_PLACEMENT_3D('',#1094,#867,#868);
#702=AXIS2_PLACEMENT_3D('',#1096,#870,#871);
#703=AXIS2_PLACEMENT_3D('',#1097,#872,#873);
#704=AXIS2_PLACEMENT_3D('',#1098,#874,#875);
#705=AXIS2_PLACEMENT_3D('',#1099,#876,#877);
#706=AXIS2_PLACEMENT_3D('',#1101,#879,#880);
#707=AXIS2_PLACEMENT_3D('',#1102,#881,#882);
#708=AXIS2_PLACEMENT_3D('',#1104,#884,#885);
#709=AXIS2_PLACEMENT_3D('',#1105,#886,#887);
#710=AXIS2_PLACEMENT_3D('',#1106,#888,#889);
#711=AXIS2_PLACEMENT_3D('',#1108,#890,#891);
#712=AXIS2_PLACEMENT_3D('',#1109,#892,#893);
#713=AXIS2_PLACEMENT_3D('',#1111,#894,#895);
#714=AXIS2_PLACEMENT_3D('',#1112,#896,#897);
#715=DIRECTION('',(0.,0.,1.));
#716=DIRECTION('',(1.,0.,0.));
#717=DIRECTION('',(0.,0.,-1.));
#718=DIRECTION('',(0.,-0.999999996468539,-8.40411956716835E-5));
#719=DIRECTION('',(1.,0.,0.));
#720=DIRECTION('',(0.,0.,-1.));
#721=DIRECTION('',(1.,0.,0.));
#722=DIRECTION('',(0.,0.,-1.));
#723=DIRECTION('',(0.,0.,1.));
#724=DIRECTION('',(0.,-1.,-7.20381673417149E-13));
#725=DIRECTION('',(1.,0.,0.));
#726=DIRECTION('',(0.,0.,-1.));
#727=DIRECTION('',(1.,0.,0.));
#728=DIRECTION('',(0.,0.,-1.));
#729=DIRECTION('',(-1.,0.,0.));
#730=DIRECTION('',(0.,0.,-1.));
#731=DIRECTION('',(1.,0.,0.));
#732=DIRECTION('',(0.,0.,-1.));
#733=DIRECTION('',(-1.,0.,0.));
#734=DIRECTION('',(0.,0.,-1.));
#735=DIRECTION('',(-1.,0.,0.));
#736=DIRECTION('',(0.,0.,-1.));
#737=DIRECTION('',(-1.,0.,0.));
#738=DIRECTION('',(0.,0.,1.));
#739=DIRECTION('',(1.,0.,0.));
#740=DIRECTION('',(0.,0.,1.));
#741=DIRECTION('',(-1.,0.,0.));
#742=DIRECTION('',(0.,0.,1.));
#743=DIRECTION('',(-1.,0.,0.));
#744=DIRECTION('',(0.,0.,1.));
#745=DIRECTION('',(-1.,0.,0.));
#746=DIRECTION('',(0.,0.,1.));
#747=DIRECTION('',(1.,0.,0.));
#748=DIRECTION('',(0.,0.,-1.));
#749=DIRECTION('',(-1.,0.,0.));
#750=DIRECTION('',(0.,0.,1.));
#751=DIRECTION('',(1.,0.,0.));
#752=DIRECTION('',(8.06623868588953E-17,0.,-1.));
#753=DIRECTION('',(-1.,0.,0.));
#754=DIRECTION('',(0.,0.,1.));
#755=DIRECTION('',(-0.999913856501336,0.0082796759873106,0.0101846228290619));
#756=DIRECTION('',(0.,0.,-1.));
#757=DIRECTION('',(0.997751104449612,-0.00826176755838671,-0.0665167404973378));
#758=DIRECTION('',(0.00828010543179971,0.999965719339437,0.));
#759=DIRECTION('',(-0.999965719339437,0.00828010543179971,0.));
#760=DIRECTION('',(-0.999940010924576,0.0040311111368402,0.0101845321522743));
#761=DIRECTION('',(0.997777085911123,-0.00402239162265473,-0.066518472594774));
#762=DIRECTION('',(0.,0.,-1.));
#763=DIRECTION('',(0.00403132021599226,0.999991874195644,0.));
#764=DIRECTION('',(-0.999991874195644,0.00403132021599226,0.));
#765=DIRECTION('',(0.,-1.,-7.20381673417149E-13));
#766=DIRECTION('',(0.0665190107235837,-7.18786141717942E-13,0.997785157843288));
#767=DIRECTION('',(-1.094526986406E-11,-1.,9.29811783123569E-15));
#768=DIRECTION('',(0.0101842761189019,-8.40368372041065E-5,0.999948135383903));
#769=DIRECTION('',(0.999948138914815,0.,-0.0101842761548636));
#770=DIRECTION('',(0.,1.,0.));
#771=DIRECTION('',(-1.,0.,0.));
#772=DIRECTION('',(0.,1.,0.));
#773=DIRECTION('',(-1.,0.,0.));
#774=DIRECTION('',(0.,0.,1.));
#775=DIRECTION('',(1.,0.,0.));
#776=DIRECTION('',(0.,1.,0.));
#777=DIRECTION('',(-1.,0.,0.));
#778=DIRECTION('',(0.,1.,0.));
#779=DIRECTION('',(-1.,0.,0.));
#780=DIRECTION('',(0.,0.,1.));
#781=DIRECTION('',(1.,0.,0.));
#782=DIRECTION('',(-1.,0.,0.));
#783=DIRECTION('',(0.,-1.,-1.72486709259058E-16));
#784=DIRECTION('',(-1.,0.,0.));
#785=DIRECTION('',(-0.99852436696539,0.,-0.0543055114732138));
#786=DIRECTION('',(-0.0543055114732138,0.,0.99852436696539));
#787=DIRECTION('',(-1.,0.,0.));
#788=DIRECTION('',(0.,0.,1.));
#789=DIRECTION('',(-1.,0.,0.));
#790=DIRECTION('',(0.,-1.,-1.72486709259058E-16));
#791=DIRECTION('',(-0.99852436696539,0.,-0.0543055114732138));
#792=DIRECTION('',(-0.0543055114732138,0.,0.99852436696539));
#793=DIRECTION('',(-1.,0.,0.));
#794=DIRECTION('',(-1.,0.,0.));
#795=DIRECTION('',(0.,0.,1.));
#796=DIRECTION('',(-1.,0.,0.));
#797=DIRECTION('',(0.,0.,1.));
#798=DIRECTION('',(-1.,0.,0.));
#799=DIRECTION('',(-0.99852436696539,0.,-0.0543055114732138));
#800=DIRECTION('',(-0.0543055114732138,0.,0.99852436696539));
#801=DIRECTION('',(-1.,0.,0.));
#802=DIRECTION('',(0.,0.,1.));
#803=DIRECTION('',(0.,-1.,0.));
#804=DIRECTION('',(-0.99852436696539,0.,-0.0543055114732138));
#805=DIRECTION('',(-0.0543055114732138,0.,0.99852436696539));
#806=DIRECTION('',(0.,-1.,0.));
#807=DIRECTION('',(-0.99852436696539,0.,-0.0543055114732138));
#808=DIRECTION('',(-0.0543055114732138,0.,0.99852436696539));
#809=DIRECTION('',(-1.,0.,0.));
#810=DIRECTION('',(0.,0.,1.));
#811=DIRECTION('',(-1.,0.,0.));
#812=DIRECTION('',(-1.,0.,0.));
#813=DIRECTION('',(0.,0.,1.));
#814=DIRECTION('',(0.,0.,1.));
#815=DIRECTION('',(0.,0.,-1.));
#816=DIRECTION('',(-1.,0.,0.));
#817=DIRECTION('',(0.,0.,1.));
#818=DIRECTION('',(0.,1.,0.));
#819=DIRECTION('',(0.,0.,-1.));
#820=DIRECTION('',(-1.,0.,0.));
#821=DIRECTION('',(0.,0.,1.));
#822=DIRECTION('',(-0.823844724418879,0.389101507802932,0.412164878019302));
#823=DIRECTION('',(-0.823844724418879,0.389101507802932,0.412164878019302));
#824=DIRECTION('',(-0.427063490551541,-0.904221640438855,0.));
#825=DIRECTION('',(0.904221640438855,-0.427063490551541,0.));
#826=DIRECTION('',(0.,-1.,0.));
#827=DIRECTION('',(0.,0.,-1.));
#828=DIRECTION('',(-1.,0.,0.));
#829=DIRECTION('',(0.,0.,-1.));
#830=DIRECTION('',(-0.808779308043396,-0.426793189892807,0.404627735013268));
#831=DIRECTION('',(-0.808779308043396,-0.426793189892807,0.404627735013268));
#832=DIRECTION('',(-0.46670511588358,0.884412988828236,0.));
#833=DIRECTION('',(-0.884412988828237,-0.46670511588358,0.));
#834=DIRECTION('',(1.,0.,0.));
#835=DIRECTION('',(0.,0.,-1.));
#836=DIRECTION('',(0.,-1.,0.));
#837=DIRECTION('',(1.,0.,0.));
#838=DIRECTION('',(0.,0.,-1.));
#839=DIRECTION('',(1.,0.,0.));
#840=DIRECTION('',(0.,0.,-1.));
#841=DIRECTION('',(0.,-1.,0.));
#842=DIRECTION('',(1.,0.,0.));
#843=DIRECTION('',(0.,0.,-1.));
#844=DIRECTION('',(1.,0.,0.));
#845=DIRECTION('',(0.,0.,-1.));
#846=DIRECTION('',(0.,-1.,0.));
#847=DIRECTION('',(-1.,0.,0.));
#848=DIRECTION('',(-1.,0.,0.));
#849=DIRECTION('',(0.,0.,-1.));
#850=DIRECTION('',(-1.,0.,0.));
#851=DIRECTION('',(0.,-1.,0.));
#852=DIRECTION('',(-1.,0.,0.));
#853=DIRECTION('',(-1.,0.,0.));
#854=DIRECTION('',(0.,0.,-1.));
#855=DIRECTION('',(-1.,0.,0.));
#856=DIRECTION('',(1.,0.,0.));
#857=DIRECTION('',(0.,-1.,1.80700362080917E-16));
#858=DIRECTION('',(-1.,0.,0.));
#859=DIRECTION('',(-1.,0.,0.));
#860=DIRECTION('',(0.,0.,1.));
#861=DIRECTION('',(0.,1.,0.));
#862=DIRECTION('',(0.447424192877352,0.,0.894321861316188));
#863=DIRECTION('',(0.894321861316188,0.,-0.447424192877352));
#864=DIRECTION('',(1.,0.,0.));
#865=DIRECTION('',(0.,0.,-1.));
#866=DIRECTION('',(-1.,0.,0.));
#867=DIRECTION('',(-1.,0.,0.));
#868=DIRECTION('',(0.,0.,1.));
#869=DIRECTION('',(0.,-1.,0.));
#870=DIRECTION('',(-0.447424192877352,0.,-0.894321861316188));
#871=DIRECTION('',(-0.894321861316188,0.,0.447424192877352));
#872=DIRECTION('',(1.,0.,0.));
#873=DIRECTION('',(0.,0.,-1.));
#874=DIRECTION('',(1.,0.,0.));
#875=DIRECTION('',(0.,-1.,1.80700362080917E-16));
#876=DIRECTION('',(1.,0.,0.));
#877=DIRECTION('',(0.,0.,-1.));
#878=DIRECTION('',(-1.,0.,0.));
#879=DIRECTION('',(-1.,0.,0.));
#880=DIRECTION('',(0.,0.,1.));
#881=DIRECTION('',(0.,0.,1.));
#882=DIRECTION('',(1.,0.,0.));
#883=DIRECTION('',(-1.,0.,0.));
#884=DIRECTION('',(-1.,0.,0.));
#885=DIRECTION('',(0.,0.,1.));
#886=DIRECTION('',(0.,0.,1.));
#887=DIRECTION('',(1.,0.,0.));
#888=DIRECTION('',(-1.,0.,0.));
#889=DIRECTION('',(0.,0.,-1.));
#890=DIRECTION('',(1.,0.,0.));
#891=DIRECTION('',(0.,0.,-1.));
#892=DIRECTION('',(-1.,0.,0.));
#893=DIRECTION('',(0.,0.,1.));
#894=DIRECTION('',(-1.,0.,0.));
#895=DIRECTION('',(0.,0.,1.));
#896=DIRECTION('',(-1.,0.,0.));
#897=DIRECTION('',(0.,0.,1.));
#898=CARTESIAN_POINT('',(0.,0.,0.));
#899=CARTESIAN_POINT('',(0.,0.812935744857062,0.977581033386637));
#900=CARTESIAN_POINT('',(3.20131154057492E-5,0.812934970520054,-1.14853114060592));
#901=CARTESIAN_POINT('',(-5.84876409863324E-7,0.812935605896851,-1.65605262516319));
#902=CARTESIAN_POINT('',(0.,-0.0407265221671692,-1.65612437390045));
#903=CARTESIAN_POINT('',(0.00105913809516982,-0.879214745409555,-1.65609560728789));
#904=CARTESIAN_POINT('',(0.,0.,0.));
#905=CARTESIAN_POINT('',(0.,0.812935744857062,-1.68966473459449));
#906=CARTESIAN_POINT('',(0.,0.812959502529941,-1.68965334438768));
#907=CARTESIAN_POINT('',(0.,1.48643217021173,-1.36676276319631));
#908=CARTESIAN_POINT('',(0.,1.9058712438863,-0.65794741313848));
#909=CARTESIAN_POINT('',(0.,1.87315108464579,0.0825944525360088));
#910=CARTESIAN_POINT('',(-4.01933205785162E-32,1.87320748669462,0.0825969664237199));
#911=CARTESIAN_POINT('',(0.,1.87326388874346,0.0825994803114301));
#912=CARTESIAN_POINT('',(0.,1.83262845422513,1.03313791143481));
#913=CARTESIAN_POINT('',(0.,0.981347797744124,1.8646575397582));
#914=CARTESIAN_POINT('',(0.,0.018862049135272,1.87490512376025));
#915=CARTESIAN_POINT('',(-4.01933205785162E-32,0.0188620491352719,1.87490512376025));
#916=CARTESIAN_POINT('',(0.,0.,0.));
#917=CARTESIAN_POINT('',(-4.01933205785162E-32,-0.0188620491352723,1.87490512376025));
#918=CARTESIAN_POINT('',(0.,-0.0188620491352719,1.87490512376025));
#919=CARTESIAN_POINT('',(0.,-0.97995207710192,1.86467239999332));
#920=CARTESIAN_POINT('',(0.,-1.83229608788707,1.03537797832587));
#921=CARTESIAN_POINT('',(0.,-1.87322789649083,0.082598992202349));
#922=CARTESIAN_POINT('',(-4.01933205785162E-32,-1.87318946675887,0.082597261234801));
#923=CARTESIAN_POINT('',(0.,-1.87315103702692,0.082595530267251));
#924=CARTESIAN_POINT('',(0.,-1.90482100717909,-0.634168454645947));
#925=CARTESIAN_POINT('',(0.,-1.51297509688144,-1.3211937114016));
#926=CARTESIAN_POINT('',(0.,-0.879467076623151,-1.65619569267014));
#927=CARTESIAN_POINT('',(0.,-0.879415989775544,-1.24655631988961));
#928=CARTESIAN_POINT('',(0.,-0.879415989775544,-1.14852900639944));
#929=CARTESIAN_POINT('',(0.,-0.945163481742429,-1.14852900639948));
#930=CARTESIAN_POINT('',(0.,-0.94516348174396,0.977581033386637));
#931=CARTESIAN_POINT('',(-1.2,0.,0.));
#932=CARTESIAN_POINT('',(-1.2,0.,-2.35));
#933=CARTESIAN_POINT('',(-1.2,0.,0.));
#934=CARTESIAN_POINT('',(-1.2,0.,-1.875));
#935=CARTESIAN_POINT('',(-1.2,0.,-2.35));
#936=CARTESIAN_POINT('',(-6.19244987215,0.,0.));
#937=CARTESIAN_POINT('',(-6.19244987215,0.,-1.2));
#938=CARTESIAN_POINT('',(-14.99020410289,0.,0.));
#939=CARTESIAN_POINT('',(-14.99020410289,0.,-1.2));
#940=CARTESIAN_POINT('',(-9.65740990911832,0.,0.));
#941=CARTESIAN_POINT('',(-16.5393974413729,0.,0.));
#942=CARTESIAN_POINT('',(-16.539397441373,0.,5.42101086242752E-16));
#943=CARTESIAN_POINT('',(-16.539397441373,1.0842021724855E-15,5.42101086242752E-16));
#944=CARTESIAN_POINT('',(-16.539397441373,1.0842021724855E-15,-5.42101086242752E-16));
#945=CARTESIAN_POINT('',(-16.539397441373,0.,-5.42101086242752E-16));
#946=CARTESIAN_POINT('',(-16.539397441373,-1.0842021724855E-15,-5.42101086242752E-16));
#947=CARTESIAN_POINT('',(-16.539397441373,-1.0842021724855E-15,5.42101086242752E-16));
#948=CARTESIAN_POINT('',(-16.539397441373,0.,5.42101086242752E-16));
#949=CARTESIAN_POINT('',(-16.3495982942497,0.,0.735088935932649));
#950=CARTESIAN_POINT('',(-16.3495982942497,1.4701778718653,0.735088935932649));
#951=CARTESIAN_POINT('',(-16.3495982942497,1.4701778718653,-0.735088935932649));
#952=CARTESIAN_POINT('',(-16.3495982942497,0.,-0.735088935932649));
#953=CARTESIAN_POINT('',(-16.3495982942497,-1.4701778718653,-0.735088935932649));
#954=CARTESIAN_POINT('',(-16.3495982942497,-1.4701778718653,0.735088935932649));
#955=CARTESIAN_POINT('',(-16.3495982942497,0.,0.735088935932649));
#956=CARTESIAN_POINT('',(-15.7494006913829,0.,1.2));
#957=CARTESIAN_POINT('',(-15.7494006913829,2.4,1.2));
#958=CARTESIAN_POINT('',(-15.7494006913829,2.4,-1.2));
#959=CARTESIAN_POINT('',(-15.7494006913829,0.,-1.2));
#960=CARTESIAN_POINT('',(-15.7494006913829,-2.4,-1.2));
#961=CARTESIAN_POINT('',(-15.7494006913829,-2.4,1.2));
#962=CARTESIAN_POINT('',(-15.7494006913829,0.,1.2));
#963=CARTESIAN_POINT('',(-14.99020410289,0.,1.2));
#964=CARTESIAN_POINT('',(-14.99020410289,2.4,1.2));
#965=CARTESIAN_POINT('',(-14.99020410289,2.4,-1.2));
#966=CARTESIAN_POINT('',(-14.99020410289,0.,-1.2));
#967=CARTESIAN_POINT('',(-14.99020410289,-2.4,-1.2));
#968=CARTESIAN_POINT('',(-14.99020410289,-2.4,1.2));
#969=CARTESIAN_POINT('',(-14.99020410289,0.,1.2));
#970=CARTESIAN_POINT('',(-2.5,0.,0.));
#971=CARTESIAN_POINT('',(-2.5,0.,2.35));
#972=CARTESIAN_POINT('',(-9.65740990911832,0.,0.));
#973=CARTESIAN_POINT('',(-2.5,0.,0.));
#974=CARTESIAN_POINT('',(-2.5,0.,1.875));
#975=CARTESIAN_POINT('',(-2.5,0.,-1.875));
#976=CARTESIAN_POINT('',(-5.04879763019,0.,0.));
#977=CARTESIAN_POINT('',(-5.04879763019,0.,-1.875));
#978=CARTESIAN_POINT('',(-9.65740990911832,0.,0.));
#979=CARTESIAN_POINT('',(-6.19244987215,0.,0.));
#980=CARTESIAN_POINT('',(-9.65740990911832,0.,0.));
#981=CARTESIAN_POINT('',(0.892856806344878,-0.886809191711426,-1.66528905158496));
#982=CARTESIAN_POINT('',(1.8,-0.89432069049577,-1.67452900676028));
#983=CARTESIAN_POINT('',(1.8,-0.89432069049577,-1.24655631988961));
#984=CARTESIAN_POINT('',(1.8,-0.89432069049577,-1.26852900676028));
#985=CARTESIAN_POINT('',(0.00676076533846717,-0.879471971544439,-1.14897972409003));
#986=CARTESIAN_POINT('',(0.000256104923245904,-0.879418110424008,-1.24655631988961));
#987=CARTESIAN_POINT('',(-0.00322206940401661,0.812948734156136,-1.65601981386445));
#988=CARTESIAN_POINT('',(1.8,0.805679309504066,-1.67445744776607));
#989=CARTESIAN_POINT('',(0.0126857944421452,0.81288460394191,-1.14937472603025));
#990=CARTESIAN_POINT('',(1.8,0.805679309503902,-1.26852900676028));
#991=CARTESIAN_POINT('',(1.8,0.805679309503902,-0.474529006760281));
#992=CARTESIAN_POINT('',(0.,0.812935744857062,-1.33966473459449));
#993=CARTESIAN_POINT('',(1.8,-0.0434018702502808,-1.26852900676089));
#994=CARTESIAN_POINT('',(0.600256104926897,-0.0434018702503385,-1.18854608018136));
#995=CARTESIAN_POINT('',(1.8,0.805679309503902,-1.67438588877185));
#996=CARTESIAN_POINT('',(1.8,0.239012642837345,-1.67443351211623));
#997=CARTESIAN_POINT('',(1.8,-0.327654023829213,-1.67448113546061));
#998=CARTESIAN_POINT('',(1.8,-0.89432069049577,-1.67452875880499));
#999=CARTESIAN_POINT('',(0.8998627040729,-0.0407257519358677,-1.66528929941844));
#1000=CARTESIAN_POINT('',(7.,-0.0499999999967846,1.925));
#1001=CARTESIAN_POINT('',(7.,-0.0499999999968454,1.925));
#1002=CARTESIAN_POINT('',(7.,0.0500000000031545,1.925));
#1003=CARTESIAN_POINT('',(8.9,-0.0499999999968454,1.925));
#1004=CARTESIAN_POINT('',(9.95044748598202,-0.0499999999968454,1.925));
#1005=CARTESIAN_POINT('',(9.95044748598202,1.72875303305627,1.925));
#1006=CARTESIAN_POINT('',(9.95044748598202,0.0500000000031545,1.925));
#1007=CARTESIAN_POINT('',(8.9,0.0500000000031545,1.925));
#1008=CARTESIAN_POINT('',(8.9,-0.0499999999967846,1.925));
#1009=CARTESIAN_POINT('',(7.,0.0500000000031546,1.519));
#1010=CARTESIAN_POINT('',(7.,-0.0499999999968448,1.519));
#1011=CARTESIAN_POINT('',(7.,0.0500000000031545,1.519));
#1012=CARTESIAN_POINT('',(8.9,0.0500000000031545,1.519));
#1013=CARTESIAN_POINT('',(9.97252810653326,0.0500000000031545,1.519));
#1014=CARTESIAN_POINT('',(9.97252810653326,1.72875303305627,1.519));
#1015=CARTESIAN_POINT('',(9.97252810653326,-0.0499999999968448,1.519));
#1016=CARTESIAN_POINT('',(8.9,-0.0499999999968448,1.519));
#1017=CARTESIAN_POINT('',(8.9,-0.0499999999967846,1.519));
#1018=CARTESIAN_POINT('',(7.,-0.0499999999968448,-0.275));
#1019=CARTESIAN_POINT('',(7.,-0.0499999999967846,-2.475));
#1020=CARTESIAN_POINT('',(8.9,-0.0499999999967846,-2.475));
#1021=CARTESIAN_POINT('',(10.1897448515619,-0.0499999999967846,-2.475));
#1022=CARTESIAN_POINT('',(10.070096168772,-0.0499999999968448,-0.275));
#1023=CARTESIAN_POINT('',(8.9,-0.0499999999968448,-0.275));
#1024=CARTESIAN_POINT('',(7.,0.0500000000031546,-0.275));
#1025=CARTESIAN_POINT('',(7.,0.0500000000031553,-2.475));
#1026=CARTESIAN_POINT('',(10.070096168772,0.0500000000031546,-0.275));
#1027=CARTESIAN_POINT('',(10.1897448515619,0.0500000000031554,-2.475));
#1028=CARTESIAN_POINT('',(8.9,0.0500000000031554,-2.475));
#1029=CARTESIAN_POINT('',(8.9,0.0500000000031546,-0.275));
#1030=CARTESIAN_POINT('',(7.,0.0500000000031546,-0.275));
#1031=CARTESIAN_POINT('',(7.,0.0500000000031554,-2.069));
#1032=CARTESIAN_POINT('',(8.9,0.0500000000031556,-2.069));
#1033=CARTESIAN_POINT('',(10.1676642310107,0.0500000000031556,-2.069));
#1034=CARTESIAN_POINT('',(10.070096168772,0.0500000000031546,-0.275));
#1035=CARTESIAN_POINT('',(8.9,0.0500000000031546,-0.275));
#1036=CARTESIAN_POINT('',(10.1676642310107,1.72875303305627,-2.069));
#1037=CARTESIAN_POINT('',(10.1676642310107,-0.0499999999967846,-2.069));
#1038=CARTESIAN_POINT('',(10.070096168772,-0.0499999999968448,-0.275));
#1039=CARTESIAN_POINT('',(10.1897448515619,1.72875303305627,-2.475));
#1040=CARTESIAN_POINT('',(10.0961700992817,1.72875303305627,-0.754425646684397));
#1041=CARTESIAN_POINT('',(7.,-0.0499999999968448,-0.275));
#1042=CARTESIAN_POINT('',(7.,-0.0499999999967845,-2.069));
#1043=CARTESIAN_POINT('',(8.9,-0.0499999999967846,-2.069));
#1044=CARTESIAN_POINT('',(8.9,-0.0499999999968448,-0.275));
#1045=CARTESIAN_POINT('',(7.,0.0500000000031553,-1.67452900676028));
#1046=CARTESIAN_POINT('',(7.,-0.0499999999967845,-2.03732170328549));
#1047=CARTESIAN_POINT('',(7.,0.0500000000031546,-0.275));
#1048=CARTESIAN_POINT('',(7.,-0.0834136296994362,-2.475));
#1049=CARTESIAN_POINT('',(8.9,0.0500000000031546,-2.475));
#1050=CARTESIAN_POINT('',(5.4,0.805679309503902,-1.67452900676028));
#1051=CARTESIAN_POINT('',(5.4,0.805679309503902,-1.67452900676028));
#1052=CARTESIAN_POINT('',(5.4,0.805679309503902,-1.26852900676028));
#1053=CARTESIAN_POINT('',(6.44408351655516,0.312559115221704,-1.79087811271162));
#1054=CARTESIAN_POINT('',(5.4,0.805679309503902,-1.67452900676028));
#1055=CARTESIAN_POINT('',(5.4,0.805679309503902,-1.67452900676028));
#1056=CARTESIAN_POINT('',(7.,1.61658637030024,-2.069));
#1057=CARTESIAN_POINT('',(8.9,0.0500000000031546,-2.069));
#1058=CARTESIAN_POINT('',(5.4,-0.89432069049577,-1.26852900676028));
#1059=CARTESIAN_POINT('',(5.4,-0.89432069049577,-1.26852900676028));
#1060=CARTESIAN_POINT('',(5.4,-0.89432069049577,-1.67452900676028));
#1061=CARTESIAN_POINT('',(6.93668068528245,-0.0834136296994362,-2.44332170328549));
#1062=CARTESIAN_POINT('',(6.93668068528245,-0.0834136296994362,-2.03732170328549));
#1063=CARTESIAN_POINT('',(6.93668068528245,-0.0834136296994362,-2.03732170328549));
#1064=CARTESIAN_POINT('',(5.4,0.80567930950423,-0.474529006760281));
#1065=CARTESIAN_POINT('',(5.4,0.80567930950423,0.725470993239719));
#1066=CARTESIAN_POINT('',(5.4,0.805679309503902,0.725470993239719));
#1067=CARTESIAN_POINT('',(5.4,-0.894320690495769,0.725470993239719));
#1068=CARTESIAN_POINT('',(5.4,-0.89432069049577,-0.474529006760281));
#1069=CARTESIAN_POINT('',(5.4,-0.89432069049577,-0.474529006760281));
#1070=CARTESIAN_POINT('',(5.4,-0.894320690495769,0.319470993239719));
#1071=CARTESIAN_POINT('',(5.4,0.805679309503902,0.319470993239719));
#1072=CARTESIAN_POINT('',(5.4,0.80567930950423,0.319470993239719));
#1073=CARTESIAN_POINT('',(5.4,0.80567930950423,-0.474529006760281));
#1074=CARTESIAN_POINT('',(5.4,0.,0.325));
#1075=CARTESIAN_POINT('',(1.8,0.805679309503902,0.319470993239719));
#1076=CARTESIAN_POINT('',(1.8,0.80567930950423,0.319470993239719));
#1077=CARTESIAN_POINT('',(1.8,-0.894320690495769,0.319470993239719));
#1078=CARTESIAN_POINT('',(3.7,0.80567930950423,0.319470993239719));
#1079=CARTESIAN_POINT('',(3.7,-0.894320690495769,0.319470993239719));
#1080=CARTESIAN_POINT('',(3.7,0.805679309503902,0.319470993239719));
#1081=CARTESIAN_POINT('',(1.8,0.805679309503902,0.725470993239719));
#1082=CARTESIAN_POINT('',(1.8,0.80567930950423,0.725470993239719));
#1083=CARTESIAN_POINT('',(1.8,-0.894320690495769,0.725470993239719));
#1084=CARTESIAN_POINT('',(3.7,-0.894320690495769,0.725470993239719));
#1085=CARTESIAN_POINT('',(3.7,0.80567930950423,0.725470993239719));
#1086=CARTESIAN_POINT('',(3.7,0.805679309503902,0.725470993239719));
#1087=CARTESIAN_POINT('',(1.8,-0.89432069049577,-0.474529006760281));
#1088=CARTESIAN_POINT('',(3.7,-0.89432069049577,-1.67452900676028));
#1089=CARTESIAN_POINT('',(3.7,-0.89432069049577,-0.474529006760281));
#1090=CARTESIAN_POINT('',(5.4,-0.89432069049577,-1.67452900676028));
#1091=CARTESIAN_POINT('',(6.93668068528245,-0.0834136296994362,-2.44332170328549));
#1092=CARTESIAN_POINT('',(1.8,0.80567930950423,-0.474529006760281));
#1093=CARTESIAN_POINT('',(3.7,0.805679309504013,-1.26852900676028));
#1094=CARTESIAN_POINT('',(3.7,0.80567930950423,-0.474529006760281));
#1095=CARTESIAN_POINT('',(5.4,0.805679309503902,-1.26852900676028));
#1096=CARTESIAN_POINT('',(6.93668068528245,1.61658637030024,-2.03732170328549));
#1097=CARTESIAN_POINT('',(1.8,-0.89432069049577,-0.474529006760281));
#1098=CARTESIAN_POINT('',(1.8,0.80567930950423,-0.474529006760281));
#1099=CARTESIAN_POINT('',(1.8,-0.89432069049577,-0.474529006760281));
#1100=CARTESIAN_POINT('',(3.7,-0.89432069049577,-1.26852900676028));
#1101=CARTESIAN_POINT('',(3.7,-0.89432069049577,-0.474529006760281));
#1102=CARTESIAN_POINT('',(3.7,-0.89432069049577,-1.26852900676028));
#1103=CARTESIAN_POINT('',(3.7,0.805679309503902,-1.67452900676028));
#1104=CARTESIAN_POINT('',(3.7,0.80567930950423,-0.474529006760281));
#1105=CARTESIAN_POINT('',(3.7,-0.89432069049577,-1.67452900676028));
#1106=CARTESIAN_POINT('',(-1.606,0.,0.));
#1107=CARTESIAN_POINT('',(-1.606,0.,-1.944));
#1108=CARTESIAN_POINT('',(-1.606,0.,-2.35));
#1109=CARTESIAN_POINT('',(-2.094,0.,0.));
#1110=CARTESIAN_POINT('',(-2.094,0.,1.944));
#1111=CARTESIAN_POINT('',(-9.65740990911832,0.,0.));
#1112=CARTESIAN_POINT('',(-2.094,0.,-1.875));
#1113=MECHANICAL_DESIGN_GEOMETRIC_PRESENTATION_REPRESENTATION('',(#32),
#1114);
#1114=(
GEOMETRIC_REPRESENTATION_CONTEXT(3)
GLOBAL_UNCERTAINTY_ASSIGNED_CONTEXT((#1115))
GLOBAL_UNIT_ASSIGNED_CONTEXT((#1121,#1117,#1116))
REPRESENTATION_CONTEXT('13783284_3D_STP','TOP_LEVEL_ASSEMBLY_PART')
);
#1115=UNCERTAINTY_MEASURE_WITH_UNIT(LENGTH_MEASURE(0.0508),#1121,
'DISTANCE_ACCURACY_VALUE','Maximum Tolerance applied to model');
#1116=(
NAMED_UNIT(*)
SI_UNIT($,.STERADIAN.)
SOLID_ANGLE_UNIT()
);
#1117=(
CONVERSION_BASED_UNIT('DEGREE',#1119)
NAMED_UNIT(#1118)
PLANE_ANGLE_UNIT()
);
#1118=DIMENSIONAL_EXPONENTS(0.,0.,0.,0.,0.,0.,0.);
#1119=PLANE_ANGLE_MEASURE_WITH_UNIT(PLANE_ANGLE_MEASURE(0.0174532925),#1120);
#1120=(
NAMED_UNIT(*)
PLANE_ANGLE_UNIT()
SI_UNIT($,.RADIAN.)
);
#1121=(
LENGTH_UNIT()
NAMED_UNIT(*)
SI_UNIT(.MILLI.,.METRE.)
);
ENDSEC;
END-ISO-10303-21;
