ISO-10303-21;
HEADER;
/* Generated by software containing ST-Developer
 * from STEP Tools, Inc. (www.steptools.com) 
 */
/* OPTION: using custom schema-name function */

FILE_DESCRIPTION(
/* description */ (''),
/* implementation_level */ '2;1');

FILE_NAME(
/* name */ '12052139_3D_STP.stp',
/* time_stamp */ '2024-04-22T18:25:37+06:00',
/* author */ (''),
/* organization */ (''),
/* preprocessor_version */ 'ST-DEVELOPER v16',
/* originating_system */ 'SIEMENS PLM Software NX 11.0',
/* authorisation */ '');

FILE_SCHEMA (('AUTOMOTIVE_DESIGN { 1 0 10303 214 3 1 1 1 }'));
ENDSEC;

DATA;
#10=PROPERTY_DEFINITION_REPRESENTATION(#14,#12);
#11=PROPERTY_DEFINITION_REPRESENTATION(#15,#13);
#12=REPRESENTATION('',(#16),#2274);
#13=REPRESENTATION('',(#17),#2274);
#14=PROPERTY_DEFINITION('pmi validation property','',#21);
#15=PROPERTY_DEFINITION('pmi validation property','',#21);
#16=VALUE_REPRESENTATION_ITEM('number of annotations',COUNT_MEASURE(0.));
#17=VALUE_REPRESENTATION_ITEM('number of views',COUNT_MEASURE(0.));
#18=SHAPE_REPRESENTATION_RELATIONSHIP('None',
'relationship between hy3t598C8991btq5-None and hy3t598C8991btq5-None',
#30,#19);
#19=ADVANCED_BREP_SHAPE_REPRESENTATION('hy3t598C8991btq5-None',(#40),#2274);
#20=SHAPE_DEFINITION_REPRESENTATION(#21,#30);
#21=PRODUCT_DEFINITION_SHAPE('','',#22);
#22=PRODUCT_DEFINITION(' ','',#24,#23);
#23=PRODUCT_DEFINITION_CONTEXT('part definition',#29,'design');
#24=PRODUCT_DEFINITION_FORMATION_WITH_SPECIFIED_SOURCE(' ',' ',#26,
 .NOT_KNOWN.);
#25=PRODUCT_RELATED_PRODUCT_CATEGORY('part','',(#26));
#26=PRODUCT('hy3t598C8991btq5','hy3t598C8991btq5',' ',(#27));
#27=PRODUCT_CONTEXT(' ',#29,'mechanical');
#28=APPLICATION_PROTOCOL_DEFINITION('international standard',
'automotive_design',2010,#29);
#29=APPLICATION_CONTEXT(
'core data for automotive mechanical design processes');
#30=SHAPE_REPRESENTATION('hy3t598C8991btq5-None',(#1403),#2274);
#31=PRESENTATION_LAYER_ASSIGNMENT('1','Layer 1',(#40));
#32=STYLED_ITEM('',(#33),#40);
#33=PRESENTATION_STYLE_ASSIGNMENT((#34));
#34=SURFACE_STYLE_USAGE(.BOTH.,#35);
#35=SURFACE_SIDE_STYLE('',(#36));
#36=SURFACE_STYLE_FILL_AREA(#37);
#37=FILL_AREA_STYLE('',(#38));
#38=FILL_AREA_STYLE_COLOUR('',#39);
#39=DRAUGHTING_PRE_DEFINED_COLOUR('magenta');
#40=MANIFOLD_SOLID_BREP('',#41);
#41=CLOSED_SHELL('',(#94,#95,#96,#97,#98,#99,#100,#101,#102,#103,#104,#105,
#106,#107,#108,#109,#110,#111,#112,#113,#114,#115,#116,#117,#118,#119,#120,
#121,#122,#123,#124,#125,#126,#127,#128,#129,#130,#131,#132,#133,#134,#135,
#136,#137,#138,#139,#140,#141,#142,#143,#144,#145,#146,#147,#148,#149,#150,
#151,#152,#153,#154,#155,#156,#157,#158,#159,#160,#161,#162,#163,#164,#165));
#42=B_SPLINE_CURVE_WITH_KNOTS('',3,(#2072,#2073,#2074,#2075),
 .UNSPECIFIED.,.F.,.F.,(4,4),(0.,1.),.UNSPECIFIED.);
#43=B_SPLINE_CURVE_WITH_KNOTS('',3,(#2079,#2080,#2081,#2082),
 .UNSPECIFIED.,.F.,.F.,(4,4),(0.,1.),.UNSPECIFIED.);
#44=FACE_BOUND('',#310,.T.);
#45=FACE_BOUND('',#311,.T.);
#46=FACE_BOUND('',#312,.T.);
#47=FACE_BOUND('',#335,.T.);
#48=FACE_BOUND('',#336,.T.);
#49=CYLINDRICAL_SURFACE('',#1415,6.05);
#50=CYLINDRICAL_SURFACE('',#1439,1.);
#51=CYLINDRICAL_SURFACE('',#1447,1.);
#52=CYLINDRICAL_SURFACE('',#1461,3.36409170873432);
#53=CYLINDRICAL_SURFACE('',#1464,3.36409170873432);
#54=CYLINDRICAL_SURFACE('',#1473,3.36409170873432);
#55=CYLINDRICAL_SURFACE('',#1474,3.36409170873432);
#56=CYLINDRICAL_SURFACE('',#1477,2.95809170873433);
#57=CYLINDRICAL_SURFACE('',#1479,2.95809170873433);
#58=CYLINDRICAL_SURFACE('',#1481,2.95809170873433);
#59=CYLINDRICAL_SURFACE('',#1482,2.95809170873432);
#60=CYLINDRICAL_SURFACE('',#1496,0.644);
#61=CYLINDRICAL_SURFACE('',#1497,0.644);
#62=CYLINDRICAL_SURFACE('',#1498,1.05);
#63=CYLINDRICAL_SURFACE('',#1499,1.05);
#64=CIRCLE('',#1413,6.05);
#65=CIRCLE('',#1414,6.05);
#66=CIRCLE('',#1419,1.);
#67=CIRCLE('',#1421,1.);
#68=CIRCLE('',#1450,3.36409170873432);
#69=CIRCLE('',#1451,3.36409170873432);
#70=CIRCLE('',#1452,3.36409170873432);
#71=CIRCLE('',#1453,3.36409170873432);
#72=CIRCLE('',#1454,2.95809170873433);
#73=CIRCLE('',#1455,2.95809170873433);
#74=CIRCLE('',#1456,2.95809170873433);
#75=CIRCLE('',#1457,2.95809170873432);
#76=CIRCLE('',#1460,3.36409170873432);
#77=CIRCLE('',#1463,3.36409170873432);
#78=CIRCLE('',#1466,2.95809170873432);
#79=CIRCLE('',#1467,3.36409170873432);
#80=CIRCLE('',#1468,3.36409170873432);
#81=CIRCLE('',#1469,2.95809170873433);
#82=CIRCLE('',#1470,2.95809170873433);
#83=CIRCLE('',#1471,2.95809170873433);
#84=CIRCLE('',#1484,0.644);
#85=CIRCLE('',#1485,1.05);
#86=CIRCLE('',#1486,1.05);
#87=CIRCLE('',#1487,0.644);
#88=CIRCLE('',#1489,1.05);
#89=CIRCLE('',#1490,1.05);
#90=CIRCLE('',#1491,0.644);
#91=CIRCLE('',#1492,0.644);
#92=ELLIPSE('',#1409,1.00615390423749,1.);
#93=ELLIPSE('',#1411,1.00615390423749,1.);
#94=ADVANCED_FACE('',(#223),#166,.T.);
#95=ADVANCED_FACE('',(#224),#167,.T.);
#96=ADVANCED_FACE('',(#225),#168,.F.);
#97=ADVANCED_FACE('',(#226),#169,.T.);
#98=ADVANCED_FACE('',(#227),#170,.F.);
#99=ADVANCED_FACE('',(#228),#171,.T.);
#100=ADVANCED_FACE('',(#229),#172,.T.);
#101=ADVANCED_FACE('',(#230),#49,.T.);
#102=ADVANCED_FACE('',(#231),#173,.F.);
#103=ADVANCED_FACE('',(#232),#174,.F.);
#104=ADVANCED_FACE('',(#233),#175,.T.);
#105=ADVANCED_FACE('',(#234),#176,.T.);
#106=ADVANCED_FACE('',(#235),#177,.F.);
#107=ADVANCED_FACE('',(#236),#178,.T.);
#108=ADVANCED_FACE('',(#237),#179,.T.);
#109=ADVANCED_FACE('',(#238),#180,.T.);
#110=ADVANCED_FACE('',(#239),#181,.T.);
#111=ADVANCED_FACE('',(#44,#45,#46),#182,.T.);
#112=ADVANCED_FACE('',(#240),#183,.F.);
#113=ADVANCED_FACE('',(#241),#184,.T.);
#114=ADVANCED_FACE('',(#242),#185,.F.);
#115=ADVANCED_FACE('',(#243),#186,.F.);
#116=ADVANCED_FACE('',(#244),#187,.F.);
#117=ADVANCED_FACE('',(#245),#188,.T.);
#118=ADVANCED_FACE('',(#246),#189,.F.);
#119=ADVANCED_FACE('',(#247),#190,.F.);
#120=ADVANCED_FACE('',(#248),#191,.F.);
#121=ADVANCED_FACE('',(#249),#192,.F.);
#122=ADVANCED_FACE('',(#250),#193,.F.);
#123=ADVANCED_FACE('',(#251),#50,.T.);
#124=ADVANCED_FACE('',(#252),#194,.T.);
#125=ADVANCED_FACE('',(#253),#195,.T.);
#126=ADVANCED_FACE('',(#254),#196,.F.);
#127=ADVANCED_FACE('',(#255),#197,.T.);
#128=ADVANCED_FACE('',(#256),#198,.F.);
#129=ADVANCED_FACE('',(#257),#199,.F.);
#130=ADVANCED_FACE('',(#258),#200,.F.);
#131=ADVANCED_FACE('',(#259),#51,.F.);
#132=ADVANCED_FACE('',(#260),#201,.F.);
#133=ADVANCED_FACE('',(#261),#202,.F.);
#134=ADVANCED_FACE('',(#47,#48),#203,.T.);
#135=ADVANCED_FACE('',(#262),#204,.T.);
#136=ADVANCED_FACE('',(#263),#52,.T.);
#137=ADVANCED_FACE('',(#264),#205,.T.);
#138=ADVANCED_FACE('',(#265),#53,.T.);
#139=ADVANCED_FACE('',(#266),#206,.T.);
#140=ADVANCED_FACE('',(#267),#207,.T.);
#141=ADVANCED_FACE('',(#268),#54,.T.);
#142=ADVANCED_FACE('',(#269),#55,.T.);
#143=ADVANCED_FACE('',(#270),#208,.T.);
#144=ADVANCED_FACE('',(#271),#209,.F.);
#145=ADVANCED_FACE('',(#272),#56,.F.);
#146=ADVANCED_FACE('',(#273),#210,.F.);
#147=ADVANCED_FACE('',(#274),#57,.F.);
#148=ADVANCED_FACE('',(#275),#211,.F.);
#149=ADVANCED_FACE('',(#276),#58,.F.);
#150=ADVANCED_FACE('',(#277),#59,.F.);
#151=ADVANCED_FACE('',(#278),#212,.F.);
#152=ADVANCED_FACE('',(#279),#213,.T.);
#153=ADVANCED_FACE('',(#280),#214,.F.);
#154=ADVANCED_FACE('',(#281),#215,.F.);
#155=ADVANCED_FACE('',(#282),#216,.T.);
#156=ADVANCED_FACE('',(#283),#60,.F.);
#157=ADVANCED_FACE('',(#284),#61,.F.);
#158=ADVANCED_FACE('',(#285),#62,.T.);
#159=ADVANCED_FACE('',(#286),#63,.T.);
#160=ADVANCED_FACE('',(#287),#217,.T.);
#161=ADVANCED_FACE('',(#288),#218,.T.);
#162=ADVANCED_FACE('',(#289),#219,.T.);
#163=ADVANCED_FACE('',(#290),#220,.T.);
#164=ADVANCED_FACE('',(#291),#221,.T.);
#165=ADVANCED_FACE('',(#292),#222,.T.);
#166=PLANE('',#1404);
#167=PLANE('',#1405);
#168=PLANE('',#1406);
#169=PLANE('',#1407);
#170=PLANE('',#1408);
#171=PLANE('',#1410);
#172=PLANE('',#1412);
#173=PLANE('',#1416);
#174=PLANE('',#1417);
#175=PLANE('',#1418);
#176=PLANE('',#1420);
#177=PLANE('',#1422);
#178=PLANE('',#1423);
#179=PLANE('',#1424);
#180=PLANE('',#1425);
#181=PLANE('',#1426);
#182=PLANE('',#1427);
#183=PLANE('',#1428);
#184=PLANE('',#1429);
#185=PLANE('',#1430);
#186=PLANE('',#1431);
#187=PLANE('',#1432);
#188=PLANE('',#1433);
#189=PLANE('',#1434);
#190=PLANE('',#1435);
#191=PLANE('',#1436);
#192=PLANE('',#1437);
#193=PLANE('',#1438);
#194=PLANE('',#1440);
#195=PLANE('',#1441);
#196=PLANE('',#1442);
#197=PLANE('',#1443);
#198=PLANE('',#1444);
#199=PLANE('',#1445);
#200=PLANE('',#1446);
#201=PLANE('',#1448);
#202=PLANE('',#1449);
#203=PLANE('',#1458);
#204=PLANE('',#1459);
#205=PLANE('',#1462);
#206=PLANE('',#1465);
#207=PLANE('',#1472);
#208=PLANE('',#1475);
#209=PLANE('',#1476);
#210=PLANE('',#1478);
#211=PLANE('',#1480);
#212=PLANE('',#1483);
#213=PLANE('',#1488);
#214=PLANE('',#1493);
#215=PLANE('',#1494);
#216=PLANE('',#1495);
#217=PLANE('',#1500);
#218=PLANE('',#1501);
#219=PLANE('',#1502);
#220=PLANE('',#1503);
#221=PLANE('',#1504);
#222=PLANE('',#1505);
#223=FACE_OUTER_BOUND('',#293,.T.);
#224=FACE_OUTER_BOUND('',#294,.T.);
#225=FACE_OUTER_BOUND('',#295,.T.);
#226=FACE_OUTER_BOUND('',#296,.T.);
#227=FACE_OUTER_BOUND('',#297,.T.);
#228=FACE_OUTER_BOUND('',#298,.T.);
#229=FACE_OUTER_BOUND('',#299,.T.);
#230=FACE_OUTER_BOUND('',#300,.T.);
#231=FACE_OUTER_BOUND('',#301,.T.);
#232=FACE_OUTER_BOUND('',#302,.T.);
#233=FACE_OUTER_BOUND('',#303,.T.);
#234=FACE_OUTER_BOUND('',#304,.T.);
#235=FACE_OUTER_BOUND('',#305,.T.);
#236=FACE_OUTER_BOUND('',#306,.T.);
#237=FACE_OUTER_BOUND('',#307,.T.);
#238=FACE_OUTER_BOUND('',#308,.T.);
#239=FACE_OUTER_BOUND('',#309,.T.);
#240=FACE_OUTER_BOUND('',#313,.T.);
#241=FACE_OUTER_BOUND('',#314,.T.);
#242=FACE_OUTER_BOUND('',#315,.T.);
#243=FACE_OUTER_BOUND('',#316,.T.);
#244=FACE_OUTER_BOUND('',#317,.T.);
#245=FACE_OUTER_BOUND('',#318,.T.);
#246=FACE_OUTER_BOUND('',#319,.T.);
#247=FACE_OUTER_BOUND('',#320,.T.);
#248=FACE_OUTER_BOUND('',#321,.T.);
#249=FACE_OUTER_BOUND('',#322,.T.);
#250=FACE_OUTER_BOUND('',#323,.T.);
#251=FACE_OUTER_BOUND('',#324,.T.);
#252=FACE_OUTER_BOUND('',#325,.T.);
#253=FACE_OUTER_BOUND('',#326,.T.);
#254=FACE_OUTER_BOUND('',#327,.T.);
#255=FACE_OUTER_BOUND('',#328,.T.);
#256=FACE_OUTER_BOUND('',#329,.T.);
#257=FACE_OUTER_BOUND('',#330,.T.);
#258=FACE_OUTER_BOUND('',#331,.T.);
#259=FACE_OUTER_BOUND('',#332,.T.);
#260=FACE_OUTER_BOUND('',#333,.T.);
#261=FACE_OUTER_BOUND('',#334,.T.);
#262=FACE_OUTER_BOUND('',#337,.T.);
#263=FACE_OUTER_BOUND('',#338,.T.);
#264=FACE_OUTER_BOUND('',#339,.T.);
#265=FACE_OUTER_BOUND('',#340,.T.);
#266=FACE_OUTER_BOUND('',#341,.T.);
#267=FACE_OUTER_BOUND('',#342,.T.);
#268=FACE_OUTER_BOUND('',#343,.T.);
#269=FACE_OUTER_BOUND('',#344,.T.);
#270=FACE_OUTER_BOUND('',#345,.T.);
#271=FACE_OUTER_BOUND('',#346,.T.);
#272=FACE_OUTER_BOUND('',#347,.T.);
#273=FACE_OUTER_BOUND('',#348,.T.);
#274=FACE_OUTER_BOUND('',#349,.T.);
#275=FACE_OUTER_BOUND('',#350,.T.);
#276=FACE_OUTER_BOUND('',#351,.T.);
#277=FACE_OUTER_BOUND('',#352,.T.);
#278=FACE_OUTER_BOUND('',#353,.T.);
#279=FACE_OUTER_BOUND('',#354,.T.);
#280=FACE_OUTER_BOUND('',#355,.T.);
#281=FACE_OUTER_BOUND('',#356,.T.);
#282=FACE_OUTER_BOUND('',#357,.T.);
#283=FACE_OUTER_BOUND('',#358,.T.);
#284=FACE_OUTER_BOUND('',#359,.T.);
#285=FACE_OUTER_BOUND('',#360,.T.);
#286=FACE_OUTER_BOUND('',#361,.T.);
#287=FACE_OUTER_BOUND('',#362,.T.);
#288=FACE_OUTER_BOUND('',#363,.T.);
#289=FACE_OUTER_BOUND('',#364,.T.);
#290=FACE_OUTER_BOUND('',#365,.T.);
#291=FACE_OUTER_BOUND('',#366,.T.);
#292=FACE_OUTER_BOUND('',#367,.T.);
#293=EDGE_LOOP('',(#368,#369,#370,#371,#372,#373,#374));
#294=EDGE_LOOP('',(#375,#376,#377,#378,#379,#380));
#295=EDGE_LOOP('',(#381,#382,#383,#384,#385,#386,#387,#388));
#296=EDGE_LOOP('',(#389,#390,#391,#392,#393,#394));
#297=EDGE_LOOP('',(#395,#396,#397,#398));
#298=EDGE_LOOP('',(#399,#400,#401,#402,#403,#404));
#299=EDGE_LOOP('',(#405,#406,#407,#408,#409,#410));
#300=EDGE_LOOP('',(#411,#412,#413,#414));
#301=EDGE_LOOP('',(#415,#416,#417,#418));
#302=EDGE_LOOP('',(#419,#420,#421,#422));
#303=EDGE_LOOP('',(#423,#424,#425,#426));
#304=EDGE_LOOP('',(#427,#428,#429,#430,#431,#432,#433));
#305=EDGE_LOOP('',(#434,#435,#436,#437,#438,#439,#440));
#306=EDGE_LOOP('',(#441,#442,#443,#444,#445,#446));
#307=EDGE_LOOP('',(#447,#448,#449,#450,#451,#452,#453,#454,#455,#456));
#308=EDGE_LOOP('',(#457,#458,#459,#460,#461,#462,#463));
#309=EDGE_LOOP('',(#464,#465,#466,#467,#468,#469,#470,#471,#472,#473));
#310=EDGE_LOOP('',(#474,#475,#476,#477));
#311=EDGE_LOOP('',(#478,#479,#480,#481));
#312=EDGE_LOOP('',(#482,#483,#484,#485,#486,#487,#488,#489,#490,#491,#492,
#493,#494,#495,#496,#497,#498,#499,#500,#501,#502,#503));
#313=EDGE_LOOP('',(#504,#505,#506,#507,#508,#509));
#314=EDGE_LOOP('',(#510,#511,#512,#513));
#315=EDGE_LOOP('',(#514,#515,#516,#517));
#316=EDGE_LOOP('',(#518,#519,#520,#521));
#317=EDGE_LOOP('',(#522,#523,#524,#525));
#318=EDGE_LOOP('',(#526,#527,#528,#529));
#319=EDGE_LOOP('',(#530,#531,#532,#533));
#320=EDGE_LOOP('',(#534,#535,#536,#537));
#321=EDGE_LOOP('',(#538,#539,#540,#541));
#322=EDGE_LOOP('',(#542,#543,#544,#545));
#323=EDGE_LOOP('',(#546,#547,#548,#549));
#324=EDGE_LOOP('',(#550,#551,#552,#553));
#325=EDGE_LOOP('',(#554,#555,#556,#557));
#326=EDGE_LOOP('',(#558,#559,#560,#561));
#327=EDGE_LOOP('',(#562,#563,#564));
#328=EDGE_LOOP('',(#565,#566,#567));
#329=EDGE_LOOP('',(#568,#569,#570,#571));
#330=EDGE_LOOP('',(#572,#573,#574,#575));
#331=EDGE_LOOP('',(#576,#577,#578,#579));
#332=EDGE_LOOP('',(#580,#581,#582,#583));
#333=EDGE_LOOP('',(#584,#585,#586,#587,#588,#589));
#334=EDGE_LOOP('',(#590,#591,#592,#593));
#335=EDGE_LOOP('',(#594,#595,#596,#597,#598,#599,#600,#601));
#336=EDGE_LOOP('',(#602,#603,#604,#605,#606,#607,#608,#609));
#337=EDGE_LOOP('',(#610,#611,#612,#613));
#338=EDGE_LOOP('',(#614,#615,#616,#617));
#339=EDGE_LOOP('',(#618,#619,#620,#621));
#340=EDGE_LOOP('',(#622,#623,#624,#625));
#341=EDGE_LOOP('',(#626,#627,#628,#629,#630,#631));
#342=EDGE_LOOP('',(#632,#633,#634,#635,#636,#637,#638,#639,#640,#641,#642,
#643,#644,#645,#646,#647,#648,#649));
#343=EDGE_LOOP('',(#650,#651,#652,#653));
#344=EDGE_LOOP('',(#654,#655,#656,#657));
#345=EDGE_LOOP('',(#658,#659,#660,#661));
#346=EDGE_LOOP('',(#662,#663,#664,#665));
#347=EDGE_LOOP('',(#666,#667,#668,#669));
#348=EDGE_LOOP('',(#670,#671,#672,#673));
#349=EDGE_LOOP('',(#674,#675,#676,#677));
#350=EDGE_LOOP('',(#678,#679,#680,#681));
#351=EDGE_LOOP('',(#682,#683,#684,#685));
#352=EDGE_LOOP('',(#686,#687,#688,#689));
#353=EDGE_LOOP('',(#690,#691,#692,#693));
#354=EDGE_LOOP('',(#694,#695,#696,#697,#698,#699,#700,#701));
#355=EDGE_LOOP('',(#702,#703,#704,#705,#706,#707,#708,#709));
#356=EDGE_LOOP('',(#710,#711,#712,#713));
#357=EDGE_LOOP('',(#714,#715,#716,#717));
#358=EDGE_LOOP('',(#718,#719,#720,#721));
#359=EDGE_LOOP('',(#722,#723,#724,#725));
#360=EDGE_LOOP('',(#726,#727,#728,#729));
#361=EDGE_LOOP('',(#730,#731,#732,#733));
#362=EDGE_LOOP('',(#734,#735,#736,#737));
#363=EDGE_LOOP('',(#738,#739,#740,#741));
#364=EDGE_LOOP('',(#742,#743,#744,#745));
#365=EDGE_LOOP('',(#746,#747,#748,#749));
#366=EDGE_LOOP('',(#750,#751,#752,#753));
#367=EDGE_LOOP('',(#754,#755,#756,#757));
#368=ORIENTED_EDGE('',*,*,#882,.T.);
#369=ORIENTED_EDGE('',*,*,#883,.F.);
#370=ORIENTED_EDGE('',*,*,#884,.F.);
#371=ORIENTED_EDGE('',*,*,#885,.T.);
#372=ORIENTED_EDGE('',*,*,#886,.T.);
#373=ORIENTED_EDGE('',*,*,#887,.T.);
#374=ORIENTED_EDGE('',*,*,#888,.T.);
#375=ORIENTED_EDGE('',*,*,#884,.T.);
#376=ORIENTED_EDGE('',*,*,#889,.T.);
#377=ORIENTED_EDGE('',*,*,#890,.T.);
#378=ORIENTED_EDGE('',*,*,#891,.T.);
#379=ORIENTED_EDGE('',*,*,#892,.T.);
#380=ORIENTED_EDGE('',*,*,#893,.F.);
#381=ORIENTED_EDGE('',*,*,#890,.F.);
#382=ORIENTED_EDGE('',*,*,#894,.F.);
#383=ORIENTED_EDGE('',*,*,#895,.F.);
#384=ORIENTED_EDGE('',*,*,#896,.T.);
#385=ORIENTED_EDGE('',*,*,#897,.F.);
#386=ORIENTED_EDGE('',*,*,#898,.T.);
#387=ORIENTED_EDGE('',*,*,#899,.T.);
#388=ORIENTED_EDGE('',*,*,#900,.T.);
#389=ORIENTED_EDGE('',*,*,#901,.T.);
#390=ORIENTED_EDGE('',*,*,#902,.T.);
#391=ORIENTED_EDGE('',*,*,#903,.F.);
#392=ORIENTED_EDGE('',*,*,#904,.F.);
#393=ORIENTED_EDGE('',*,*,#905,.T.);
#394=ORIENTED_EDGE('',*,*,#906,.F.);
#395=ORIENTED_EDGE('',*,*,#907,.F.);
#396=ORIENTED_EDGE('',*,*,#908,.F.);
#397=ORIENTED_EDGE('',*,*,#909,.F.);
#398=ORIENTED_EDGE('',*,*,#910,.F.);
#399=ORIENTED_EDGE('',*,*,#911,.T.);
#400=ORIENTED_EDGE('',*,*,#912,.T.);
#401=ORIENTED_EDGE('',*,*,#910,.T.);
#402=ORIENTED_EDGE('',*,*,#913,.T.);
#403=ORIENTED_EDGE('',*,*,#914,.T.);
#404=ORIENTED_EDGE('',*,*,#915,.T.);
#405=ORIENTED_EDGE('',*,*,#908,.T.);
#406=ORIENTED_EDGE('',*,*,#916,.T.);
#407=ORIENTED_EDGE('',*,*,#917,.T.);
#408=ORIENTED_EDGE('',*,*,#918,.T.);
#409=ORIENTED_EDGE('',*,*,#919,.T.);
#410=ORIENTED_EDGE('',*,*,#920,.T.);
#411=ORIENTED_EDGE('',*,*,#921,.F.);
#412=ORIENTED_EDGE('',*,*,#895,.T.);
#413=ORIENTED_EDGE('',*,*,#922,.T.);
#414=ORIENTED_EDGE('',*,*,#923,.F.);
#415=ORIENTED_EDGE('',*,*,#924,.F.);
#416=ORIENTED_EDGE('',*,*,#925,.T.);
#417=ORIENTED_EDGE('',*,*,#926,.T.);
#418=ORIENTED_EDGE('',*,*,#927,.T.);
#419=ORIENTED_EDGE('',*,*,#928,.F.);
#420=ORIENTED_EDGE('',*,*,#929,.T.);
#421=ORIENTED_EDGE('',*,*,#924,.T.);
#422=ORIENTED_EDGE('',*,*,#930,.F.);
#423=ORIENTED_EDGE('',*,*,#899,.F.);
#424=ORIENTED_EDGE('',*,*,#931,.F.);
#425=ORIENTED_EDGE('',*,*,#928,.T.);
#426=ORIENTED_EDGE('',*,*,#932,.T.);
#427=ORIENTED_EDGE('',*,*,#933,.T.);
#428=ORIENTED_EDGE('',*,*,#896,.F.);
#429=ORIENTED_EDGE('',*,*,#921,.T.);
#430=ORIENTED_EDGE('',*,*,#934,.T.);
#431=ORIENTED_EDGE('',*,*,#935,.T.);
#432=ORIENTED_EDGE('',*,*,#936,.F.);
#433=ORIENTED_EDGE('',*,*,#937,.F.);
#434=ORIENTED_EDGE('',*,*,#894,.T.);
#435=ORIENTED_EDGE('',*,*,#889,.F.);
#436=ORIENTED_EDGE('',*,*,#883,.T.);
#437=ORIENTED_EDGE('',*,*,#938,.T.);
#438=ORIENTED_EDGE('',*,*,#939,.F.);
#439=ORIENTED_EDGE('',*,*,#940,.F.);
#440=ORIENTED_EDGE('',*,*,#922,.F.);
#441=ORIENTED_EDGE('',*,*,#933,.F.);
#442=ORIENTED_EDGE('',*,*,#941,.T.);
#443=ORIENTED_EDGE('',*,*,#942,.T.);
#444=ORIENTED_EDGE('',*,*,#943,.T.);
#445=ORIENTED_EDGE('',*,*,#944,.T.);
#446=ORIENTED_EDGE('',*,*,#897,.T.);
#447=ORIENTED_EDGE('',*,*,#925,.F.);
#448=ORIENTED_EDGE('',*,*,#929,.F.);
#449=ORIENTED_EDGE('',*,*,#931,.T.);
#450=ORIENTED_EDGE('',*,*,#898,.F.);
#451=ORIENTED_EDGE('',*,*,#944,.F.);
#452=ORIENTED_EDGE('',*,*,#945,.F.);
#453=ORIENTED_EDGE('',*,*,#946,.T.);
#454=ORIENTED_EDGE('',*,*,#947,.F.);
#455=ORIENTED_EDGE('',*,*,#948,.F.);
#456=ORIENTED_EDGE('',*,*,#949,.T.);
#457=ORIENTED_EDGE('',*,*,#937,.T.);
#458=ORIENTED_EDGE('',*,*,#950,.T.);
#459=ORIENTED_EDGE('',*,*,#951,.T.);
#460=ORIENTED_EDGE('',*,*,#952,.T.);
#461=ORIENTED_EDGE('',*,*,#953,.T.);
#462=ORIENTED_EDGE('',*,*,#954,.T.);
#463=ORIENTED_EDGE('',*,*,#941,.F.);
#464=ORIENTED_EDGE('',*,*,#932,.F.);
#465=ORIENTED_EDGE('',*,*,#930,.T.);
#466=ORIENTED_EDGE('',*,*,#927,.F.);
#467=ORIENTED_EDGE('',*,*,#955,.T.);
#468=ORIENTED_EDGE('',*,*,#956,.F.);
#469=ORIENTED_EDGE('',*,*,#957,.F.);
#470=ORIENTED_EDGE('',*,*,#958,.F.);
#471=ORIENTED_EDGE('',*,*,#959,.T.);
#472=ORIENTED_EDGE('',*,*,#891,.F.);
#473=ORIENTED_EDGE('',*,*,#900,.F.);
#474=ORIENTED_EDGE('',*,*,#960,.T.);
#475=ORIENTED_EDGE('',*,*,#961,.T.);
#476=ORIENTED_EDGE('',*,*,#962,.T.);
#477=ORIENTED_EDGE('',*,*,#963,.F.);
#478=ORIENTED_EDGE('',*,*,#964,.T.);
#479=ORIENTED_EDGE('',*,*,#916,.F.);
#480=ORIENTED_EDGE('',*,*,#907,.T.);
#481=ORIENTED_EDGE('',*,*,#912,.F.);
#482=ORIENTED_EDGE('',*,*,#892,.F.);
#483=ORIENTED_EDGE('',*,*,#959,.F.);
#484=ORIENTED_EDGE('',*,*,#965,.F.);
#485=ORIENTED_EDGE('',*,*,#966,.F.);
#486=ORIENTED_EDGE('',*,*,#967,.F.);
#487=ORIENTED_EDGE('',*,*,#968,.F.);
#488=ORIENTED_EDGE('',*,*,#969,.T.);
#489=ORIENTED_EDGE('',*,*,#945,.T.);
#490=ORIENTED_EDGE('',*,*,#943,.F.);
#491=ORIENTED_EDGE('',*,*,#970,.F.);
#492=ORIENTED_EDGE('',*,*,#971,.F.);
#493=ORIENTED_EDGE('',*,*,#972,.F.);
#494=ORIENTED_EDGE('',*,*,#973,.F.);
#495=ORIENTED_EDGE('',*,*,#974,.F.);
#496=ORIENTED_EDGE('',*,*,#935,.F.);
#497=ORIENTED_EDGE('',*,*,#975,.F.);
#498=ORIENTED_EDGE('',*,*,#939,.T.);
#499=ORIENTED_EDGE('',*,*,#976,.F.);
#500=ORIENTED_EDGE('',*,*,#977,.F.);
#501=ORIENTED_EDGE('',*,*,#978,.F.);
#502=ORIENTED_EDGE('',*,*,#979,.F.);
#503=ORIENTED_EDGE('',*,*,#980,.F.);
#504=ORIENTED_EDGE('',*,*,#956,.T.);
#505=ORIENTED_EDGE('',*,*,#981,.T.);
#506=ORIENTED_EDGE('',*,*,#948,.T.);
#507=ORIENTED_EDGE('',*,*,#982,.F.);
#508=ORIENTED_EDGE('',*,*,#983,.F.);
#509=ORIENTED_EDGE('',*,*,#984,.F.);
#510=ORIENTED_EDGE('',*,*,#974,.T.);
#511=ORIENTED_EDGE('',*,*,#985,.F.);
#512=ORIENTED_EDGE('',*,*,#950,.F.);
#513=ORIENTED_EDGE('',*,*,#936,.T.);
#514=ORIENTED_EDGE('',*,*,#973,.T.);
#515=ORIENTED_EDGE('',*,*,#986,.F.);
#516=ORIENTED_EDGE('',*,*,#951,.F.);
#517=ORIENTED_EDGE('',*,*,#985,.T.);
#518=ORIENTED_EDGE('',*,*,#972,.T.);
#519=ORIENTED_EDGE('',*,*,#987,.F.);
#520=ORIENTED_EDGE('',*,*,#952,.F.);
#521=ORIENTED_EDGE('',*,*,#986,.T.);
#522=ORIENTED_EDGE('',*,*,#971,.T.);
#523=ORIENTED_EDGE('',*,*,#988,.F.);
#524=ORIENTED_EDGE('',*,*,#953,.F.);
#525=ORIENTED_EDGE('',*,*,#987,.T.);
#526=ORIENTED_EDGE('',*,*,#970,.T.);
#527=ORIENTED_EDGE('',*,*,#942,.F.);
#528=ORIENTED_EDGE('',*,*,#954,.F.);
#529=ORIENTED_EDGE('',*,*,#988,.T.);
#530=ORIENTED_EDGE('',*,*,#980,.T.);
#531=ORIENTED_EDGE('',*,*,#989,.F.);
#532=ORIENTED_EDGE('',*,*,#885,.F.);
#533=ORIENTED_EDGE('',*,*,#893,.T.);
#534=ORIENTED_EDGE('',*,*,#979,.T.);
#535=ORIENTED_EDGE('',*,*,#990,.F.);
#536=ORIENTED_EDGE('',*,*,#886,.F.);
#537=ORIENTED_EDGE('',*,*,#989,.T.);
#538=ORIENTED_EDGE('',*,*,#978,.T.);
#539=ORIENTED_EDGE('',*,*,#991,.F.);
#540=ORIENTED_EDGE('',*,*,#887,.F.);
#541=ORIENTED_EDGE('',*,*,#990,.T.);
#542=ORIENTED_EDGE('',*,*,#977,.T.);
#543=ORIENTED_EDGE('',*,*,#992,.F.);
#544=ORIENTED_EDGE('',*,*,#888,.F.);
#545=ORIENTED_EDGE('',*,*,#991,.T.);
#546=ORIENTED_EDGE('',*,*,#976,.T.);
#547=ORIENTED_EDGE('',*,*,#938,.F.);
#548=ORIENTED_EDGE('',*,*,#882,.F.);
#549=ORIENTED_EDGE('',*,*,#992,.T.);
#550=ORIENTED_EDGE('',*,*,#940,.T.);
#551=ORIENTED_EDGE('',*,*,#975,.T.);
#552=ORIENTED_EDGE('',*,*,#934,.F.);
#553=ORIENTED_EDGE('',*,*,#923,.T.);
#554=ORIENTED_EDGE('',*,*,#993,.F.);
#555=ORIENTED_EDGE('',*,*,#962,.F.);
#556=ORIENTED_EDGE('',*,*,#994,.T.);
#557=ORIENTED_EDGE('',*,*,#995,.T.);
#558=ORIENTED_EDGE('',*,*,#960,.F.);
#559=ORIENTED_EDGE('',*,*,#996,.F.);
#560=ORIENTED_EDGE('',*,*,#995,.F.);
#561=ORIENTED_EDGE('',*,*,#997,.T.);
#562=ORIENTED_EDGE('',*,*,#961,.F.);
#563=ORIENTED_EDGE('',*,*,#997,.F.);
#564=ORIENTED_EDGE('',*,*,#994,.F.);
#565=ORIENTED_EDGE('',*,*,#996,.T.);
#566=ORIENTED_EDGE('',*,*,#963,.T.);
#567=ORIENTED_EDGE('',*,*,#993,.T.);
#568=ORIENTED_EDGE('',*,*,#998,.F.);
#569=ORIENTED_EDGE('',*,*,#913,.F.);
#570=ORIENTED_EDGE('',*,*,#909,.T.);
#571=ORIENTED_EDGE('',*,*,#920,.F.);
#572=ORIENTED_EDGE('',*,*,#999,.F.);
#573=ORIENTED_EDGE('',*,*,#914,.F.);
#574=ORIENTED_EDGE('',*,*,#998,.T.);
#575=ORIENTED_EDGE('',*,*,#919,.F.);
#576=ORIENTED_EDGE('',*,*,#915,.F.);
#577=ORIENTED_EDGE('',*,*,#999,.T.);
#578=ORIENTED_EDGE('',*,*,#918,.F.);
#579=ORIENTED_EDGE('',*,*,#1000,.F.);
#580=ORIENTED_EDGE('',*,*,#917,.F.);
#581=ORIENTED_EDGE('',*,*,#964,.F.);
#582=ORIENTED_EDGE('',*,*,#911,.F.);
#583=ORIENTED_EDGE('',*,*,#1000,.T.);
#584=ORIENTED_EDGE('',*,*,#984,.T.);
#585=ORIENTED_EDGE('',*,*,#983,.T.);
#586=ORIENTED_EDGE('',*,*,#982,.T.);
#587=ORIENTED_EDGE('',*,*,#947,.T.);
#588=ORIENTED_EDGE('',*,*,#902,.F.);
#589=ORIENTED_EDGE('',*,*,#957,.T.);
#590=ORIENTED_EDGE('',*,*,#955,.F.);
#591=ORIENTED_EDGE('',*,*,#926,.F.);
#592=ORIENTED_EDGE('',*,*,#949,.F.);
#593=ORIENTED_EDGE('',*,*,#981,.F.);
#594=ORIENTED_EDGE('',*,*,#1001,.F.);
#595=ORIENTED_EDGE('',*,*,#1002,.F.);
#596=ORIENTED_EDGE('',*,*,#1003,.F.);
#597=ORIENTED_EDGE('',*,*,#1004,.F.);
#598=ORIENTED_EDGE('',*,*,#1005,.F.);
#599=ORIENTED_EDGE('',*,*,#1006,.F.);
#600=ORIENTED_EDGE('',*,*,#1007,.F.);
#601=ORIENTED_EDGE('',*,*,#1008,.F.);
#602=ORIENTED_EDGE('',*,*,#1009,.T.);
#603=ORIENTED_EDGE('',*,*,#1010,.T.);
#604=ORIENTED_EDGE('',*,*,#1011,.T.);
#605=ORIENTED_EDGE('',*,*,#1012,.T.);
#606=ORIENTED_EDGE('',*,*,#1013,.T.);
#607=ORIENTED_EDGE('',*,*,#1014,.T.);
#608=ORIENTED_EDGE('',*,*,#1015,.T.);
#609=ORIENTED_EDGE('',*,*,#1016,.T.);
#610=ORIENTED_EDGE('',*,*,#1017,.F.);
#611=ORIENTED_EDGE('',*,*,#1008,.T.);
#612=ORIENTED_EDGE('',*,*,#1018,.T.);
#613=ORIENTED_EDGE('',*,*,#1019,.F.);
#614=ORIENTED_EDGE('',*,*,#1018,.F.);
#615=ORIENTED_EDGE('',*,*,#1007,.T.);
#616=ORIENTED_EDGE('',*,*,#1020,.T.);
#617=ORIENTED_EDGE('',*,*,#1021,.F.);
#618=ORIENTED_EDGE('',*,*,#1020,.F.);
#619=ORIENTED_EDGE('',*,*,#1006,.T.);
#620=ORIENTED_EDGE('',*,*,#1022,.T.);
#621=ORIENTED_EDGE('',*,*,#1023,.F.);
#622=ORIENTED_EDGE('',*,*,#1022,.F.);
#623=ORIENTED_EDGE('',*,*,#1005,.T.);
#624=ORIENTED_EDGE('',*,*,#1024,.T.);
#625=ORIENTED_EDGE('',*,*,#1025,.F.);
#626=ORIENTED_EDGE('',*,*,#1024,.F.);
#627=ORIENTED_EDGE('',*,*,#1004,.T.);
#628=ORIENTED_EDGE('',*,*,#1026,.T.);
#629=ORIENTED_EDGE('',*,*,#1027,.T.);
#630=ORIENTED_EDGE('',*,*,#1028,.F.);
#631=ORIENTED_EDGE('',*,*,#1029,.T.);
#632=ORIENTED_EDGE('',*,*,#1030,.F.);
#633=ORIENTED_EDGE('',*,*,#1031,.F.);
#634=ORIENTED_EDGE('',*,*,#1027,.F.);
#635=ORIENTED_EDGE('',*,*,#1032,.T.);
#636=ORIENTED_EDGE('',*,*,#1033,.T.);
#637=ORIENTED_EDGE('',*,*,#1034,.T.);
#638=ORIENTED_EDGE('',*,*,#1019,.T.);
#639=ORIENTED_EDGE('',*,*,#1021,.T.);
#640=ORIENTED_EDGE('',*,*,#1023,.T.);
#641=ORIENTED_EDGE('',*,*,#1025,.T.);
#642=ORIENTED_EDGE('',*,*,#1029,.F.);
#643=ORIENTED_EDGE('',*,*,#1035,.F.);
#644=ORIENTED_EDGE('',*,*,#1036,.F.);
#645=ORIENTED_EDGE('',*,*,#1037,.F.);
#646=ORIENTED_EDGE('',*,*,#1038,.F.);
#647=ORIENTED_EDGE('',*,*,#1039,.F.);
#648=ORIENTED_EDGE('',*,*,#1040,.F.);
#649=ORIENTED_EDGE('',*,*,#1041,.F.);
#650=ORIENTED_EDGE('',*,*,#1042,.F.);
#651=ORIENTED_EDGE('',*,*,#1001,.T.);
#652=ORIENTED_EDGE('',*,*,#1017,.T.);
#653=ORIENTED_EDGE('',*,*,#1034,.F.);
#654=ORIENTED_EDGE('',*,*,#1026,.F.);
#655=ORIENTED_EDGE('',*,*,#1003,.T.);
#656=ORIENTED_EDGE('',*,*,#1043,.T.);
#657=ORIENTED_EDGE('',*,*,#1032,.F.);
#658=ORIENTED_EDGE('',*,*,#1043,.F.);
#659=ORIENTED_EDGE('',*,*,#1002,.T.);
#660=ORIENTED_EDGE('',*,*,#1042,.T.);
#661=ORIENTED_EDGE('',*,*,#1033,.F.);
#662=ORIENTED_EDGE('',*,*,#1044,.T.);
#663=ORIENTED_EDGE('',*,*,#1039,.T.);
#664=ORIENTED_EDGE('',*,*,#1045,.F.);
#665=ORIENTED_EDGE('',*,*,#1011,.F.);
#666=ORIENTED_EDGE('',*,*,#1045,.T.);
#667=ORIENTED_EDGE('',*,*,#1038,.T.);
#668=ORIENTED_EDGE('',*,*,#1046,.F.);
#669=ORIENTED_EDGE('',*,*,#1012,.F.);
#670=ORIENTED_EDGE('',*,*,#1046,.T.);
#671=ORIENTED_EDGE('',*,*,#1037,.T.);
#672=ORIENTED_EDGE('',*,*,#1047,.F.);
#673=ORIENTED_EDGE('',*,*,#1013,.F.);
#674=ORIENTED_EDGE('',*,*,#1047,.T.);
#675=ORIENTED_EDGE('',*,*,#1036,.T.);
#676=ORIENTED_EDGE('',*,*,#1048,.F.);
#677=ORIENTED_EDGE('',*,*,#1014,.F.);
#678=ORIENTED_EDGE('',*,*,#1048,.T.);
#679=ORIENTED_EDGE('',*,*,#1049,.T.);
#680=ORIENTED_EDGE('',*,*,#1050,.F.);
#681=ORIENTED_EDGE('',*,*,#1015,.F.);
#682=ORIENTED_EDGE('',*,*,#1051,.T.);
#683=ORIENTED_EDGE('',*,*,#1040,.T.);
#684=ORIENTED_EDGE('',*,*,#1044,.F.);
#685=ORIENTED_EDGE('',*,*,#1010,.F.);
#686=ORIENTED_EDGE('',*,*,#1050,.T.);
#687=ORIENTED_EDGE('',*,*,#1030,.T.);
#688=ORIENTED_EDGE('',*,*,#1052,.F.);
#689=ORIENTED_EDGE('',*,*,#1016,.F.);
#690=ORIENTED_EDGE('',*,*,#1052,.T.);
#691=ORIENTED_EDGE('',*,*,#1041,.T.);
#692=ORIENTED_EDGE('',*,*,#1051,.F.);
#693=ORIENTED_EDGE('',*,*,#1009,.F.);
#694=ORIENTED_EDGE('',*,*,#1053,.F.);
#695=ORIENTED_EDGE('',*,*,#1054,.T.);
#696=ORIENTED_EDGE('',*,*,#1055,.T.);
#697=ORIENTED_EDGE('',*,*,#1056,.T.);
#698=ORIENTED_EDGE('',*,*,#1057,.T.);
#699=ORIENTED_EDGE('',*,*,#1058,.T.);
#700=ORIENTED_EDGE('',*,*,#1059,.F.);
#701=ORIENTED_EDGE('',*,*,#1060,.F.);
#702=ORIENTED_EDGE('',*,*,#1061,.F.);
#703=ORIENTED_EDGE('',*,*,#1062,.F.);
#704=ORIENTED_EDGE('',*,*,#1063,.F.);
#705=ORIENTED_EDGE('',*,*,#1064,.F.);
#706=ORIENTED_EDGE('',*,*,#1065,.F.);
#707=ORIENTED_EDGE('',*,*,#1066,.T.);
#708=ORIENTED_EDGE('',*,*,#1067,.T.);
#709=ORIENTED_EDGE('',*,*,#1068,.T.);
#710=ORIENTED_EDGE('',*,*,#1063,.T.);
#711=ORIENTED_EDGE('',*,*,#1069,.F.);
#712=ORIENTED_EDGE('',*,*,#1056,.F.);
#713=ORIENTED_EDGE('',*,*,#1070,.T.);
#714=ORIENTED_EDGE('',*,*,#1067,.F.);
#715=ORIENTED_EDGE('',*,*,#1071,.T.);
#716=ORIENTED_EDGE('',*,*,#1060,.T.);
#717=ORIENTED_EDGE('',*,*,#1072,.T.);
#718=ORIENTED_EDGE('',*,*,#904,.T.);
#719=ORIENTED_EDGE('',*,*,#1068,.F.);
#720=ORIENTED_EDGE('',*,*,#1072,.F.);
#721=ORIENTED_EDGE('',*,*,#1059,.T.);
#722=ORIENTED_EDGE('',*,*,#1066,.F.);
#723=ORIENTED_EDGE('',*,*,#906,.T.);
#724=ORIENTED_EDGE('',*,*,#1053,.T.);
#725=ORIENTED_EDGE('',*,*,#1071,.F.);
#726=ORIENTED_EDGE('',*,*,#1062,.T.);
#727=ORIENTED_EDGE('',*,*,#968,.T.);
#728=ORIENTED_EDGE('',*,*,#1057,.F.);
#729=ORIENTED_EDGE('',*,*,#1069,.T.);
#730=ORIENTED_EDGE('',*,*,#966,.T.);
#731=ORIENTED_EDGE('',*,*,#1064,.T.);
#732=ORIENTED_EDGE('',*,*,#1070,.F.);
#733=ORIENTED_EDGE('',*,*,#1055,.F.);
#734=ORIENTED_EDGE('',*,*,#946,.F.);
#735=ORIENTED_EDGE('',*,*,#969,.F.);
#736=ORIENTED_EDGE('',*,*,#1061,.T.);
#737=ORIENTED_EDGE('',*,*,#903,.T.);
#738=ORIENTED_EDGE('',*,*,#958,.T.);
#739=ORIENTED_EDGE('',*,*,#901,.F.);
#740=ORIENTED_EDGE('',*,*,#1065,.T.);
#741=ORIENTED_EDGE('',*,*,#965,.T.);
#742=ORIENTED_EDGE('',*,*,#905,.F.);
#743=ORIENTED_EDGE('',*,*,#1073,.F.);
#744=ORIENTED_EDGE('',*,*,#1049,.F.);
#745=ORIENTED_EDGE('',*,*,#1074,.T.);
#746=ORIENTED_EDGE('',*,*,#1054,.F.);
#747=ORIENTED_EDGE('',*,*,#1074,.F.);
#748=ORIENTED_EDGE('',*,*,#1035,.T.);
#749=ORIENTED_EDGE('',*,*,#1075,.T.);
#750=ORIENTED_EDGE('',*,*,#967,.T.);
#751=ORIENTED_EDGE('',*,*,#1075,.F.);
#752=ORIENTED_EDGE('',*,*,#1028,.T.);
#753=ORIENTED_EDGE('',*,*,#1076,.T.);
#754=ORIENTED_EDGE('',*,*,#1058,.F.);
#755=ORIENTED_EDGE('',*,*,#1076,.F.);
#756=ORIENTED_EDGE('',*,*,#1031,.T.);
#757=ORIENTED_EDGE('',*,*,#1073,.T.);
#758=VERTEX_POINT('',#1877);
#759=VERTEX_POINT('',#1878);
#760=VERTEX_POINT('',#1880);
#761=VERTEX_POINT('',#1882);
#762=VERTEX_POINT('',#1884);
#763=VERTEX_POINT('',#1886);
#764=VERTEX_POINT('',#1888);
#765=VERTEX_POINT('',#1892);
#766=VERTEX_POINT('',#1894);
#767=VERTEX_POINT('',#1896);
#768=VERTEX_POINT('',#1898);
#769=VERTEX_POINT('',#1902);
#770=VERTEX_POINT('',#1904);
#771=VERTEX_POINT('',#1906);
#772=VERTEX_POINT('',#1908);
#773=VERTEX_POINT('',#1910);
#774=VERTEX_POINT('',#1912);
#775=VERTEX_POINT('',#1916);
#776=VERTEX_POINT('',#1917);
#777=VERTEX_POINT('',#1919);
#778=VERTEX_POINT('',#1921);
#779=VERTEX_POINT('',#1923);
#780=VERTEX_POINT('',#1925);
#781=VERTEX_POINT('',#1929);
#782=VERTEX_POINT('',#1930);
#783=VERTEX_POINT('',#1932);
#784=VERTEX_POINT('',#1934);
#785=VERTEX_POINT('',#1938);
#786=VERTEX_POINT('',#1939);
#787=VERTEX_POINT('',#1942);
#788=VERTEX_POINT('',#1944);
#789=VERTEX_POINT('',#1948);
#790=VERTEX_POINT('',#1950);
#791=VERTEX_POINT('',#1952);
#792=VERTEX_POINT('',#1954);
#793=VERTEX_POINT('',#1958);
#794=VERTEX_POINT('',#1960);
#795=VERTEX_POINT('',#1964);
#796=VERTEX_POINT('',#1965);
#797=VERTEX_POINT('',#1967);
#798=VERTEX_POINT('',#1969);
#799=VERTEX_POINT('',#1973);
#800=VERTEX_POINT('',#1974);
#801=VERTEX_POINT('',#1982);
#802=VERTEX_POINT('',#1984);
#803=VERTEX_POINT('',#1986);
#804=VERTEX_POINT('',#1988);
#805=VERTEX_POINT('',#1992);
#806=VERTEX_POINT('',#1994);
#807=VERTEX_POINT('',#1998);
#808=VERTEX_POINT('',#2000);
#809=VERTEX_POINT('',#2002);
#810=VERTEX_POINT('',#2006);
#811=VERTEX_POINT('',#2009);
#812=VERTEX_POINT('',#2011);
#813=VERTEX_POINT('',#2015);
#814=VERTEX_POINT('',#2017);
#815=VERTEX_POINT('',#2019);
#816=VERTEX_POINT('',#2021);
#817=VERTEX_POINT('',#2025);
#818=VERTEX_POINT('',#2027);
#819=VERTEX_POINT('',#2030);
#820=VERTEX_POINT('',#2034);
#821=VERTEX_POINT('',#2035);
#822=VERTEX_POINT('',#2037);
#823=VERTEX_POINT('',#2039);
#824=VERTEX_POINT('',#2043);
#825=VERTEX_POINT('',#2045);
#826=VERTEX_POINT('',#2047);
#827=VERTEX_POINT('',#2049);
#828=VERTEX_POINT('',#2052);
#829=VERTEX_POINT('',#2054);
#830=VERTEX_POINT('',#2056);
#831=VERTEX_POINT('',#2058);
#832=VERTEX_POINT('',#2062);
#833=VERTEX_POINT('',#2064);
#834=VERTEX_POINT('',#2066);
#835=VERTEX_POINT('',#2068);
#836=VERTEX_POINT('',#2076);
#837=VERTEX_POINT('',#2078);
#838=VERTEX_POINT('',#2104);
#839=VERTEX_POINT('',#2106);
#840=VERTEX_POINT('',#2124);
#841=VERTEX_POINT('',#2125);
#842=VERTEX_POINT('',#2127);
#843=VERTEX_POINT('',#2129);
#844=VERTEX_POINT('',#2131);
#845=VERTEX_POINT('',#2133);
#846=VERTEX_POINT('',#2135);
#847=VERTEX_POINT('',#2137);
#848=VERTEX_POINT('',#2140);
#849=VERTEX_POINT('',#2141);
#850=VERTEX_POINT('',#2143);
#851=VERTEX_POINT('',#2145);
#852=VERTEX_POINT('',#2147);
#853=VERTEX_POINT('',#2149);
#854=VERTEX_POINT('',#2151);
#855=VERTEX_POINT('',#2153);
#856=VERTEX_POINT('',#2157);
#857=VERTEX_POINT('',#2159);
#858=VERTEX_POINT('',#2163);
#859=VERTEX_POINT('',#2167);
#860=VERTEX_POINT('',#2171);
#861=VERTEX_POINT('',#2175);
#862=VERTEX_POINT('',#2177);
#863=VERTEX_POINT('',#2179);
#864=VERTEX_POINT('',#2183);
#865=VERTEX_POINT('',#2184);
#866=VERTEX_POINT('',#2187);
#867=VERTEX_POINT('',#2189);
#868=VERTEX_POINT('',#2192);
#869=VERTEX_POINT('',#2194);
#870=VERTEX_POINT('',#2196);
#871=VERTEX_POINT('',#2198);
#872=VERTEX_POINT('',#2200);
#873=VERTEX_POINT('',#2202);
#874=VERTEX_POINT('',#2228);
#875=VERTEX_POINT('',#2231);
#876=VERTEX_POINT('',#2233);
#877=VERTEX_POINT('',#2237);
#878=VERTEX_POINT('',#2242);
#879=VERTEX_POINT('',#2244);
#880=VERTEX_POINT('',#2248);
#881=VERTEX_POINT('',#2250);
#882=EDGE_CURVE('',#758,#759,#1077,.T.);
#883=EDGE_CURVE('',#760,#759,#1078,.T.);
#884=EDGE_CURVE('',#761,#760,#1079,.T.);
#885=EDGE_CURVE('',#761,#762,#1080,.T.);
#886=EDGE_CURVE('',#762,#763,#1081,.T.);
#887=EDGE_CURVE('',#763,#764,#1082,.T.);
#888=EDGE_CURVE('',#764,#758,#1083,.T.);
#889=EDGE_CURVE('',#760,#765,#1084,.T.);
#890=EDGE_CURVE('',#765,#766,#1085,.T.);
#891=EDGE_CURVE('',#766,#767,#1086,.T.);
#892=EDGE_CURVE('',#767,#768,#1087,.T.);
#893=EDGE_CURVE('',#761,#768,#1088,.T.);
#894=EDGE_CURVE('',#769,#765,#1089,.T.);
#895=EDGE_CURVE('',#770,#769,#1090,.T.);
#896=EDGE_CURVE('',#770,#771,#1091,.T.);
#897=EDGE_CURVE('',#772,#771,#1092,.T.);
#898=EDGE_CURVE('',#772,#773,#1093,.T.);
#899=EDGE_CURVE('',#773,#774,#1094,.T.);
#900=EDGE_CURVE('',#774,#766,#1095,.T.);
#901=EDGE_CURVE('',#775,#776,#1096,.T.);
#902=EDGE_CURVE('',#776,#777,#1097,.T.);
#903=EDGE_CURVE('',#778,#777,#1098,.T.);
#904=EDGE_CURVE('',#779,#778,#1099,.T.);
#905=EDGE_CURVE('',#779,#780,#1100,.T.);
#906=EDGE_CURVE('',#775,#780,#1101,.T.);
#907=EDGE_CURVE('',#781,#782,#1102,.T.);
#908=EDGE_CURVE('',#783,#781,#1103,.T.);
#909=EDGE_CURVE('',#784,#783,#1104,.T.);
#910=EDGE_CURVE('',#782,#784,#1105,.T.);
#911=EDGE_CURVE('',#785,#786,#92,.T.);
#912=EDGE_CURVE('',#786,#782,#1106,.T.);
#913=EDGE_CURVE('',#784,#787,#1107,.T.);
#914=EDGE_CURVE('',#787,#788,#1108,.T.);
#915=EDGE_CURVE('',#788,#785,#1109,.T.);
#916=EDGE_CURVE('',#781,#789,#1110,.T.);
#917=EDGE_CURVE('',#789,#790,#93,.T.);
#918=EDGE_CURVE('',#790,#791,#1111,.T.);
#919=EDGE_CURVE('',#791,#792,#1112,.T.);
#920=EDGE_CURVE('',#792,#783,#1113,.T.);
#921=EDGE_CURVE('',#770,#793,#64,.T.);
#922=EDGE_CURVE('',#769,#794,#65,.T.);
#923=EDGE_CURVE('',#793,#794,#1114,.T.);
#924=EDGE_CURVE('',#795,#796,#1115,.T.);
#925=EDGE_CURVE('',#795,#797,#1116,.T.);
#926=EDGE_CURVE('',#797,#798,#1117,.T.);
#927=EDGE_CURVE('',#798,#796,#1118,.T.);
#928=EDGE_CURVE('',#799,#800,#1119,.T.);
#929=EDGE_CURVE('',#799,#795,#1120,.T.);
#930=EDGE_CURVE('',#800,#796,#1121,.T.);
#931=EDGE_CURVE('',#799,#773,#1122,.T.);
#932=EDGE_CURVE('',#800,#774,#1123,.T.);
#933=EDGE_CURVE('',#801,#771,#1124,.T.);
#934=EDGE_CURVE('',#793,#802,#66,.T.);
#935=EDGE_CURVE('',#802,#803,#1125,.T.);
#936=EDGE_CURVE('',#804,#803,#1126,.T.);
#937=EDGE_CURVE('',#801,#804,#1127,.T.);
#938=EDGE_CURVE('',#759,#805,#1128,.T.);
#939=EDGE_CURVE('',#806,#805,#1129,.T.);
#940=EDGE_CURVE('',#794,#806,#67,.T.);
#941=EDGE_CURVE('',#801,#807,#1130,.T.);
#942=EDGE_CURVE('',#807,#808,#1131,.T.);
#943=EDGE_CURVE('',#808,#809,#1132,.T.);
#944=EDGE_CURVE('',#809,#772,#1133,.T.);
#945=EDGE_CURVE('',#810,#809,#1134,.T.);
#946=EDGE_CURVE('',#810,#777,#1135,.T.);
#947=EDGE_CURVE('',#811,#777,#1136,.T.);
#948=EDGE_CURVE('',#812,#811,#1137,.T.);
#949=EDGE_CURVE('',#812,#797,#1138,.T.);
#950=EDGE_CURVE('',#804,#813,#1139,.T.);
#951=EDGE_CURVE('',#813,#814,#1140,.T.);
#952=EDGE_CURVE('',#814,#815,#1141,.T.);
#953=EDGE_CURVE('',#815,#816,#1142,.T.);
#954=EDGE_CURVE('',#816,#807,#1143,.T.);
#955=EDGE_CURVE('',#798,#817,#1144,.T.);
#956=EDGE_CURVE('',#818,#817,#1145,.T.);
#957=EDGE_CURVE('',#776,#818,#1146,.T.);
#958=EDGE_CURVE('',#819,#776,#1147,.T.);
#959=EDGE_CURVE('',#819,#767,#1148,.T.);
#960=EDGE_CURVE('',#820,#821,#1149,.T.);
#961=EDGE_CURVE('',#821,#822,#1150,.T.);
#962=EDGE_CURVE('',#822,#823,#1151,.T.);
#963=EDGE_CURVE('',#820,#823,#1152,.T.);
#964=EDGE_CURVE('',#786,#789,#1153,.T.);
#965=EDGE_CURVE('',#824,#819,#1154,.T.);
#966=EDGE_CURVE('',#825,#824,#1155,.T.);
#967=EDGE_CURVE('',#826,#825,#1156,.T.);
#968=EDGE_CURVE('',#827,#826,#1157,.T.);
#969=EDGE_CURVE('',#827,#810,#1158,.T.);
#970=EDGE_CURVE('',#828,#808,#1159,.T.);
#971=EDGE_CURVE('',#829,#828,#1160,.T.);
#972=EDGE_CURVE('',#830,#829,#1161,.T.);
#973=EDGE_CURVE('',#831,#830,#1162,.T.);
#974=EDGE_CURVE('',#803,#831,#1163,.T.);
#975=EDGE_CURVE('',#806,#802,#1164,.T.);
#976=EDGE_CURVE('',#832,#805,#1165,.T.);
#977=EDGE_CURVE('',#833,#832,#1166,.T.);
#978=EDGE_CURVE('',#834,#833,#1167,.T.);
#979=EDGE_CURVE('',#835,#834,#1168,.T.);
#980=EDGE_CURVE('',#768,#835,#1169,.T.);
#981=EDGE_CURVE('',#817,#812,#1170,.T.);
#982=EDGE_CURVE('',#836,#811,#42,.T.);
#983=EDGE_CURVE('',#837,#836,#1171,.T.);
#984=EDGE_CURVE('',#818,#837,#43,.T.);
#985=EDGE_CURVE('',#813,#831,#1172,.T.);
#986=EDGE_CURVE('',#814,#830,#1173,.T.);
#987=EDGE_CURVE('',#815,#829,#1174,.T.);
#988=EDGE_CURVE('',#816,#828,#1175,.T.);
#989=EDGE_CURVE('',#762,#835,#1176,.T.);
#990=EDGE_CURVE('',#763,#834,#1177,.T.);
#991=EDGE_CURVE('',#764,#833,#1178,.T.);
#992=EDGE_CURVE('',#758,#832,#1179,.T.);
#993=EDGE_CURVE('',#823,#838,#1180,.T.);
#994=EDGE_CURVE('',#822,#839,#1181,.T.);
#995=EDGE_CURVE('',#839,#838,#1182,.T.);
#996=EDGE_CURVE('',#838,#820,#1183,.T.);
#997=EDGE_CURVE('',#839,#821,#1184,.T.);
#998=EDGE_CURVE('',#787,#792,#1185,.T.);
#999=EDGE_CURVE('',#788,#791,#1186,.T.);
#1000=EDGE_CURVE('',#785,#790,#1187,.T.);
#1001=EDGE_CURVE('',#840,#841,#68,.T.);
#1002=EDGE_CURVE('',#842,#840,#1188,.T.);
#1003=EDGE_CURVE('',#843,#842,#69,.T.);
#1004=EDGE_CURVE('',#844,#843,#1189,.T.);
#1005=EDGE_CURVE('',#845,#844,#70,.T.);
#1006=EDGE_CURVE('',#846,#845,#1190,.T.);
#1007=EDGE_CURVE('',#847,#846,#71,.T.);
#1008=EDGE_CURVE('',#841,#847,#1191,.T.);
#1009=EDGE_CURVE('',#848,#849,#1192,.T.);
#1010=EDGE_CURVE('',#849,#850,#72,.T.);
#1011=EDGE_CURVE('',#850,#851,#1193,.T.);
#1012=EDGE_CURVE('',#851,#852,#73,.T.);
#1013=EDGE_CURVE('',#852,#853,#1194,.T.);
#1014=EDGE_CURVE('',#853,#854,#74,.T.);
#1015=EDGE_CURVE('',#854,#855,#1195,.T.);
#1016=EDGE_CURVE('',#855,#848,#75,.T.);
#1017=EDGE_CURVE('',#841,#856,#1196,.T.);
#1018=EDGE_CURVE('',#847,#857,#1197,.T.);
#1019=EDGE_CURVE('',#856,#857,#1198,.T.);
#1020=EDGE_CURVE('',#846,#858,#1199,.T.);
#1021=EDGE_CURVE('',#857,#858,#76,.T.);
#1022=EDGE_CURVE('',#845,#859,#1200,.T.);
#1023=EDGE_CURVE('',#858,#859,#1201,.T.);
#1024=EDGE_CURVE('',#844,#860,#1202,.T.);
#1025=EDGE_CURVE('',#859,#860,#77,.T.);
#1026=EDGE_CURVE('',#843,#861,#1203,.T.);
#1027=EDGE_CURVE('',#861,#862,#1204,.T.);
#1028=EDGE_CURVE('',#863,#862,#1205,.T.);
#1029=EDGE_CURVE('',#863,#860,#1206,.T.);
#1030=EDGE_CURVE('',#864,#865,#78,.T.);
#1031=EDGE_CURVE('',#862,#864,#1207,.T.);
#1032=EDGE_CURVE('',#861,#866,#79,.T.);
#1033=EDGE_CURVE('',#866,#867,#1208,.T.);
#1034=EDGE_CURVE('',#867,#856,#80,.T.);
#1035=EDGE_CURVE('',#868,#863,#1209,.T.);
#1036=EDGE_CURVE('',#869,#868,#81,.T.);
#1037=EDGE_CURVE('',#870,#869,#1210,.T.);
#1038=EDGE_CURVE('',#871,#870,#82,.T.);
#1039=EDGE_CURVE('',#872,#871,#1211,.T.);
#1040=EDGE_CURVE('',#873,#872,#83,.T.);
#1041=EDGE_CURVE('',#865,#873,#1212,.T.);
#1042=EDGE_CURVE('',#840,#867,#1213,.T.);
#1043=EDGE_CURVE('',#842,#866,#1214,.T.);
#1044=EDGE_CURVE('',#850,#872,#1215,.T.);
#1045=EDGE_CURVE('',#851,#871,#1216,.T.);
#1046=EDGE_CURVE('',#852,#870,#1217,.T.);
#1047=EDGE_CURVE('',#853,#869,#1218,.T.);
#1048=EDGE_CURVE('',#854,#868,#1219,.T.);
#1049=EDGE_CURVE('',#868,#864,#1220,.T.);
#1050=EDGE_CURVE('',#855,#864,#1221,.T.);
#1051=EDGE_CURVE('',#849,#873,#1222,.T.);
#1052=EDGE_CURVE('',#848,#865,#1223,.T.);
#1053=EDGE_CURVE('',#780,#874,#84,.T.);
#1054=EDGE_CURVE('',#780,#825,#1224,.T.);
#1055=EDGE_CURVE('',#825,#875,#85,.T.);
#1056=EDGE_CURVE('',#875,#876,#1225,.T.);
#1057=EDGE_CURVE('',#876,#826,#86,.T.);
#1058=EDGE_CURVE('',#826,#779,#1226,.T.);
#1059=EDGE_CURVE('',#877,#779,#87,.T.);
#1060=EDGE_CURVE('',#874,#877,#1227,.T.);
#1061=EDGE_CURVE('',#827,#778,#1228,.T.);
#1062=EDGE_CURVE('',#878,#827,#88,.T.);
#1063=EDGE_CURVE('',#879,#878,#1229,.T.);
#1064=EDGE_CURVE('',#824,#879,#89,.T.);
#1065=EDGE_CURVE('',#775,#824,#1230,.T.);
#1066=EDGE_CURVE('',#775,#880,#90,.T.);
#1067=EDGE_CURVE('',#880,#881,#1231,.T.);
#1068=EDGE_CURVE('',#881,#778,#91,.T.);
#1069=EDGE_CURVE('',#876,#878,#1232,.T.);
#1070=EDGE_CURVE('',#875,#879,#1233,.T.);
#1071=EDGE_CURVE('',#880,#874,#1234,.T.);
#1072=EDGE_CURVE('',#877,#881,#1235,.T.);
#1073=EDGE_CURVE('',#864,#779,#1236,.T.);
#1074=EDGE_CURVE('',#868,#780,#1237,.T.);
#1075=EDGE_CURVE('',#863,#825,#1238,.T.);
#1076=EDGE_CURVE('',#862,#826,#1239,.T.);
#1077=LINE('',#1876,#1240);
#1078=LINE('',#1879,#1241);
#1079=LINE('',#1881,#1242);
#1080=LINE('',#1883,#1243);
#1081=LINE('',#1885,#1244);
#1082=LINE('',#1887,#1245);
#1083=LINE('',#1889,#1246);
#1084=LINE('',#1891,#1247);
#1085=LINE('',#1893,#1248);
#1086=LINE('',#1895,#1249);
#1087=LINE('',#1897,#1250);
#1088=LINE('',#1899,#1251);
#1089=LINE('',#1901,#1252);
#1090=LINE('',#1903,#1253);
#1091=LINE('',#1905,#1254);
#1092=LINE('',#1907,#1255);
#1093=LINE('',#1909,#1256);
#1094=LINE('',#1911,#1257);
#1095=LINE('',#1913,#1258);
#1096=LINE('',#1915,#1259);
#1097=LINE('',#1918,#1260);
#1098=LINE('',#1920,#1261);
#1099=LINE('',#1922,#1262);
#1100=LINE('',#1924,#1263);
#1101=LINE('',#1926,#1264);
#1102=LINE('',#1928,#1265);
#1103=LINE('',#1931,#1266);
#1104=LINE('',#1933,#1267);
#1105=LINE('',#1935,#1268);
#1106=LINE('',#1940,#1269);
#1107=LINE('',#1941,#1270);
#1108=LINE('',#1943,#1271);
#1109=LINE('',#1945,#1272);
#1110=LINE('',#1947,#1273);
#1111=LINE('',#1951,#1274);
#1112=LINE('',#1953,#1275);
#1113=LINE('',#1955,#1276);
#1114=LINE('',#1961,#1277);
#1115=LINE('',#1963,#1278);
#1116=LINE('',#1966,#1279);
#1117=LINE('',#1968,#1280);
#1118=LINE('',#1970,#1281);
#1119=LINE('',#1972,#1282);
#1120=LINE('',#1975,#1283);
#1121=LINE('',#1976,#1284);
#1122=LINE('',#1978,#1285);
#1123=LINE('',#1979,#1286);
#1124=LINE('',#1981,#1287);
#1125=LINE('',#1985,#1288);
#1126=LINE('',#1987,#1289);
#1127=LINE('',#1989,#1290);
#1128=LINE('',#1991,#1291);
#1129=LINE('',#1993,#1292);
#1130=LINE('',#1997,#1293);
#1131=LINE('',#1999,#1294);
#1132=LINE('',#2001,#1295);
#1133=LINE('',#2003,#1296);
#1134=LINE('',#2005,#1297);
#1135=LINE('',#2007,#1298);
#1136=LINE('',#2008,#1299);
#1137=LINE('',#2010,#1300);
#1138=LINE('',#2012,#1301);
#1139=LINE('',#2014,#1302);
#1140=LINE('',#2016,#1303);
#1141=LINE('',#2018,#1304);
#1142=LINE('',#2020,#1305);
#1143=LINE('',#2022,#1306);
#1144=LINE('',#2024,#1307);
#1145=LINE('',#2026,#1308);
#1146=LINE('',#2028,#1309);
#1147=LINE('',#2029,#1310);
#1148=LINE('',#2031,#1311);
#1149=LINE('',#2033,#1312);
#1150=LINE('',#2036,#1313);
#1151=LINE('',#2038,#1314);
#1152=LINE('',#2040,#1315);
#1153=LINE('',#2041,#1316);
#1154=LINE('',#2042,#1317);
#1155=LINE('',#2044,#1318);
#1156=LINE('',#2046,#1319);
#1157=LINE('',#2048,#1320);
#1158=LINE('',#2050,#1321);
#1159=LINE('',#2051,#1322);
#1160=LINE('',#2053,#1323);
#1161=LINE('',#2055,#1324);
#1162=LINE('',#2057,#1325);
#1163=LINE('',#2059,#1326);
#1164=LINE('',#2060,#1327);
#1165=LINE('',#2061,#1328);
#1166=LINE('',#2063,#1329);
#1167=LINE('',#2065,#1330);
#1168=LINE('',#2067,#1331);
#1169=LINE('',#2069,#1332);
#1170=LINE('',#2071,#1333);
#1171=LINE('',#2077,#1334);
#1172=LINE('',#2084,#1335);
#1173=LINE('',#2086,#1336);
#1174=LINE('',#2088,#1337);
#1175=LINE('',#2090,#1338);
#1176=LINE('',#2093,#1339);
#1177=LINE('',#2095,#1340);
#1178=LINE('',#2097,#1341);
#1179=LINE('',#2099,#1342);
#1180=LINE('',#2103,#1343);
#1181=LINE('',#2105,#1344);
#1182=LINE('',#2107,#1345);
#1183=LINE('',#2109,#1346);
#1184=LINE('',#2110,#1347);
#1185=LINE('',#2114,#1348);
#1186=LINE('',#2116,#1349);
#1187=LINE('',#2118,#1350);
#1188=LINE('',#2126,#1351);
#1189=LINE('',#2130,#1352);
#1190=LINE('',#2134,#1353);
#1191=LINE('',#2138,#1354);
#1192=LINE('',#2139,#1355);
#1193=LINE('',#2144,#1356);
#1194=LINE('',#2148,#1357);
#1195=LINE('',#2152,#1358);
#1196=LINE('',#2156,#1359);
#1197=LINE('',#2158,#1360);
#1198=LINE('',#2160,#1361);
#1199=LINE('',#2162,#1362);
#1200=LINE('',#2166,#1363);
#1201=LINE('',#2168,#1364);
#1202=LINE('',#2170,#1365);
#1203=LINE('',#2174,#1366);
#1204=LINE('',#2176,#1367);
#1205=LINE('',#2178,#1368);
#1206=LINE('',#2180,#1369);
#1207=LINE('',#2185,#1370);
#1208=LINE('',#2188,#1371);
#1209=LINE('',#2191,#1372);
#1210=LINE('',#2195,#1373);
#1211=LINE('',#2199,#1374);
#1212=LINE('',#2203,#1375);
#1213=LINE('',#2205,#1376);
#1214=LINE('',#2207,#1377);
#1215=LINE('',#2210,#1378);
#1216=LINE('',#2211,#1379);
#1217=LINE('',#2213,#1380);
#1218=LINE('',#2215,#1381);
#1219=LINE('',#2217,#1382);
#1220=LINE('',#2219,#1383);
#1221=LINE('',#2220,#1384);
#1222=LINE('',#2222,#1385);
#1223=LINE('',#2224,#1386);
#1224=LINE('',#2229,#1387);
#1225=LINE('',#2232,#1388);
#1226=LINE('',#2235,#1389);
#1227=LINE('',#2238,#1390);
#1228=LINE('',#2240,#1391);
#1229=LINE('',#2243,#1392);
#1230=LINE('',#2246,#1393);
#1231=LINE('',#2249,#1394);
#1232=LINE('',#2253,#1395);
#1233=LINE('',#2254,#1396);
#1234=LINE('',#2256,#1397);
#1235=LINE('',#2257,#1398);
#1236=LINE('',#2265,#1399);
#1237=LINE('',#2266,#1400);
#1238=LINE('',#2268,#1401);
#1239=LINE('',#2270,#1402);
#1240=VECTOR('',#1508,1.);
#1241=VECTOR('',#1509,1.);
#1242=VECTOR('',#1510,1.);
#1243=VECTOR('',#1511,1.);
#1244=VECTOR('',#1512,1.);
#1245=VECTOR('',#1513,1.);
#1246=VECTOR('',#1514,1.);
#1247=VECTOR('',#1517,1.);
#1248=VECTOR('',#1518,1.);
#1249=VECTOR('',#1519,1.);
#1250=VECTOR('',#1520,1.);
#1251=VECTOR('',#1521,1.);
#1252=VECTOR('',#1524,1.);
#1253=VECTOR('',#1525,1.);
#1254=VECTOR('',#1526,1.);
#1255=VECTOR('',#1527,1.);
#1256=VECTOR('',#1528,1.);
#1257=VECTOR('',#1529,1.);
#1258=VECTOR('',#1530,1.);
#1259=VECTOR('',#1533,1.);
#1260=VECTOR('',#1534,1.);
#1261=VECTOR('',#1535,1.);
#1262=VECTOR('',#1536,1.);
#1263=VECTOR('',#1537,1.);
#1264=VECTOR('',#1538,1.);
#1265=VECTOR('',#1541,1.);
#1266=VECTOR('',#1542,1.);
#1267=VECTOR('',#1543,1.);
#1268=VECTOR('',#1544,1.);
#1269=VECTOR('',#1549,1.);
#1270=VECTOR('',#1550,1.);
#1271=VECTOR('',#1551,1.);
#1272=VECTOR('',#1552,1.);
#1273=VECTOR('',#1555,1.);
#1274=VECTOR('',#1558,1.);
#1275=VECTOR('',#1559,1.);
#1276=VECTOR('',#1560,1.);
#1277=VECTOR('',#1567,1.);
#1278=VECTOR('',#1570,1.);
#1279=VECTOR('',#1571,1.);
#1280=VECTOR('',#1572,1.);
#1281=VECTOR('',#1573,1.);
#1282=VECTOR('',#1576,1.);
#1283=VECTOR('',#1577,1.);
#1284=VECTOR('',#1578,1.);
#1285=VECTOR('',#1581,1.);
#1286=VECTOR('',#1582,1.);
#1287=VECTOR('',#1585,1.);
#1288=VECTOR('',#1588,1.);
#1289=VECTOR('',#1589,1.);
#1290=VECTOR('',#1590,1.);
#1291=VECTOR('',#1593,1.);
#1292=VECTOR('',#1594,1.);
#1293=VECTOR('',#1599,1.);
#1294=VECTOR('',#1600,1.);
#1295=VECTOR('',#1601,1.);
#1296=VECTOR('',#1602,1.);
#1297=VECTOR('',#1605,1.);
#1298=VECTOR('',#1606,1.);
#1299=VECTOR('',#1607,1.);
#1300=VECTOR('',#1608,1.);
#1301=VECTOR('',#1609,1.);
#1302=VECTOR('',#1612,1.);
#1303=VECTOR('',#1613,1.);
#1304=VECTOR('',#1614,1.);
#1305=VECTOR('',#1615,1.);
#1306=VECTOR('',#1616,1.);
#1307=VECTOR('',#1619,1.);
#1308=VECTOR('',#1620,1.);
#1309=VECTOR('',#1621,1.);
#1310=VECTOR('',#1622,1.);
#1311=VECTOR('',#1623,1.);
#1312=VECTOR('',#1626,1.);
#1313=VECTOR('',#1627,1.);
#1314=VECTOR('',#1628,1.);
#1315=VECTOR('',#1629,1.);
#1316=VECTOR('',#1630,1.);
#1317=VECTOR('',#1631,1.);
#1318=VECTOR('',#1632,1.);
#1319=VECTOR('',#1633,1.);
#1320=VECTOR('',#1634,1.);
#1321=VECTOR('',#1635,1.);
#1322=VECTOR('',#1636,1.);
#1323=VECTOR('',#1637,1.);
#1324=VECTOR('',#1638,1.);
#1325=VECTOR('',#1639,1.);
#1326=VECTOR('',#1640,1.);
#1327=VECTOR('',#1641,1.);
#1328=VECTOR('',#1642,1.);
#1329=VECTOR('',#1643,1.);
#1330=VECTOR('',#1644,1.);
#1331=VECTOR('',#1645,1.);
#1332=VECTOR('',#1646,1.);
#1333=VECTOR('',#1649,1.);
#1334=VECTOR('',#1650,1.);
#1335=VECTOR('',#1653,1.);
#1336=VECTOR('',#1656,1.);
#1337=VECTOR('',#1659,1.);
#1338=VECTOR('',#1662,1.);
#1339=VECTOR('',#1667,1.);
#1340=VECTOR('',#1670,1.);
#1341=VECTOR('',#1673,1.);
#1342=VECTOR('',#1676,1.);
#1343=VECTOR('',#1683,0.999999999999999);
#1344=VECTOR('',#1684,0.999999999999999);
#1345=VECTOR('',#1685,1.);
#1346=VECTOR('',#1688,1.);
#1347=VECTOR('',#1689,1.);
#1348=VECTOR('',#1696,1.);
#1349=VECTOR('',#1699,1.);
#1350=VECTOR('',#1702,1.);
#1351=VECTOR('',#1713,1.);
#1352=VECTOR('',#1716,1.);
#1353=VECTOR('',#1719,1.);
#1354=VECTOR('',#1722,1.);
#1355=VECTOR('',#1723,1.);
#1356=VECTOR('',#1726,1.);
#1357=VECTOR('',#1729,1.);
#1358=VECTOR('',#1732,1.);
#1359=VECTOR('',#1737,1.);
#1360=VECTOR('',#1738,1.);
#1361=VECTOR('',#1739,1.);
#1362=VECTOR('',#1742,1.);
#1363=VECTOR('',#1747,1.);
#1364=VECTOR('',#1748,1.);
#1365=VECTOR('',#1751,1.);
#1366=VECTOR('',#1756,1.);
#1367=VECTOR('',#1757,1.);
#1368=VECTOR('',#1758,1.);
#1369=VECTOR('',#1759,1.);
#1370=VECTOR('',#1764,1.);
#1371=VECTOR('',#1767,1.);
#1372=VECTOR('',#1770,1.);
#1373=VECTOR('',#1773,1.);
#1374=VECTOR('',#1776,1.);
#1375=VECTOR('',#1779,1.);
#1376=VECTOR('',#1782,1.);
#1377=VECTOR('',#1785,1.);
#1378=VECTOR('',#1790,1.);
#1379=VECTOR('',#1791,1.);
#1380=VECTOR('',#1794,1.);
#1381=VECTOR('',#1797,1.);
#1382=VECTOR('',#1800,1.);
#1383=VECTOR('',#1803,1.);
#1384=VECTOR('',#1804,1.);
#1385=VECTOR('',#1807,1.);
#1386=VECTOR('',#1810,1.);
#1387=VECTOR('',#1817,1.);
#1388=VECTOR('',#1820,1.);
#1389=VECTOR('',#1823,1.);
#1390=VECTOR('',#1826,1.);
#1391=VECTOR('',#1829,1.);
#1392=VECTOR('',#1832,1.);
#1393=VECTOR('',#1835,1.);
#1394=VECTOR('',#1838,1.);
#1395=VECTOR('',#1843,1.);
#1396=VECTOR('',#1844,1.);
#1397=VECTOR('',#1847,1.);
#1398=VECTOR('',#1848,1.);
#1399=VECTOR('',#1863,1.);
#1400=VECTOR('',#1864,1.);
#1401=VECTOR('',#1867,1.);
#1402=VECTOR('',#1870,1.);
#1403=AXIS2_PLACEMENT_3D('',#1875,#1506,#1507);
#1404=AXIS2_PLACEMENT_3D('',#1890,#1515,#1516);
#1405=AXIS2_PLACEMENT_3D('',#1900,#1522,#1523);
#1406=AXIS2_PLACEMENT_3D('',#1914,#1531,#1532);
#1407=AXIS2_PLACEMENT_3D('',#1927,#1539,#1540);
#1408=AXIS2_PLACEMENT_3D('',#1936,#1545,#1546);
#1409=AXIS2_PLACEMENT_3D('',#1937,#1547,#1548);
#1410=AXIS2_PLACEMENT_3D('',#1946,#1553,#1554);
#1411=AXIS2_PLACEMENT_3D('',#1949,#1556,#1557);
#1412=AXIS2_PLACEMENT_3D('',#1956,#1561,#1562);
#1413=AXIS2_PLACEMENT_3D('',#1957,#1563,#1564);
#1414=AXIS2_PLACEMENT_3D('',#1959,#1565,#1566);
#1415=AXIS2_PLACEMENT_3D('',#1962,#1568,#1569);
#1416=AXIS2_PLACEMENT_3D('',#1971,#1574,#1575);
#1417=AXIS2_PLACEMENT_3D('',#1977,#1579,#1580);
#1418=AXIS2_PLACEMENT_3D('',#1980,#1583,#1584);
#1419=AXIS2_PLACEMENT_3D('',#1983,#1586,#1587);
#1420=AXIS2_PLACEMENT_3D('',#1990,#1591,#1592);
#1421=AXIS2_PLACEMENT_3D('',#1995,#1595,#1596);
#1422=AXIS2_PLACEMENT_3D('',#1996,#1597,#1598);
#1423=AXIS2_PLACEMENT_3D('',#2004,#1603,#1604);
#1424=AXIS2_PLACEMENT_3D('',#2013,#1610,#1611);
#1425=AXIS2_PLACEMENT_3D('',#2023,#1617,#1618);
#1426=AXIS2_PLACEMENT_3D('',#2032,#1624,#1625);
#1427=AXIS2_PLACEMENT_3D('',#2070,#1647,#1648);
#1428=AXIS2_PLACEMENT_3D('',#2083,#1651,#1652);
#1429=AXIS2_PLACEMENT_3D('',#2085,#1654,#1655);
#1430=AXIS2_PLACEMENT_3D('',#2087,#1657,#1658);
#1431=AXIS2_PLACEMENT_3D('',#2089,#1660,#1661);
#1432=AXIS2_PLACEMENT_3D('',#2091,#1663,#1664);
#1433=AXIS2_PLACEMENT_3D('',#2092,#1665,#1666);
#1434=AXIS2_PLACEMENT_3D('',#2094,#1668,#1669);
#1435=AXIS2_PLACEMENT_3D('',#2096,#1671,#1672);
#1436=AXIS2_PLACEMENT_3D('',#2098,#1674,#1675);
#1437=AXIS2_PLACEMENT_3D('',#2100,#1677,#1678);
#1438=AXIS2_PLACEMENT_3D('',#2101,#1679,#1680);
#1439=AXIS2_PLACEMENT_3D('',#2102,#1681,#1682);
#1440=AXIS2_PLACEMENT_3D('',#2108,#1686,#1687);
#1441=AXIS2_PLACEMENT_3D('',#2111,#1690,#1691);
#1442=AXIS2_PLACEMENT_3D('',#2112,#1692,#1693);
#1443=AXIS2_PLACEMENT_3D('',#2113,#1694,#1695);
#1444=AXIS2_PLACEMENT_3D('',#2115,#1697,#1698);
#1445=AXIS2_PLACEMENT_3D('',#2117,#1700,#1701);
#1446=AXIS2_PLACEMENT_3D('',#2119,#1703,#1704);
#1447=AXIS2_PLACEMENT_3D('',#2120,#1705,#1706);
#1448=AXIS2_PLACEMENT_3D('',#2121,#1707,#1708);
#1449=AXIS2_PLACEMENT_3D('',#2122,#1709,#1710);
#1450=AXIS2_PLACEMENT_3D('',#2123,#1711,#1712);
#1451=AXIS2_PLACEMENT_3D('',#2128,#1714,#1715);
#1452=AXIS2_PLACEMENT_3D('',#2132,#1717,#1718);
#1453=AXIS2_PLACEMENT_3D('',#2136,#1720,#1721);
#1454=AXIS2_PLACEMENT_3D('',#2142,#1724,#1725);
#1455=AXIS2_PLACEMENT_3D('',#2146,#1727,#1728);
#1456=AXIS2_PLACEMENT_3D('',#2150,#1730,#1731);
#1457=AXIS2_PLACEMENT_3D('',#2154,#1733,#1734);
#1458=AXIS2_PLACEMENT_3D('',#2155,#1735,#1736);
#1459=AXIS2_PLACEMENT_3D('',#2161,#1740,#1741);
#1460=AXIS2_PLACEMENT_3D('',#2164,#1743,#1744);
#1461=AXIS2_PLACEMENT_3D('',#2165,#1745,#1746);
#1462=AXIS2_PLACEMENT_3D('',#2169,#1749,#1750);
#1463=AXIS2_PLACEMENT_3D('',#2172,#1752,#1753);
#1464=AXIS2_PLACEMENT_3D('',#2173,#1754,#1755);
#1465=AXIS2_PLACEMENT_3D('',#2181,#1760,#1761);
#1466=AXIS2_PLACEMENT_3D('',#2182,#1762,#1763);
#1467=AXIS2_PLACEMENT_3D('',#2186,#1765,#1766);
#1468=AXIS2_PLACEMENT_3D('',#2190,#1768,#1769);
#1469=AXIS2_PLACEMENT_3D('',#2193,#1771,#1772);
#1470=AXIS2_PLACEMENT_3D('',#2197,#1774,#1775);
#1471=AXIS2_PLACEMENT_3D('',#2201,#1777,#1778);
#1472=AXIS2_PLACEMENT_3D('',#2204,#1780,#1781);
#1473=AXIS2_PLACEMENT_3D('',#2206,#1783,#1784);
#1474=AXIS2_PLACEMENT_3D('',#2208,#1786,#1787);
#1475=AXIS2_PLACEMENT_3D('',#2209,#1788,#1789);
#1476=AXIS2_PLACEMENT_3D('',#2212,#1792,#1793);
#1477=AXIS2_PLACEMENT_3D('',#2214,#1795,#1796);
#1478=AXIS2_PLACEMENT_3D('',#2216,#1798,#1799);
#1479=AXIS2_PLACEMENT_3D('',#2218,#1801,#1802);
#1480=AXIS2_PLACEMENT_3D('',#2221,#1805,#1806);
#1481=AXIS2_PLACEMENT_3D('',#2223,#1808,#1809);
#1482=AXIS2_PLACEMENT_3D('',#2225,#1811,#1812);
#1483=AXIS2_PLACEMENT_3D('',#2226,#1813,#1814);
#1484=AXIS2_PLACEMENT_3D('',#2227,#1815,#1816);
#1485=AXIS2_PLACEMENT_3D('',#2230,#1818,#1819);
#1486=AXIS2_PLACEMENT_3D('',#2234,#1821,#1822);
#1487=AXIS2_PLACEMENT_3D('',#2236,#1824,#1825);
#1488=AXIS2_PLACEMENT_3D('',#2239,#1827,#1828);
#1489=AXIS2_PLACEMENT_3D('',#2241,#1830,#1831);
#1490=AXIS2_PLACEMENT_3D('',#2245,#1833,#1834);
#1491=AXIS2_PLACEMENT_3D('',#2247,#1836,#1837);
#1492=AXIS2_PLACEMENT_3D('',#2251,#1839,#1840);
#1493=AXIS2_PLACEMENT_3D('',#2252,#1841,#1842);
#1494=AXIS2_PLACEMENT_3D('',#2255,#1845,#1846);
#1495=AXIS2_PLACEMENT_3D('',#2258,#1849,#1850);
#1496=AXIS2_PLACEMENT_3D('',#2259,#1851,#1852);
#1497=AXIS2_PLACEMENT_3D('',#2260,#1853,#1854);
#1498=AXIS2_PLACEMENT_3D('',#2261,#1855,#1856);
#1499=AXIS2_PLACEMENT_3D('',#2262,#1857,#1858);
#1500=AXIS2_PLACEMENT_3D('',#2263,#1859,#1860);
#1501=AXIS2_PLACEMENT_3D('',#2264,#1861,#1862);
#1502=AXIS2_PLACEMENT_3D('',#2267,#1865,#1866);
#1503=AXIS2_PLACEMENT_3D('',#2269,#1868,#1869);
#1504=AXIS2_PLACEMENT_3D('',#2271,#1871,#1872);
#1505=AXIS2_PLACEMENT_3D('',#2272,#1873,#1874);
#1506=DIRECTION('',(0.,0.,1.));
#1507=DIRECTION('',(1.,0.,0.));
#1508=DIRECTION('',(0.,-1.,0.));
#1509=DIRECTION('',(-1.,-1.80428808627663E-15,0.));
#1510=DIRECTION('',(0.,-1.,0.));
#1511=DIRECTION('',(-0.965925826289476,-0.258819045100998,0.));
#1512=DIRECTION('',(-0.5,0.866025403784439,0.));
#1513=DIRECTION('',(0.,-1.,0.));
#1514=DIRECTION('',(-1.,0.,0.));
#1515=DIRECTION('',(0.,0.,1.));
#1516=DIRECTION('',(1.,0.,0.));
#1517=DIRECTION('',(0.,0.,1.));
#1518=DIRECTION('',(0.,1.,0.));
#1519=DIRECTION('',(0.,1.86663214775123E-15,-1.));
#1520=DIRECTION('',(0.,-1.,0.));
#1521=DIRECTION('',(0.,0.,-1.));
#1522=DIRECTION('',(-1.,0.,0.));
#1523=DIRECTION('',(0.,0.,1.));
#1524=DIRECTION('',(-0.121869343405148,-4.78275863956288E-16,-0.992546151641322));
#1525=DIRECTION('',(9.72346137165804E-63,1.,-4.8186763221578E-16));
#1526=DIRECTION('',(-0.121869343405148,-4.78275863956288E-16,-0.992546151641322));
#1527=DIRECTION('',(0.,1.,0.));
#1528=DIRECTION('',(0.121869343405148,6.17572851593486E-16,0.992546151641322));
#1529=DIRECTION('',(1.70397808228619E-16,1.,1.38777878078145E-15));
#1530=DIRECTION('',(-0.121869343405148,0.,-0.992546151641322));
#1531=DIRECTION('',(0.992546151641322,0.,-0.121869343405148));
#1532=DIRECTION('',(-0.121869343405148,0.,-0.992546151641322));
#1533=DIRECTION('',(-0.633151636846338,0.774027780353395,1.80196899797658E-15));
#1534=DIRECTION('',(0.,-1.,0.));
#1535=DIRECTION('',(-0.63315154305419,-0.774027857074988,1.80196873104124E-15));
#1536=DIRECTION('',(-1.,0.,0.));
#1537=DIRECTION('',(0.,1.,0.));
#1538=DIRECTION('',(1.,0.,0.));
#1539=DIRECTION('',(0.,0.,1.));
#1540=DIRECTION('',(1.,0.,0.));
#1541=DIRECTION('',(-1.31202961159171E-15,1.,0.));
#1542=DIRECTION('',(-0.953616940377403,-0.10595743781971,0.281758322673746));
#1543=DIRECTION('',(1.31202961159171E-15,-1.,0.));
#1544=DIRECTION('',(0.953616940377403,-0.105957437819712,-0.281758322673746));
#1545=DIRECTION('',(-0.283353413683772,-3.71768069298704E-16,-0.959015559286581));
#1546=DIRECTION('',(-0.959015559286581,0.,0.283353413683772));
#1547=DIRECTION('',(-0.110431526074847,-0.993883734673619,0.));
#1548=DIRECTION('',(0.993883734673619,-0.110431526074847,0.));
#1549=DIRECTION('',(0.993883734673619,-0.110431526074847,0.));
#1550=DIRECTION('',(0.877023423392838,-0.0974470470436489,-0.470461462654254));
#1551=DIRECTION('',(-0.283213084623439,0.0314681205137155,-0.95854061264477));
#1552=DIRECTION('',(-0.953616940377405,0.105957437819712,0.281758322673741));
#1553=DIRECTION('',(0.110431526074847,0.993883734673619,0.));
#1554=DIRECTION('',(-0.993883734673619,0.110431526074847,0.));
#1555=DIRECTION('',(-0.993883734673619,-0.110431526074845,0.));
#1556=DIRECTION('',(-0.110431526074845,0.993883734673619,0.));
#1557=DIRECTION('',(-0.993883734673619,-0.110431526074845,0.));
#1558=DIRECTION('',(0.953616940377405,0.10595743781971,-0.281758322673741));
#1559=DIRECTION('',(0.283213084623439,0.031468120513715,0.95854061264477));
#1560=DIRECTION('',(-0.877023423392838,-0.0974470470436472,0.470461462654254));
#1561=DIRECTION('',(0.110431526074845,-0.993883734673619,0.));
#1562=DIRECTION('',(0.993883734673619,0.110431526074845,0.));
#1563=DIRECTION('',(1.78617087681509E-78,-1.,4.8186763221578E-16));
#1564=DIRECTION('',(-1.,0.,2.15048364790513E-16));
#1565=DIRECTION('',(1.78617087681509E-78,-1.,4.8186763221578E-16));
#1566=DIRECTION('',(-1.,0.,2.15048364790513E-16));
#1567=DIRECTION('',(9.72346137165804E-63,1.,-4.8186763221578E-16));
#1568=DIRECTION('',(9.72346137165804E-63,1.,-4.8186763221578E-16));
#1569=DIRECTION('',(0.,5.73462306108035E-16,1.));
#1570=DIRECTION('',(0.,1.,0.));
#1571=DIRECTION('',(-0.98888025416233,0.,-0.148713963459538));
#1572=DIRECTION('',(0.,1.,0.));
#1573=DIRECTION('',(0.98888025416233,-2.77594265013076E-16,0.148713963459538));
#1574=DIRECTION('',(-0.148713963459538,0.,0.98888025416233));
#1575=DIRECTION('',(0.98888025416233,0.,0.148713963459538));
#1576=DIRECTION('',(0.,1.,1.38777878078145E-15));
#1577=DIRECTION('',(0.,-6.22210715917076E-16,-1.));
#1578=DIRECTION('',(0.,1.86663214775123E-15,-1.));
#1579=DIRECTION('',(-1.,0.,0.));
#1580=DIRECTION('',(0.,0.,1.));
#1581=DIRECTION('',(-1.,0.,0.));
#1582=DIRECTION('',(-1.,0.,0.));
#1583=DIRECTION('',(0.,-1.38777878078145E-15,1.));
#1584=DIRECTION('',(0.,-1.,-1.38777878078145E-15));
#1585=DIRECTION('',(0.,0.,1.));
#1586=DIRECTION('',(1.78617087681509E-78,-1.,4.8186763221578E-16));
#1587=DIRECTION('',(-1.,0.,2.16840434497101E-16));
#1588=DIRECTION('',(1.,1.78617087681509E-78,0.));
#1589=DIRECTION('',(0.,-4.8186763221578E-16,-1.));
#1590=DIRECTION('',(-1.,0.,0.));
#1591=DIRECTION('',(1.78617087681509E-78,-1.,4.8186763221578E-16));
#1592=DIRECTION('',(0.,-4.82253126321552E-16,-1.));
#1593=DIRECTION('',(0.,-4.8186763221578E-16,-1.));
#1594=DIRECTION('',(1.,1.78617087681509E-78,0.));
#1595=DIRECTION('',(1.78617087681509E-78,-1.,4.8186763221578E-16));
#1596=DIRECTION('',(-1.,0.,2.16840434497101E-16));
#1597=DIRECTION('',(1.78617087681509E-78,-1.,4.8186763221578E-16));
#1598=DIRECTION('',(0.,-4.82253126321552E-16,-1.));
#1599=DIRECTION('',(0.,-1.,0.));
#1600=DIRECTION('',(0.,0.,-1.));
#1601=DIRECTION('',(0.,-1.,0.));
#1602=DIRECTION('',(0.,6.22210715917076E-16,1.));
#1603=DIRECTION('',(-1.,0.,0.));
#1604=DIRECTION('',(0.,0.,1.));
#1605=DIRECTION('',(-1.,0.,0.));
#1606=DIRECTION('',(0.,0.,1.));
#1607=DIRECTION('',(0.,-6.22210715917076E-16,-1.));
#1608=DIRECTION('',(0.668165689361615,0.,-0.744012507663627));
#1609=DIRECTION('',(0.338096949412025,5.85569527073157E-16,0.941111286085914));
#1610=DIRECTION('',(0.,-1.,6.22210715917076E-16));
#1611=DIRECTION('',(0.,-6.22765727875674E-16,-1.));
#1612=DIRECTION('',(0.,-1.,0.));
#1613=DIRECTION('',(1.,0.,0.));
#1614=DIRECTION('',(1.16244578398889E-14,-1.,0.));
#1615=DIRECTION('',(0.5,0.866025403784439,0.));
#1616=DIRECTION('',(0.965925826289073,-0.258819045102506,0.));
#1617=DIRECTION('',(0.,0.,1.));
#1618=DIRECTION('',(1.,0.,0.));
#1619=DIRECTION('',(-0.338096949412025,1.75670858121947E-15,-0.941111286085914));
#1620=DIRECTION('',(-0.668165689361615,-1.38879766513393E-15,0.744012507663627));
#1621=DIRECTION('',(0.,-1.86663214775123E-15,1.));
#1622=DIRECTION('',(0.,-1.86663214775123E-15,1.));
#1623=DIRECTION('',(-1.,0.,0.));
#1624=DIRECTION('',(0.,1.,1.86663214775123E-15));
#1625=DIRECTION('',(0.,-1.86656246015104E-15,1.));
#1626=DIRECTION('',(0.,-1.,0.));
#1627=DIRECTION('',(1.,0.,0.));
#1628=DIRECTION('',(0.,1.,0.));
#1629=DIRECTION('',(1.,0.,0.));
#1630=DIRECTION('',(1.31202961159171E-15,-1.,0.));
#1631=DIRECTION('',(-0.633151636846338,0.774027780353395,1.80196899797658E-15));
#1632=DIRECTION('',(-1.,0.,0.));
#1633=DIRECTION('',(0.,1.,0.));
#1634=DIRECTION('',(1.,0.,0.));
#1635=DIRECTION('',(-0.63315154305419,-0.774027857074988,1.80196873104124E-15));
#1636=DIRECTION('',(0.965925826289073,-0.258819045102506,0.));
#1637=DIRECTION('',(0.5,0.866025403784439,0.));
#1638=DIRECTION('',(1.16244578398889E-14,-1.,0.));
#1639=DIRECTION('',(1.,0.,0.));
#1640=DIRECTION('',(0.,-1.,0.));
#1641=DIRECTION('',(0.,-1.,0.));
#1642=DIRECTION('',(0.,-1.,0.));
#1643=DIRECTION('',(-1.,0.,0.));
#1644=DIRECTION('',(0.,-1.,0.));
#1645=DIRECTION('',(-0.5,0.866025403784439,0.));
#1646=DIRECTION('',(-0.965925826289476,-0.258819045100998,0.));
#1647=DIRECTION('',(0.,0.,-1.));
#1648=DIRECTION('',(-1.,0.,0.));
#1649=DIRECTION('',(0.,-1.,0.));
#1650=DIRECTION('',(0.,-1.,0.));
#1651=DIRECTION('',(-0.744012507663627,0.,-0.668165689361615));
#1652=DIRECTION('',(-0.668165689361615,0.,0.744012507663627));
#1653=DIRECTION('',(0.,0.,-1.));
#1654=DIRECTION('',(-1.,0.,0.));
#1655=DIRECTION('',(0.,0.,1.));
#1656=DIRECTION('',(0.,0.,-1.));
#1657=DIRECTION('',(0.,1.,0.));
#1658=DIRECTION('',(0.,0.,1.));
#1659=DIRECTION('',(0.,0.,-1.));
#1660=DIRECTION('',(1.,1.16244578398889E-14,0.));
#1661=DIRECTION('',(-1.16261167359966E-14,1.,0.));
#1662=DIRECTION('',(0.,0.,-1.));
#1663=DIRECTION('',(-0.866025403784439,0.5,0.));
#1664=DIRECTION('',(-0.5,-0.866025403784439,0.));
#1665=DIRECTION('',(-0.258819045102505,-0.965925826289072,0.));
#1666=DIRECTION('',(0.965925826289073,-0.258819045102506,0.));
#1667=DIRECTION('',(0.,0.,-1.));
#1668=DIRECTION('',(0.258819045100998,-0.965925826289476,0.));
#1669=DIRECTION('',(0.965925826289476,0.258819045100998,0.));
#1670=DIRECTION('',(0.,0.,-1.));
#1671=DIRECTION('',(-0.866025403784439,-0.5,0.));
#1672=DIRECTION('',(0.5,-0.866025403784439,0.));
#1673=DIRECTION('',(0.,0.,-1.));
#1674=DIRECTION('',(1.,0.,0.));
#1675=DIRECTION('',(0.,0.,-1.));
#1676=DIRECTION('',(0.,0.,-1.));
#1677=DIRECTION('',(0.,-1.,0.));
#1678=DIRECTION('',(0.,0.,-1.));
#1679=DIRECTION('',(1.,0.,0.));
#1680=DIRECTION('',(0.,0.,-1.));
#1681=DIRECTION('',(9.72346137165804E-63,1.,-4.8186763221578E-16));
#1682=DIRECTION('',(0.,0.,1.));
#1683=DIRECTION('',(-0.920437355224333,0.,-0.390890106177726));
#1684=DIRECTION('',(-0.920437355224333,0.,-0.390890106177726));
#1685=DIRECTION('',(0.,1.,0.));
#1686=DIRECTION('',(0.390890106177726,0.,-0.920437355224334));
#1687=DIRECTION('',(-0.920437355224334,0.,-0.390890106177726));
#1688=DIRECTION('',(-0.390890106177729,0.,0.920437355224333));
#1689=DIRECTION('',(-0.390890106177729,0.,0.920437355224333));
#1690=DIRECTION('',(-0.920437355224333,0.,-0.390890106177729));
#1691=DIRECTION('',(-0.390890106177729,0.,0.920437355224333));
#1692=DIRECTION('',(0.,1.,0.));
#1693=DIRECTION('',(0.,0.,1.));
#1694=DIRECTION('',(0.,1.,0.));
#1695=DIRECTION('',(0.,0.,1.));
#1696=DIRECTION('',(1.31202961159171E-15,-1.,0.));
#1697=DIRECTION('',(-0.472711231975486,-6.20211134083834E-16,-0.881217391546614));
#1698=DIRECTION('',(-0.881217391546614,0.,0.472711231975486));
#1699=DIRECTION('',(1.31202961159171E-15,-1.,0.));
#1700=DIRECTION('',(-0.959015559286582,-1.25825681176118E-15,0.283353413683767));
#1701=DIRECTION('',(0.283353413683767,0.,0.959015559286582));
#1702=DIRECTION('',(1.31202961159171E-15,-1.,0.));
#1703=DIRECTION('',(0.283353413683766,3.71768069298697E-16,0.959015559286582));
#1704=DIRECTION('',(0.959015559286582,0.,-0.283353413683766));
#1705=DIRECTION('',(1.31202961159171E-15,-1.,0.));
#1706=DIRECTION('',(1.,0.,0.));
#1707=DIRECTION('',(-1.,0.,0.));
#1708=DIRECTION('',(0.,0.,1.));
#1709=DIRECTION('',(-0.941111286085914,0.,0.338096949412025));
#1710=DIRECTION('',(0.338096949412025,0.,0.941111286085914));
#1711=DIRECTION('',(-1.,0.,0.));
#1712=DIRECTION('',(0.,0.,-1.));
#1713=DIRECTION('',(0.,0.,1.));
#1714=DIRECTION('',(-1.,0.,0.));
#1715=DIRECTION('',(0.,0.,-1.));
#1716=DIRECTION('',(0.,-1.,0.));
#1717=DIRECTION('',(-1.,0.,0.));
#1718=DIRECTION('',(0.,0.,-1.));
#1719=DIRECTION('',(0.,0.,-1.));
#1720=DIRECTION('',(-1.,0.,0.));
#1721=DIRECTION('',(0.,0.,-1.));
#1722=DIRECTION('',(0.,1.,0.));
#1723=DIRECTION('',(0.,0.,1.));
#1724=DIRECTION('',(-1.,0.,0.));
#1725=DIRECTION('',(0.,0.,-1.));
#1726=DIRECTION('',(0.,1.,0.));
#1727=DIRECTION('',(-1.,0.,0.));
#1728=DIRECTION('',(0.,0.,-1.));
#1729=DIRECTION('',(0.,0.,-1.));
#1730=DIRECTION('',(-1.,0.,0.));
#1731=DIRECTION('',(0.,0.,-1.));
#1732=DIRECTION('',(0.,-1.,0.));
#1733=DIRECTION('',(-1.,0.,0.));
#1734=DIRECTION('',(0.,0.,-1.));
#1735=DIRECTION('',(1.,0.,0.));
#1736=DIRECTION('',(0.,1.,0.));
#1737=DIRECTION('',(-1.,0.,0.));
#1738=DIRECTION('',(-1.,0.,0.));
#1739=DIRECTION('',(0.,1.,0.));
#1740=DIRECTION('',(0.,0.,1.));
#1741=DIRECTION('',(1.,0.,0.));
#1742=DIRECTION('',(-1.,0.,0.));
#1743=DIRECTION('',(-1.,0.,0.));
#1744=DIRECTION('',(0.,-0.74955370656536,-0.661943533070707));
#1745=DIRECTION('',(-1.,0.,0.));
#1746=DIRECTION('',(0.,0.,1.));
#1747=DIRECTION('',(-1.,0.,0.));
#1748=DIRECTION('',(0.,0.,-1.));
#1749=DIRECTION('',(0.,1.,0.));
#1750=DIRECTION('',(0.,0.,1.));
#1751=DIRECTION('',(-1.,0.,0.));
#1752=DIRECTION('',(-1.,0.,0.));
#1753=DIRECTION('',(0.,-0.74955370656536,0.661943533070707));
#1754=DIRECTION('',(-1.,0.,0.));
#1755=DIRECTION('',(0.,0.,1.));
#1756=DIRECTION('',(-1.,0.,0.));
#1757=DIRECTION('',(0.,1.,0.));
#1758=DIRECTION('',(0.,-1.,0.));
#1759=DIRECTION('',(0.,1.,0.));
#1760=DIRECTION('',(0.,0.,-1.));
#1761=DIRECTION('',(-1.,0.,0.));
#1762=DIRECTION('',(-1.,0.,0.));
#1763=DIRECTION('',(0.,0.,1.));
#1764=DIRECTION('',(0.,-1.34384706553094E-16,1.));
#1765=DIRECTION('',(-1.,0.,0.));
#1766=DIRECTION('',(0.,0.74955370656536,0.661943533070707));
#1767=DIRECTION('',(0.,0.,1.));
#1768=DIRECTION('',(-1.,0.,0.));
#1769=DIRECTION('',(0.,0.997226992609779,-0.074419924821625));
#1770=DIRECTION('',(0.,1.45141568536496E-14,-1.));
#1771=DIRECTION('',(-1.,0.,0.));
#1772=DIRECTION('',(0.,0.,1.));
#1773=DIRECTION('',(0.,0.,-1.));
#1774=DIRECTION('',(-1.,0.,0.));
#1775=DIRECTION('',(0.,0.,1.));
#1776=DIRECTION('',(0.,1.,0.));
#1777=DIRECTION('',(-1.,0.,0.));
#1778=DIRECTION('',(0.,0.,1.));
#1779=DIRECTION('',(0.,0.,1.));
#1780=DIRECTION('',(-1.,0.,0.));
#1781=DIRECTION('',(0.,0.,1.));
#1782=DIRECTION('',(-1.,0.,0.));
#1783=DIRECTION('',(-1.,0.,0.));
#1784=DIRECTION('',(0.,0.,1.));
#1785=DIRECTION('',(-1.,0.,0.));
#1786=DIRECTION('',(-1.,0.,0.));
#1787=DIRECTION('',(0.,0.,1.));
#1788=DIRECTION('',(0.,-1.,0.));
#1789=DIRECTION('',(0.,0.,-1.));
#1790=DIRECTION('',(-1.,0.,0.));
#1791=DIRECTION('',(-1.,0.,0.));
#1792=DIRECTION('',(0.,0.,1.));
#1793=DIRECTION('',(1.,0.,0.));
#1794=DIRECTION('',(-1.,0.,0.));
#1795=DIRECTION('',(-1.,0.,0.));
#1796=DIRECTION('',(0.,0.,1.));
#1797=DIRECTION('',(-1.,0.,0.));
#1798=DIRECTION('',(0.,1.,0.));
#1799=DIRECTION('',(0.,0.,1.));
#1800=DIRECTION('',(-1.,0.,0.));
#1801=DIRECTION('',(-1.,0.,0.));
#1802=DIRECTION('',(0.,0.,1.));
#1803=DIRECTION('',(0.,-1.,0.));
#1804=DIRECTION('',(-1.,0.,0.));
#1805=DIRECTION('',(0.,0.,-1.));
#1806=DIRECTION('',(-1.,0.,0.));
#1807=DIRECTION('',(-1.,0.,0.));
#1808=DIRECTION('',(-1.,0.,0.));
#1809=DIRECTION('',(0.,0.,1.));
#1810=DIRECTION('',(-1.,0.,0.));
#1811=DIRECTION('',(-1.,0.,0.));
#1812=DIRECTION('',(0.,0.,1.));
#1813=DIRECTION('',(0.,-1.,0.));
#1814=DIRECTION('',(0.,0.,-1.));
#1815=DIRECTION('',(1.,0.,0.));
#1816=DIRECTION('',(0.,0.,-1.));
#1817=DIRECTION('',(0.,1.45141568536496E-14,-1.));
#1818=DIRECTION('',(1.,0.,0.));
#1819=DIRECTION('',(0.,0.,-1.));
#1820=DIRECTION('',(0.,-1.,0.));
#1821=DIRECTION('',(1.,0.,0.));
#1822=DIRECTION('',(0.,0.,-1.));
#1823=DIRECTION('',(0.,-1.34384706553094E-16,1.));
#1824=DIRECTION('',(1.,0.,0.));
#1825=DIRECTION('',(0.,0.,-1.));
#1826=DIRECTION('',(0.,-1.,0.));
#1827=DIRECTION('',(1.,0.,0.));
#1828=DIRECTION('',(0.,0.,-1.));
#1829=DIRECTION('',(0.,0.,1.));
#1830=DIRECTION('',(1.,0.,0.));
#1831=DIRECTION('',(0.,-1.,2.06514699521048E-16));
#1832=DIRECTION('',(0.,-1.,0.));
#1833=DIRECTION('',(1.,0.,0.));
#1834=DIRECTION('',(0.,-0.999999999999999,2.06514699521048E-16));
#1835=DIRECTION('',(0.,0.,-1.));
#1836=DIRECTION('',(1.,0.,0.));
#1837=DIRECTION('',(0.,0.,-1.));
#1838=DIRECTION('',(0.,-1.,0.));
#1839=DIRECTION('',(1.,0.,0.));
#1840=DIRECTION('',(0.,0.,-1.));
#1841=DIRECTION('',(1.,0.,0.));
#1842=DIRECTION('',(0.,0.,-1.));
#1843=DIRECTION('',(-1.,0.,0.));
#1844=DIRECTION('',(-1.,0.,0.));
#1845=DIRECTION('',(0.,0.,-1.));
#1846=DIRECTION('',(-1.,0.,0.));
#1847=DIRECTION('',(1.,0.,0.));
#1848=DIRECTION('',(-1.,0.,0.));
#1849=DIRECTION('',(0.,0.,-1.));
#1850=DIRECTION('',(-1.,0.,0.));
#1851=DIRECTION('',(-1.,0.,0.));
#1852=DIRECTION('',(0.,0.,1.));
#1853=DIRECTION('',(-1.,0.,0.));
#1854=DIRECTION('',(0.,0.,1.));
#1855=DIRECTION('',(-1.,0.,0.));
#1856=DIRECTION('',(0.,0.,1.));
#1857=DIRECTION('',(-1.,0.,0.));
#1858=DIRECTION('',(0.,0.,1.));
#1859=DIRECTION('',(0.774027857074988,-0.63315154305419,0.));
#1860=DIRECTION('',(0.63315154305419,0.774027857074988,0.));
#1861=DIRECTION('',(0.774027780353395,0.633151636846338,0.));
#1862=DIRECTION('',(-0.633151636846338,0.774027780353395,0.));
#1863=DIRECTION('',(-0.849762574326192,-0.0951953406707387,0.518499194202946));
#1864=DIRECTION('',(-0.849762563056719,0.0951954787207447,0.518499187326658));
#1865=DIRECTION('',(0.520864642927227,0.,0.853639281985249));
#1866=DIRECTION('',(0.853639281985249,0.,-0.520864642927227));
#1867=DIRECTION('',(-0.849762563056719,0.0951954787207447,0.518499187326658));
#1868=DIRECTION('',(0.111329569077365,0.993783541345422,1.44239301976628E-14));
#1869=DIRECTION('',(-0.849762563056719,0.0951954787207447,0.518499187326657));
#1870=DIRECTION('',(-0.849762574326192,-0.0951953406707387,0.518499194202946));
#1871=DIRECTION('',(-0.520864642927227,0.,-0.853639281985249));
#1872=DIRECTION('',(-0.853639281985249,0.,0.520864642927227));
#1873=DIRECTION('',(0.111329408172988,-0.993783559370878,-1.33549312003344E-16));
#1874=DIRECTION('',(0.849762574326192,0.0951953406707387,-0.518499194202946));
#1875=CARTESIAN_POINT('',(0.,0.,0.));
#1876=CARTESIAN_POINT('',(18.75,18.6,0.406));
#1877=CARTESIAN_POINT('',(18.75,18.6,0.406));
#1878=CARTESIAN_POINT('',(18.75,18.35,0.406));
#1879=CARTESIAN_POINT('',(27.35,18.35,0.406));
#1880=CARTESIAN_POINT('',(19.8,18.35,0.406));
#1881=CARTESIAN_POINT('',(19.8,18.5,0.406));
#1882=CARTESIAN_POINT('',(19.8,18.9015346024039,0.406));
#1883=CARTESIAN_POINT('',(19.4651612686416,18.8118148347424,0.406));
#1884=CARTESIAN_POINT('',(19.5035276180409,18.8220950670804,0.406));
#1885=CARTESIAN_POINT('',(19.4267949192431,18.955,0.406));
#1886=CARTESIAN_POINT('',(19.3,19.1746152422707,0.406));
#1887=CARTESIAN_POINT('',(19.3,19.1746152422707,0.406));
#1888=CARTESIAN_POINT('',(19.3,18.6,0.406));
#1889=CARTESIAN_POINT('',(18.8,18.6,0.406));
#1890=CARTESIAN_POINT('',(27.35,15.05,0.406));
#1891=CARTESIAN_POINT('',(19.8,18.35,3.494));
#1892=CARTESIAN_POINT('',(19.8,18.35,1.79777661300001));
#1893=CARTESIAN_POINT('',(19.8,13.856,1.79777661300001));
#1894=CARTESIAN_POINT('',(19.8,19.856,1.79777661300001));
#1895=CARTESIAN_POINT('',(19.8,19.856,3.494));
#1896=CARTESIAN_POINT('',(19.8,19.856,3.46944695195362E-15));
#1897=CARTESIAN_POINT('',(19.8,19.15,3.46944695195362E-15));
#1898=CARTESIAN_POINT('',(19.8,18.9015346024039,3.46944695195362E-15));
#1899=CARTESIAN_POINT('',(19.8,18.9015346024039,0.406));
#1900=CARTESIAN_POINT('',(19.8,15.05,3.494));
#1901=CARTESIAN_POINT('',(19.6841924068383,18.35,0.854599455301798));
#1902=CARTESIAN_POINT('',(20.0056092668132,18.35,3.47232971072853));
#1903=CARTESIAN_POINT('',(20.0056092668132,15.85,3.47232971072853));
#1904=CARTESIAN_POINT('',(20.0056092668132,15.85,3.47232971072853));
#1905=CARTESIAN_POINT('',(19.6841924068383,15.85,0.854599455301798));
#1906=CARTESIAN_POINT('',(19.8,15.85,1.79777661300001));
#1907=CARTESIAN_POINT('',(19.8,13.856,1.79777661300001));
#1908=CARTESIAN_POINT('',(19.8,14.344,1.79777661300001));
#1909=CARTESIAN_POINT('',(19.7800712994139,14.344,1.63547037156777));
#1910=CARTESIAN_POINT('',(20.0949559437635,14.344,4.2));
#1911=CARTESIAN_POINT('',(20.0949559437635,17.9,4.2));
#1912=CARTESIAN_POINT('',(20.0949559437635,19.856,4.2));
#1913=CARTESIAN_POINT('',(20.2297459631601,19.856,5.297776613));
#1914=CARTESIAN_POINT('',(20.2297459631601,13.856,5.297776613));
#1915=CARTESIAN_POINT('',(29.7877231116358,16.87588386445,0.405999999999993));
#1916=CARTESIAN_POINT('',(28.95,17.9000002418157,0.406));
#1917=CARTESIAN_POINT('',(27.35,19.856,0.406));
#1918=CARTESIAN_POINT('',(27.35,14.344,0.406));
#1919=CARTESIAN_POINT('',(27.35,14.344,0.406));
#1920=CARTESIAN_POINT('',(28.6796182404138,15.9694584998575,0.406));
#1921=CARTESIAN_POINT('',(28.95,16.3000002418131,0.406));
#1922=CARTESIAN_POINT('',(28.1464783025022,16.3000002418131,0.406));
#1923=CARTESIAN_POINT('',(32.55,16.3000002418144,0.406));
#1924=CARTESIAN_POINT('',(32.55,16.3000002418157,0.406));
#1925=CARTESIAN_POINT('',(32.55,17.9000002418157,0.406));
#1926=CARTESIAN_POINT('',(30.45,17.9000002418157,0.406));
#1927=CARTESIAN_POINT('',(27.35,15.05,0.406));
#1928=CARTESIAN_POINT('',(22.8774803447833,18.1,3.52365706057789E-15));
#1929=CARTESIAN_POINT('',(22.8774803447833,16.2752755938648,6.04442711160669E-15));
#1930=CARTESIAN_POINT('',(22.8774803447833,17.9247244061352,7.94178091345632E-15));
#1931=CARTESIAN_POINT('',(21.8960077439428,16.1662230826603,0.289988633857141));
#1932=CARTESIAN_POINT('',(24.2249414630697,16.4249934958967,-0.398124622666836));
#1933=CARTESIAN_POINT('',(24.2249414630697,18.1,-0.398124622666837));
#1934=CARTESIAN_POINT('',(24.2249414630697,17.7750065041033,-0.398124622666836));
#1935=CARTESIAN_POINT('',(21.6939221286151,18.0562308745983,0.349697413766918));
#1936=CARTESIAN_POINT('',(21.6983948996394,18.1,0.348375876356933));
#1937=CARTESIAN_POINT('',(21.3,18.1,-1.00000000000003));
#1938=CARTESIAN_POINT('',(21.5833534136837,18.0685162873685,-0.040984440713417));
#1939=CARTESIAN_POINT('',(21.3,18.1,3.46944695195362E-15));
#1940=CARTESIAN_POINT('',(21.3,18.1,3.46944695195362E-15));
#1941=CARTESIAN_POINT('',(24.1971664325228,17.7780926186086,-0.383225269755842));
#1942=CARTESIAN_POINT('',(24.9,17.7,-0.760246110178366));
#1943=CARTESIAN_POINT('',(24.8964351266088,17.7003960970434,-0.772311498784754));
#1944=CARTESIAN_POINT('',(24.829161646579,17.7078709281579,-1.));
#1945=CARTESIAN_POINT('',(24.7895398241935,17.7122733528674,-0.988293225776577));
#1946=CARTESIAN_POINT('',(21.3,18.1,0.406));
#1947=CARTESIAN_POINT('',(24.9,16.5,3.46944695195362E-15));
#1948=CARTESIAN_POINT('',(21.3,16.1,-1.33356867215717E-14));
#1949=CARTESIAN_POINT('',(21.3,16.1,-1.00000000000003));
#1950=CARTESIAN_POINT('',(21.5833534136837,16.1314837126316,-0.040984440713417));
#1951=CARTESIAN_POINT('',(24.9916254395212,16.5101806043913,-1.04800200568635));
#1952=CARTESIAN_POINT('',(24.829161646579,16.4921290718421,-1.));
#1953=CARTESIAN_POINT('',(24.9142594935648,16.5015843881739,-0.711984555752762));
#1954=CARTESIAN_POINT('',(24.9,16.5,-0.760246110178366));
#1955=CARTESIAN_POINT('',(24.3680931181184,16.4408992353465,-0.474915430322827));
#1956=CARTESIAN_POINT('',(24.9,16.5,0.406));
#1957=CARTESIAN_POINT('',(22.55,15.85,-2.01662062579967));
#1958=CARTESIAN_POINT('',(17.6980198019802,15.85,1.59735061897023));
#1959=CARTESIAN_POINT('',(22.55,18.35,-2.01662062579967));
#1960=CARTESIAN_POINT('',(17.6980198019802,18.35,1.59735061897023));
#1961=CARTESIAN_POINT('',(17.6980198019802,15.85,1.59735061897023));
#1962=CARTESIAN_POINT('',(22.55,15.85,-2.01662062579967));
#1963=CARTESIAN_POINT('',(27.35,15.05,3.35222338700001));
#1964=CARTESIAN_POINT('',(27.35,14.344,3.35222338700001));
#1965=CARTESIAN_POINT('',(27.35,19.856,3.35222338700001));
#1966=CARTESIAN_POINT('',(27.35,14.344,3.35222338700001));
#1967=CARTESIAN_POINT('',(25.7543125978297,14.344,3.11225399028047));
#1968=CARTESIAN_POINT('',(25.7543125978297,14.344,3.11225399028047));
#1969=CARTESIAN_POINT('',(25.7543125978297,19.856,3.11225399028047));
#1970=CARTESIAN_POINT('',(27.370849711522,19.856,3.35535889630396));
#1971=CARTESIAN_POINT('',(27.35,20.344,3.35222338700001));
#1972=CARTESIAN_POINT('',(27.35,17.9,4.2));
#1973=CARTESIAN_POINT('',(27.35,14.344,4.2));
#1974=CARTESIAN_POINT('',(27.35,19.856,4.2));
#1975=CARTESIAN_POINT('',(27.35,14.344,0.706));
#1976=CARTESIAN_POINT('',(27.35,19.856,3.494));
#1977=CARTESIAN_POINT('',(27.35,15.05,3.494));
#1978=CARTESIAN_POINT('',(27.35,14.344,4.2));
#1979=CARTESIAN_POINT('',(27.35,19.856,4.2));
#1980=CARTESIAN_POINT('',(27.35,17.9,4.2));
#1981=CARTESIAN_POINT('',(19.8,15.85,3.494));
#1982=CARTESIAN_POINT('',(19.8,15.85,0.406));
#1983=CARTESIAN_POINT('',(18.5,15.85,1.));
#1984=CARTESIAN_POINT('',(18.5,15.85,3.46944695195362E-15));
#1985=CARTESIAN_POINT('',(18.5,15.85,3.46944695195362E-15));
#1986=CARTESIAN_POINT('',(18.75,15.85,3.46944695195362E-15));
#1987=CARTESIAN_POINT('',(18.75,15.85,1.));
#1988=CARTESIAN_POINT('',(18.75,15.85,0.406));
#1989=CARTESIAN_POINT('',(27.35,15.85,0.406));
#1990=CARTESIAN_POINT('',(18.5,15.85,1.));
#1991=CARTESIAN_POINT('',(18.75,18.35,1.));
#1992=CARTESIAN_POINT('',(18.75,18.35,3.46944695195362E-15));
#1993=CARTESIAN_POINT('',(18.5,18.35,3.46944695195362E-15));
#1994=CARTESIAN_POINT('',(18.5,18.35,3.46944695195362E-15));
#1995=CARTESIAN_POINT('',(18.5,18.35,1.));
#1996=CARTESIAN_POINT('',(18.5,18.35,1.));
#1997=CARTESIAN_POINT('',(19.8,18.5,0.406));
#1998=CARTESIAN_POINT('',(19.8,15.2984653975958,0.406));
#1999=CARTESIAN_POINT('',(19.8,15.2984653975958,3.494));
#2000=CARTESIAN_POINT('',(19.8,15.2984653975958,3.46944695195362E-15));
#2001=CARTESIAN_POINT('',(19.8,19.15,3.46944695195362E-15));
#2002=CARTESIAN_POINT('',(19.8,14.344,3.46944695195362E-15));
#2003=CARTESIAN_POINT('',(19.8,14.344,0.706));
#2004=CARTESIAN_POINT('',(19.8,15.05,3.494));
#2005=CARTESIAN_POINT('',(27.35,14.344,3.46944695195362E-15));
#2006=CARTESIAN_POINT('',(27.35,14.344,3.46944695195362E-15));
#2007=CARTESIAN_POINT('',(27.35,14.344,3.46944695195362E-15));
#2008=CARTESIAN_POINT('',(27.35,14.344,0.706));
#2009=CARTESIAN_POINT('',(27.35,14.344,0.706));
#2010=CARTESIAN_POINT('',(25.7523949969346,14.344,2.48495711125536));
#2011=CARTESIAN_POINT('',(25.5927983733016,14.344,2.66267034324916));
#2012=CARTESIAN_POINT('',(25.7926151944065,14.344,3.2188713554696));
#2013=CARTESIAN_POINT('',(27.35,14.344,0.706));
#2014=CARTESIAN_POINT('',(18.75,15.6,0.406));
#2015=CARTESIAN_POINT('',(18.75,15.6,0.406));
#2016=CARTESIAN_POINT('',(18.75,15.6,0.406));
#2017=CARTESIAN_POINT('',(19.3,15.6,0.406));
#2018=CARTESIAN_POINT('',(19.3,15.1,0.406));
#2019=CARTESIAN_POINT('',(19.3,15.0253847577294,0.406));
#2020=CARTESIAN_POINT('',(19.3,15.0253847577294,0.406));
#2021=CARTESIAN_POINT('',(19.503527618041,15.3779049329199,0.406));
#2022=CARTESIAN_POINT('',(19.465161268642,15.3881851652578,0.406));
#2023=CARTESIAN_POINT('',(27.35,15.05,0.406));
#2024=CARTESIAN_POINT('',(25.7926151944065,19.856,3.21887135546962));
#2025=CARTESIAN_POINT('',(25.5927983733016,19.856,2.66267034324918));
#2026=CARTESIAN_POINT('',(25.9640193193461,19.856,2.24931025702905));
#2027=CARTESIAN_POINT('',(27.35,19.856,0.706000000000031));
#2028=CARTESIAN_POINT('',(27.35,19.856,3.494));
#2029=CARTESIAN_POINT('',(27.35,19.856,3.494));
#2030=CARTESIAN_POINT('',(27.35,19.856,3.46944695195362E-15));
#2031=CARTESIAN_POINT('',(27.35,19.856,3.46944695195362E-15));
#2032=CARTESIAN_POINT('',(27.35,19.856,3.494));
#2033=CARTESIAN_POINT('',(19.2237656503374,17.225,0.));
#2034=CARTESIAN_POINT('',(19.2237656503374,17.325,0.));
#2035=CARTESIAN_POINT('',(19.2237656503374,16.875,0.));
#2036=CARTESIAN_POINT('',(19.1,16.875,0.));
#2037=CARTESIAN_POINT('',(19.7796456923539,16.875,3.46944695195362E-15));
#2038=CARTESIAN_POINT('',(19.7796456923539,16.875,3.46944695195362E-15));
#2039=CARTESIAN_POINT('',(19.7796456923539,17.325,3.46944695195362E-15));
#2040=CARTESIAN_POINT('',(19.1,17.325,0.));
#2041=CARTESIAN_POINT('',(21.3,18.1,0.));
#2042=CARTESIAN_POINT('',(28.95,17.9000002418157,-1.0842021724855E-15));
#2043=CARTESIAN_POINT('',(28.95,17.9000002418157,-1.0842021724855E-15));
#2044=CARTESIAN_POINT('',(30.45,17.9000002418157,0.));
#2045=CARTESIAN_POINT('',(32.55,17.9000002418157,1.7347234759768E-15));
#2046=CARTESIAN_POINT('',(32.55,16.3000002418157,0.));
#2047=CARTESIAN_POINT('',(32.55,16.3000002418157,1.19262238973405E-15));
#2048=CARTESIAN_POINT('',(30.45,16.3000002418157,-1.0842021724855E-15));
#2049=CARTESIAN_POINT('',(28.95,16.3000002418157,-5.42101086242752E-16));
#2050=CARTESIAN_POINT('',(28.6796182404138,15.9694584998575,-3.14687383232995E-16));
#2051=CARTESIAN_POINT('',(25.8813622486853,13.6689692941795,3.46944695195362E-15));
#2052=CARTESIAN_POINT('',(19.503527618041,15.3779049329199,3.46944695195362E-15));
#2053=CARTESIAN_POINT('',(19.3,15.0253847577294,3.46944695195362E-15));
#2054=CARTESIAN_POINT('',(19.3,15.0253847577294,3.46944695195362E-15));
#2055=CARTESIAN_POINT('',(19.3,15.1,3.46944695195362E-15));
#2056=CARTESIAN_POINT('',(19.3,15.6,3.46944695195362E-15));
#2057=CARTESIAN_POINT('',(18.75,15.6,3.46944695195362E-15));
#2058=CARTESIAN_POINT('',(18.75,15.6,3.46944695195362E-15));
#2059=CARTESIAN_POINT('',(18.75,19.15,3.46944695195362E-15));
#2060=CARTESIAN_POINT('',(18.5,18.35,3.46944695195362E-15));
#2061=CARTESIAN_POINT('',(18.75,19.15,3.46944695195362E-15));
#2062=CARTESIAN_POINT('',(18.75,18.6,3.46944695195362E-15));
#2063=CARTESIAN_POINT('',(18.8,18.6,3.46944695195362E-15));
#2064=CARTESIAN_POINT('',(19.3,18.6,3.46944695195362E-15));
#2065=CARTESIAN_POINT('',(19.3,19.1746152422707,3.46944695195362E-15));
#2066=CARTESIAN_POINT('',(19.3,19.1746152422707,3.46944695195362E-15));
#2067=CARTESIAN_POINT('',(19.4267949192431,18.955,3.46944695195362E-15));
#2068=CARTESIAN_POINT('',(19.5035276180409,18.8220950670804,3.46944695195362E-15));
#2069=CARTESIAN_POINT('',(26.9063622486909,20.8056786280517,3.46944695195362E-15));
#2070=CARTESIAN_POINT('',(27.35,19.15,3.46944695195362E-15));
#2071=CARTESIAN_POINT('',(25.5927983733016,14.344,2.66267034324916));
#2072=CARTESIAN_POINT('',(27.35,14.7500000000142,0.705999999999999));
#2073=CARTESIAN_POINT('',(27.35,14.6146666666761,0.705999999999999));
#2074=CARTESIAN_POINT('',(27.35,14.4793333333381,0.705999999999999));
#2075=CARTESIAN_POINT('',(27.35,14.344,0.705999999999999));
#2076=CARTESIAN_POINT('',(27.35,14.75,0.706000000000031));
#2077=CARTESIAN_POINT('',(27.35,18.5,0.706000000000031));
#2078=CARTESIAN_POINT('',(27.35,19.45,0.706));
#2079=CARTESIAN_POINT('',(27.35,19.856,0.706));
#2080=CARTESIAN_POINT('',(27.35,19.7206666666667,0.706));
#2081=CARTESIAN_POINT('',(27.35,19.5853333333333,0.706));
#2082=CARTESIAN_POINT('',(27.35,19.45,0.706));
#2083=CARTESIAN_POINT('',(25.7523949969346,20.344,2.48495711125536));
#2084=CARTESIAN_POINT('',(18.75,15.6,0.406));
#2085=CARTESIAN_POINT('',(18.75,15.6,0.406));
#2086=CARTESIAN_POINT('',(19.3,15.6,0.406));
#2087=CARTESIAN_POINT('',(18.75,15.6,0.406));
#2088=CARTESIAN_POINT('',(19.3,15.0253847577294,0.406));
#2089=CARTESIAN_POINT('',(19.3,15.1,0.406));
#2090=CARTESIAN_POINT('',(19.503527618041,15.3779049329199,0.406));
#2091=CARTESIAN_POINT('',(19.3,15.0253847577294,0.406));
#2092=CARTESIAN_POINT('',(19.465161268642,15.3881851652578,0.406));
#2093=CARTESIAN_POINT('',(19.5035276180409,18.8220950670804,0.406));
#2094=CARTESIAN_POINT('',(19.4651612686416,18.8118148347424,0.406));
#2095=CARTESIAN_POINT('',(19.3,19.1746152422707,0.406));
#2096=CARTESIAN_POINT('',(19.4267949192431,18.955,0.406));
#2097=CARTESIAN_POINT('',(19.3,18.6,0.406));
#2098=CARTESIAN_POINT('',(19.3,19.1746152422707,0.406));
#2099=CARTESIAN_POINT('',(18.75,18.6,0.406));
#2100=CARTESIAN_POINT('',(18.8,18.6,0.406));
#2101=CARTESIAN_POINT('',(18.75,18.6,0.406));
#2102=CARTESIAN_POINT('',(18.5,15.85,1.));
#2103=CARTESIAN_POINT('',(19.7609109049612,17.325,-0.00795626447753182));
#2104=CARTESIAN_POINT('',(19.3087013831082,17.325,-0.199999999999996));
#2105=CARTESIAN_POINT('',(19.7609109049612,16.875,-0.00795626447753182));
#2106=CARTESIAN_POINT('',(19.3087013831082,16.875,-0.199999999999996));
#2107=CARTESIAN_POINT('',(19.3087013831082,16.875,-0.199999999999996));
#2108=CARTESIAN_POINT('',(19.7609109049612,16.875,-0.00795626447753182));
#2109=CARTESIAN_POINT('',(19.3087013831082,17.325,-0.199999999999996));
#2110=CARTESIAN_POINT('',(19.3087013831082,16.875,-0.199999999999996));
#2111=CARTESIAN_POINT('',(19.3087013831082,16.875,-0.199999999999996));
#2112=CARTESIAN_POINT('',(19.7999999155789,16.875,-0.0999999999999664));
#2113=CARTESIAN_POINT('',(19.7999999155789,17.325,-0.0999999999999664));
#2114=CARTESIAN_POINT('',(24.9,18.1,-0.760246110178355));
#2115=CARTESIAN_POINT('',(24.2249414630697,18.1,-0.398124622666838));
#2116=CARTESIAN_POINT('',(24.829161646579,18.1,-1.));
#2117=CARTESIAN_POINT('',(24.9,18.1,-0.760246110178355));
#2118=CARTESIAN_POINT('',(21.5833534136837,18.1,-0.040984440713417));
#2119=CARTESIAN_POINT('',(24.829161646579,18.1,-1.));
#2120=CARTESIAN_POINT('',(21.3,18.1,-1.00000000000003));
#2121=CARTESIAN_POINT('',(27.35,17.1,1.906));
#2122=CARTESIAN_POINT('',(25.7926151944065,14.344,3.2188713554696));
#2123=CARTESIAN_POINT('',(37.5000000209999,17.0866638695756,1.6712958523136));
#2124=CARTESIAN_POINT('',(37.5000000209999,13.75,2.1));
#2125=CARTESIAN_POINT('',(37.5000000209999,16.5999999999903,4.99999999999859));
#2126=CARTESIAN_POINT('',(37.5000000209999,13.75,1.1));
#2127=CARTESIAN_POINT('',(37.5000000209999,13.7500000000012,1.09999999999041));
#2128=CARTESIAN_POINT('',(37.5000000209999,17.0866638695756,1.5287041476864));
#2129=CARTESIAN_POINT('',(37.5000000209999,16.6,-1.8));
#2130=CARTESIAN_POINT('',(37.5000000209999,17.6,-1.8));
#2131=CARTESIAN_POINT('',(37.5000000209999,17.6,-1.8));
#2132=CARTESIAN_POINT('',(37.5000000209999,17.1133361304244,1.5287041476864));
#2133=CARTESIAN_POINT('',(37.5000000209999,20.45,1.1));
#2134=CARTESIAN_POINT('',(37.5000000209999,20.45,2.1));
#2135=CARTESIAN_POINT('',(37.5000000209999,20.4499999999987,2.10000000000969));
#2136=CARTESIAN_POINT('',(37.5000000209999,17.1133361304244,1.67129585231359));
#2137=CARTESIAN_POINT('',(37.5000000209999,17.6,5.));
#2138=CARTESIAN_POINT('',(37.5000000209999,16.6,5.));
#2139=CARTESIAN_POINT('',(37.5000000209999,14.156,1.1));
#2140=CARTESIAN_POINT('',(37.5000000209999,14.156,1.12681381333216));
#2141=CARTESIAN_POINT('',(37.5000000209999,14.156,2.07318618666784));
#2142=CARTESIAN_POINT('',(37.5000000209999,17.0866638695756,1.6712958523136));
#2143=CARTESIAN_POINT('',(37.5000000209999,16.6304763835785,4.594));
#2144=CARTESIAN_POINT('',(37.5000000209999,16.6,4.594));
#2145=CARTESIAN_POINT('',(37.5000000209999,17.5695236164214,4.594));
#2146=CARTESIAN_POINT('',(37.5000000209999,17.1133361304244,1.67129585231359));
#2147=CARTESIAN_POINT('',(37.5000000209999,20.044,2.07318618666795));
#2148=CARTESIAN_POINT('',(37.5000000209999,20.044,2.1));
#2149=CARTESIAN_POINT('',(37.5000000209999,20.044,1.12681381333214));
#2150=CARTESIAN_POINT('',(37.5000000209999,17.1133361304244,1.5287041476864));
#2151=CARTESIAN_POINT('',(37.5000000209999,17.5695236164215,-1.394));
#2152=CARTESIAN_POINT('',(37.5000000209999,17.6,-1.394));
#2153=CARTESIAN_POINT('',(37.5000000209999,16.6304763835786,-1.394));
#2154=CARTESIAN_POINT('',(37.5000000209999,17.0866638695756,1.5287041476864));
#2155=CARTESIAN_POINT('',(37.5000000209999,16.7,1.606));
#2156=CARTESIAN_POINT('',(55.300000021,16.5999999999903,4.99999999999859));
#2157=CARTESIAN_POINT('',(35.5000000209999,16.5999999999903,4.99999999999859));
#2158=CARTESIAN_POINT('',(55.300000021,17.6,5.));
#2159=CARTESIAN_POINT('',(35.5000000209999,17.6,5.));
#2160=CARTESIAN_POINT('',(35.5000000209999,16.6,5.));
#2161=CARTESIAN_POINT('',(55.300000021,16.6,5.));
#2162=CARTESIAN_POINT('',(55.300000021,20.4499999999987,2.10000000000969));
#2163=CARTESIAN_POINT('',(35.5000000209999,20.4499999999987,2.10000000000969));
#2164=CARTESIAN_POINT('',(35.5000000209999,17.1133361304244,1.67129585231359));
#2165=CARTESIAN_POINT('',(55.300000021,17.1133361304244,1.67129585231359));
#2166=CARTESIAN_POINT('',(55.300000021,20.45,1.1));
#2167=CARTESIAN_POINT('',(35.5000000209999,20.45,1.1));
#2168=CARTESIAN_POINT('',(35.5000000209999,20.45,2.1));
#2169=CARTESIAN_POINT('',(55.300000021,20.45,2.1));
#2170=CARTESIAN_POINT('',(55.300000021,17.6,-1.8));
#2171=CARTESIAN_POINT('',(35.5000000209999,17.6,-1.8));
#2172=CARTESIAN_POINT('',(35.5000000209999,17.1133361304244,1.5287041476864));
#2173=CARTESIAN_POINT('',(55.300000021,17.1133361304244,1.5287041476864));
#2174=CARTESIAN_POINT('',(55.300000021,16.6,-1.8));
#2175=CARTESIAN_POINT('',(35.5000000209999,16.6,-1.8));
#2176=CARTESIAN_POINT('',(35.5000000209999,17.6,-1.8));
#2177=CARTESIAN_POINT('',(35.5000000209999,16.6304763835786,-1.8));
#2178=CARTESIAN_POINT('',(35.5000000209999,17.6,-1.8));
#2179=CARTESIAN_POINT('',(35.5000000209999,17.5695236164215,-1.8));
#2180=CARTESIAN_POINT('',(35.5000000209999,17.6,-1.8));
#2181=CARTESIAN_POINT('',(55.300000021,17.6,-1.8));
#2182=CARTESIAN_POINT('',(35.5000000209999,17.0866638695756,1.5287041476864));
#2183=CARTESIAN_POINT('',(35.5000000209999,16.6304763835786,-1.394));
#2184=CARTESIAN_POINT('',(35.5000000209999,14.156,1.12681381333216));
#2185=CARTESIAN_POINT('',(35.5000000209999,16.6304763835786,1.6712958523136));
#2186=CARTESIAN_POINT('',(35.5000000209999,17.0866638695756,1.5287041476864));
#2187=CARTESIAN_POINT('',(35.5000000209999,13.7500000000012,1.09999999999041));
#2188=CARTESIAN_POINT('',(35.5000000209999,13.75,1.1));
#2189=CARTESIAN_POINT('',(35.5000000209999,13.75,2.1));
#2190=CARTESIAN_POINT('',(35.5000000209999,17.0866638695756,1.6712958523136));
#2191=CARTESIAN_POINT('',(35.5000000209999,17.5695236164215,1.67129585231361));
#2192=CARTESIAN_POINT('',(35.5000000209999,17.5695236164215,-1.394));
#2193=CARTESIAN_POINT('',(35.5000000209999,17.1133361304244,1.5287041476864));
#2194=CARTESIAN_POINT('',(35.5000000209999,20.044,1.12681381333214));
#2195=CARTESIAN_POINT('',(35.5000000209999,20.044,1.6712958523136));
#2196=CARTESIAN_POINT('',(35.5000000209999,20.044,2.07318618666795));
#2197=CARTESIAN_POINT('',(35.5000000209999,17.1133361304244,1.67129585231359));
#2198=CARTESIAN_POINT('',(35.5000000209999,17.5695236164214,4.594));
#2199=CARTESIAN_POINT('',(35.5000000209999,17.0866638695756,4.594));
#2200=CARTESIAN_POINT('',(35.5000000209999,16.6304763835785,4.594));
#2201=CARTESIAN_POINT('',(35.5000000209999,17.0866638695756,1.6712958523136));
#2202=CARTESIAN_POINT('',(35.5000000209999,14.156,2.07318618666784));
#2203=CARTESIAN_POINT('',(35.5000000209999,14.156,1.6712958523136));
#2204=CARTESIAN_POINT('',(35.5000000209999,17.0866638695756,1.6712958523136));
#2205=CARTESIAN_POINT('',(55.300000021,13.75,2.1));
#2206=CARTESIAN_POINT('',(55.300000021,17.0866638695756,1.6712958523136));
#2207=CARTESIAN_POINT('',(55.300000021,13.7500000000012,1.09999999999041));
#2208=CARTESIAN_POINT('',(55.300000021,17.0866638695756,1.5287041476864));
#2209=CARTESIAN_POINT('',(55.300000021,13.75,1.1));
#2210=CARTESIAN_POINT('',(37.5000000209999,16.6304763835785,4.594));
#2211=CARTESIAN_POINT('',(37.5000000209999,17.5695236164214,4.594));
#2212=CARTESIAN_POINT('',(55.300000021,16.6,4.594));
#2213=CARTESIAN_POINT('',(37.5000000209999,20.044,2.07318618666795));
#2214=CARTESIAN_POINT('',(55.300000021,17.1133361304244,1.67129585231359));
#2215=CARTESIAN_POINT('',(37.5000000209999,20.044,1.12681381333214));
#2216=CARTESIAN_POINT('',(55.300000021,20.044,2.1));
#2217=CARTESIAN_POINT('',(37.5000000209999,17.5695236164215,-1.394));
#2218=CARTESIAN_POINT('',(55.300000021,17.1133361304244,1.5287041476864));
#2219=CARTESIAN_POINT('',(35.5000000209999,17.0866638695756,-1.394));
#2220=CARTESIAN_POINT('',(37.5000000209999,16.6304763835786,-1.394));
#2221=CARTESIAN_POINT('',(55.300000021,17.6,-1.394));
#2222=CARTESIAN_POINT('',(37.5000000209999,14.156,2.07318618666784));
#2223=CARTESIAN_POINT('',(55.300000021,17.0866638695756,1.6712958523136));
#2224=CARTESIAN_POINT('',(37.5000000209999,14.156,1.12681381333216));
#2225=CARTESIAN_POINT('',(55.300000021,17.0866638695756,1.5287041476864));
#2226=CARTESIAN_POINT('',(55.300000021,14.156,1.1));
#2227=CARTESIAN_POINT('',(32.55,17.9000002418157,1.05));
#2228=CARTESIAN_POINT('',(32.55,17.9000002418157,1.694));
#2229=CARTESIAN_POINT('',(32.55,17.9000002418157,-0.697));
#2230=CARTESIAN_POINT('',(32.55,17.9000002418157,1.05));
#2231=CARTESIAN_POINT('',(32.55,17.9000002418157,2.1));
#2232=CARTESIAN_POINT('',(32.55,17.9000002418157,2.1));
#2233=CARTESIAN_POINT('',(32.55,16.3000002418157,2.1));
#2234=CARTESIAN_POINT('',(32.55,16.3000002418157,1.05));
#2235=CARTESIAN_POINT('',(32.55,16.3000002418157,-0.697));
#2236=CARTESIAN_POINT('',(32.55,16.3000002418157,1.05));
#2237=CARTESIAN_POINT('',(32.55,16.3000002418157,1.694));
#2238=CARTESIAN_POINT('',(32.55,17.9000002418157,1.694));
#2239=CARTESIAN_POINT('',(32.55,17.1000002418157,1.05));
#2240=CARTESIAN_POINT('',(28.95,16.3000002418157,1.05));
#2241=CARTESIAN_POINT('',(28.95,16.3000002418157,1.05));
#2242=CARTESIAN_POINT('',(28.95,16.3000002418157,2.1));
#2243=CARTESIAN_POINT('',(28.95,17.9000002418157,2.1));
#2244=CARTESIAN_POINT('',(28.95,17.9000002418157,2.1));
#2245=CARTESIAN_POINT('',(28.95,17.9000002418157,1.05));
#2246=CARTESIAN_POINT('',(28.95,17.9000002418157,1.05));
#2247=CARTESIAN_POINT('',(28.95,17.9000002418157,1.05));
#2248=CARTESIAN_POINT('',(28.95,17.9000002418157,1.694));
#2249=CARTESIAN_POINT('',(28.95,17.9000002418157,1.694));
#2250=CARTESIAN_POINT('',(28.95,16.3000002418157,1.694));
#2251=CARTESIAN_POINT('',(28.95,16.3000002418157,1.05));
#2252=CARTESIAN_POINT('',(28.95,16.3000002418157,1.05));
#2253=CARTESIAN_POINT('',(30.45,16.3000002418157,2.1));
#2254=CARTESIAN_POINT('',(30.45,17.9000002418157,2.1));
#2255=CARTESIAN_POINT('',(30.45,17.9000002418157,2.1));
#2256=CARTESIAN_POINT('',(30.45,17.9000002418157,1.694));
#2257=CARTESIAN_POINT('',(30.45,16.3000002418157,1.694));
#2258=CARTESIAN_POINT('',(30.45,17.9000002418157,1.694));
#2259=CARTESIAN_POINT('',(30.45,16.3000002418157,1.05));
#2260=CARTESIAN_POINT('',(30.45,17.9000002418157,1.05));
#2261=CARTESIAN_POINT('',(30.45,16.3000002418157,1.05));
#2262=CARTESIAN_POINT('',(30.45,17.9000002418157,1.05));
#2263=CARTESIAN_POINT('',(28.6796182404138,15.9694584998575,-3.14687383232995E-16));
#2264=CARTESIAN_POINT('',(28.95,17.9000002418157,0.));
#2265=CARTESIAN_POINT('',(34.1144420561405,16.4752581303053,-0.548574807120987));
#2266=CARTESIAN_POINT('',(35.3955776436605,17.5812216349412,-1.33028465156851));
#2267=CARTESIAN_POINT('',(35.3139325804761,16.5810779027913,-1.28046732523434));
#2268=CARTESIAN_POINT('',(33.9355579672318,17.7447817611245,-0.845425194326549));
#2269=CARTESIAN_POINT('',(34.0250000105,17.7347619291186,-0.697));
#2270=CARTESIAN_POINT('',(35.4410522395421,16.6238727106148,-1.76403186241735));
#2271=CARTESIAN_POINT('',(35.3139325804761,18.1810779027912,-1.68646732523435));
#2272=CARTESIAN_POINT('',(34.0250000105,16.4652383126971,-0.697));
#2273=MECHANICAL_DESIGN_GEOMETRIC_PRESENTATION_REPRESENTATION('',(#32),
#2274);
#2274=(
GEOMETRIC_REPRESENTATION_CONTEXT(3)
GLOBAL_UNCERTAINTY_ASSIGNED_CONTEXT((#2275))
GLOBAL_UNIT_ASSIGNED_CONTEXT((#2281,#2277,#2276))
REPRESENTATION_CONTEXT('12052139_3D_STP','TOP_LEVEL_ASSEMBLY_PART')
);
#2275=UNCERTAINTY_MEASURE_WITH_UNIT(LENGTH_MEASURE(0.0508),#2281,
'DISTANCE_ACCURACY_VALUE','Maximum Tolerance applied to model');
#2276=(
NAMED_UNIT(*)
SI_UNIT($,.STERADIAN.)
SOLID_ANGLE_UNIT()
);
#2277=(
CONVERSION_BASED_UNIT('DEGREE',#2279)
NAMED_UNIT(#2278)
PLANE_ANGLE_UNIT()
);
#2278=DIMENSIONAL_EXPONENTS(0.,0.,0.,0.,0.,0.,0.);
#2279=PLANE_ANGLE_MEASURE_WITH_UNIT(PLANE_ANGLE_MEASURE(0.0174532925),#2280);
#2280=(
NAMED_UNIT(*)
PLANE_ANGLE_UNIT()
SI_UNIT($,.RADIAN.)
);
#2281=(
LENGTH_UNIT()
NAMED_UNIT(*)
SI_UNIT(.MILLI.,.METRE.)
);
ENDSEC;
END-ISO-10303-21;
