ISO-10303-21;
HEADER;
/* Generated by software containing ST-Developer
 * from STEP Tools, Inc. (www.steptools.com) 
 */
/* OPTION: using custom schema-name function */

FILE_DESCRIPTION(
/* description */ (''),
/* implementation_level */ '2;1');

FILE_NAME(
/* name */ '33341385_3D_STP_Rev_01.stp',
/* time_stamp */ '2026-04-04T14:09:39+05:30',
/* author */ (''),
/* organization */ (''),
/* preprocessor_version */ 'ST-DEVELOPER v20',
/* originating_system */ 'SIEMENS PLM Software NX2312.4001',
/* authorisation */ '');

FILE_SCHEMA (('AP203_CONFIGURATION_CONTROLLED_3D_DESIGN_OF_MECHANICAL_PARTS_AND_ASSEMBLIES_MIM_LF { 1 0 10303 403 2 1 2}'));
ENDSEC;

DATA;
#10=PROPERTY_DEFINITION_REPRESENTATION(#14,#12);
#11=PROPERTY_DEFINITION_REPRESENTATION(#15,#13);
#12=REPRESENTATION('',(#16),#1118);
#13=REPRESENTATION('',(#17),#1118);
#14=PROPERTY_DEFINITION('pmi validation property','',#73);
#15=PROPERTY_DEFINITION('pmi validation property','',#73);
#16=VALUE_REPRESENTATION_ITEM('number of annotations',COUNT_MEASURE(0.));
#17=VALUE_REPRESENTATION_ITEM('number of views',COUNT_MEASURE(0.));
#18=SHAPE_REPRESENTATION_RELATIONSHIP('None',
'relationship between 33341385_objects-None and 33341385_objects-None',
#84,#19);
#19=ADVANCED_BREP_SHAPE_REPRESENTATION('33341385_objects-None',(#94),#1118);
#20=APPLIED_APPROVAL_ASSIGNMENT(#32,(#74));
#21=APPLIED_APPROVAL_ASSIGNMENT(#33,(#76));
#22=APPLIED_APPROVAL_ASSIGNMENT(#34,(#46));
#23=APPROVAL_PERSON_ORGANIZATION(#38,#32,#26);
#24=APPROVAL_PERSON_ORGANIZATION(#39,#33,#27);
#25=APPROVAL_PERSON_ORGANIZATION(#40,#34,#28);
#26=APPROVAL_ROLE('approver');
#27=APPROVAL_ROLE('approver');
#28=APPROVAL_ROLE('approver');
#29=APPROVAL_DATE_TIME(#54,#32);
#30=APPROVAL_DATE_TIME(#55,#33);
#31=APPROVAL_DATE_TIME(#56,#34);
#32=APPROVAL(#35,' ');
#33=APPROVAL(#36,' ');
#34=APPROVAL(#37,' ');
#35=APPROVAL_STATUS('not_yet_approved');
#36=APPROVAL_STATUS('not_yet_approved');
#37=APPROVAL_STATUS('not_yet_approved');
#38=PERSON_AND_ORGANIZATION(#44,#41);
#39=PERSON_AND_ORGANIZATION(#44,#42);
#40=PERSON_AND_ORGANIZATION(#44,#43);
#41=ORGANIZATION(' ',' ',' ');
#42=ORGANIZATION(' ',' ',' ');
#43=ORGANIZATION(' ',' ',' ');
#44=PERSON(' ',' ',' ',(' '),$,$);
#45=APPLIED_SECURITY_CLASSIFICATION_ASSIGNMENT(#46,(#76));
#46=SECURITY_CLASSIFICATION(' ',' ',#47);
#47=SECURITY_CLASSIFICATION_LEVEL('confidential');
#48=APPLIED_DATE_AND_TIME_ASSIGNMENT(#52,#50,(#74));
#49=APPLIED_DATE_AND_TIME_ASSIGNMENT(#53,#51,(#46));
#50=DATE_TIME_ROLE('creation_date');
#51=DATE_TIME_ROLE('classification_date');
#52=DATE_AND_TIME(#67,#57);
#53=DATE_AND_TIME(#68,#58);
#54=DATE_AND_TIME(#69,#59);
#55=DATE_AND_TIME(#70,#60);
#56=DATE_AND_TIME(#71,#61);
#57=LOCAL_TIME(0,0,0.,#62);
#58=LOCAL_TIME(0,0,0.,#63);
#59=LOCAL_TIME(0,0,0.,#64);
#60=LOCAL_TIME(0,0,0.,#65);
#61=LOCAL_TIME(0,0,0.,#66);
#62=COORDINATED_UNIVERSAL_TIME_OFFSET(0,0,.BEHIND.);
#63=COORDINATED_UNIVERSAL_TIME_OFFSET(0,0,.BEHIND.);
#64=COORDINATED_UNIVERSAL_TIME_OFFSET(0,0,.BEHIND.);
#65=COORDINATED_UNIVERSAL_TIME_OFFSET(0,0,.BEHIND.);
#66=COORDINATED_UNIVERSAL_TIME_OFFSET(0,0,.BEHIND.);
#67=CALENDAR_DATE(0,1,1);
#68=CALENDAR_DATE(0,1,1);
#69=CALENDAR_DATE(0,1,1);
#70=CALENDAR_DATE(0,1,1);
#71=CALENDAR_DATE(0,1,1);
#72=SHAPE_DEFINITION_REPRESENTATION(#73,#84);
#73=PRODUCT_DEFINITION_SHAPE('','',#74);
#74=PRODUCT_DEFINITION(' ','',#76,#75);
#75=PRODUCT_DEFINITION_CONTEXT('part definition',#83,'design');
#76=PRODUCT_DEFINITION_FORMATION_WITH_SPECIFIED_SOURCE(' ',' ',#78,
 .NOT_KNOWN.);
#77=PRODUCT_RELATED_PRODUCT_CATEGORY('detail','',(#78));
#78=PRODUCT('33341385_objects','33341385_objects',' ',(#81));
#79=PRODUCT_CATEGORY('part',' ');
#80=PRODUCT_CATEGORY(' ','');
#81=PRODUCT_CONTEXT(' ',#83,'mechanical');
#82=APPLICATION_PROTOCOL_DEFINITION('international standard',
'config_control_design',2010,#83);
#83=APPLICATION_CONTEXT(
'configuration controlled 3D designs of mechanical parts and assemblie
s');
#84=SHAPE_REPRESENTATION('33341385_objects-None',(#711),#1118);
#85=PRESENTATION_LAYER_ASSIGNMENT('1','Layer 1',(#94));
#86=STYLED_ITEM('',(#87),#94);
#87=PRESENTATION_STYLE_ASSIGNMENT((#88));
#88=SURFACE_STYLE_USAGE(.BOTH.,#89);
#89=SURFACE_SIDE_STYLE('',(#90));
#90=SURFACE_STYLE_FILL_AREA(#91);
#91=FILL_AREA_STYLE('',(#92));
#92=FILL_AREA_STYLE_COLOUR('',#93);
#93=DRAUGHTING_PRE_DEFINED_COLOUR('white');
#94=MANIFOLD_SOLID_BREP('',#95);
#95=CLOSED_SHELL('',(#112,#113,#114,#115,#116,#117,#118,#119,#120,#121,
#122,#123,#124,#125,#126,#127,#128,#129,#130,#131,#132,#133,#134,#135,#136,
#137,#138,#139,#140,#141,#142,#143,#144,#145,#146,#147,#148,#149));
#96=FACE_BOUND('',#249,.T.);
#97=FACE_BOUND('',#250,.T.);
#98=FACE_BOUND('',#251,.T.);
#99=FACE_BOUND('',#252,.T.);
#100=FACE_BOUND('',#253,.T.);
#101=FACE_BOUND('',#254,.T.);
#102=ELLIPSE('',#750,9.64486951584103,3.05);
#103=ELLIPSE('',#758,16.1755304099925,3.05);
#104=ELLIPSE('',#759,16.3853078756488,3.05);
#105=ELLIPSE('',#761,9.09601394768489,2.65);
#106=CYLINDRICAL_SURFACE('',#738,1.275);
#107=CYLINDRICAL_SURFACE('',#741,1.275);
#108=CYLINDRICAL_SURFACE('',#742,0.765);
#109=CYLINDRICAL_SURFACE('',#745,0.765);
#110=CYLINDRICAL_SURFACE('',#760,3.05);
#111=CYLINDRICAL_SURFACE('',#762,2.65);
#112=ADVANCED_FACE('',(#182),#150,.F.);
#113=ADVANCED_FACE('',(#183),#151,.F.);
#114=ADVANCED_FACE('',(#184),#152,.F.);
#115=ADVANCED_FACE('',(#185),#153,.T.);
#116=ADVANCED_FACE('',(#186),#154,.F.);
#117=ADVANCED_FACE('',(#187),#155,.F.);
#118=ADVANCED_FACE('',(#188),#156,.F.);
#119=ADVANCED_FACE('',(#189),#157,.F.);
#120=ADVANCED_FACE('',(#190),#158,.F.);
#121=ADVANCED_FACE('',(#191),#159,.F.);
#122=ADVANCED_FACE('',(#192),#160,.T.);
#123=ADVANCED_FACE('',(#193),#161,.T.);
#124=ADVANCED_FACE('',(#194),#162,.F.);
#125=ADVANCED_FACE('',(#195),#163,.T.);
#126=ADVANCED_FACE('',(#196),#164,.T.);
#127=ADVANCED_FACE('',(#197),#165,.T.);
#128=ADVANCED_FACE('',(#198),#166,.T.);
#129=ADVANCED_FACE('',(#199),#167,.T.);
#130=ADVANCED_FACE('',(#200),#106,.T.);
#131=ADVANCED_FACE('',(#201),#168,.F.);
#132=ADVANCED_FACE('',(#202),#169,.T.);
#133=ADVANCED_FACE('',(#203),#107,.T.);
#134=ADVANCED_FACE('',(#204),#108,.F.);
#135=ADVANCED_FACE('',(#205),#170,.T.);
#136=ADVANCED_FACE('',(#206),#171,.T.);
#137=ADVANCED_FACE('',(#207),#109,.F.);
#138=ADVANCED_FACE('',(#208),#172,.T.);
#139=ADVANCED_FACE('',(#209),#173,.T.);
#140=ADVANCED_FACE('',(#210),#174,.T.);
#141=ADVANCED_FACE('',(#211),#175,.F.);
#142=ADVANCED_FACE('',(#212),#176,.F.);
#143=ADVANCED_FACE('',(#213),#177,.T.);
#144=ADVANCED_FACE('',(#96,#97),#178,.T.);
#145=ADVANCED_FACE('',(#98,#99),#110,.T.);
#146=ADVANCED_FACE('',(#100,#101),#111,.F.);
#147=ADVANCED_FACE('',(#214),#179,.T.);
#148=ADVANCED_FACE('',(#215),#180,.T.);
#149=ADVANCED_FACE('',(#216),#181,.F.);
#150=PLANE('',#716);
#151=PLANE('',#717);
#152=PLANE('',#718);
#153=PLANE('',#719);
#154=PLANE('',#720);
#155=PLANE('',#721);
#156=PLANE('',#722);
#157=PLANE('',#723);
#158=PLANE('',#724);
#159=PLANE('',#725);
#160=PLANE('',#726);
#161=PLANE('',#727);
#162=PLANE('',#728);
#163=PLANE('',#729);
#164=PLANE('',#730);
#165=PLANE('',#731);
#166=PLANE('',#732);
#167=PLANE('',#737);
#168=PLANE('',#739);
#169=PLANE('',#740);
#170=PLANE('',#743);
#171=PLANE('',#744);
#172=PLANE('',#746);
#173=PLANE('',#747);
#174=PLANE('',#748);
#175=PLANE('',#749);
#176=PLANE('',#751);
#177=PLANE('',#754);
#178=PLANE('',#757);
#179=PLANE('',#763);
#180=PLANE('',#764);
#181=PLANE('',#765);
#182=FACE_OUTER_BOUND('',#217,.T.);
#183=FACE_OUTER_BOUND('',#218,.T.);
#184=FACE_OUTER_BOUND('',#219,.T.);
#185=FACE_OUTER_BOUND('',#220,.T.);
#186=FACE_OUTER_BOUND('',#221,.T.);
#187=FACE_OUTER_BOUND('',#222,.T.);
#188=FACE_OUTER_BOUND('',#223,.T.);
#189=FACE_OUTER_BOUND('',#224,.T.);
#190=FACE_OUTER_BOUND('',#225,.T.);
#191=FACE_OUTER_BOUND('',#226,.T.);
#192=FACE_OUTER_BOUND('',#227,.T.);
#193=FACE_OUTER_BOUND('',#228,.T.);
#194=FACE_OUTER_BOUND('',#229,.T.);
#195=FACE_OUTER_BOUND('',#230,.T.);
#196=FACE_OUTER_BOUND('',#231,.T.);
#197=FACE_OUTER_BOUND('',#232,.T.);
#198=FACE_OUTER_BOUND('',#233,.T.);
#199=FACE_OUTER_BOUND('',#234,.T.);
#200=FACE_OUTER_BOUND('',#235,.T.);
#201=FACE_OUTER_BOUND('',#236,.T.);
#202=FACE_OUTER_BOUND('',#237,.T.);
#203=FACE_OUTER_BOUND('',#238,.T.);
#204=FACE_OUTER_BOUND('',#239,.T.);
#205=FACE_OUTER_BOUND('',#240,.T.);
#206=FACE_OUTER_BOUND('',#241,.T.);
#207=FACE_OUTER_BOUND('',#242,.T.);
#208=FACE_OUTER_BOUND('',#243,.T.);
#209=FACE_OUTER_BOUND('',#244,.T.);
#210=FACE_OUTER_BOUND('',#245,.T.);
#211=FACE_OUTER_BOUND('',#246,.T.);
#212=FACE_OUTER_BOUND('',#247,.T.);
#213=FACE_OUTER_BOUND('',#248,.T.);
#214=FACE_OUTER_BOUND('',#255,.T.);
#215=FACE_OUTER_BOUND('',#256,.T.);
#216=FACE_OUTER_BOUND('',#257,.T.);
#217=EDGE_LOOP('',(#396,#397,#398,#399,#400,#401,#402,#403));
#218=EDGE_LOOP('',(#404,#405,#406,#407,#408));
#219=EDGE_LOOP('',(#409,#410,#411,#412,#413));
#220=EDGE_LOOP('',(#414,#415,#416,#417));
#221=EDGE_LOOP('',(#418,#419,#420,#421));
#222=EDGE_LOOP('',(#422,#423,#424,#425));
#223=EDGE_LOOP('',(#426,#427,#428,#429));
#224=EDGE_LOOP('',(#430,#431,#432,#433));
#225=EDGE_LOOP('',(#434,#435,#436,#437));
#226=EDGE_LOOP('',(#438,#439,#440,#441));
#227=EDGE_LOOP('',(#442,#443,#444,#445,#446,#447));
#228=EDGE_LOOP('',(#448,#449,#450,#451));
#229=EDGE_LOOP('',(#452,#453,#454,#455));
#230=EDGE_LOOP('',(#456,#457,#458,#459));
#231=EDGE_LOOP('',(#460,#461,#462,#463));
#232=EDGE_LOOP('',(#464,#465,#466,#467,#468,#469));
#233=EDGE_LOOP('',(#470,#471,#472,#473));
#234=EDGE_LOOP('',(#474,#475,#476,#477,#478,#479,#480,#481));
#235=EDGE_LOOP('',(#482,#483,#484,#485));
#236=EDGE_LOOP('',(#486,#487,#488,#489));
#237=EDGE_LOOP('',(#490,#491,#492,#493));
#238=EDGE_LOOP('',(#494,#495,#496,#497));
#239=EDGE_LOOP('',(#498,#499,#500,#501));
#240=EDGE_LOOP('',(#502,#503,#504,#505));
#241=EDGE_LOOP('',(#506,#507,#508,#509));
#242=EDGE_LOOP('',(#510,#511,#512,#513));
#243=EDGE_LOOP('',(#514,#515,#516,#517));
#244=EDGE_LOOP('',(#518,#519,#520,#521));
#245=EDGE_LOOP('',(#522,#523,#524,#525));
#246=EDGE_LOOP('',(#526,#527,#528,#529));
#247=EDGE_LOOP('',(#530,#531,#532,#533));
#248=EDGE_LOOP('',(#534,#535,#536,#537,#538,#539));
#249=EDGE_LOOP('',(#540));
#250=EDGE_LOOP('',(#541));
#251=EDGE_LOOP('',(#542,#543,#544,#545));
#252=EDGE_LOOP('',(#546));
#253=EDGE_LOOP('',(#547,#548));
#254=EDGE_LOOP('',(#549));
#255=EDGE_LOOP('',(#550,#551,#552,#553,#554,#555));
#256=EDGE_LOOP('',(#556,#557,#558,#559,#560));
#257=EDGE_LOOP('',(#561,#562,#563,#564,#565));
#258=LINE('',#949,#327);
#259=LINE('',#953,#328);
#260=LINE('',#957,#329);
#261=LINE('',#961,#330);
#262=LINE('',#963,#331);
#263=LINE('',#966,#332);
#264=LINE('',#968,#333);
#265=LINE('',#970,#334);
#266=LINE('',#972,#335);
#267=LINE('',#974,#336);
#268=LINE('',#977,#337);
#269=LINE('',#979,#338);
#270=LINE('',#981,#339);
#271=LINE('',#983,#340);
#272=LINE('',#985,#341);
#273=LINE('',#986,#342);
#274=LINE('',#988,#343);
#275=LINE('',#989,#344);
#276=LINE('',#991,#345);
#277=LINE('',#993,#346);
#278=LINE('',#995,#347);
#279=LINE('',#997,#348);
#280=LINE('',#999,#349);
#281=LINE('',#1001,#350);
#282=LINE('',#1003,#351);
#283=LINE('',#1005,#352);
#284=LINE('',#1007,#353);
#285=LINE('',#1009,#354);
#286=LINE('',#1012,#355);
#287=LINE('',#1014,#356);
#288=LINE('',#1016,#357);
#289=LINE('',#1017,#358);
#290=LINE('',#1019,#359);
#291=LINE('',#1021,#360);
#292=LINE('',#1023,#361);
#293=LINE('',#1025,#362);
#294=LINE('',#1027,#363);
#295=LINE('',#1029,#364);
#296=LINE('',#1031,#365);
#297=LINE('',#1033,#366);
#298=LINE('',#1035,#367);
#299=LINE('',#1041,#368);
#300=LINE('',#1045,#369);
#301=LINE('',#1049,#370);
#302=LINE('',#1053,#371);
#303=LINE('',#1055,#372);
#304=LINE('',#1056,#373);
#305=LINE('',#1058,#374);
#306=LINE('',#1060,#375);
#307=LINE('',#1061,#376);
#308=LINE('',#1062,#377);
#309=LINE('',#1065,#378);
#310=LINE('',#1066,#379);
#311=LINE('',#1068,#380);
#312=LINE('',#1070,#381);
#313=LINE('',#1071,#382);
#314=LINE('',#1072,#383);
#315=LINE('',#1075,#384);
#316=LINE('',#1076,#385);
#317=LINE('',#1078,#386);
#318=LINE('',#1080,#387);
#319=LINE('',#1083,#388);
#320=LINE('',#1087,#389);
#321=LINE('',#1092,#390);
#322=LINE('',#1094,#391);
#323=LINE('',#1098,#392);
#324=LINE('',#1100,#393);
#325=LINE('',#1112,#394);
#326=LINE('',#1113,#395);
#327=VECTOR('',#770,1.);
#328=VECTOR('',#773,1.);
#329=VECTOR('',#776,1.);
#330=VECTOR('',#779,1.);
#331=VECTOR('',#782,1.);
#332=VECTOR('',#783,1.);
#333=VECTOR('',#784,1.);
#334=VECTOR('',#785,1.);
#335=VECTOR('',#786,1.);
#336=VECTOR('',#789,1.);
#337=VECTOR('',#790,1.);
#338=VECTOR('',#791,1.);
#339=VECTOR('',#792,1.);
#340=VECTOR('',#793,1.);
#341=VECTOR('',#796,1.);
#342=VECTOR('',#797,1.);
#343=VECTOR('',#800,1.);
#344=VECTOR('',#801,1.);
#345=VECTOR('',#804,1.);
#346=VECTOR('',#807,1.);
#347=VECTOR('',#808,1.);
#348=VECTOR('',#809,1.);
#349=VECTOR('',#812,1.);
#350=VECTOR('',#813,1.);
#351=VECTOR('',#816,1.);
#352=VECTOR('',#817,1.);
#353=VECTOR('',#820,1.);
#354=VECTOR('',#823,1.);
#355=VECTOR('',#824,1.);
#356=VECTOR('',#825,1.);
#357=VECTOR('',#826,1.);
#358=VECTOR('',#827,1.);
#359=VECTOR('',#830,1.);
#360=VECTOR('',#831,1.);
#361=VECTOR('',#832,1.);
#362=VECTOR('',#835,1.);
#363=VECTOR('',#836,1.);
#364=VECTOR('',#839,1.);
#365=VECTOR('',#840,1.);
#366=VECTOR('',#843,1.);
#367=VECTOR('',#846,1.);
#368=VECTOR('',#853,1.);
#369=VECTOR('',#856,1.);
#370=VECTOR('',#859,1.);
#371=VECTOR('',#862,1.);
#372=VECTOR('',#865,1.);
#373=VECTOR('',#866,1.);
#374=VECTOR('',#869,1.);
#375=VECTOR('',#872,1.);
#376=VECTOR('',#873,1.);
#377=VECTOR('',#874,1.);
#378=VECTOR('',#879,1.);
#379=VECTOR('',#880,1.);
#380=VECTOR('',#883,1.);
#381=VECTOR('',#886,1.);
#382=VECTOR('',#887,1.);
#383=VECTOR('',#888,1.);
#384=VECTOR('',#893,1.);
#385=VECTOR('',#894,1.);
#386=VECTOR('',#897,1.);
#387=VECTOR('',#900,1.);
#388=VECTOR('',#905,1.);
#389=VECTOR('',#908,1.);
#390=VECTOR('',#913,1.);
#391=VECTOR('',#914,1.);
#392=VECTOR('',#917,1.);
#393=VECTOR('',#918,1.);
#394=VECTOR('',#937,1.);
#395=VECTOR('',#938,1.);
#396=ORIENTED_EDGE('',*,*,#614,.T.);
#397=ORIENTED_EDGE('',*,*,#615,.T.);
#398=ORIENTED_EDGE('',*,*,#616,.F.);
#399=ORIENTED_EDGE('',*,*,#617,.F.);
#400=ORIENTED_EDGE('',*,*,#618,.F.);
#401=ORIENTED_EDGE('',*,*,#619,.T.);
#402=ORIENTED_EDGE('',*,*,#620,.T.);
#403=ORIENTED_EDGE('',*,*,#621,.T.);
#404=ORIENTED_EDGE('',*,*,#622,.T.);
#405=ORIENTED_EDGE('',*,*,#623,.F.);
#406=ORIENTED_EDGE('',*,*,#624,.F.);
#407=ORIENTED_EDGE('',*,*,#625,.F.);
#408=ORIENTED_EDGE('',*,*,#626,.T.);
#409=ORIENTED_EDGE('',*,*,#627,.F.);
#410=ORIENTED_EDGE('',*,*,#628,.F.);
#411=ORIENTED_EDGE('',*,*,#629,.T.);
#412=ORIENTED_EDGE('',*,*,#630,.T.);
#413=ORIENTED_EDGE('',*,*,#631,.T.);
#414=ORIENTED_EDGE('',*,*,#632,.F.);
#415=ORIENTED_EDGE('',*,*,#624,.T.);
#416=ORIENTED_EDGE('',*,*,#633,.F.);
#417=ORIENTED_EDGE('',*,*,#630,.F.);
#418=ORIENTED_EDGE('',*,*,#634,.F.);
#419=ORIENTED_EDGE('',*,*,#626,.F.);
#420=ORIENTED_EDGE('',*,*,#635,.F.);
#421=ORIENTED_EDGE('',*,*,#628,.T.);
#422=ORIENTED_EDGE('',*,*,#633,.T.);
#423=ORIENTED_EDGE('',*,*,#623,.T.);
#424=ORIENTED_EDGE('',*,*,#636,.T.);
#425=ORIENTED_EDGE('',*,*,#631,.F.);
#426=ORIENTED_EDGE('',*,*,#627,.T.);
#427=ORIENTED_EDGE('',*,*,#637,.F.);
#428=ORIENTED_EDGE('',*,*,#638,.T.);
#429=ORIENTED_EDGE('',*,*,#639,.T.);
#430=ORIENTED_EDGE('',*,*,#640,.F.);
#431=ORIENTED_EDGE('',*,*,#634,.T.);
#432=ORIENTED_EDGE('',*,*,#639,.F.);
#433=ORIENTED_EDGE('',*,*,#641,.F.);
#434=ORIENTED_EDGE('',*,*,#642,.F.);
#435=ORIENTED_EDGE('',*,*,#622,.F.);
#436=ORIENTED_EDGE('',*,*,#640,.T.);
#437=ORIENTED_EDGE('',*,*,#643,.F.);
#438=ORIENTED_EDGE('',*,*,#636,.F.);
#439=ORIENTED_EDGE('',*,*,#642,.T.);
#440=ORIENTED_EDGE('',*,*,#644,.F.);
#441=ORIENTED_EDGE('',*,*,#637,.T.);
#442=ORIENTED_EDGE('',*,*,#645,.F.);
#443=ORIENTED_EDGE('',*,*,#646,.T.);
#444=ORIENTED_EDGE('',*,*,#647,.T.);
#445=ORIENTED_EDGE('',*,*,#648,.F.);
#446=ORIENTED_EDGE('',*,*,#644,.T.);
#447=ORIENTED_EDGE('',*,*,#649,.F.);
#448=ORIENTED_EDGE('',*,*,#650,.F.);
#449=ORIENTED_EDGE('',*,*,#651,.T.);
#450=ORIENTED_EDGE('',*,*,#652,.T.);
#451=ORIENTED_EDGE('',*,*,#646,.F.);
#452=ORIENTED_EDGE('',*,*,#650,.T.);
#453=ORIENTED_EDGE('',*,*,#645,.T.);
#454=ORIENTED_EDGE('',*,*,#653,.T.);
#455=ORIENTED_EDGE('',*,*,#654,.T.);
#456=ORIENTED_EDGE('',*,*,#647,.F.);
#457=ORIENTED_EDGE('',*,*,#652,.F.);
#458=ORIENTED_EDGE('',*,*,#655,.F.);
#459=ORIENTED_EDGE('',*,*,#656,.F.);
#460=ORIENTED_EDGE('',*,*,#657,.F.);
#461=ORIENTED_EDGE('',*,*,#638,.F.);
#462=ORIENTED_EDGE('',*,*,#648,.T.);
#463=ORIENTED_EDGE('',*,*,#656,.T.);
#464=ORIENTED_EDGE('',*,*,#641,.T.);
#465=ORIENTED_EDGE('',*,*,#657,.T.);
#466=ORIENTED_EDGE('',*,*,#655,.T.);
#467=ORIENTED_EDGE('',*,*,#651,.F.);
#468=ORIENTED_EDGE('',*,*,#654,.F.);
#469=ORIENTED_EDGE('',*,*,#658,.T.);
#470=ORIENTED_EDGE('',*,*,#649,.T.);
#471=ORIENTED_EDGE('',*,*,#643,.T.);
#472=ORIENTED_EDGE('',*,*,#658,.F.);
#473=ORIENTED_EDGE('',*,*,#653,.F.);
#474=ORIENTED_EDGE('',*,*,#659,.F.);
#475=ORIENTED_EDGE('',*,*,#660,.T.);
#476=ORIENTED_EDGE('',*,*,#661,.T.);
#477=ORIENTED_EDGE('',*,*,#662,.T.);
#478=ORIENTED_EDGE('',*,*,#663,.T.);
#479=ORIENTED_EDGE('',*,*,#664,.T.);
#480=ORIENTED_EDGE('',*,*,#665,.F.);
#481=ORIENTED_EDGE('',*,*,#666,.F.);
#482=ORIENTED_EDGE('',*,*,#659,.T.);
#483=ORIENTED_EDGE('',*,*,#667,.F.);
#484=ORIENTED_EDGE('',*,*,#620,.F.);
#485=ORIENTED_EDGE('',*,*,#668,.T.);
#486=ORIENTED_EDGE('',*,*,#666,.T.);
#487=ORIENTED_EDGE('',*,*,#669,.F.);
#488=ORIENTED_EDGE('',*,*,#621,.F.);
#489=ORIENTED_EDGE('',*,*,#667,.T.);
#490=ORIENTED_EDGE('',*,*,#670,.F.);
#491=ORIENTED_EDGE('',*,*,#668,.F.);
#492=ORIENTED_EDGE('',*,*,#671,.F.);
#493=ORIENTED_EDGE('',*,*,#672,.T.);
#494=ORIENTED_EDGE('',*,*,#665,.T.);
#495=ORIENTED_EDGE('',*,*,#672,.F.);
#496=ORIENTED_EDGE('',*,*,#614,.F.);
#497=ORIENTED_EDGE('',*,*,#669,.T.);
#498=ORIENTED_EDGE('',*,*,#663,.F.);
#499=ORIENTED_EDGE('',*,*,#673,.F.);
#500=ORIENTED_EDGE('',*,*,#616,.T.);
#501=ORIENTED_EDGE('',*,*,#674,.T.);
#502=ORIENTED_EDGE('',*,*,#662,.F.);
#503=ORIENTED_EDGE('',*,*,#675,.F.);
#504=ORIENTED_EDGE('',*,*,#617,.T.);
#505=ORIENTED_EDGE('',*,*,#673,.T.);
#506=ORIENTED_EDGE('',*,*,#676,.T.);
#507=ORIENTED_EDGE('',*,*,#677,.T.);
#508=ORIENTED_EDGE('',*,*,#674,.F.);
#509=ORIENTED_EDGE('',*,*,#678,.T.);
#510=ORIENTED_EDGE('',*,*,#661,.F.);
#511=ORIENTED_EDGE('',*,*,#676,.F.);
#512=ORIENTED_EDGE('',*,*,#618,.T.);
#513=ORIENTED_EDGE('',*,*,#675,.T.);
#514=ORIENTED_EDGE('',*,*,#670,.T.);
#515=ORIENTED_EDGE('',*,*,#679,.F.);
#516=ORIENTED_EDGE('',*,*,#635,.T.);
#517=ORIENTED_EDGE('',*,*,#680,.T.);
#518=ORIENTED_EDGE('',*,*,#660,.F.);
#519=ORIENTED_EDGE('',*,*,#680,.F.);
#520=ORIENTED_EDGE('',*,*,#625,.T.);
#521=ORIENTED_EDGE('',*,*,#681,.T.);
#522=ORIENTED_EDGE('',*,*,#677,.F.);
#523=ORIENTED_EDGE('',*,*,#681,.F.);
#524=ORIENTED_EDGE('',*,*,#632,.T.);
#525=ORIENTED_EDGE('',*,*,#682,.T.);
#526=ORIENTED_EDGE('',*,*,#664,.F.);
#527=ORIENTED_EDGE('',*,*,#682,.F.);
#528=ORIENTED_EDGE('',*,*,#629,.F.);
#529=ORIENTED_EDGE('',*,*,#679,.T.);
#530=ORIENTED_EDGE('',*,*,#683,.T.);
#531=ORIENTED_EDGE('',*,*,#684,.T.);
#532=ORIENTED_EDGE('',*,*,#685,.F.);
#533=ORIENTED_EDGE('',*,*,#671,.T.);
#534=ORIENTED_EDGE('',*,*,#686,.F.);
#535=ORIENTED_EDGE('',*,*,#687,.T.);
#536=ORIENTED_EDGE('',*,*,#688,.T.);
#537=ORIENTED_EDGE('',*,*,#689,.T.);
#538=ORIENTED_EDGE('',*,*,#690,.T.);
#539=ORIENTED_EDGE('',*,*,#691,.T.);
#540=ORIENTED_EDGE('',*,*,#692,.T.);
#541=ORIENTED_EDGE('',*,*,#693,.F.);
#542=ORIENTED_EDGE('',*,*,#694,.F.);
#543=ORIENTED_EDGE('',*,*,#689,.F.);
#544=ORIENTED_EDGE('',*,*,#695,.T.);
#545=ORIENTED_EDGE('',*,*,#684,.F.);
#546=ORIENTED_EDGE('',*,*,#693,.T.);
#547=ORIENTED_EDGE('',*,*,#696,.T.);
#548=ORIENTED_EDGE('',*,*,#686,.T.);
#549=ORIENTED_EDGE('',*,*,#692,.F.);
#550=ORIENTED_EDGE('',*,*,#696,.F.);
#551=ORIENTED_EDGE('',*,*,#691,.F.);
#552=ORIENTED_EDGE('',*,*,#697,.F.);
#553=ORIENTED_EDGE('',*,*,#678,.F.);
#554=ORIENTED_EDGE('',*,*,#698,.F.);
#555=ORIENTED_EDGE('',*,*,#687,.F.);
#556=ORIENTED_EDGE('',*,*,#697,.T.);
#557=ORIENTED_EDGE('',*,*,#690,.F.);
#558=ORIENTED_EDGE('',*,*,#694,.T.);
#559=ORIENTED_EDGE('',*,*,#683,.F.);
#560=ORIENTED_EDGE('',*,*,#619,.F.);
#561=ORIENTED_EDGE('',*,*,#698,.T.);
#562=ORIENTED_EDGE('',*,*,#615,.F.);
#563=ORIENTED_EDGE('',*,*,#685,.T.);
#564=ORIENTED_EDGE('',*,*,#695,.F.);
#565=ORIENTED_EDGE('',*,*,#688,.F.);
#566=VERTEX_POINT('',#947);
#567=VERTEX_POINT('',#948);
#568=VERTEX_POINT('',#950);
#569=VERTEX_POINT('',#952);
#570=VERTEX_POINT('',#954);
#571=VERTEX_POINT('',#956);
#572=VERTEX_POINT('',#958);
#573=VERTEX_POINT('',#960);
#574=VERTEX_POINT('',#964);
#575=VERTEX_POINT('',#965);
#576=VERTEX_POINT('',#967);
#577=VERTEX_POINT('',#969);
#578=VERTEX_POINT('',#971);
#579=VERTEX_POINT('',#975);
#580=VERTEX_POINT('',#976);
#581=VERTEX_POINT('',#978);
#582=VERTEX_POINT('',#980);
#583=VERTEX_POINT('',#982);
#584=VERTEX_POINT('',#994);
#585=VERTEX_POINT('',#996);
#586=VERTEX_POINT('',#1000);
#587=VERTEX_POINT('',#1004);
#588=VERTEX_POINT('',#1010);
#589=VERTEX_POINT('',#1011);
#590=VERTEX_POINT('',#1013);
#591=VERTEX_POINT('',#1015);
#592=VERTEX_POINT('',#1020);
#593=VERTEX_POINT('',#1022);
#594=VERTEX_POINT('',#1026);
#595=VERTEX_POINT('',#1030);
#596=VERTEX_POINT('',#1039);
#597=VERTEX_POINT('',#1040);
#598=VERTEX_POINT('',#1042);
#599=VERTEX_POINT('',#1044);
#600=VERTEX_POINT('',#1046);
#601=VERTEX_POINT('',#1048);
#602=VERTEX_POINT('',#1050);
#603=VERTEX_POINT('',#1052);
#604=VERTEX_POINT('',#1084);
#605=VERTEX_POINT('',#1086);
#606=VERTEX_POINT('',#1090);
#607=VERTEX_POINT('',#1091);
#608=VERTEX_POINT('',#1093);
#609=VERTEX_POINT('',#1095);
#610=VERTEX_POINT('',#1097);
#611=VERTEX_POINT('',#1099);
#612=VERTEX_POINT('',#1103);
#613=VERTEX_POINT('',#1105);
#614=EDGE_CURVE('',#566,#567,#699,.T.);
#615=EDGE_CURVE('',#567,#568,#258,.T.);
#616=EDGE_CURVE('',#569,#568,#700,.T.);
#617=EDGE_CURVE('',#570,#569,#259,.T.);
#618=EDGE_CURVE('',#571,#570,#701,.T.);
#619=EDGE_CURVE('',#571,#572,#260,.T.);
#620=EDGE_CURVE('',#572,#573,#702,.T.);
#621=EDGE_CURVE('',#573,#566,#261,.T.);
#622=EDGE_CURVE('',#574,#575,#262,.T.);
#623=EDGE_CURVE('',#576,#575,#263,.T.);
#624=EDGE_CURVE('',#577,#576,#264,.T.);
#625=EDGE_CURVE('',#578,#577,#265,.T.);
#626=EDGE_CURVE('',#578,#574,#266,.T.);
#627=EDGE_CURVE('',#579,#580,#267,.T.);
#628=EDGE_CURVE('',#581,#579,#268,.T.);
#629=EDGE_CURVE('',#581,#582,#269,.T.);
#630=EDGE_CURVE('',#582,#583,#270,.T.);
#631=EDGE_CURVE('',#583,#580,#271,.T.);
#632=EDGE_CURVE('',#577,#582,#272,.T.);
#633=EDGE_CURVE('',#583,#576,#273,.T.);
#634=EDGE_CURVE('',#574,#579,#274,.T.);
#635=EDGE_CURVE('',#581,#578,#275,.T.);
#636=EDGE_CURVE('',#575,#580,#276,.T.);
#637=EDGE_CURVE('',#584,#580,#277,.T.);
#638=EDGE_CURVE('',#584,#585,#278,.T.);
#639=EDGE_CURVE('',#585,#579,#279,.T.);
#640=EDGE_CURVE('',#574,#586,#280,.T.);
#641=EDGE_CURVE('',#586,#585,#281,.T.);
#642=EDGE_CURVE('',#575,#587,#282,.T.);
#643=EDGE_CURVE('',#587,#586,#283,.T.);
#644=EDGE_CURVE('',#584,#587,#284,.T.);
#645=EDGE_CURVE('',#588,#589,#285,.T.);
#646=EDGE_CURVE('',#588,#590,#286,.T.);
#647=EDGE_CURVE('',#590,#591,#287,.T.);
#648=EDGE_CURVE('',#584,#591,#288,.T.);
#649=EDGE_CURVE('',#589,#587,#289,.T.);
#650=EDGE_CURVE('',#592,#588,#290,.T.);
#651=EDGE_CURVE('',#592,#593,#291,.T.);
#652=EDGE_CURVE('',#593,#590,#292,.T.);
#653=EDGE_CURVE('',#589,#594,#293,.T.);
#654=EDGE_CURVE('',#594,#592,#294,.T.);
#655=EDGE_CURVE('',#595,#593,#295,.T.);
#656=EDGE_CURVE('',#591,#595,#296,.T.);
#657=EDGE_CURVE('',#585,#595,#297,.T.);
#658=EDGE_CURVE('',#594,#586,#298,.T.);
#659=EDGE_CURVE('',#596,#597,#703,.T.);
#660=EDGE_CURVE('',#596,#598,#299,.T.);
#661=EDGE_CURVE('',#598,#599,#704,.T.);
#662=EDGE_CURVE('',#599,#600,#300,.T.);
#663=EDGE_CURVE('',#600,#601,#705,.T.);
#664=EDGE_CURVE('',#601,#602,#301,.T.);
#665=EDGE_CURVE('',#603,#602,#706,.T.);
#666=EDGE_CURVE('',#597,#603,#302,.T.);
#667=EDGE_CURVE('',#573,#597,#303,.T.);
#668=EDGE_CURVE('',#572,#596,#304,.T.);
#669=EDGE_CURVE('',#566,#603,#305,.T.);
#670=EDGE_CURVE('',#596,#602,#306,.T.);
#671=EDGE_CURVE('',#567,#572,#307,.T.);
#672=EDGE_CURVE('',#567,#602,#308,.T.);
#673=EDGE_CURVE('',#569,#600,#309,.T.);
#674=EDGE_CURVE('',#568,#601,#310,.T.);
#675=EDGE_CURVE('',#570,#599,#311,.T.);
#676=EDGE_CURVE('',#571,#598,#312,.T.);
#677=EDGE_CURVE('',#598,#601,#313,.T.);
#678=EDGE_CURVE('',#568,#571,#314,.T.);
#679=EDGE_CURVE('',#581,#602,#315,.T.);
#680=EDGE_CURVE('',#578,#596,#316,.T.);
#681=EDGE_CURVE('',#577,#598,#317,.T.);
#682=EDGE_CURVE('',#582,#601,#318,.T.);
#683=EDGE_CURVE('',#572,#604,#319,.T.);
#684=EDGE_CURVE('',#604,#605,#102,.T.);
#685=EDGE_CURVE('',#567,#605,#320,.T.);
#686=EDGE_CURVE('',#606,#607,#707,.T.);
#687=EDGE_CURVE('',#606,#608,#321,.T.);
#688=EDGE_CURVE('',#608,#609,#322,.T.);
#689=EDGE_CURVE('',#609,#610,#708,.T.);
#690=EDGE_CURVE('',#610,#611,#323,.T.);
#691=EDGE_CURVE('',#611,#607,#324,.T.);
#692=EDGE_CURVE('',#612,#612,#709,.T.);
#693=EDGE_CURVE('',#613,#613,#710,.T.);
#694=EDGE_CURVE('',#610,#604,#103,.T.);
#695=EDGE_CURVE('',#609,#605,#104,.T.);
#696=EDGE_CURVE('',#607,#606,#105,.T.);
#697=EDGE_CURVE('',#571,#611,#325,.T.);
#698=EDGE_CURVE('',#608,#568,#326,.T.);
#699=CIRCLE('',#712,1.275);
#700=CIRCLE('',#713,0.765);
#701=CIRCLE('',#714,0.765);
#702=CIRCLE('',#715,1.275);
#703=CIRCLE('',#733,1.275);
#704=CIRCLE('',#734,0.765);
#705=CIRCLE('',#735,0.765);
#706=CIRCLE('',#736,1.275);
#707=CIRCLE('',#752,2.65);
#708=CIRCLE('',#753,3.05);
#709=CIRCLE('',#755,2.65);
#710=CIRCLE('',#756,3.05);
#711=AXIS2_PLACEMENT_3D('',#945,#766,#767);
#712=AXIS2_PLACEMENT_3D('',#946,#768,#769);
#713=AXIS2_PLACEMENT_3D('',#951,#771,#772);
#714=AXIS2_PLACEMENT_3D('',#955,#774,#775);
#715=AXIS2_PLACEMENT_3D('',#959,#777,#778);
#716=AXIS2_PLACEMENT_3D('',#962,#780,#781);
#717=AXIS2_PLACEMENT_3D('',#973,#787,#788);
#718=AXIS2_PLACEMENT_3D('',#984,#794,#795);
#719=AXIS2_PLACEMENT_3D('',#987,#798,#799);
#720=AXIS2_PLACEMENT_3D('',#990,#802,#803);
#721=AXIS2_PLACEMENT_3D('',#992,#805,#806);
#722=AXIS2_PLACEMENT_3D('',#998,#810,#811);
#723=AXIS2_PLACEMENT_3D('',#1002,#814,#815);
#724=AXIS2_PLACEMENT_3D('',#1006,#818,#819);
#725=AXIS2_PLACEMENT_3D('',#1008,#821,#822);
#726=AXIS2_PLACEMENT_3D('',#1018,#828,#829);
#727=AXIS2_PLACEMENT_3D('',#1024,#833,#834);
#728=AXIS2_PLACEMENT_3D('',#1028,#837,#838);
#729=AXIS2_PLACEMENT_3D('',#1032,#841,#842);
#730=AXIS2_PLACEMENT_3D('',#1034,#844,#845);
#731=AXIS2_PLACEMENT_3D('',#1036,#847,#848);
#732=AXIS2_PLACEMENT_3D('',#1037,#849,#850);
#733=AXIS2_PLACEMENT_3D('',#1038,#851,#852);
#734=AXIS2_PLACEMENT_3D('',#1043,#854,#855);
#735=AXIS2_PLACEMENT_3D('',#1047,#857,#858);
#736=AXIS2_PLACEMENT_3D('',#1051,#860,#861);
#737=AXIS2_PLACEMENT_3D('',#1054,#863,#864);
#738=AXIS2_PLACEMENT_3D('',#1057,#867,#868);
#739=AXIS2_PLACEMENT_3D('',#1059,#870,#871);
#740=AXIS2_PLACEMENT_3D('',#1063,#875,#876);
#741=AXIS2_PLACEMENT_3D('',#1064,#877,#878);
#742=AXIS2_PLACEMENT_3D('',#1067,#881,#882);
#743=AXIS2_PLACEMENT_3D('',#1069,#884,#885);
#744=AXIS2_PLACEMENT_3D('',#1073,#889,#890);
#745=AXIS2_PLACEMENT_3D('',#1074,#891,#892);
#746=AXIS2_PLACEMENT_3D('',#1077,#895,#896);
#747=AXIS2_PLACEMENT_3D('',#1079,#898,#899);
#748=AXIS2_PLACEMENT_3D('',#1081,#901,#902);
#749=AXIS2_PLACEMENT_3D('',#1082,#903,#904);
#750=AXIS2_PLACEMENT_3D('',#1085,#906,#907);
#751=AXIS2_PLACEMENT_3D('',#1088,#909,#910);
#752=AXIS2_PLACEMENT_3D('',#1089,#911,#912);
#753=AXIS2_PLACEMENT_3D('',#1096,#915,#916);
#754=AXIS2_PLACEMENT_3D('',#1101,#919,#920);
#755=AXIS2_PLACEMENT_3D('',#1102,#921,#922);
#756=AXIS2_PLACEMENT_3D('',#1104,#923,#924);
#757=AXIS2_PLACEMENT_3D('',#1106,#925,#926);
#758=AXIS2_PLACEMENT_3D('',#1107,#927,#928);
#759=AXIS2_PLACEMENT_3D('',#1108,#929,#930);
#760=AXIS2_PLACEMENT_3D('',#1109,#931,#932);
#761=AXIS2_PLACEMENT_3D('',#1110,#933,#934);
#762=AXIS2_PLACEMENT_3D('',#1111,#935,#936);
#763=AXIS2_PLACEMENT_3D('',#1114,#939,#940);
#764=AXIS2_PLACEMENT_3D('',#1115,#941,#942);
#765=AXIS2_PLACEMENT_3D('',#1116,#943,#944);
#766=DIRECTION('',(0.,0.,1.));
#767=DIRECTION('',(1.,0.,0.));
#768=DIRECTION('',(0.,-1.,0.));
#769=DIRECTION('',(0.,0.,1.));
#770=DIRECTION('',(0.,0.,-1.));
#771=DIRECTION('',(0.,-1.,0.));
#772=DIRECTION('',(0.,0.,1.));
#773=DIRECTION('',(1.,0.,0.));
#774=DIRECTION('',(0.,-1.,0.));
#775=DIRECTION('',(0.,0.,1.));
#776=DIRECTION('',(0.,0.,1.));
#777=DIRECTION('',(0.,-1.,0.));
#778=DIRECTION('',(0.,0.,1.));
#779=DIRECTION('',(1.,0.,0.));
#780=DIRECTION('',(0.,1.,0.));
#781=DIRECTION('',(0.,0.,-1.));
#782=DIRECTION('',(0.,0.,-1.));
#783=DIRECTION('',(0.,1.,0.));
#784=DIRECTION('',(0.,0.,-1.));
#785=DIRECTION('',(0.,0.,-1.));
#786=DIRECTION('',(0.,1.,0.));
#787=DIRECTION('',(1.,0.,0.));
#788=DIRECTION('',(0.,1.,0.));
#789=DIRECTION('',(0.,0.,-1.));
#790=DIRECTION('',(0.,1.,0.));
#791=DIRECTION('',(0.,0.,-1.));
#792=DIRECTION('',(0.,0.,-1.));
#793=DIRECTION('',(0.,1.,0.));
#794=DIRECTION('',(-1.,0.,0.));
#795=DIRECTION('',(0.,-1.,0.));
#796=DIRECTION('',(1.,0.,0.));
#797=DIRECTION('',(-1.,0.,0.));
#798=DIRECTION('',(0.,-1.,0.));
#799=DIRECTION('',(0.,0.,-1.));
#800=DIRECTION('',(1.,0.,0.));
#801=DIRECTION('',(-1.,0.,0.));
#802=DIRECTION('',(0.,0.,-1.));
#803=DIRECTION('',(0.,-1.,0.));
#804=DIRECTION('',(1.,0.,0.));
#805=DIRECTION('',(0.,0.,1.));
#806=DIRECTION('',(0.,1.,0.));
#807=DIRECTION('',(0.289008901771382,-0.912659689804365,-0.289008901771382));
#808=DIRECTION('',(0.,-4.59694241081008E-17,1.));
#809=DIRECTION('',(0.289008901771382,-0.912659689804365,0.289008901771382));
#810=DIRECTION('',(-0.953342225350744,-0.301891704694402,-1.38777878078145E-17));
#811=DIRECTION('',(-0.289008901771382,0.912659689804365,0.289008901771382));
#812=DIRECTION('',(0.289008901771382,0.912659689804365,-0.289008901771382));
#813=DIRECTION('',(1.,0.,0.));
#814=DIRECTION('',(0.,-0.301891704694402,-0.953342225350744));
#815=DIRECTION('',(-1.,-6.67868538251071E-17,2.10335221462188E-17));
#816=DIRECTION('',(0.289008901771382,0.912659689804365,0.289008901771382));
#817=DIRECTION('',(0.,0.,1.));
#818=DIRECTION('',(0.953342225350744,-0.301891704694402,0.));
#819=DIRECTION('',(0.289008901771382,0.912659689804365,-0.289008901771383));
#820=DIRECTION('',(-1.,0.,0.));
#821=DIRECTION('',(0.,-0.301891704694402,0.953342225350744));
#822=DIRECTION('',(1.,-1.795438797636E-16,-5.68121938382404E-17));
#823=DIRECTION('',(-0.662573882203029,-0.74899656249038,0.));
#824=DIRECTION('',(1.,0.,0.));
#825=DIRECTION('',(0.662573882203029,-0.74899656249038,0.));
#826=DIRECTION('',(0.,1.,0.));
#827=DIRECTION('',(0.,-1.,0.));
#828=DIRECTION('',(0.,0.,-1.));
#829=DIRECTION('',(0.,-1.,0.));
#830=DIRECTION('',(0.,0.,-1.));
#831=DIRECTION('',(1.,0.,0.));
#832=DIRECTION('',(0.,0.,-1.));
#833=DIRECTION('',(0.,1.,0.));
#834=DIRECTION('',(-1.,0.,0.));
#835=DIRECTION('',(0.,0.,1.));
#836=DIRECTION('',(0.662573882203029,0.74899656249038,0.));
#837=DIRECTION('',(0.74899656249038,-0.662573882203029,0.));
#838=DIRECTION('',(0.662573882203029,0.74899656249038,0.));
#839=DIRECTION('',(-0.662573882203029,0.74899656249038,0.));
#840=DIRECTION('',(0.,0.,1.));
#841=DIRECTION('',(0.74899656249038,0.662573882203029,0.));
#842=DIRECTION('',(-0.662573882203029,0.74899656249038,0.));
#843=DIRECTION('',(0.,1.,0.));
#844=DIRECTION('',(1.,0.,0.));
#845=DIRECTION('',(0.,1.,0.));
#846=DIRECTION('',(0.,-1.,0.));
#847=DIRECTION('',(0.,0.,1.));
#848=DIRECTION('',(0.,1.,0.));
#849=DIRECTION('',(-1.,0.,0.));
#850=DIRECTION('',(0.,-1.,0.));
#851=DIRECTION('',(0.,-1.,0.));
#852=DIRECTION('',(-1.70070929017334E-16,0.,-1.));
#853=DIRECTION('',(0.,0.,-1.));
#854=DIRECTION('',(0.,-1.,0.));
#855=DIRECTION('',(1.,0.,0.));
#856=DIRECTION('',(1.,0.,0.));
#857=DIRECTION('',(0.,-1.,0.));
#858=DIRECTION('',(1.,0.,0.));
#859=DIRECTION('',(0.,0.,1.));
#860=DIRECTION('',(0.,-1.,0.));
#861=DIRECTION('',(-1.70070929017334E-16,0.,-1.));
#862=DIRECTION('',(1.,0.,0.));
#863=DIRECTION('',(0.,1.,0.));
#864=DIRECTION('',(0.,0.,1.));
#865=DIRECTION('',(0.,1.,0.));
#866=DIRECTION('',(0.,1.,0.));
#867=DIRECTION('',(0.,1.,0.));
#868=DIRECTION('',(-1.,0.,0.));
#869=DIRECTION('',(0.,1.,0.));
#870=DIRECTION('',(0.,0.,1.));
#871=DIRECTION('',(-1.,0.,0.));
#872=DIRECTION('',(1.,0.,0.));
#873=DIRECTION('',(-1.,0.,0.));
#874=DIRECTION('',(0.,1.,0.));
#875=DIRECTION('',(0.,0.,1.));
#876=DIRECTION('',(0.,1.,0.));
#877=DIRECTION('',(0.,1.,0.));
#878=DIRECTION('',(-1.,0.,0.));
#879=DIRECTION('',(0.,1.,0.));
#880=DIRECTION('',(0.,1.,0.));
#881=DIRECTION('',(0.,1.,0.));
#882=DIRECTION('',(-1.,0.,0.));
#883=DIRECTION('',(0.,1.,0.));
#884=DIRECTION('',(0.,0.,1.));
#885=DIRECTION('',(-1.,0.,0.));
#886=DIRECTION('',(0.,1.,0.));
#887=DIRECTION('',(1.,0.,0.));
#888=DIRECTION('',(-1.,0.,0.));
#889=DIRECTION('',(0.,0.,-1.));
#890=DIRECTION('',(1.,0.,0.));
#891=DIRECTION('',(0.,1.,0.));
#892=DIRECTION('',(-1.,0.,0.));
#893=DIRECTION('',(-0.571003788804918,-0.814608190242136,0.101824209109915));
#894=DIRECTION('',(0.569953641751753,-0.815331983861729,0.101914681699998));
#895=DIRECTION('',(0.,0.124032558137295,0.992278148767733));
#896=DIRECTION('',(0.,-0.992278148767733,0.124032558137295));
#897=DIRECTION('',(0.569953641751753,-0.815331983861729,0.101914681699998));
#898=DIRECTION('',(-0.819599521244938,-0.572936841872704,0.));
#899=DIRECTION('',(0.572936841872704,-0.819599521244938,0.));
#900=DIRECTION('',(-0.571003788804918,-0.814608190242136,0.101824209109915));
#901=DIRECTION('',(0.,-0.124032558137295,-0.992278148767733));
#902=DIRECTION('',(0.,0.992278148767733,-0.124032558137295));
#903=DIRECTION('',(-0.818864313060224,0.573987139922497,0.));
#904=DIRECTION('',(-0.573987139922497,-0.818864313060224,0.));
#905=DIRECTION('',(0.179199007353423,-0.933325983658972,0.311111433397361));
#906=DIRECTION('',(0.,0.316230302026439,0.948682452710214));
#907=DIRECTION('',(0.,-0.948682452710214,0.316230302026439));
#908=DIRECTION('',(-0.17689673317133,-0.933721177592558,0.311243165882368));
#909=DIRECTION('',(0.,-0.316230302026439,-0.948682452710214));
#910=DIRECTION('',(0.,0.948682452710214,-0.316230302026439));
#911=DIRECTION('',(0.,1.,0.));
#912=DIRECTION('',(0.,0.,1.));
#913=DIRECTION('',(-1.,0.,0.));
#914=DIRECTION('',(0.,0.,1.));
#915=DIRECTION('',(0.,1.,0.));
#916=DIRECTION('',(0.,0.,1.));
#917=DIRECTION('',(0.,0.,-1.));
#918=DIRECTION('',(-1.,0.,0.));
#919=DIRECTION('',(0.,1.,0.));
#920=DIRECTION('',(0.,0.,1.));
#921=DIRECTION('',(0.,1.,0.));
#922=DIRECTION('',(0.,0.,-1.));
#923=DIRECTION('',(0.,1.,0.));
#924=DIRECTION('',(0.,0.,-1.));
#925=DIRECTION('',(0.,-1.,0.));
#926=DIRECTION('',(1.,0.,0.));
#927=DIRECTION('',(-0.982062360006363,-0.188556413464862,0.));
#928=DIRECTION('',(0.188556413464863,-0.982062360006363,0.));
#929=DIRECTION('',(-0.982522782955086,0.186142367488425,0.));
#930=DIRECTION('',(-0.186142367488424,-0.982522782955085,0.));
#931=DIRECTION('',(0.,-1.,0.));
#932=DIRECTION('',(0.,0.,1.));
#933=DIRECTION('',(0.,0.291336404631885,0.956620666375218));
#934=DIRECTION('',(0.,-0.956620666375218,0.291336404631885));
#935=DIRECTION('',(0.,-1.,0.));
#936=DIRECTION('',(0.,0.,1.));
#937=DIRECTION('',(0.180649738731534,-0.940881858607705,0.286543190530048));
#938=DIRECTION('',(0.178330053965786,0.941286732682665,-0.286666493905642));
#939=DIRECTION('',(0.,-0.291336404631885,-0.956620666375218));
#940=DIRECTION('',(0.,0.956620666375218,-0.291336404631885));
#941=DIRECTION('',(-0.982062360006363,-0.188556413464863,0.));
#942=DIRECTION('',(0.188556413464863,-0.982062360006363,0.));
#943=DIRECTION('',(-0.982522782955085,0.186142367488424,0.));
#944=DIRECTION('',(-0.186142367488424,-0.982522782955085,0.));
#945=CARTESIAN_POINT('',(0.,0.,0.));
#946=CARTESIAN_POINT('',(1.2961794853293,-9.5,-1.27500891064134));
#947=CARTESIAN_POINT('',(1.29617948532898,-9.5,-2.55000891064134));
#948=CARTESIAN_POINT('',(1.2961794853293,-9.5,-8.91064133156511E-6));
#949=CARTESIAN_POINT('',(1.2961794853293,-9.5,-8.91064133135E-6));
#950=CARTESIAN_POINT('',(1.2961794853293,-9.5,-0.510008910641335));
#951=CARTESIAN_POINT('',(1.2961794853293,-9.5,-1.27500891064134));
#952=CARTESIAN_POINT('',(1.29617948532912,-9.5,-2.04000891064133));
#953=CARTESIAN_POINT('',(-1.30382051461157,-9.5,-2.04000891064133));
#954=CARTESIAN_POINT('',(-1.3038205146707,-9.5,-2.04000891064133));
#955=CARTESIAN_POINT('',(-1.3038205146707,-9.5,-1.27500891064134));
#956=CARTESIAN_POINT('',(-1.3038205146707,-9.5,-0.510008910641335));
#957=CARTESIAN_POINT('',(-1.3038205146707,-9.5,-1.7));
#958=CARTESIAN_POINT('',(-1.3038205146707,-9.5,-8.91064133136182E-6));
#959=CARTESIAN_POINT('',(-1.3038205146707,-9.5,-1.27500891064134));
#960=CARTESIAN_POINT('',(-1.3038205146707,-9.5,-2.55000891064134));
#961=CARTESIAN_POINT('',(-1.30382051461157,-9.5,-2.55000891064134));
#962=CARTESIAN_POINT('',(0.,-9.5,-1.7));
#963=CARTESIAN_POINT('',(-4.1,6.9,-0.5));
#964=CARTESIAN_POINT('',(-4.1,6.9,-0.5));
#965=CARTESIAN_POINT('',(-4.1,6.9,-3.2));
#966=CARTESIAN_POINT('',(-4.1,-0.69,-3.2));
#967=CARTESIAN_POINT('',(-4.1,-1.73472347597681E-15,-3.2));
#968=CARTESIAN_POINT('',(-4.1,-1.73472347597681E-15,0.3));
#969=CARTESIAN_POINT('',(-4.1,-1.73472347597681E-15,-1.01));
#970=CARTESIAN_POINT('',(-4.1,-1.73472347597681E-15,0.3));
#971=CARTESIAN_POINT('',(-4.1,-1.73472347597681E-15,-0.5));
#972=CARTESIAN_POINT('',(-4.1,-0.69,-0.5));
#973=CARTESIAN_POINT('',(-4.1,-0.69,-0.5));
#974=CARTESIAN_POINT('',(4.1,6.9,0.3));
#975=CARTESIAN_POINT('',(4.1,6.9,-0.5));
#976=CARTESIAN_POINT('',(4.1,6.9,-3.2));
#977=CARTESIAN_POINT('',(4.1,-0.69,-0.5));
#978=CARTESIAN_POINT('',(4.1,-1.73472347597681E-15,-0.5));
#979=CARTESIAN_POINT('',(4.1,-1.7347234759768E-15,-3.2));
#980=CARTESIAN_POINT('',(4.1,-1.7347234759768E-15,-1.01));
#981=CARTESIAN_POINT('',(4.1,-1.7347234759768E-15,-3.2));
#982=CARTESIAN_POINT('',(4.1,-1.7347234759768E-15,-3.2));
#983=CARTESIAN_POINT('',(4.1,-0.69,-3.2));
#984=CARTESIAN_POINT('',(4.1,-0.69,-3.2));
#985=CARTESIAN_POINT('',(-4.1,-1.73472347597681E-15,-1.01));
#986=CARTESIAN_POINT('',(-4.1,-1.73472347597681E-15,-3.2));
#987=CARTESIAN_POINT('',(-4.1,-1.73472347597681E-15,0.3));
#988=CARTESIAN_POINT('',(-4.1,6.9,-0.5));
#989=CARTESIAN_POINT('',(-4.1,-1.73472347597681E-15,-0.5));
#990=CARTESIAN_POINT('',(4.1,-0.69,-0.5));
#991=CARTESIAN_POINT('',(-4.1,6.9,-3.2));
#992=CARTESIAN_POINT('',(-4.1,-0.69,-3.2));
#993=CARTESIAN_POINT('',(3.75754280425729,7.98144377602962,-2.85754280425729));
#994=CARTESIAN_POINT('',(3.15,9.9,-2.25));
#995=CARTESIAN_POINT('',(3.15,9.9,-2.725));
#996=CARTESIAN_POINT('',(3.15,9.9,-1.45));
#997=CARTESIAN_POINT('',(3.47882924571958,8.8615918556224,-1.12117075428042));
#998=CARTESIAN_POINT('',(3.625,8.4,-2.725));
#999=CARTESIAN_POINT('',(-3.625,8.4,-0.975));
#1000=CARTESIAN_POINT('',(-3.15,9.9,-1.45));
#1001=CARTESIAN_POINT('',(-6.66133814775094E-16,9.9,-1.45));
#1002=CARTESIAN_POINT('',(-6.66133814775094E-16,6.9,-0.5));
#1003=CARTESIAN_POINT('',(-3.75754280425729,7.98144377602962,-2.85754280425729));
#1004=CARTESIAN_POINT('',(-3.15,9.9,-2.25));
#1005=CARTESIAN_POINT('',(-3.15,9.9,-0.975));
#1006=CARTESIAN_POINT('',(-3.625,8.4,-0.975));
#1007=CARTESIAN_POINT('',(-6.66133814775094E-16,9.9,-2.25));
#1008=CARTESIAN_POINT('',(-6.66133814775094E-16,6.9,-3.2));
#1009=CARTESIAN_POINT('',(-3.15,18.3,-2.25));
#1010=CARTESIAN_POINT('',(-2.,19.6,-2.25));
#1011=CARTESIAN_POINT('',(-3.15,18.3,-2.25));
#1012=CARTESIAN_POINT('',(-3.15,19.6,-2.25));
#1013=CARTESIAN_POINT('',(2.,19.6,-2.25));
#1014=CARTESIAN_POINT('',(3.15,18.3,-2.25));
#1015=CARTESIAN_POINT('',(3.15,18.3,-2.25));
#1016=CARTESIAN_POINT('',(3.15,20.57,-2.25));
#1017=CARTESIAN_POINT('',(-3.15,20.57,-2.25));
#1018=CARTESIAN_POINT('',(-3.15,20.57,-2.25));
#1019=CARTESIAN_POINT('',(-2.,19.6,-5.81));
#1020=CARTESIAN_POINT('',(-2.,19.6,-1.45));
#1021=CARTESIAN_POINT('',(-6.66133814775094E-16,19.6,-1.45));
#1022=CARTESIAN_POINT('',(2.,19.6,-1.45));
#1023=CARTESIAN_POINT('',(2.,19.6,-1.85));
#1024=CARTESIAN_POINT('',(-6.66133814775094E-16,19.6,-1.85));
#1025=CARTESIAN_POINT('',(-3.15,18.3,-5.81));
#1026=CARTESIAN_POINT('',(-3.15,18.3,-1.45));
#1027=CARTESIAN_POINT('',(-3.15,18.3,-1.45));
#1028=CARTESIAN_POINT('',(-3.15,18.3,-5.81));
#1029=CARTESIAN_POINT('',(3.15,18.3,-1.45));
#1030=CARTESIAN_POINT('',(3.15,18.3,-1.45));
#1031=CARTESIAN_POINT('',(3.15,18.3,-5.81));
#1032=CARTESIAN_POINT('',(3.15,18.3,-5.81));
#1033=CARTESIAN_POINT('',(3.15,20.57,-1.45));
#1034=CARTESIAN_POINT('',(3.15,20.57,-2.25));
#1035=CARTESIAN_POINT('',(-3.15,20.57,-1.45));
#1036=CARTESIAN_POINT('',(3.15,20.57,-1.45));
#1037=CARTESIAN_POINT('',(-3.15,20.57,-1.45));
#1038=CARTESIAN_POINT('',(-1.3038205146707,-4.,-1.27500891064134));
#1039=CARTESIAN_POINT('',(-1.3038205146707,-4.,-8.91064133136182E-6));
#1040=CARTESIAN_POINT('',(-1.3038205146707,-4.,-2.55000891064134));
#1041=CARTESIAN_POINT('',(-1.3038205146707,-4.,0.));
#1042=CARTESIAN_POINT('',(-1.3038205146707,-4.,-0.510008910641335));
#1043=CARTESIAN_POINT('',(-1.3038205146707,-4.,-1.27500891064134));
#1044=CARTESIAN_POINT('',(-1.3038205146707,-4.,-2.04000891064133));
#1045=CARTESIAN_POINT('',(-1.30382051461157,-4.,-2.04000891064133));
#1046=CARTESIAN_POINT('',(1.29617948532898,-4.,-2.04000891064133));
#1047=CARTESIAN_POINT('',(1.2961794853293,-4.,-1.27500891064134));
#1048=CARTESIAN_POINT('',(1.2961794853293,-4.,-0.510008910641335));
#1049=CARTESIAN_POINT('',(1.2961794853293,-4.,0.));
#1050=CARTESIAN_POINT('',(1.2961794853293,-4.,-8.91064133136182E-6));
#1051=CARTESIAN_POINT('',(1.2961794853293,-4.,-1.27500891064134));
#1052=CARTESIAN_POINT('',(1.29617948532898,-4.,-2.55000891064134));
#1053=CARTESIAN_POINT('',(-1.30382051461157,-4.,-2.55000891064134));
#1054=CARTESIAN_POINT('',(-0.00382051467069991,-4.,-1.27500891064133));
#1055=CARTESIAN_POINT('',(-1.3038205146707,-6.4,-2.55000891064134));
#1056=CARTESIAN_POINT('',(-1.3038205146707,-6.4,-8.91064133136182E-6));
#1057=CARTESIAN_POINT('',(-1.3038205146707,-6.4,-1.27500891064134));
#1058=CARTESIAN_POINT('',(1.29617948532898,-6.4,-2.55000891064134));
#1059=CARTESIAN_POINT('',(-1.30382051461157,-6.4,-2.55000891064134));
#1060=CARTESIAN_POINT('',(-0.00382051467069991,-4.,-8.91064133136182E-6));
#1061=CARTESIAN_POINT('',(-0.00382051467069991,-9.5,-8.91064133136182E-6));
#1062=CARTESIAN_POINT('',(1.2961794853293,-6.4,-8.91064133136182E-6));
#1063=CARTESIAN_POINT('',(-0.00382051467069991,9.3,-8.91064133136182E-6));
#1064=CARTESIAN_POINT('',(1.2961794853293,-6.4,-1.27500891064134));
#1065=CARTESIAN_POINT('',(1.29617948532912,-6.4,-2.04000891064133));
#1066=CARTESIAN_POINT('',(1.2961794853293,-6.4,-0.510008910641335));
#1067=CARTESIAN_POINT('',(1.2961794853293,-6.4,-1.27500891064134));
#1068=CARTESIAN_POINT('',(-1.3038205146707,-6.4,-2.04000891064133));
#1069=CARTESIAN_POINT('',(-1.30382051461157,-6.4,-2.04000891064133));
#1070=CARTESIAN_POINT('',(-1.3038205146707,-6.4,-0.510008910641335));
#1071=CARTESIAN_POINT('',(1.29617948532898,-4.,-0.510008910641335));
#1072=CARTESIAN_POINT('',(1.29617948532898,-9.5,-0.510008910641335));
#1073=CARTESIAN_POINT('',(1.29617948532898,-6.4,-0.510008910641335));
#1074=CARTESIAN_POINT('',(-1.3038205146707,-6.4,-1.27500891064134));
#1075=CARTESIAN_POINT('',(4.1,-1.77748972661666E-15,-0.5));
#1076=CARTESIAN_POINT('',(-1.08436102201444,-4.31394192512704,0.0392331306435763));
#1077=CARTESIAN_POINT('',(4.6372306729174,-0.375823502108964,-0.453022899443488));
#1078=CARTESIAN_POINT('',(-4.07037581156873,-0.0423780928037009,-1.00470283280354));
#1079=CARTESIAN_POINT('',(-4.1,-1.77635683940025E-15,-0.5));
#1080=CARTESIAN_POINT('',(3.24990017406855,-1.21277353023619,-0.858406010367966));
#1081=CARTESIAN_POINT('',(2.0372306729174,-0.375823502108964,-0.963022899443491));
#1082=CARTESIAN_POINT('',(4.1,-1.77635683940025E-15,-0.5));
#1083=CARTESIAN_POINT('',(-0.704447233466717,-12.6217285492844,1.04057654465466));
#1084=CARTESIAN_POINT('',(-0.787367287216198,-12.1898542779155,0.896617171439448));
#1085=CARTESIAN_POINT('',(0.,-3.35008153164187,-2.05));
#1086=CARTESIAN_POINT('',(0.786435842971778,-12.1906004733926,0.896865905481494));
#1087=CARTESIAN_POINT('',(0.705043780246266,-12.620215488279,1.04007218649206));
#1088=CARTESIAN_POINT('',(7.4723213727701E-16,-12.5,1.00000000000003));
#1089=CARTESIAN_POINT('',(0.,-12.5,-2.05));
#1090=CARTESIAN_POINT('',(1.00109072335922,-12.5,0.403633502299013));
#1091=CARTESIAN_POINT('',(-1.00109072335922,-12.5,0.403633502299012));
#1092=CARTESIAN_POINT('',(-7.28970541707952E-8,-12.5,0.403633502299012));
#1093=CARTESIAN_POINT('',(0.727819023716677,-12.5,0.403633502299012));
#1094=CARTESIAN_POINT('',(0.727819023716677,-12.5,-8.91064133135E-6));
#1095=CARTESIAN_POINT('',(0.727819023716677,-12.5,0.911887821764373));
#1096=CARTESIAN_POINT('',(0.,-12.5,-2.05));
#1097=CARTESIAN_POINT('',(-0.727819169510786,-12.5,0.911887785938662));
#1098=CARTESIAN_POINT('',(-0.727819169510786,-12.5,-2.63716991675037));
#1099=CARTESIAN_POINT('',(-0.727819169510786,-12.5,0.403633502299013));
#1100=CARTESIAN_POINT('',(-7.28970541707952E-8,-12.5,0.403633502299012));
#1101=CARTESIAN_POINT('',(-3.99363078940449E-7,-12.5,-2.47243750393261));
#1102=CARTESIAN_POINT('',(0.,-15.,-2.05));
#1103=CARTESIAN_POINT('',(0.,-15.,-4.7));
#1104=CARTESIAN_POINT('',(0.,-15.,-2.05));
#1105=CARTESIAN_POINT('',(0.,-15.,-5.1));
#1106=CARTESIAN_POINT('',(-3.9936307733024E-7,-15.,-2.34526758719417));
#1107=CARTESIAN_POINT('',(0.,-16.2907159885645,-2.05));
#1108=CARTESIAN_POINT('',(0.,-16.3416765743255,-2.05));
#1109=CARTESIAN_POINT('',(0.,-12.25,-2.05));
#1110=CARTESIAN_POINT('',(0.,-4.44334632166683,-2.05));
#1111=CARTESIAN_POINT('',(0.,-12.25,-2.05));
#1112=CARTESIAN_POINT('',(-1.27742089889338,-9.63749767773542,-0.468134340621373));
#1113=CARTESIAN_POINT('',(0.704673206003943,-12.6221715052824,0.440840525258595));
#1114=CARTESIAN_POINT('',(-7.28970541707952E-8,-12.5,0.403633502299013));
#1115=CARTESIAN_POINT('',(-1.3038205146707,-9.5,-8.91064133135E-6));
#1116=CARTESIAN_POINT('',(1.2961794853293,-9.5,-8.91064133135E-6));
#1117=MECHANICAL_DESIGN_GEOMETRIC_PRESENTATION_REPRESENTATION('',(#86),
#1118);
#1118=(
GEOMETRIC_REPRESENTATION_CONTEXT(3)
GLOBAL_UNCERTAINTY_ASSIGNED_CONTEXT((#1119))
GLOBAL_UNIT_ASSIGNED_CONTEXT((#1125,#1121,#1120))
REPRESENTATION_CONTEXT('33341385_3D_STP_Rev_01',
'TOP_LEVEL_ASSEMBLY_PART')
);
#1119=UNCERTAINTY_MEASURE_WITH_UNIT(LENGTH_MEASURE(2.E-5),#1125,
'DISTANCE_ACCURACY_VALUE','Maximum Tolerance applied to model');
#1120=(
NAMED_UNIT(*)
SI_UNIT($,.STERADIAN.)
SOLID_ANGLE_UNIT()
);
#1121=(
CONVERSION_BASED_UNIT('DEGREE',#1123)
NAMED_UNIT(#1122)
PLANE_ANGLE_UNIT()
);
#1122=DIMENSIONAL_EXPONENTS(0.,0.,0.,0.,0.,0.,0.);
#1123=PLANE_ANGLE_MEASURE_WITH_UNIT(PLANE_ANGLE_MEASURE(0.0174532925),#1124);
#1124=(
NAMED_UNIT(*)
PLANE_ANGLE_UNIT()
SI_UNIT($,.RADIAN.)
);
#1125=(
LENGTH_UNIT()
NAMED_UNIT(*)
SI_UNIT(.MILLI.,.METRE.)
);
ENDSEC;
END-ISO-10303-21;
