ISO-10303-21;
HEADER;
/* Generated by software containing ST-Developer
 * from STEP Tools, Inc. (www.steptools.com) 
 */
/* OPTION: using custom schema-name function */

FILE_DESCRIPTION(
/* description */ (''),
/* implementation_level */ '2;1');

FILE_NAME(
/* name */ '15304723_3D_STP.stp',
/* time_stamp */ '2024-04-22T18:33:12+05:00',
/* author */ (''),
/* organization */ (''),
/* preprocessor_version */ 'ST-DEVELOPER v16',
/* originating_system */ 'SIEMENS PLM Software NX 11.0',
/* authorisation */ '');

FILE_SCHEMA (('AUTOMOTIVE_DESIGN { 1 0 10303 214 3 1 1 1 }'));
ENDSEC;

DATA;
#10=PROPERTY_DEFINITION_REPRESENTATION(#14,#12);
#11=PROPERTY_DEFINITION_REPRESENTATION(#15,#13);
#12=REPRESENTATION('',(#16),#1804);
#13=REPRESENTATION('',(#17),#1804);
#14=PROPERTY_DEFINITION('pmi validation property','',#21);
#15=PROPERTY_DEFINITION('pmi validation property','',#21);
#16=VALUE_REPRESENTATION_ITEM('number of annotations',COUNT_MEASURE(0.));
#17=VALUE_REPRESENTATION_ITEM('number of views',COUNT_MEASURE(0.));
#18=SHAPE_REPRESENTATION_RELATIONSHIP('None',
'relationship between hy3t598C8991btrp-None and hy3t598C8991btrp-None',
#30,#19);
#19=ADVANCED_BREP_SHAPE_REPRESENTATION('hy3t598C8991btrp-None',(#40),#1804);
#20=SHAPE_DEFINITION_REPRESENTATION(#21,#30);
#21=PRODUCT_DEFINITION_SHAPE('','',#22);
#22=PRODUCT_DEFINITION(' ','',#24,#23);
#23=PRODUCT_DEFINITION_CONTEXT('part definition',#29,'design');
#24=PRODUCT_DEFINITION_FORMATION_WITH_SPECIFIED_SOURCE(' ',' ',#26,
 .NOT_KNOWN.);
#25=PRODUCT_RELATED_PRODUCT_CATEGORY('part','',(#26));
#26=PRODUCT('hy3t598C8991btrp','hy3t598C8991btrp',' ',(#27));
#27=PRODUCT_CONTEXT(' ',#29,'mechanical');
#28=APPLICATION_PROTOCOL_DEFINITION('international standard',
'automotive_design',2010,#29);
#29=APPLICATION_CONTEXT(
'core data for automotive mechanical design processes');
#30=SHAPE_REPRESENTATION('hy3t598C8991btrp-None',(#1038),#1804);
#31=PRESENTATION_LAYER_ASSIGNMENT('1','Layer 1',(#40));
#32=STYLED_ITEM('',(#33),#40);
#33=PRESENTATION_STYLE_ASSIGNMENT((#34));
#34=SURFACE_STYLE_USAGE(.BOTH.,#35);
#35=SURFACE_SIDE_STYLE('',(#36));
#36=SURFACE_STYLE_FILL_AREA(#37);
#37=FILL_AREA_STYLE('',(#38));
#38=FILL_AREA_STYLE_COLOUR('',#39);
#39=DRAUGHTING_PRE_DEFINED_COLOUR('magenta');
#40=MANIFOLD_SOLID_BREP('',#41);
#41=CLOSED_SHELL('',(#85,#86,#87,#88,#89,#90,#91,#92,#93,#94,#95,#96,#97,
#98,#99,#100,#101,#102,#103,#104,#105,#106,#107,#108,#109,#110,#111,#112,
#113,#114,#115,#116,#117,#118,#119,#120,#121,#122,#123,#124,#125,#126,#127,
#128,#129,#130,#131,#132,#133,#134,#135,#136,#137,#138,#139,#140));
#42=CONICAL_SURFACE('',#1110,0.,85.);
#43=B_SPLINE_CURVE_WITH_KNOTS('',3,(#1611,#1612,#1613,#1614),
 .UNSPECIFIED.,.F.,.F.,(4,4),(0.,1.),.UNSPECIFIED.);
#44=B_SPLINE_CURVE_WITH_KNOTS('',3,(#1620,#1621,#1622,#1623,#1624,#1625,
#1626,#1627,#1628,#1629,#1630,#1631,#1632,#1633,#1634,#1635,#1636,#1637,
#1638,#1639,#1640,#1641,#1642,#1643,#1644,#1645,#1646,#1647,#1648,#1649,
#1650),.UNSPECIFIED.,.F.,.F.,(4,3,3,3,3,3,3,3,3,3,4),(0.,0.107134612445516,
0.214268197603327,0.321420269550299,0.428646342653894,0.535988638352287,
0.643476354276574,0.751122374322505,0.858921758520442,0.966852182011161,
1.),.UNSPECIFIED.);
#45=B_SPLINE_CURVE_WITH_KNOTS('',3,(#1656,#1657,#1658,#1659,#1660,#1661,
#1662),.UNSPECIFIED.,.F.,.F.,(4,3,4),(0.,0.500041790986866,1.),
 .UNSPECIFIED.);
#46=B_SPLINE_CURVE_WITH_KNOTS('',3,(#1668,#1669,#1670,#1671,#1672,#1673,
#1674,#1675,#1676,#1677,#1678,#1679,#1680,#1681,#1682,#1683,#1684,#1685,
#1686,#1687,#1688,#1689,#1690,#1691,#1692,#1693,#1694,#1695,#1696,#1697,
#1698),.UNSPECIFIED.,.F.,.F.,(4,3,3,3,3,3,3,3,3,3,4),(0.,0.0552989902149715,
0.163370012941331,0.271427290847105,0.379386189102217,0.487210377939118,
0.594879225870447,0.702389837403748,0.809757273576934,0.91701274775598,
1.),.UNSPECIFIED.);
#47=B_SPLINE_CURVE_WITH_KNOTS('',3,(#1704,#1705,#1706,#1707,#1708,#1709,
#1710,#1711,#1712,#1713,#1714,#1715,#1716,#1717,#1718,#1719,#1720,#1721,
#1722,#1723,#1724,#1725,#1726,#1727,#1728,#1729,#1730,#1731,#1732,#1733,
#1734),.UNSPECIFIED.,.F.,.F.,(4,3,3,3,3,3,3,3,3,3,4),(0.,0.10665289311977,
0.213253765721459,0.321269624081817,0.429262062913389,0.537096581160183,
0.644733441442255,0.752171638992392,0.859438136197038,0.966581496660988,
1.),.UNSPECIFIED.);
#48=B_SPLINE_CURVE_WITH_KNOTS('',3,(#1740,#1741,#1742,#1743),
 .UNSPECIFIED.,.F.,.F.,(4,4),(0.,1.),.UNSPECIFIED.);
#49=B_SPLINE_CURVE_WITH_KNOTS('',3,(#1749,#1750,#1751,#1752,#1753,#1754,
#1755,#1756,#1757,#1758,#1759,#1760,#1761,#1762,#1763,#1764,#1765,#1766,
#1767,#1768,#1769,#1770,#1771,#1772,#1773,#1774,#1775,#1776,#1777,#1778,
#1779),.UNSPECIFIED.,.F.,.F.,(4,3,3,3,3,3,3,3,3,3,4),(0.,0.107085839356751,
0.214170314787625,0.321279331843671,0.428486436312103,0.535846827420751,
0.643396949598458,0.751148397578938,0.859080869774925,0.96712285716834,
1.),.UNSPECIFIED.);
#50=B_SPLINE_CURVE_WITH_KNOTS('',3,(#1785,#1786,#1787,#1788),
 .UNSPECIFIED.,.F.,.F.,(4,4),(0.,1.),.UNSPECIFIED.);
#51=CYLINDRICAL_SURFACE('',#1052,2.5);
#52=CYLINDRICAL_SURFACE('',#1069,2.5);
#53=CYLINDRICAL_SURFACE('',#1084,0.625);
#54=CYLINDRICAL_SURFACE('',#1087,0.625);
#55=CYLINDRICAL_SURFACE('',#1092,0.324999998);
#56=CYLINDRICAL_SURFACE('',#1094,0.324999998);
#57=CYLINDRICAL_SURFACE('',#1099,1.15);
#58=CYLINDRICAL_SURFACE('',#1102,1.15);
#59=CYLINDRICAL_SURFACE('',#1104,0.85);
#60=CYLINDRICAL_SURFACE('',#1107,0.85);
#61=CIRCLE('',#1050,2.5);
#62=CIRCLE('',#1051,2.5);
#63=CIRCLE('',#1066,2.5);
#64=CIRCLE('',#1068,2.5);
#65=CIRCLE('',#1078,0.625);
#66=CIRCLE('',#1079,0.625);
#67=CIRCLE('',#1080,0.324999998);
#68=CIRCLE('',#1081,0.324999998);
#69=CIRCLE('',#1083,0.625);
#70=CIRCLE('',#1086,0.625);
#71=CIRCLE('',#1088,0.324999998);
#72=CIRCLE('',#1089,0.324999998);
#73=CIRCLE('',#1098,1.15);
#74=CIRCLE('',#1101,1.15);
#75=CIRCLE('',#1103,0.85);
#76=CIRCLE('',#1106,0.85);
#77=ELLIPSE('',#1044,2.88675134594813,2.5);
#78=ELLIPSE('',#1045,2.88675134594813,2.5);
#79=ELLIPSE('',#1047,2.88675134594813,2.5);
#80=ELLIPSE('',#1048,2.88675134594813,2.5);
#81=FACE_BOUND('',#241,.T.);
#82=FACE_BOUND('',#242,.T.);
#83=FACE_BOUND('',#292,.T.);
#84=FACE_BOUND('',#293,.T.);
#85=ADVANCED_FACE('',(#186),#141,.F.);
#86=ADVANCED_FACE('',(#81,#82),#142,.F.);
#87=ADVANCED_FACE('',(#187),#143,.T.);
#88=ADVANCED_FACE('',(#188),#144,.T.);
#89=ADVANCED_FACE('',(#189),#145,.F.);
#90=ADVANCED_FACE('',(#190),#146,.T.);
#91=ADVANCED_FACE('',(#191),#147,.F.);
#92=ADVANCED_FACE('',(#192),#51,.T.);
#93=ADVANCED_FACE('',(#193),#148,.F.);
#94=ADVANCED_FACE('',(#194),#149,.T.);
#95=ADVANCED_FACE('',(#195),#150,.F.);
#96=ADVANCED_FACE('',(#196),#151,.T.);
#97=ADVANCED_FACE('',(#197),#152,.T.);
#98=ADVANCED_FACE('',(#198),#153,.F.);
#99=ADVANCED_FACE('',(#199),#154,.F.);
#100=ADVANCED_FACE('',(#200),#155,.T.);
#101=ADVANCED_FACE('',(#201),#156,.T.);
#102=ADVANCED_FACE('',(#202),#157,.T.);
#103=ADVANCED_FACE('',(#203),#158,.T.);
#104=ADVANCED_FACE('',(#204),#159,.T.);
#105=ADVANCED_FACE('',(#205),#160,.T.);
#106=ADVANCED_FACE('',(#206),#161,.F.);
#107=ADVANCED_FACE('',(#207),#52,.T.);
#108=ADVANCED_FACE('',(#208),#162,.T.);
#109=ADVANCED_FACE('',(#209),#163,.T.);
#110=ADVANCED_FACE('',(#210),#164,.T.);
#111=ADVANCED_FACE('',(#211),#165,.F.);
#112=ADVANCED_FACE('',(#212),#166,.F.);
#113=ADVANCED_FACE('',(#213),#167,.T.);
#114=ADVANCED_FACE('',(#214),#168,.T.);
#115=ADVANCED_FACE('',(#215),#169,.T.);
#116=ADVANCED_FACE('',(#216),#170,.T.);
#117=ADVANCED_FACE('',(#217),#53,.T.);
#118=ADVANCED_FACE('',(#218),#171,.F.);
#119=ADVANCED_FACE('',(#219),#54,.T.);
#120=ADVANCED_FACE('',(#220),#172,.F.);
#121=ADVANCED_FACE('',(#221),#173,.T.);
#122=ADVANCED_FACE('',(#222),#55,.F.);
#123=ADVANCED_FACE('',(#223),#174,.T.);
#124=ADVANCED_FACE('',(#224),#56,.F.);
#125=ADVANCED_FACE('',(#225),#175,.T.);
#126=ADVANCED_FACE('',(#226),#176,.F.);
#127=ADVANCED_FACE('',(#227),#177,.T.);
#128=ADVANCED_FACE('',(#228),#57,.T.);
#129=ADVANCED_FACE('',(#229),#178,.T.);
#130=ADVANCED_FACE('',(#230),#58,.T.);
#131=ADVANCED_FACE('',(#231),#59,.F.);
#132=ADVANCED_FACE('',(#232),#179,.T.);
#133=ADVANCED_FACE('',(#233),#60,.F.);
#134=ADVANCED_FACE('',(#234),#180,.T.);
#135=ADVANCED_FACE('',(#235),#181,.T.);
#136=ADVANCED_FACE('',(#83,#84),#42,.T.);
#137=ADVANCED_FACE('',(#236),#182,.F.);
#138=ADVANCED_FACE('',(#237),#183,.F.);
#139=ADVANCED_FACE('',(#238),#184,.F.);
#140=ADVANCED_FACE('',(#239),#185,.F.);
#141=PLANE('',#1039);
#142=PLANE('',#1040);
#143=PLANE('',#1041);
#144=PLANE('',#1042);
#145=PLANE('',#1043);
#146=PLANE('',#1046);
#147=PLANE('',#1049);
#148=PLANE('',#1053);
#149=PLANE('',#1054);
#150=PLANE('',#1055);
#151=PLANE('',#1056);
#152=PLANE('',#1057);
#153=PLANE('',#1058);
#154=PLANE('',#1059);
#155=PLANE('',#1060);
#156=PLANE('',#1061);
#157=PLANE('',#1062);
#158=PLANE('',#1063);
#159=PLANE('',#1064);
#160=PLANE('',#1065);
#161=PLANE('',#1067);
#162=PLANE('',#1070);
#163=PLANE('',#1071);
#164=PLANE('',#1072);
#165=PLANE('',#1073);
#166=PLANE('',#1074);
#167=PLANE('',#1075);
#168=PLANE('',#1076);
#169=PLANE('',#1077);
#170=PLANE('',#1082);
#171=PLANE('',#1085);
#172=PLANE('',#1090);
#173=PLANE('',#1091);
#174=PLANE('',#1093);
#175=PLANE('',#1095);
#176=PLANE('',#1096);
#177=PLANE('',#1097);
#178=PLANE('',#1100);
#179=PLANE('',#1105);
#180=PLANE('',#1108);
#181=PLANE('',#1109);
#182=PLANE('',#1111);
#183=PLANE('',#1112);
#184=PLANE('',#1113);
#185=PLANE('',#1114);
#186=FACE_OUTER_BOUND('',#240,.T.);
#187=FACE_OUTER_BOUND('',#243,.T.);
#188=FACE_OUTER_BOUND('',#244,.T.);
#189=FACE_OUTER_BOUND('',#245,.T.);
#190=FACE_OUTER_BOUND('',#246,.T.);
#191=FACE_OUTER_BOUND('',#247,.T.);
#192=FACE_OUTER_BOUND('',#248,.T.);
#193=FACE_OUTER_BOUND('',#249,.T.);
#194=FACE_OUTER_BOUND('',#250,.T.);
#195=FACE_OUTER_BOUND('',#251,.T.);
#196=FACE_OUTER_BOUND('',#252,.T.);
#197=FACE_OUTER_BOUND('',#253,.T.);
#198=FACE_OUTER_BOUND('',#254,.T.);
#199=FACE_OUTER_BOUND('',#255,.T.);
#200=FACE_OUTER_BOUND('',#256,.T.);
#201=FACE_OUTER_BOUND('',#257,.T.);
#202=FACE_OUTER_BOUND('',#258,.T.);
#203=FACE_OUTER_BOUND('',#259,.T.);
#204=FACE_OUTER_BOUND('',#260,.T.);
#205=FACE_OUTER_BOUND('',#261,.T.);
#206=FACE_OUTER_BOUND('',#262,.T.);
#207=FACE_OUTER_BOUND('',#263,.T.);
#208=FACE_OUTER_BOUND('',#264,.T.);
#209=FACE_OUTER_BOUND('',#265,.T.);
#210=FACE_OUTER_BOUND('',#266,.T.);
#211=FACE_OUTER_BOUND('',#267,.T.);
#212=FACE_OUTER_BOUND('',#268,.T.);
#213=FACE_OUTER_BOUND('',#269,.T.);
#214=FACE_OUTER_BOUND('',#270,.T.);
#215=FACE_OUTER_BOUND('',#271,.T.);
#216=FACE_OUTER_BOUND('',#272,.T.);
#217=FACE_OUTER_BOUND('',#273,.T.);
#218=FACE_OUTER_BOUND('',#274,.T.);
#219=FACE_OUTER_BOUND('',#275,.T.);
#220=FACE_OUTER_BOUND('',#276,.T.);
#221=FACE_OUTER_BOUND('',#277,.T.);
#222=FACE_OUTER_BOUND('',#278,.T.);
#223=FACE_OUTER_BOUND('',#279,.T.);
#224=FACE_OUTER_BOUND('',#280,.T.);
#225=FACE_OUTER_BOUND('',#281,.T.);
#226=FACE_OUTER_BOUND('',#282,.T.);
#227=FACE_OUTER_BOUND('',#283,.T.);
#228=FACE_OUTER_BOUND('',#284,.T.);
#229=FACE_OUTER_BOUND('',#285,.T.);
#230=FACE_OUTER_BOUND('',#286,.T.);
#231=FACE_OUTER_BOUND('',#287,.T.);
#232=FACE_OUTER_BOUND('',#288,.T.);
#233=FACE_OUTER_BOUND('',#289,.T.);
#234=FACE_OUTER_BOUND('',#290,.T.);
#235=FACE_OUTER_BOUND('',#291,.T.);
#236=FACE_OUTER_BOUND('',#294,.T.);
#237=FACE_OUTER_BOUND('',#295,.T.);
#238=FACE_OUTER_BOUND('',#296,.T.);
#239=FACE_OUTER_BOUND('',#297,.T.);
#240=EDGE_LOOP('',(#298,#299,#300,#301));
#241=EDGE_LOOP('',(#302,#303,#304,#305));
#242=EDGE_LOOP('',(#306,#307,#308,#309,#310,#311,#312,#313,#314,#315,#316,
#317));
#243=EDGE_LOOP('',(#318,#319,#320,#321));
#244=EDGE_LOOP('',(#322,#323,#324,#325));
#245=EDGE_LOOP('',(#326,#327,#328,#329));
#246=EDGE_LOOP('',(#330,#331,#332,#333));
#247=EDGE_LOOP('',(#334,#335,#336,#337));
#248=EDGE_LOOP('',(#338,#339,#340,#341,#342,#343));
#249=EDGE_LOOP('',(#344,#345,#346,#347));
#250=EDGE_LOOP('',(#348,#349,#350,#351));
#251=EDGE_LOOP('',(#352,#353,#354,#355));
#252=EDGE_LOOP('',(#356,#357,#358,#359));
#253=EDGE_LOOP('',(#360,#361,#362,#363));
#254=EDGE_LOOP('',(#364,#365,#366,#367));
#255=EDGE_LOOP('',(#368,#369,#370,#371));
#256=EDGE_LOOP('',(#372,#373,#374,#375));
#257=EDGE_LOOP('',(#376,#377,#378,#379));
#258=EDGE_LOOP('',(#380,#381,#382,#383,#384,#385,#386,#387,#388,#389,#390,
#391));
#259=EDGE_LOOP('',(#392,#393,#394,#395));
#260=EDGE_LOOP('',(#396,#397,#398,#399));
#261=EDGE_LOOP('',(#400,#401,#402,#403));
#262=EDGE_LOOP('',(#404,#405,#406,#407,#408,#409));
#263=EDGE_LOOP('',(#410,#411,#412,#413,#414,#415));
#264=EDGE_LOOP('',(#416,#417,#418,#419,#420,#421));
#265=EDGE_LOOP('',(#422,#423,#424,#425));
#266=EDGE_LOOP('',(#426,#427,#428,#429));
#267=EDGE_LOOP('',(#430,#431,#432,#433));
#268=EDGE_LOOP('',(#434,#435,#436,#437));
#269=EDGE_LOOP('',(#438,#439,#440,#441));
#270=EDGE_LOOP('',(#442,#443,#444,#445,#446,#447,#448,#449,#450,#451,#452));
#271=EDGE_LOOP('',(#453,#454,#455,#456,#457,#458,#459,#460,#461,#462,#463));
#272=EDGE_LOOP('',(#464,#465,#466,#467,#468,#469,#470,#471));
#273=EDGE_LOOP('',(#472,#473,#474,#475));
#274=EDGE_LOOP('',(#476,#477,#478,#479));
#275=EDGE_LOOP('',(#480,#481,#482,#483));
#276=EDGE_LOOP('',(#484,#485,#486,#487,#488,#489,#490,#491));
#277=EDGE_LOOP('',(#492,#493,#494,#495,#496,#497));
#278=EDGE_LOOP('',(#498,#499,#500,#501));
#279=EDGE_LOOP('',(#502,#503,#504,#505));
#280=EDGE_LOOP('',(#506,#507,#508,#509));
#281=EDGE_LOOP('',(#510,#511,#512,#513));
#282=EDGE_LOOP('',(#514,#515,#516,#517));
#283=EDGE_LOOP('',(#518,#519,#520,#521));
#284=EDGE_LOOP('',(#522,#523,#524,#525));
#285=EDGE_LOOP('',(#526,#527,#528,#529));
#286=EDGE_LOOP('',(#530,#531,#532,#533));
#287=EDGE_LOOP('',(#534,#535,#536,#537));
#288=EDGE_LOOP('',(#538,#539,#540,#541));
#289=EDGE_LOOP('',(#542,#543,#544,#545));
#290=EDGE_LOOP('',(#546,#547,#548,#549));
#291=EDGE_LOOP('',(#550,#551,#552,#553,#554,#555,#556,#557));
#292=EDGE_LOOP('',(#558,#559,#560,#561));
#293=EDGE_LOOP('',(#562,#563,#564,#565));
#294=EDGE_LOOP('',(#566,#567,#568,#569));
#295=EDGE_LOOP('',(#570,#571,#572,#573));
#296=EDGE_LOOP('',(#574,#575,#576,#577));
#297=EDGE_LOOP('',(#578,#579,#580,#581));
#298=ORIENTED_EDGE('',*,*,#668,.F.);
#299=ORIENTED_EDGE('',*,*,#669,.T.);
#300=ORIENTED_EDGE('',*,*,#670,.F.);
#301=ORIENTED_EDGE('',*,*,#671,.T.);
#302=ORIENTED_EDGE('',*,*,#672,.T.);
#303=ORIENTED_EDGE('',*,*,#673,.F.);
#304=ORIENTED_EDGE('',*,*,#674,.F.);
#305=ORIENTED_EDGE('',*,*,#675,.F.);
#306=ORIENTED_EDGE('',*,*,#676,.F.);
#307=ORIENTED_EDGE('',*,*,#677,.T.);
#308=ORIENTED_EDGE('',*,*,#678,.T.);
#309=ORIENTED_EDGE('',*,*,#679,.T.);
#310=ORIENTED_EDGE('',*,*,#680,.F.);
#311=ORIENTED_EDGE('',*,*,#681,.F.);
#312=ORIENTED_EDGE('',*,*,#682,.T.);
#313=ORIENTED_EDGE('',*,*,#683,.T.);
#314=ORIENTED_EDGE('',*,*,#684,.T.);
#315=ORIENTED_EDGE('',*,*,#685,.F.);
#316=ORIENTED_EDGE('',*,*,#686,.F.);
#317=ORIENTED_EDGE('',*,*,#687,.F.);
#318=ORIENTED_EDGE('',*,*,#688,.F.);
#319=ORIENTED_EDGE('',*,*,#689,.T.);
#320=ORIENTED_EDGE('',*,*,#690,.T.);
#321=ORIENTED_EDGE('',*,*,#691,.T.);
#322=ORIENTED_EDGE('',*,*,#692,.F.);
#323=ORIENTED_EDGE('',*,*,#693,.T.);
#324=ORIENTED_EDGE('',*,*,#694,.T.);
#325=ORIENTED_EDGE('',*,*,#695,.T.);
#326=ORIENTED_EDGE('',*,*,#696,.F.);
#327=ORIENTED_EDGE('',*,*,#697,.T.);
#328=ORIENTED_EDGE('',*,*,#698,.T.);
#329=ORIENTED_EDGE('',*,*,#699,.F.);
#330=ORIENTED_EDGE('',*,*,#697,.F.);
#331=ORIENTED_EDGE('',*,*,#700,.T.);
#332=ORIENTED_EDGE('',*,*,#701,.T.);
#333=ORIENTED_EDGE('',*,*,#702,.F.);
#334=ORIENTED_EDGE('',*,*,#703,.T.);
#335=ORIENTED_EDGE('',*,*,#704,.F.);
#336=ORIENTED_EDGE('',*,*,#705,.F.);
#337=ORIENTED_EDGE('',*,*,#699,.T.);
#338=ORIENTED_EDGE('',*,*,#706,.F.);
#339=ORIENTED_EDGE('',*,*,#707,.T.);
#340=ORIENTED_EDGE('',*,*,#700,.F.);
#341=ORIENTED_EDGE('',*,*,#696,.T.);
#342=ORIENTED_EDGE('',*,*,#705,.T.);
#343=ORIENTED_EDGE('',*,*,#708,.F.);
#344=ORIENTED_EDGE('',*,*,#709,.F.);
#345=ORIENTED_EDGE('',*,*,#710,.T.);
#346=ORIENTED_EDGE('',*,*,#706,.T.);
#347=ORIENTED_EDGE('',*,*,#711,.F.);
#348=ORIENTED_EDGE('',*,*,#712,.F.);
#349=ORIENTED_EDGE('',*,*,#713,.F.);
#350=ORIENTED_EDGE('',*,*,#709,.T.);
#351=ORIENTED_EDGE('',*,*,#714,.F.);
#352=ORIENTED_EDGE('',*,*,#715,.F.);
#353=ORIENTED_EDGE('',*,*,#716,.F.);
#354=ORIENTED_EDGE('',*,*,#717,.F.);
#355=ORIENTED_EDGE('',*,*,#718,.T.);
#356=ORIENTED_EDGE('',*,*,#694,.F.);
#357=ORIENTED_EDGE('',*,*,#719,.T.);
#358=ORIENTED_EDGE('',*,*,#720,.T.);
#359=ORIENTED_EDGE('',*,*,#721,.T.);
#360=ORIENTED_EDGE('',*,*,#722,.F.);
#361=ORIENTED_EDGE('',*,*,#695,.F.);
#362=ORIENTED_EDGE('',*,*,#721,.F.);
#363=ORIENTED_EDGE('',*,*,#723,.F.);
#364=ORIENTED_EDGE('',*,*,#724,.F.);
#365=ORIENTED_EDGE('',*,*,#692,.T.);
#366=ORIENTED_EDGE('',*,*,#722,.T.);
#367=ORIENTED_EDGE('',*,*,#725,.F.);
#368=ORIENTED_EDGE('',*,*,#726,.F.);
#369=ORIENTED_EDGE('',*,*,#727,.T.);
#370=ORIENTED_EDGE('',*,*,#728,.T.);
#371=ORIENTED_EDGE('',*,*,#690,.F.);
#372=ORIENTED_EDGE('',*,*,#729,.F.);
#373=ORIENTED_EDGE('',*,*,#691,.F.);
#374=ORIENTED_EDGE('',*,*,#728,.F.);
#375=ORIENTED_EDGE('',*,*,#730,.F.);
#376=ORIENTED_EDGE('',*,*,#731,.F.);
#377=ORIENTED_EDGE('',*,*,#732,.T.);
#378=ORIENTED_EDGE('',*,*,#688,.T.);
#379=ORIENTED_EDGE('',*,*,#729,.T.);
#380=ORIENTED_EDGE('',*,*,#733,.F.);
#381=ORIENTED_EDGE('',*,*,#734,.T.);
#382=ORIENTED_EDGE('',*,*,#719,.F.);
#383=ORIENTED_EDGE('',*,*,#693,.F.);
#384=ORIENTED_EDGE('',*,*,#724,.T.);
#385=ORIENTED_EDGE('',*,*,#735,.T.);
#386=ORIENTED_EDGE('',*,*,#712,.T.);
#387=ORIENTED_EDGE('',*,*,#736,.F.);
#388=ORIENTED_EDGE('',*,*,#726,.T.);
#389=ORIENTED_EDGE('',*,*,#689,.F.);
#390=ORIENTED_EDGE('',*,*,#732,.F.);
#391=ORIENTED_EDGE('',*,*,#737,.F.);
#392=ORIENTED_EDGE('',*,*,#738,.T.);
#393=ORIENTED_EDGE('',*,*,#739,.T.);
#394=ORIENTED_EDGE('',*,*,#733,.T.);
#395=ORIENTED_EDGE('',*,*,#740,.T.);
#396=ORIENTED_EDGE('',*,*,#671,.F.);
#397=ORIENTED_EDGE('',*,*,#741,.T.);
#398=ORIENTED_EDGE('',*,*,#738,.F.);
#399=ORIENTED_EDGE('',*,*,#742,.F.);
#400=ORIENTED_EDGE('',*,*,#687,.T.);
#401=ORIENTED_EDGE('',*,*,#743,.F.);
#402=ORIENTED_EDGE('',*,*,#713,.T.);
#403=ORIENTED_EDGE('',*,*,#744,.T.);
#404=ORIENTED_EDGE('',*,*,#710,.F.);
#405=ORIENTED_EDGE('',*,*,#743,.T.);
#406=ORIENTED_EDGE('',*,*,#686,.T.);
#407=ORIENTED_EDGE('',*,*,#745,.F.);
#408=ORIENTED_EDGE('',*,*,#701,.F.);
#409=ORIENTED_EDGE('',*,*,#707,.F.);
#410=ORIENTED_EDGE('',*,*,#702,.T.);
#411=ORIENTED_EDGE('',*,*,#745,.T.);
#412=ORIENTED_EDGE('',*,*,#685,.T.);
#413=ORIENTED_EDGE('',*,*,#746,.F.);
#414=ORIENTED_EDGE('',*,*,#703,.F.);
#415=ORIENTED_EDGE('',*,*,#698,.F.);
#416=ORIENTED_EDGE('',*,*,#747,.T.);
#417=ORIENTED_EDGE('',*,*,#711,.T.);
#418=ORIENTED_EDGE('',*,*,#708,.T.);
#419=ORIENTED_EDGE('',*,*,#704,.T.);
#420=ORIENTED_EDGE('',*,*,#746,.T.);
#421=ORIENTED_EDGE('',*,*,#684,.F.);
#422=ORIENTED_EDGE('',*,*,#714,.T.);
#423=ORIENTED_EDGE('',*,*,#747,.F.);
#424=ORIENTED_EDGE('',*,*,#683,.F.);
#425=ORIENTED_EDGE('',*,*,#748,.T.);
#426=ORIENTED_EDGE('',*,*,#718,.F.);
#427=ORIENTED_EDGE('',*,*,#749,.T.);
#428=ORIENTED_EDGE('',*,*,#675,.T.);
#429=ORIENTED_EDGE('',*,*,#750,.F.);
#430=ORIENTED_EDGE('',*,*,#674,.T.);
#431=ORIENTED_EDGE('',*,*,#751,.F.);
#432=ORIENTED_EDGE('',*,*,#715,.T.);
#433=ORIENTED_EDGE('',*,*,#750,.T.);
#434=ORIENTED_EDGE('',*,*,#751,.T.);
#435=ORIENTED_EDGE('',*,*,#673,.T.);
#436=ORIENTED_EDGE('',*,*,#752,.F.);
#437=ORIENTED_EDGE('',*,*,#716,.T.);
#438=ORIENTED_EDGE('',*,*,#752,.T.);
#439=ORIENTED_EDGE('',*,*,#672,.F.);
#440=ORIENTED_EDGE('',*,*,#749,.F.);
#441=ORIENTED_EDGE('',*,*,#717,.T.);
#442=ORIENTED_EDGE('',*,*,#734,.F.);
#443=ORIENTED_EDGE('',*,*,#739,.F.);
#444=ORIENTED_EDGE('',*,*,#741,.F.);
#445=ORIENTED_EDGE('',*,*,#670,.T.);
#446=ORIENTED_EDGE('',*,*,#753,.T.);
#447=ORIENTED_EDGE('',*,*,#676,.T.);
#448=ORIENTED_EDGE('',*,*,#744,.F.);
#449=ORIENTED_EDGE('',*,*,#735,.F.);
#450=ORIENTED_EDGE('',*,*,#725,.T.);
#451=ORIENTED_EDGE('',*,*,#723,.T.);
#452=ORIENTED_EDGE('',*,*,#720,.F.);
#453=ORIENTED_EDGE('',*,*,#754,.T.);
#454=ORIENTED_EDGE('',*,*,#668,.T.);
#455=ORIENTED_EDGE('',*,*,#742,.T.);
#456=ORIENTED_EDGE('',*,*,#740,.F.);
#457=ORIENTED_EDGE('',*,*,#737,.T.);
#458=ORIENTED_EDGE('',*,*,#731,.T.);
#459=ORIENTED_EDGE('',*,*,#730,.T.);
#460=ORIENTED_EDGE('',*,*,#727,.F.);
#461=ORIENTED_EDGE('',*,*,#736,.T.);
#462=ORIENTED_EDGE('',*,*,#748,.F.);
#463=ORIENTED_EDGE('',*,*,#682,.F.);
#464=ORIENTED_EDGE('',*,*,#755,.F.);
#465=ORIENTED_EDGE('',*,*,#756,.T.);
#466=ORIENTED_EDGE('',*,*,#757,.T.);
#467=ORIENTED_EDGE('',*,*,#758,.T.);
#468=ORIENTED_EDGE('',*,*,#759,.F.);
#469=ORIENTED_EDGE('',*,*,#760,.F.);
#470=ORIENTED_EDGE('',*,*,#761,.F.);
#471=ORIENTED_EDGE('',*,*,#762,.F.);
#472=ORIENTED_EDGE('',*,*,#756,.F.);
#473=ORIENTED_EDGE('',*,*,#680,.T.);
#474=ORIENTED_EDGE('',*,*,#763,.T.);
#475=ORIENTED_EDGE('',*,*,#764,.F.);
#476=ORIENTED_EDGE('',*,*,#757,.F.);
#477=ORIENTED_EDGE('',*,*,#764,.T.);
#478=ORIENTED_EDGE('',*,*,#765,.T.);
#479=ORIENTED_EDGE('',*,*,#766,.F.);
#480=ORIENTED_EDGE('',*,*,#758,.F.);
#481=ORIENTED_EDGE('',*,*,#766,.T.);
#482=ORIENTED_EDGE('',*,*,#767,.T.);
#483=ORIENTED_EDGE('',*,*,#678,.F.);
#484=ORIENTED_EDGE('',*,*,#768,.T.);
#485=ORIENTED_EDGE('',*,*,#769,.T.);
#486=ORIENTED_EDGE('',*,*,#767,.F.);
#487=ORIENTED_EDGE('',*,*,#765,.F.);
#488=ORIENTED_EDGE('',*,*,#763,.F.);
#489=ORIENTED_EDGE('',*,*,#770,.T.);
#490=ORIENTED_EDGE('',*,*,#771,.T.);
#491=ORIENTED_EDGE('',*,*,#772,.T.);
#492=ORIENTED_EDGE('',*,*,#773,.F.);
#493=ORIENTED_EDGE('',*,*,#774,.F.);
#494=ORIENTED_EDGE('',*,*,#669,.F.);
#495=ORIENTED_EDGE('',*,*,#775,.T.);
#496=ORIENTED_EDGE('',*,*,#776,.T.);
#497=ORIENTED_EDGE('',*,*,#777,.F.);
#498=ORIENTED_EDGE('',*,*,#762,.T.);
#499=ORIENTED_EDGE('',*,*,#778,.T.);
#500=ORIENTED_EDGE('',*,*,#771,.F.);
#501=ORIENTED_EDGE('',*,*,#776,.F.);
#502=ORIENTED_EDGE('',*,*,#761,.T.);
#503=ORIENTED_EDGE('',*,*,#779,.T.);
#504=ORIENTED_EDGE('',*,*,#772,.F.);
#505=ORIENTED_EDGE('',*,*,#778,.F.);
#506=ORIENTED_EDGE('',*,*,#760,.T.);
#507=ORIENTED_EDGE('',*,*,#773,.T.);
#508=ORIENTED_EDGE('',*,*,#768,.F.);
#509=ORIENTED_EDGE('',*,*,#779,.F.);
#510=ORIENTED_EDGE('',*,*,#759,.T.);
#511=ORIENTED_EDGE('',*,*,#677,.F.);
#512=ORIENTED_EDGE('',*,*,#753,.F.);
#513=ORIENTED_EDGE('',*,*,#774,.T.);
#514=ORIENTED_EDGE('',*,*,#755,.T.);
#515=ORIENTED_EDGE('',*,*,#775,.F.);
#516=ORIENTED_EDGE('',*,*,#754,.F.);
#517=ORIENTED_EDGE('',*,*,#681,.T.);
#518=ORIENTED_EDGE('',*,*,#780,.F.);
#519=ORIENTED_EDGE('',*,*,#781,.T.);
#520=ORIENTED_EDGE('',*,*,#782,.T.);
#521=ORIENTED_EDGE('',*,*,#783,.F.);
#522=ORIENTED_EDGE('',*,*,#782,.F.);
#523=ORIENTED_EDGE('',*,*,#784,.T.);
#524=ORIENTED_EDGE('',*,*,#785,.T.);
#525=ORIENTED_EDGE('',*,*,#786,.F.);
#526=ORIENTED_EDGE('',*,*,#785,.F.);
#527=ORIENTED_EDGE('',*,*,#787,.T.);
#528=ORIENTED_EDGE('',*,*,#788,.T.);
#529=ORIENTED_EDGE('',*,*,#789,.F.);
#530=ORIENTED_EDGE('',*,*,#788,.F.);
#531=ORIENTED_EDGE('',*,*,#790,.T.);
#532=ORIENTED_EDGE('',*,*,#780,.T.);
#533=ORIENTED_EDGE('',*,*,#791,.F.);
#534=ORIENTED_EDGE('',*,*,#792,.F.);
#535=ORIENTED_EDGE('',*,*,#793,.T.);
#536=ORIENTED_EDGE('',*,*,#794,.T.);
#537=ORIENTED_EDGE('',*,*,#795,.F.);
#538=ORIENTED_EDGE('',*,*,#794,.F.);
#539=ORIENTED_EDGE('',*,*,#796,.T.);
#540=ORIENTED_EDGE('',*,*,#797,.T.);
#541=ORIENTED_EDGE('',*,*,#798,.F.);
#542=ORIENTED_EDGE('',*,*,#797,.F.);
#543=ORIENTED_EDGE('',*,*,#799,.T.);
#544=ORIENTED_EDGE('',*,*,#800,.T.);
#545=ORIENTED_EDGE('',*,*,#801,.F.);
#546=ORIENTED_EDGE('',*,*,#800,.F.);
#547=ORIENTED_EDGE('',*,*,#802,.T.);
#548=ORIENTED_EDGE('',*,*,#792,.T.);
#549=ORIENTED_EDGE('',*,*,#803,.F.);
#550=ORIENTED_EDGE('',*,*,#804,.F.);
#551=ORIENTED_EDGE('',*,*,#791,.T.);
#552=ORIENTED_EDGE('',*,*,#783,.T.);
#553=ORIENTED_EDGE('',*,*,#786,.T.);
#554=ORIENTED_EDGE('',*,*,#805,.F.);
#555=ORIENTED_EDGE('',*,*,#795,.T.);
#556=ORIENTED_EDGE('',*,*,#798,.T.);
#557=ORIENTED_EDGE('',*,*,#801,.T.);
#558=ORIENTED_EDGE('',*,*,#781,.F.);
#559=ORIENTED_EDGE('',*,*,#790,.F.);
#560=ORIENTED_EDGE('',*,*,#787,.F.);
#561=ORIENTED_EDGE('',*,*,#784,.F.);
#562=ORIENTED_EDGE('',*,*,#793,.F.);
#563=ORIENTED_EDGE('',*,*,#802,.F.);
#564=ORIENTED_EDGE('',*,*,#799,.F.);
#565=ORIENTED_EDGE('',*,*,#796,.F.);
#566=ORIENTED_EDGE('',*,*,#803,.T.);
#567=ORIENTED_EDGE('',*,*,#806,.F.);
#568=ORIENTED_EDGE('',*,*,#777,.T.);
#569=ORIENTED_EDGE('',*,*,#807,.T.);
#570=ORIENTED_EDGE('',*,*,#805,.T.);
#571=ORIENTED_EDGE('',*,*,#808,.F.);
#572=ORIENTED_EDGE('',*,*,#769,.F.);
#573=ORIENTED_EDGE('',*,*,#806,.T.);
#574=ORIENTED_EDGE('',*,*,#789,.T.);
#575=ORIENTED_EDGE('',*,*,#809,.F.);
#576=ORIENTED_EDGE('',*,*,#679,.F.);
#577=ORIENTED_EDGE('',*,*,#808,.T.);
#578=ORIENTED_EDGE('',*,*,#804,.T.);
#579=ORIENTED_EDGE('',*,*,#807,.F.);
#580=ORIENTED_EDGE('',*,*,#770,.F.);
#581=ORIENTED_EDGE('',*,*,#809,.T.);
#582=VERTEX_POINT('',#1385);
#583=VERTEX_POINT('',#1386);
#584=VERTEX_POINT('',#1388);
#585=VERTEX_POINT('',#1390);
#586=VERTEX_POINT('',#1394);
#587=VERTEX_POINT('',#1395);
#588=VERTEX_POINT('',#1397);
#589=VERTEX_POINT('',#1399);
#590=VERTEX_POINT('',#1402);
#591=VERTEX_POINT('',#1403);
#592=VERTEX_POINT('',#1405);
#593=VERTEX_POINT('',#1407);
#594=VERTEX_POINT('',#1409);
#595=VERTEX_POINT('',#1411);
#596=VERTEX_POINT('',#1413);
#597=VERTEX_POINT('',#1415);
#598=VERTEX_POINT('',#1417);
#599=VERTEX_POINT('',#1419);
#600=VERTEX_POINT('',#1421);
#601=VERTEX_POINT('',#1423);
#602=VERTEX_POINT('',#1427);
#603=VERTEX_POINT('',#1428);
#604=VERTEX_POINT('',#1430);
#605=VERTEX_POINT('',#1432);
#606=VERTEX_POINT('',#1436);
#607=VERTEX_POINT('',#1437);
#608=VERTEX_POINT('',#1439);
#609=VERTEX_POINT('',#1441);
#610=VERTEX_POINT('',#1445);
#611=VERTEX_POINT('',#1446);
#612=VERTEX_POINT('',#1448);
#613=VERTEX_POINT('',#1450);
#614=VERTEX_POINT('',#1454);
#615=VERTEX_POINT('',#1456);
#616=VERTEX_POINT('',#1460);
#617=VERTEX_POINT('',#1462);
#618=VERTEX_POINT('',#1466);
#619=VERTEX_POINT('',#1467);
#620=VERTEX_POINT('',#1472);
#621=VERTEX_POINT('',#1473);
#622=VERTEX_POINT('',#1478);
#623=VERTEX_POINT('',#1479);
#624=VERTEX_POINT('',#1484);
#625=VERTEX_POINT('',#1485);
#626=VERTEX_POINT('',#1487);
#627=VERTEX_POINT('',#1489);
#628=VERTEX_POINT('',#1493);
#629=VERTEX_POINT('',#1495);
#630=VERTEX_POINT('',#1499);
#631=VERTEX_POINT('',#1503);
#632=VERTEX_POINT('',#1507);
#633=VERTEX_POINT('',#1509);
#634=VERTEX_POINT('',#1513);
#635=VERTEX_POINT('',#1517);
#636=VERTEX_POINT('',#1521);
#637=VERTEX_POINT('',#1522);
#638=VERTEX_POINT('',#1529);
#639=VERTEX_POINT('',#1530);
#640=VERTEX_POINT('',#1561);
#641=VERTEX_POINT('',#1563);
#642=VERTEX_POINT('',#1565);
#643=VERTEX_POINT('',#1568);
#644=VERTEX_POINT('',#1570);
#645=VERTEX_POINT('',#1572);
#646=VERTEX_POINT('',#1576);
#647=VERTEX_POINT('',#1580);
#648=VERTEX_POINT('',#1586);
#649=VERTEX_POINT('',#1587);
#650=VERTEX_POINT('',#1590);
#651=VERTEX_POINT('',#1592);
#652=VERTEX_POINT('',#1609);
#653=VERTEX_POINT('',#1610);
#654=VERTEX_POINT('',#1615);
#655=VERTEX_POINT('',#1617);
#656=VERTEX_POINT('',#1651);
#657=VERTEX_POINT('',#1653);
#658=VERTEX_POINT('',#1663);
#659=VERTEX_POINT('',#1665);
#660=VERTEX_POINT('',#1702);
#661=VERTEX_POINT('',#1703);
#662=VERTEX_POINT('',#1735);
#663=VERTEX_POINT('',#1737);
#664=VERTEX_POINT('',#1744);
#665=VERTEX_POINT('',#1746);
#666=VERTEX_POINT('',#1780);
#667=VERTEX_POINT('',#1782);
#668=EDGE_CURVE('',#582,#583,#810,.T.);
#669=EDGE_CURVE('',#582,#584,#811,.T.);
#670=EDGE_CURVE('',#585,#584,#812,.T.);
#671=EDGE_CURVE('',#585,#583,#813,.T.);
#672=EDGE_CURVE('',#586,#587,#814,.T.);
#673=EDGE_CURVE('',#588,#587,#815,.T.);
#674=EDGE_CURVE('',#589,#588,#816,.T.);
#675=EDGE_CURVE('',#586,#589,#817,.T.);
#676=EDGE_CURVE('',#590,#591,#818,.T.);
#677=EDGE_CURVE('',#590,#592,#819,.T.);
#678=EDGE_CURVE('',#592,#593,#820,.T.);
#679=EDGE_CURVE('',#593,#594,#821,.T.);
#680=EDGE_CURVE('',#595,#594,#822,.T.);
#681=EDGE_CURVE('',#596,#595,#823,.T.);
#682=EDGE_CURVE('',#596,#597,#824,.T.);
#683=EDGE_CURVE('',#597,#598,#825,.T.);
#684=EDGE_CURVE('',#598,#599,#826,.T.);
#685=EDGE_CURVE('',#600,#599,#827,.T.);
#686=EDGE_CURVE('',#601,#600,#828,.T.);
#687=EDGE_CURVE('',#591,#601,#829,.T.);
#688=EDGE_CURVE('',#602,#603,#830,.T.);
#689=EDGE_CURVE('',#602,#604,#831,.T.);
#690=EDGE_CURVE('',#604,#605,#832,.T.);
#691=EDGE_CURVE('',#605,#603,#833,.T.);
#692=EDGE_CURVE('',#606,#607,#834,.T.);
#693=EDGE_CURVE('',#606,#608,#835,.T.);
#694=EDGE_CURVE('',#608,#609,#836,.T.);
#695=EDGE_CURVE('',#609,#607,#837,.T.);
#696=EDGE_CURVE('',#610,#611,#838,.T.);
#697=EDGE_CURVE('',#610,#612,#839,.T.);
#698=EDGE_CURVE('',#612,#613,#840,.T.);
#699=EDGE_CURVE('',#611,#613,#841,.T.);
#700=EDGE_CURVE('',#610,#614,#77,.T.);
#701=EDGE_CURVE('',#614,#615,#842,.T.);
#702=EDGE_CURVE('',#612,#615,#78,.T.);
#703=EDGE_CURVE('',#613,#616,#79,.T.);
#704=EDGE_CURVE('',#617,#616,#843,.T.);
#705=EDGE_CURVE('',#611,#617,#80,.T.);
#706=EDGE_CURVE('',#618,#619,#844,.T.);
#707=EDGE_CURVE('',#618,#614,#61,.T.);
#708=EDGE_CURVE('',#619,#617,#62,.T.);
#709=EDGE_CURVE('',#620,#621,#845,.T.);
#710=EDGE_CURVE('',#620,#618,#846,.T.);
#711=EDGE_CURVE('',#621,#619,#847,.T.);
#712=EDGE_CURVE('',#622,#623,#848,.T.);
#713=EDGE_CURVE('',#620,#622,#849,.T.);
#714=EDGE_CURVE('',#623,#621,#850,.T.);
#715=EDGE_CURVE('',#624,#625,#851,.T.);
#716=EDGE_CURVE('',#626,#624,#852,.T.);
#717=EDGE_CURVE('',#627,#626,#853,.T.);
#718=EDGE_CURVE('',#627,#625,#854,.T.);
#719=EDGE_CURVE('',#608,#628,#855,.T.);
#720=EDGE_CURVE('',#628,#629,#856,.T.);
#721=EDGE_CURVE('',#629,#609,#857,.T.);
#722=EDGE_CURVE('',#607,#630,#858,.T.);
#723=EDGE_CURVE('',#630,#629,#859,.T.);
#724=EDGE_CURVE('',#606,#631,#860,.T.);
#725=EDGE_CURVE('',#631,#630,#861,.T.);
#726=EDGE_CURVE('',#632,#604,#862,.T.);
#727=EDGE_CURVE('',#632,#633,#863,.T.);
#728=EDGE_CURVE('',#633,#605,#864,.T.);
#729=EDGE_CURVE('',#603,#634,#865,.T.);
#730=EDGE_CURVE('',#634,#633,#866,.T.);
#731=EDGE_CURVE('',#635,#634,#867,.T.);
#732=EDGE_CURVE('',#635,#602,#868,.T.);
#733=EDGE_CURVE('',#636,#637,#869,.T.);
#734=EDGE_CURVE('',#636,#628,#870,.T.);
#735=EDGE_CURVE('',#631,#622,#871,.T.);
#736=EDGE_CURVE('',#632,#623,#872,.T.);
#737=EDGE_CURVE('',#637,#635,#873,.T.);
#738=EDGE_CURVE('',#638,#639,#874,.T.);
#739=EDGE_CURVE('',#639,#636,#875,.T.);
#740=EDGE_CURVE('',#637,#638,#876,.T.);
#741=EDGE_CURVE('',#585,#639,#877,.T.);
#742=EDGE_CURVE('',#583,#638,#878,.T.);
#743=EDGE_CURVE('',#620,#601,#879,.T.);
#744=EDGE_CURVE('',#622,#591,#880,.T.);
#745=EDGE_CURVE('',#615,#600,#63,.T.);
#746=EDGE_CURVE('',#616,#599,#64,.T.);
#747=EDGE_CURVE('',#598,#621,#881,.T.);
#748=EDGE_CURVE('',#597,#623,#882,.T.);
#749=EDGE_CURVE('',#627,#586,#883,.T.);
#750=EDGE_CURVE('',#625,#589,#884,.T.);
#751=EDGE_CURVE('',#624,#588,#885,.T.);
#752=EDGE_CURVE('',#626,#587,#886,.T.);
#753=EDGE_CURVE('',#584,#590,#887,.T.);
#754=EDGE_CURVE('',#596,#582,#888,.T.);
#755=EDGE_CURVE('',#595,#640,#889,.T.);
#756=EDGE_CURVE('',#595,#641,#65,.T.);
#757=EDGE_CURVE('',#641,#642,#890,.T.);
#758=EDGE_CURVE('',#642,#592,#66,.T.);
#759=EDGE_CURVE('',#643,#592,#891,.T.);
#760=EDGE_CURVE('',#644,#643,#67,.T.);
#761=EDGE_CURVE('',#645,#644,#892,.T.);
#762=EDGE_CURVE('',#640,#645,#68,.T.);
#763=EDGE_CURVE('',#594,#646,#69,.T.);
#764=EDGE_CURVE('',#641,#646,#893,.T.);
#765=EDGE_CURVE('',#646,#647,#894,.T.);
#766=EDGE_CURVE('',#642,#647,#895,.T.);
#767=EDGE_CURVE('',#647,#593,#70,.T.);
#768=EDGE_CURVE('',#648,#649,#71,.T.);
#769=EDGE_CURVE('',#649,#593,#896,.T.);
#770=EDGE_CURVE('',#594,#650,#897,.T.);
#771=EDGE_CURVE('',#650,#651,#72,.T.);
#772=EDGE_CURVE('',#651,#648,#898,.T.);
#773=EDGE_CURVE('',#643,#649,#899,.T.);
#774=EDGE_CURVE('',#584,#643,#900,.T.);
#775=EDGE_CURVE('',#582,#640,#901,.T.);
#776=EDGE_CURVE('',#640,#650,#902,.T.);
#777=EDGE_CURVE('',#649,#650,#903,.T.);
#778=EDGE_CURVE('',#645,#651,#904,.T.);
#779=EDGE_CURVE('',#644,#648,#905,.T.);
#780=EDGE_CURVE('',#652,#653,#906,.T.);
#781=EDGE_CURVE('',#652,#654,#43,.T.);
#782=EDGE_CURVE('',#654,#655,#907,.T.);
#783=EDGE_CURVE('',#653,#655,#908,.T.);
#784=EDGE_CURVE('',#654,#656,#44,.T.);
#785=EDGE_CURVE('',#656,#657,#909,.T.);
#786=EDGE_CURVE('',#655,#657,#73,.T.);
#787=EDGE_CURVE('',#656,#658,#45,.T.);
#788=EDGE_CURVE('',#658,#659,#910,.T.);
#789=EDGE_CURVE('',#657,#659,#911,.T.);
#790=EDGE_CURVE('',#658,#652,#46,.T.);
#791=EDGE_CURVE('',#659,#653,#74,.T.);
#792=EDGE_CURVE('',#660,#661,#912,.T.);
#793=EDGE_CURVE('',#660,#662,#47,.T.);
#794=EDGE_CURVE('',#662,#663,#913,.T.);
#795=EDGE_CURVE('',#661,#663,#75,.T.);
#796=EDGE_CURVE('',#662,#664,#48,.T.);
#797=EDGE_CURVE('',#664,#665,#914,.T.);
#798=EDGE_CURVE('',#663,#665,#915,.T.);
#799=EDGE_CURVE('',#664,#666,#49,.T.);
#800=EDGE_CURVE('',#666,#667,#916,.T.);
#801=EDGE_CURVE('',#665,#667,#76,.T.);
#802=EDGE_CURVE('',#666,#660,#50,.T.);
#803=EDGE_CURVE('',#667,#661,#917,.T.);
#804=EDGE_CURVE('',#659,#667,#918,.T.);
#805=EDGE_CURVE('',#661,#657,#919,.T.);
#806=EDGE_CURVE('',#649,#661,#920,.T.);
#807=EDGE_CURVE('',#650,#667,#921,.T.);
#808=EDGE_CURVE('',#593,#657,#922,.T.);
#809=EDGE_CURVE('',#594,#659,#923,.T.);
#810=LINE('',#1384,#924);
#811=LINE('',#1387,#925);
#812=LINE('',#1389,#926);
#813=LINE('',#1391,#927);
#814=LINE('',#1393,#928);
#815=LINE('',#1396,#929);
#816=LINE('',#1398,#930);
#817=LINE('',#1400,#931);
#818=LINE('',#1401,#932);
#819=LINE('',#1404,#933);
#820=LINE('',#1406,#934);
#821=LINE('',#1408,#935);
#822=LINE('',#1410,#936);
#823=LINE('',#1412,#937);
#824=LINE('',#1414,#938);
#825=LINE('',#1416,#939);
#826=LINE('',#1418,#940);
#827=LINE('',#1420,#941);
#828=LINE('',#1422,#942);
#829=LINE('',#1424,#943);
#830=LINE('',#1426,#944);
#831=LINE('',#1429,#945);
#832=LINE('',#1431,#946);
#833=LINE('',#1433,#947);
#834=LINE('',#1435,#948);
#835=LINE('',#1438,#949);
#836=LINE('',#1440,#950);
#837=LINE('',#1442,#951);
#838=LINE('',#1444,#952);
#839=LINE('',#1447,#953);
#840=LINE('',#1449,#954);
#841=LINE('',#1451,#955);
#842=LINE('',#1455,#956);
#843=LINE('',#1461,#957);
#844=LINE('',#1465,#958);
#845=LINE('',#1471,#959);
#846=LINE('',#1474,#960);
#847=LINE('',#1475,#961);
#848=LINE('',#1477,#962);
#849=LINE('',#1480,#963);
#850=LINE('',#1481,#964);
#851=LINE('',#1483,#965);
#852=LINE('',#1486,#966);
#853=LINE('',#1488,#967);
#854=LINE('',#1490,#968);
#855=LINE('',#1492,#969);
#856=LINE('',#1494,#970);
#857=LINE('',#1496,#971);
#858=LINE('',#1498,#972);
#859=LINE('',#1500,#973);
#860=LINE('',#1502,#974);
#861=LINE('',#1504,#975);
#862=LINE('',#1506,#976);
#863=LINE('',#1508,#977);
#864=LINE('',#1510,#978);
#865=LINE('',#1512,#979);
#866=LINE('',#1514,#980);
#867=LINE('',#1516,#981);
#868=LINE('',#1518,#982);
#869=LINE('',#1520,#983);
#870=LINE('',#1523,#984);
#871=LINE('',#1524,#985);
#872=LINE('',#1525,#986);
#873=LINE('',#1526,#987);
#874=LINE('',#1528,#988);
#875=LINE('',#1531,#989);
#876=LINE('',#1532,#990);
#877=LINE('',#1534,#991);
#878=LINE('',#1535,#992);
#879=LINE('',#1537,#993);
#880=LINE('',#1538,#994);
#881=LINE('',#1544,#995);
#882=LINE('',#1546,#996);
#883=LINE('',#1548,#997);
#884=LINE('',#1549,#998);
#885=LINE('',#1551,#999);
#886=LINE('',#1553,#1000);
#887=LINE('',#1556,#1001);
#888=LINE('',#1558,#1002);
#889=LINE('',#1560,#1003);
#890=LINE('',#1564,#1004);
#891=LINE('',#1567,#1005);
#892=LINE('',#1571,#1006);
#893=LINE('',#1577,#1007);
#894=LINE('',#1579,#1008);
#895=LINE('',#1581,#1009);
#896=LINE('',#1588,#1010);
#897=LINE('',#1589,#1011);
#898=LINE('',#1593,#1012);
#899=LINE('',#1595,#1013);
#900=LINE('',#1596,#1014);
#901=LINE('',#1597,#1015);
#902=LINE('',#1598,#1016);
#903=LINE('',#1599,#1017);
#904=LINE('',#1601,#1018);
#905=LINE('',#1603,#1019);
#906=LINE('',#1608,#1020);
#907=LINE('',#1616,#1021);
#908=LINE('',#1618,#1022);
#909=LINE('',#1652,#1023);
#910=LINE('',#1664,#1024);
#911=LINE('',#1666,#1025);
#912=LINE('',#1701,#1026);
#913=LINE('',#1736,#1027);
#914=LINE('',#1745,#1028);
#915=LINE('',#1747,#1029);
#916=LINE('',#1781,#1030);
#917=LINE('',#1789,#1031);
#918=LINE('',#1791,#1032);
#919=LINE('',#1792,#1033);
#920=LINE('',#1795,#1034);
#921=LINE('',#1796,#1035);
#922=LINE('',#1798,#1036);
#923=LINE('',#1800,#1037);
#924=VECTOR('',#1117,1.);
#925=VECTOR('',#1118,1.);
#926=VECTOR('',#1119,1.);
#927=VECTOR('',#1120,1.);
#928=VECTOR('',#1123,1.);
#929=VECTOR('',#1124,1.);
#930=VECTOR('',#1125,1.);
#931=VECTOR('',#1126,1.);
#932=VECTOR('',#1127,1.);
#933=VECTOR('',#1128,1.);
#934=VECTOR('',#1129,1.);
#935=VECTOR('',#1130,1.);
#936=VECTOR('',#1131,1.);
#937=VECTOR('',#1132,1.);
#938=VECTOR('',#1133,1.);
#939=VECTOR('',#1134,1.);
#940=VECTOR('',#1135,1.);
#941=VECTOR('',#1136,1.);
#942=VECTOR('',#1137,1.);
#943=VECTOR('',#1138,1.);
#944=VECTOR('',#1141,1.);
#945=VECTOR('',#1142,1.);
#946=VECTOR('',#1143,1.);
#947=VECTOR('',#1144,1.);
#948=VECTOR('',#1147,1.);
#949=VECTOR('',#1148,1.);
#950=VECTOR('',#1149,1.);
#951=VECTOR('',#1150,1.);
#952=VECTOR('',#1153,1.);
#953=VECTOR('',#1154,1.);
#954=VECTOR('',#1155,1.);
#955=VECTOR('',#1156,1.);
#956=VECTOR('',#1161,1.);
#957=VECTOR('',#1168,1.);
#958=VECTOR('',#1173,1.);
#959=VECTOR('',#1180,1.);
#960=VECTOR('',#1181,1.);
#961=VECTOR('',#1182,1.);
#962=VECTOR('',#1185,1.);
#963=VECTOR('',#1186,1.);
#964=VECTOR('',#1187,1.);
#965=VECTOR('',#1190,1.);
#966=VECTOR('',#1191,1.);
#967=VECTOR('',#1192,1.);
#968=VECTOR('',#1193,1.);
#969=VECTOR('',#1196,1.);
#970=VECTOR('',#1197,1.);
#971=VECTOR('',#1198,1.);
#972=VECTOR('',#1201,1.);
#973=VECTOR('',#1202,1.);
#974=VECTOR('',#1205,1.);
#975=VECTOR('',#1206,1.);
#976=VECTOR('',#1209,1.);
#977=VECTOR('',#1210,1.);
#978=VECTOR('',#1211,1.);
#979=VECTOR('',#1214,1.);
#980=VECTOR('',#1215,1.);
#981=VECTOR('',#1218,1.);
#982=VECTOR('',#1219,1.);
#983=VECTOR('',#1222,1.);
#984=VECTOR('',#1223,1.);
#985=VECTOR('',#1224,1.);
#986=VECTOR('',#1225,1.);
#987=VECTOR('',#1226,1.);
#988=VECTOR('',#1229,1.);
#989=VECTOR('',#1230,1.);
#990=VECTOR('',#1231,1.);
#991=VECTOR('',#1234,1.);
#992=VECTOR('',#1235,1.);
#993=VECTOR('',#1238,1.);
#994=VECTOR('',#1239,1.);
#995=VECTOR('',#1250,1.);
#996=VECTOR('',#1253,1.);
#997=VECTOR('',#1256,1.);
#998=VECTOR('',#1257,1.);
#999=VECTOR('',#1260,1.);
#1000=VECTOR('',#1263,1.);
#1001=VECTOR('',#1268,1.);
#1002=VECTOR('',#1271,1.);
#1003=VECTOR('',#1274,1.);
#1004=VECTOR('',#1277,1.);
#1005=VECTOR('',#1280,1.);
#1006=VECTOR('',#1283,1.);
#1007=VECTOR('',#1290,1.);
#1008=VECTOR('',#1293,1.);
#1009=VECTOR('',#1294,1.);
#1010=VECTOR('',#1303,1.);
#1011=VECTOR('',#1304,1.);
#1012=VECTOR('',#1307,1.);
#1013=VECTOR('',#1310,1.);
#1014=VECTOR('',#1311,1.);
#1015=VECTOR('',#1312,1.);
#1016=VECTOR('',#1313,1.);
#1017=VECTOR('',#1314,1.);
#1018=VECTOR('',#1317,1.);
#1019=VECTOR('',#1320,1.);
#1020=VECTOR('',#1329,1.);
#1021=VECTOR('',#1330,1.);
#1022=VECTOR('',#1331,1.);
#1023=VECTOR('',#1334,1.);
#1024=VECTOR('',#1339,1.);
#1025=VECTOR('',#1340,1.);
#1026=VECTOR('',#1347,1.);
#1027=VECTOR('',#1348,1.);
#1028=VECTOR('',#1353,1.);
#1029=VECTOR('',#1354,1.);
#1030=VECTOR('',#1357,1.);
#1031=VECTOR('',#1362,1.);
#1032=VECTOR('',#1365,1.);
#1033=VECTOR('',#1366,1.);
#1034=VECTOR('',#1371,1.);
#1035=VECTOR('',#1372,1.);
#1036=VECTOR('',#1375,1.);
#1037=VECTOR('',#1378,1.);
#1038=AXIS2_PLACEMENT_3D('',#1383,#1115,#1116);
#1039=AXIS2_PLACEMENT_3D('',#1392,#1121,#1122);
#1040=AXIS2_PLACEMENT_3D('',#1425,#1139,#1140);
#1041=AXIS2_PLACEMENT_3D('',#1434,#1145,#1146);
#1042=AXIS2_PLACEMENT_3D('',#1443,#1151,#1152);
#1043=AXIS2_PLACEMENT_3D('',#1452,#1157,#1158);
#1044=AXIS2_PLACEMENT_3D('',#1453,#1159,#1160);
#1045=AXIS2_PLACEMENT_3D('',#1457,#1162,#1163);
#1046=AXIS2_PLACEMENT_3D('',#1458,#1164,#1165);
#1047=AXIS2_PLACEMENT_3D('',#1459,#1166,#1167);
#1048=AXIS2_PLACEMENT_3D('',#1463,#1169,#1170);
#1049=AXIS2_PLACEMENT_3D('',#1464,#1171,#1172);
#1050=AXIS2_PLACEMENT_3D('',#1468,#1174,#1175);
#1051=AXIS2_PLACEMENT_3D('',#1469,#1176,#1177);
#1052=AXIS2_PLACEMENT_3D('',#1470,#1178,#1179);
#1053=AXIS2_PLACEMENT_3D('',#1476,#1183,#1184);
#1054=AXIS2_PLACEMENT_3D('',#1482,#1188,#1189);
#1055=AXIS2_PLACEMENT_3D('',#1491,#1194,#1195);
#1056=AXIS2_PLACEMENT_3D('',#1497,#1199,#1200);
#1057=AXIS2_PLACEMENT_3D('',#1501,#1203,#1204);
#1058=AXIS2_PLACEMENT_3D('',#1505,#1207,#1208);
#1059=AXIS2_PLACEMENT_3D('',#1511,#1212,#1213);
#1060=AXIS2_PLACEMENT_3D('',#1515,#1216,#1217);
#1061=AXIS2_PLACEMENT_3D('',#1519,#1220,#1221);
#1062=AXIS2_PLACEMENT_3D('',#1527,#1227,#1228);
#1063=AXIS2_PLACEMENT_3D('',#1533,#1232,#1233);
#1064=AXIS2_PLACEMENT_3D('',#1536,#1236,#1237);
#1065=AXIS2_PLACEMENT_3D('',#1539,#1240,#1241);
#1066=AXIS2_PLACEMENT_3D('',#1540,#1242,#1243);
#1067=AXIS2_PLACEMENT_3D('',#1541,#1244,#1245);
#1068=AXIS2_PLACEMENT_3D('',#1542,#1246,#1247);
#1069=AXIS2_PLACEMENT_3D('',#1543,#1248,#1249);
#1070=AXIS2_PLACEMENT_3D('',#1545,#1251,#1252);
#1071=AXIS2_PLACEMENT_3D('',#1547,#1254,#1255);
#1072=AXIS2_PLACEMENT_3D('',#1550,#1258,#1259);
#1073=AXIS2_PLACEMENT_3D('',#1552,#1261,#1262);
#1074=AXIS2_PLACEMENT_3D('',#1554,#1264,#1265);
#1075=AXIS2_PLACEMENT_3D('',#1555,#1266,#1267);
#1076=AXIS2_PLACEMENT_3D('',#1557,#1269,#1270);
#1077=AXIS2_PLACEMENT_3D('',#1559,#1272,#1273);
#1078=AXIS2_PLACEMENT_3D('',#1562,#1275,#1276);
#1079=AXIS2_PLACEMENT_3D('',#1566,#1278,#1279);
#1080=AXIS2_PLACEMENT_3D('',#1569,#1281,#1282);
#1081=AXIS2_PLACEMENT_3D('',#1573,#1284,#1285);
#1082=AXIS2_PLACEMENT_3D('',#1574,#1286,#1287);
#1083=AXIS2_PLACEMENT_3D('',#1575,#1288,#1289);
#1084=AXIS2_PLACEMENT_3D('',#1578,#1291,#1292);
#1085=AXIS2_PLACEMENT_3D('',#1582,#1295,#1296);
#1086=AXIS2_PLACEMENT_3D('',#1583,#1297,#1298);
#1087=AXIS2_PLACEMENT_3D('',#1584,#1299,#1300);
#1088=AXIS2_PLACEMENT_3D('',#1585,#1301,#1302);
#1089=AXIS2_PLACEMENT_3D('',#1591,#1305,#1306);
#1090=AXIS2_PLACEMENT_3D('',#1594,#1308,#1309);
#1091=AXIS2_PLACEMENT_3D('',#1600,#1315,#1316);
#1092=AXIS2_PLACEMENT_3D('',#1602,#1318,#1319);
#1093=AXIS2_PLACEMENT_3D('',#1604,#1321,#1322);
#1094=AXIS2_PLACEMENT_3D('',#1605,#1323,#1324);
#1095=AXIS2_PLACEMENT_3D('',#1606,#1325,#1326);
#1096=AXIS2_PLACEMENT_3D('',#1607,#1327,#1328);
#1097=AXIS2_PLACEMENT_3D('',#1619,#1332,#1333);
#1098=AXIS2_PLACEMENT_3D('',#1654,#1335,#1336);
#1099=AXIS2_PLACEMENT_3D('',#1655,#1337,#1338);
#1100=AXIS2_PLACEMENT_3D('',#1667,#1341,#1342);
#1101=AXIS2_PLACEMENT_3D('',#1699,#1343,#1344);
#1102=AXIS2_PLACEMENT_3D('',#1700,#1345,#1346);
#1103=AXIS2_PLACEMENT_3D('',#1738,#1349,#1350);
#1104=AXIS2_PLACEMENT_3D('',#1739,#1351,#1352);
#1105=AXIS2_PLACEMENT_3D('',#1748,#1355,#1356);
#1106=AXIS2_PLACEMENT_3D('',#1783,#1358,#1359);
#1107=AXIS2_PLACEMENT_3D('',#1784,#1360,#1361);
#1108=AXIS2_PLACEMENT_3D('',#1790,#1363,#1364);
#1109=AXIS2_PLACEMENT_3D('',#1793,#1367,#1368);
#1110=AXIS2_PLACEMENT_3D('',#1794,#1369,#1370);
#1111=AXIS2_PLACEMENT_3D('',#1797,#1373,#1374);
#1112=AXIS2_PLACEMENT_3D('',#1799,#1376,#1377);
#1113=AXIS2_PLACEMENT_3D('',#1801,#1379,#1380);
#1114=AXIS2_PLACEMENT_3D('',#1802,#1381,#1382);
#1115=DIRECTION('',(0.,0.,1.));
#1116=DIRECTION('',(1.,0.,0.));
#1117=DIRECTION('',(9.25185853854297E-16,1.,0.));
#1118=DIRECTION('',(-1.,0.,0.));
#1119=DIRECTION('',(0.,-1.,0.));
#1120=DIRECTION('',(1.,0.,0.));
#1121=DIRECTION('',(0.,0.,1.));
#1122=DIRECTION('',(1.,0.,0.));
#1123=DIRECTION('',(1.,0.,0.));
#1124=DIRECTION('',(0.,0.,1.));
#1125=DIRECTION('',(1.,0.,0.));
#1126=DIRECTION('',(0.,0.,-1.));
#1127=DIRECTION('',(0.,0.,1.));
#1128=DIRECTION('',(0.408099463479957,-1.05681546727321E-17,-0.9129374720688));
#1129=DIRECTION('',(0.,0.,-1.));
#1130=DIRECTION('',(1.,0.,0.));
#1131=DIRECTION('',(0.,0.,-1.));
#1132=DIRECTION('',(-0.408025985076953,-1.0568534858553E-17,-0.912970314688261));
#1133=DIRECTION('',(0.,0.,1.));
#1134=DIRECTION('',(-0.23162052730604,0.,0.972806214685367));
#1135=DIRECTION('',(0.,0.,1.));
#1136=DIRECTION('',(1.,0.,0.));
#1137=DIRECTION('',(0.,0.,1.));
#1138=DIRECTION('',(0.23162052730604,0.,0.972806214685367));
#1139=DIRECTION('',(0.,1.,0.));
#1140=DIRECTION('',(0.,0.,1.));
#1141=DIRECTION('',(5.75671197953785E-16,1.,0.));
#1142=DIRECTION('',(0.,0.,1.));
#1143=DIRECTION('',(0.,1.,0.));
#1144=DIRECTION('',(0.,0.,-1.));
#1145=DIRECTION('',(-1.,-4.95635278850516E-16,0.));
#1146=DIRECTION('',(4.95697233260373E-16,-1.,0.));
#1147=DIRECTION('',(0.,1.,0.));
#1148=DIRECTION('',(0.,0.,-1.));
#1149=DIRECTION('',(5.75671197953785E-16,1.,0.));
#1150=DIRECTION('',(0.,0.,1.));
#1151=DIRECTION('',(1.,1.23908819712629E-16,0.));
#1152=DIRECTION('',(-1.23815888097845E-16,1.,0.));
#1153=DIRECTION('',(1.,0.,0.));
#1154=DIRECTION('',(0.,-1.,0.));
#1155=DIRECTION('',(1.,0.,0.));
#1156=DIRECTION('',(0.,-1.,0.));
#1157=DIRECTION('',(0.,0.,-1.));
#1158=DIRECTION('',(-1.,0.,0.));
#1159=DIRECTION('',(-0.866025403784437,0.,0.499999999999999));
#1160=DIRECTION('',(0.5,0.,0.866025403784438));
#1161=DIRECTION('',(0.,-1.,0.));
#1162=DIRECTION('',(0.866025403784437,0.,-0.499999999999999));
#1163=DIRECTION('',(0.5,0.,0.866025403784438));
#1164=DIRECTION('',(-0.866025403784438,0.,0.5));
#1165=DIRECTION('',(0.5,0.,0.866025403784438));
#1166=DIRECTION('',(0.866025403784439,0.,0.5));
#1167=DIRECTION('',(0.5,0.,-0.866025403784439));
#1168=DIRECTION('',(0.,-1.,0.));
#1169=DIRECTION('',(-0.866025403784439,0.,-0.5));
#1170=DIRECTION('',(0.5,0.,-0.866025403784439));
#1171=DIRECTION('',(-0.866025403784439,0.,-0.5));
#1172=DIRECTION('',(-0.5,0.,0.866025403784439));
#1173=DIRECTION('',(1.,0.,0.));
#1174=DIRECTION('',(1.,0.,0.));
#1175=DIRECTION('',(0.,0.,1.));
#1176=DIRECTION('',(1.,0.,0.));
#1177=DIRECTION('',(0.,0.,1.));
#1178=DIRECTION('',(1.,0.,0.));
#1179=DIRECTION('',(0.,0.,-1.));
#1180=DIRECTION('',(1.,0.,0.));
#1181=DIRECTION('',(0.,0.,1.));
#1182=DIRECTION('',(0.,0.,1.));
#1183=DIRECTION('',(0.,-1.,0.));
#1184=DIRECTION('',(0.,0.,1.));
#1185=DIRECTION('',(1.,0.,-1.02436577738747E-14));
#1186=DIRECTION('',(-0.182184328134508,0.617508985887495,-0.76517417816493));
#1187=DIRECTION('',(-0.182184328134508,-0.617508985887495,0.76517417816493));
#1188=DIRECTION('',(0.,0.778197788929808,0.62801926825915));
#1189=DIRECTION('',(0.,-0.62801926825915,0.778197788929808));
#1190=DIRECTION('',(-1.,0.,0.));
#1191=DIRECTION('',(0.,0.,-1.));
#1192=DIRECTION('',(1.,0.,0.));
#1193=DIRECTION('',(-7.7715611723761E-16,0.,-1.));
#1194=DIRECTION('',(0.,1.,0.));
#1195=DIRECTION('',(1.,0.,0.));
#1196=DIRECTION('',(-1.,0.,0.));
#1197=DIRECTION('',(5.75671197953785E-16,1.,0.));
#1198=DIRECTION('',(1.,0.,0.));
#1199=DIRECTION('',(0.,0.,-1.));
#1200=DIRECTION('',(-1.,0.,0.));
#1201=DIRECTION('',(-1.,0.,0.));
#1202=DIRECTION('',(0.,0.,-1.));
#1203=DIRECTION('',(0.,1.,0.));
#1204=DIRECTION('',(-1.,0.,0.));
#1205=DIRECTION('',(-1.,0.,0.));
#1206=DIRECTION('',(0.,1.,0.));
#1207=DIRECTION('',(0.,0.,-1.));
#1208=DIRECTION('',(-1.,0.,0.));
#1209=DIRECTION('',(-1.,0.,0.));
#1210=DIRECTION('',(0.,1.,0.));
#1211=DIRECTION('',(-1.,0.,0.));
#1212=DIRECTION('',(0.,0.,-1.));
#1213=DIRECTION('',(-1.,0.,0.));
#1214=DIRECTION('',(1.,0.,0.));
#1215=DIRECTION('',(0.,0.,1.));
#1216=DIRECTION('',(0.,1.,0.));
#1217=DIRECTION('',(-1.,0.,0.));
#1218=DIRECTION('',(5.75671197953785E-16,1.,0.));
#1219=DIRECTION('',(-1.,0.,0.));
#1220=DIRECTION('',(0.,0.,-1.));
#1221=DIRECTION('',(-1.,0.,0.));
#1222=DIRECTION('',(1.,0.,0.));
#1223=DIRECTION('',(0.,0.,1.));
#1224=DIRECTION('',(0.,0.,1.));
#1225=DIRECTION('',(0.,0.,1.));
#1226=DIRECTION('',(0.,0.,1.));
#1227=DIRECTION('',(0.,1.,0.));
#1228=DIRECTION('',(0.,0.,1.));
#1229=DIRECTION('',(-1.,-2.31296463463574E-16,0.));
#1230=DIRECTION('',(0.,-1.,0.));
#1231=DIRECTION('',(0.,1.,0.));
#1232=DIRECTION('',(0.,0.,1.));
#1233=DIRECTION('',(1.,0.,0.));
#1234=DIRECTION('',(0.,0.,1.));
#1235=DIRECTION('',(0.,0.,1.));
#1236=DIRECTION('',(0.,1.,0.));
#1237=DIRECTION('',(0.,0.,1.));
#1238=DIRECTION('',(2.89120579329468E-16,-1.,-5.21619636212216E-15));
#1239=DIRECTION('',(2.89120579329468E-16,-1.,-5.21619636212216E-15));
#1240=DIRECTION('',(-0.972806214685367,-1.48943644829172E-15,0.23162052730604));
#1241=DIRECTION('',(0.23162052730604,0.,0.972806214685367));
#1242=DIRECTION('',(1.,0.,0.));
#1243=DIRECTION('',(0.,0.,1.));
#1244=DIRECTION('',(1.,0.,0.));
#1245=DIRECTION('',(0.,0.,-1.));
#1246=DIRECTION('',(1.,0.,0.));
#1247=DIRECTION('',(0.,0.,1.));
#1248=DIRECTION('',(1.,0.,0.));
#1249=DIRECTION('',(0.,0.,-1.));
#1250=DIRECTION('',(0.,1.,0.));
#1251=DIRECTION('',(1.,0.,0.));
#1252=DIRECTION('',(0.,0.,-1.));
#1253=DIRECTION('',(2.89120579329468E-16,1.,-6.51796962526958E-15));
#1254=DIRECTION('',(0.972806214685367,-1.48943644829172E-15,0.23162052730604));
#1255=DIRECTION('',(0.23162052730604,0.,-0.972806214685367));
#1256=DIRECTION('',(-1.94289029309403E-15,1.,0.));
#1257=DIRECTION('',(0.,0.707106781186548,-0.707106781186548));
#1258=DIRECTION('',(-1.,-1.94289029309403E-15,0.));
#1259=DIRECTION('',(-1.94289029309402E-15,1.,0.));
#1260=DIRECTION('',(0.,0.707106781186548,-0.707106781186548));
#1261=DIRECTION('',(0.,0.707106781186548,0.707106781186548));
#1262=DIRECTION('',(0.,-0.707106781186548,0.707106781186548));
#1263=DIRECTION('',(-1.94289029309403E-15,1.,0.));
#1264=DIRECTION('',(-1.,-1.94289029309403E-15,0.));
#1265=DIRECTION('',(-1.94289029309402E-15,1.,0.));
#1266=DIRECTION('',(0.,0.,1.));
#1267=DIRECTION('',(1.,0.,0.));
#1268=DIRECTION('',(0.,-1.,0.));
#1269=DIRECTION('',(-1.,0.,0.));
#1270=DIRECTION('',(0.,0.,1.));
#1271=DIRECTION('',(9.25185853854297E-16,1.,0.));
#1272=DIRECTION('',(1.,5.53635151907491E-16,0.));
#1273=DIRECTION('',(-5.53593629271099E-16,1.,0.));
#1274=DIRECTION('',(0.,1.,0.));
#1275=DIRECTION('',(0.,0.,1.));
#1276=DIRECTION('',(1.,0.,0.));
#1277=DIRECTION('',(-1.,0.,0.));
#1278=DIRECTION('',(0.,0.,1.));
#1279=DIRECTION('',(1.,0.,0.));
#1280=DIRECTION('',(0.,-1.,0.));
#1281=DIRECTION('',(0.,0.,1.));
#1282=DIRECTION('',(1.,0.,0.));
#1283=DIRECTION('',(-1.,0.,0.));
#1284=DIRECTION('',(0.,0.,1.));
#1285=DIRECTION('',(1.,0.,0.));
#1286=DIRECTION('',(0.,0.,1.));
#1287=DIRECTION('',(1.,0.,0.));
#1288=DIRECTION('',(0.,0.,1.));
#1289=DIRECTION('',(1.,0.,0.));
#1290=DIRECTION('',(0.,0.,-1.));
#1291=DIRECTION('',(0.,0.,-1.));
#1292=DIRECTION('',(-1.,0.,0.));
#1293=DIRECTION('',(-1.,0.,0.));
#1294=DIRECTION('',(0.,0.,-1.));
#1295=DIRECTION('',(0.,-1.,0.));
#1296=DIRECTION('',(0.,0.,-1.));
#1297=DIRECTION('',(0.,0.,1.));
#1298=DIRECTION('',(1.,0.,0.));
#1299=DIRECTION('',(0.,0.,-1.));
#1300=DIRECTION('',(-1.,0.,0.));
#1301=DIRECTION('',(0.,0.,1.));
#1302=DIRECTION('',(1.,0.,0.));
#1303=DIRECTION('',(0.,-1.,0.));
#1304=DIRECTION('',(-2.07805416393056E-15,1.,0.));
#1305=DIRECTION('',(0.,0.,1.));
#1306=DIRECTION('',(1.,0.,0.));
#1307=DIRECTION('',(-1.,0.,0.));
#1308=DIRECTION('',(0.,0.,1.));
#1309=DIRECTION('',(1.,0.,0.));
#1310=DIRECTION('',(0.,0.,-1.));
#1311=DIRECTION('',(0.408099463479957,-1.05681546727321E-17,-0.9129374720688));
#1312=DIRECTION('',(-0.408025985076953,-1.0568534858553E-17,-0.912970314688261));
#1313=DIRECTION('',(0.,0.,-1.));
#1314=DIRECTION('',(1.,0.,0.));
#1315=DIRECTION('',(0.,1.,0.));
#1316=DIRECTION('',(0.,0.,1.));
#1317=DIRECTION('',(0.,0.,-1.));
#1318=DIRECTION('',(0.,0.,-1.));
#1319=DIRECTION('',(-1.,0.,0.));
#1320=DIRECTION('',(0.,0.,-1.));
#1321=DIRECTION('',(0.,-1.,0.));
#1322=DIRECTION('',(0.,0.,-1.));
#1323=DIRECTION('',(0.,0.,-1.));
#1324=DIRECTION('',(-1.,0.,0.));
#1325=DIRECTION('',(-0.9129374720688,0.,-0.408099463479957));
#1326=DIRECTION('',(-0.408099463479957,0.,0.9129374720688));
#1327=DIRECTION('',(-0.912970314688261,0.,0.408025985076953));
#1328=DIRECTION('',(0.408025985076953,0.,0.912970314688261));
#1329=DIRECTION('',(0.,0.,1.));
#1330=DIRECTION('',(0.,0.,1.));
#1331=DIRECTION('',(-1.,1.62630325888914E-15,0.));
#1332=DIRECTION('',(1.62630325888914E-15,1.,0.));
#1333=DIRECTION('',(-1.,1.62630325872826E-15,0.));
#1334=DIRECTION('',(0.,0.,1.));
#1335=DIRECTION('',(0.,0.,1.));
#1336=DIRECTION('',(1.,0.,0.));
#1337=DIRECTION('',(0.,0.,1.));
#1338=DIRECTION('',(1.,0.,0.));
#1339=DIRECTION('',(0.,0.,1.));
#1340=DIRECTION('',(1.,-4.21634178188808E-15,0.));
#1341=DIRECTION('',(0.,-1.,0.));
#1342=DIRECTION('',(0.,0.,-1.));
#1343=DIRECTION('',(0.,0.,1.));
#1344=DIRECTION('',(1.,0.,0.));
#1345=DIRECTION('',(0.,0.,1.));
#1346=DIRECTION('',(1.,0.,0.));
#1347=DIRECTION('',(0.,0.,1.));
#1348=DIRECTION('',(0.,0.,1.));
#1349=DIRECTION('',(0.,0.,-1.));
#1350=DIRECTION('',(1.,1.27553196763001E-16,0.));
#1351=DIRECTION('',(0.,0.,1.));
#1352=DIRECTION('',(1.,0.,0.));
#1353=DIRECTION('',(0.,0.,1.));
#1354=DIRECTION('',(1.,-1.08420217259275E-15,0.));
#1355=DIRECTION('',(-1.08420217259275E-15,-1.,0.));
#1356=DIRECTION('',(1.,-1.0842021724855E-15,0.));
#1357=DIRECTION('',(0.,0.,1.));
#1358=DIRECTION('',(0.,0.,-1.));
#1359=DIRECTION('',(1.,1.27553196763001E-16,0.));
#1360=DIRECTION('',(0.,0.,1.));
#1361=DIRECTION('',(1.,0.,0.));
#1362=DIRECTION('',(-1.,4.0708177570703E-15,0.));
#1363=DIRECTION('',(0.,1.,0.));
#1364=DIRECTION('',(0.,0.,1.));
#1365=DIRECTION('',(-2.07805416393056E-15,1.,0.));
#1366=DIRECTION('',(0.,-1.,0.));
#1367=DIRECTION('',(0.,0.,1.));
#1368=DIRECTION('',(1.,0.,0.));
#1369=DIRECTION('',(0.,0.,1.));
#1370=DIRECTION('',(1.,0.,-3.03537277000513E-19));
#1371=DIRECTION('',(0.118390734807549,-0.295813477950935,-0.947880804834817));
#1372=DIRECTION('',(-0.118576814827617,-0.295806863226852,-0.947859609147487));
#1373=DIRECTION('',(-3.94583572949254E-15,-0.954594385034072,0.297908643817903));
#1374=DIRECTION('',(0.,-0.297908643817903,-0.954594385034072));
#1375=DIRECTION('',(0.118390734807549,-0.295813477950935,-0.947880804834817));
#1376=DIRECTION('',(0.992290030338396,0.,0.123937466857386));
#1377=DIRECTION('',(0.123937466857386,0.,-0.992290030338396));
#1378=DIRECTION('',(-0.118576814827617,-0.295806863226852,-0.947859609147487));
#1379=DIRECTION('',(3.88114989786151E-15,0.954594385034072,-0.297908643817903));
#1380=DIRECTION('',(0.,0.297908643817903,0.954594385034072));
#1381=DIRECTION('',(-0.992265713852919,-2.06198189839758E-15,0.124131998743101));
#1382=DIRECTION('',(0.124131998743101,0.,0.992265713852919));
#1383=CARTESIAN_POINT('',(0.,0.,0.));
#1384=CARTESIAN_POINT('',(1.875,3.1150026833554E-14,-6.35));
#1385=CARTESIAN_POINT('',(1.875,0.300000002000033,-6.35));
#1386=CARTESIAN_POINT('',(1.875,2.35000000000004,-6.35));
#1387=CARTESIAN_POINT('',(1.8690528761139,0.300000002000033,-6.35));
#1388=CARTESIAN_POINT('',(-1.875,0.300000002000033,-6.35));
#1389=CARTESIAN_POINT('',(-1.875,3.29008022945507E-14,-6.35));
#1390=CARTESIAN_POINT('',(-1.875,2.35000000000004,-6.35));
#1391=CARTESIAN_POINT('',(-1.875,2.35000000000004,-6.35));
#1392=CARTESIAN_POINT('',(1.875,3.29008022945507E-14,-6.35));
#1393=CARTESIAN_POINT('',(-1.875,3.29008022945507E-14,-0.5));
#1394=CARTESIAN_POINT('',(0.675000000000008,3.29031691147429E-14,-0.5));
#1395=CARTESIAN_POINT('',(0.975,3.29008022945507E-14,-0.5));
#1396=CARTESIAN_POINT('',(0.975,3.29008022945507E-14,0.));
#1397=CARTESIAN_POINT('',(0.975,3.29008022945507E-14,-2.10000000000003));
#1398=CARTESIAN_POINT('',(-1.875,3.29008022945507E-14,-2.10000000000003));
#1399=CARTESIAN_POINT('',(0.675,3.29008022945507E-14,-2.10000000000003));
#1400=CARTESIAN_POINT('',(0.675,3.29008022945507E-14,0.));
#1401=CARTESIAN_POINT('',(-1.875,3.29008022945507E-14,0.));
#1402=CARTESIAN_POINT('',(-1.875,3.29008022945507E-14,-6.35));
#1403=CARTESIAN_POINT('',(-1.875,3.29597460435593E-14,0.805000000000009));
#1404=CARTESIAN_POINT('',(-1.37972447702749,3.28879766262987E-14,-7.45795436990885));
#1405=CARTESIAN_POINT('',(-0.399840670158958,3.28626015289047E-14,-9.64999999999982));
#1406=CARTESIAN_POINT('',(-0.399840670158958,3.28626015289047E-14,22.39));
#1407=CARTESIAN_POINT('',(-0.399840670158958,3.35134121104811E-14,-13.2499999999998));
#1408=CARTESIAN_POINT('',(-0.399840670158958,3.28626015289047E-14,-13.2499999999998));
#1409=CARTESIAN_POINT('',(0.400159329836876,3.02492406123456E-14,-13.2499999999998));
#1410=CARTESIAN_POINT('',(0.400159329836876,3.28626015289047E-14,22.39));
#1411=CARTESIAN_POINT('',(0.400159329836876,3.28626015289047E-14,-9.64999999999982));
#1412=CARTESIAN_POINT('',(1.8690528761139,3.29006482543954E-14,-6.36330686712209));
#1413=CARTESIAN_POINT('',(1.875,3.29008022945507E-14,-6.35));
#1414=CARTESIAN_POINT('',(1.875,3.29008022945507E-14,0.));
#1415=CARTESIAN_POINT('',(1.875,3.29008022945507E-14,0.804999999999985));
#1416=CARTESIAN_POINT('',(1.76166845493562,3.29597460435593E-14,1.28099248927039));
#1417=CARTESIAN_POINT('',(1.4,3.29008022945507E-14,2.8));
#1418=CARTESIAN_POINT('',(1.4,3.29008022945507E-14,0.));
#1419=CARTESIAN_POINT('',(1.4,3.29008022945507E-14,10.9));
#1420=CARTESIAN_POINT('',(-1.4,5.42101086242752E-17,10.9));
#1421=CARTESIAN_POINT('',(-1.4,0.,10.9));
#1422=CARTESIAN_POINT('',(-1.4,3.2905535934935E-14,2.8));
#1423=CARTESIAN_POINT('',(-1.4,3.2905535934935E-14,2.8));
#1424=CARTESIAN_POINT('',(-1.875,3.29597460435593E-14,0.805));
#1425=CARTESIAN_POINT('',(-1.875,3.29008022945507E-14,0.));
#1426=CARTESIAN_POINT('',(1.575,1.60000000000003,-3.65));
#1427=CARTESIAN_POINT('',(1.575,2.25,-3.65));
#1428=CARTESIAN_POINT('',(1.575,2.95000000000004,-3.65));
#1429=CARTESIAN_POINT('',(1.5750000000048,2.25,0.805));
#1430=CARTESIAN_POINT('',(1.575,2.25,-1.2));
#1431=CARTESIAN_POINT('',(1.575,1.60000000000003,-1.2));
#1432=CARTESIAN_POINT('',(1.575,2.95000000000004,-1.2));
#1433=CARTESIAN_POINT('',(1.5750000000048,2.95000000000004,0.));
#1434=CARTESIAN_POINT('',(1.57500000000481,0.300000000000033,0.));
#1435=CARTESIAN_POINT('',(-1.5749999999958,1.60000000000003,-1.2));
#1436=CARTESIAN_POINT('',(-1.5749999999958,2.25,-1.2));
#1437=CARTESIAN_POINT('',(-1.5749999999958,2.95000000000004,-1.2));
#1438=CARTESIAN_POINT('',(-1.5749999999958,2.25,0.805));
#1439=CARTESIAN_POINT('',(-1.5749999999958,2.25,-3.65));
#1440=CARTESIAN_POINT('',(-1.5749999999958,1.60000000000003,-3.65));
#1441=CARTESIAN_POINT('',(-1.5749999999958,2.95000000000004,-3.65));
#1442=CARTESIAN_POINT('',(-1.5749999999958,2.95000000000004,0.));
#1443=CARTESIAN_POINT('',(-1.5749999999958,2.05000000000004,0.));
#1444=CARTESIAN_POINT('',(-1.4,0.47238075793812,11.8));
#1445=CARTESIAN_POINT('',(-0.9,0.47238075793812,11.8));
#1446=CARTESIAN_POINT('',(0.9,0.47238075793812,11.8));
#1447=CARTESIAN_POINT('',(-0.9,0.72,11.8));
#1448=CARTESIAN_POINT('',(-0.9,0.16761924206188,11.8));
#1449=CARTESIAN_POINT('',(-1.4,0.16761924206188,11.8));
#1450=CARTESIAN_POINT('',(0.9,0.16761924206188,11.8));
#1451=CARTESIAN_POINT('',(0.9,0.72,11.8));
#1452=CARTESIAN_POINT('',(-1.08,0.32,11.8));
#1453=CARTESIAN_POINT('',(-1.41961524227066,-1.86,10.9));
#1454=CARTESIAN_POINT('',(-1.4,0.639769134702641,10.9339745962156));
#1455=CARTESIAN_POINT('',(-1.4,0.72,10.9339745962156));
#1456=CARTESIAN_POINT('',(-1.4,0.000230865297359525,10.9339745962156));
#1457=CARTESIAN_POINT('',(-1.41961524227066,2.5,10.9));
#1458=CARTESIAN_POINT('',(-0.9,0.72,11.8));
#1459=CARTESIAN_POINT('',(1.41961524227066,2.5,10.9));
#1460=CARTESIAN_POINT('',(1.4,0.000230865297359091,10.9339745962156));
#1461=CARTESIAN_POINT('',(1.4,0.72,10.9339745962156));
#1462=CARTESIAN_POINT('',(1.4,0.639769134702642,10.9339745962156));
#1463=CARTESIAN_POINT('',(1.41961524227066,-1.86,10.9));
#1464=CARTESIAN_POINT('',(0.9,0.72,11.8));
#1465=CARTESIAN_POINT('',(-1.4,0.64,10.9));
#1466=CARTESIAN_POINT('',(-1.4,0.64,10.9));
#1467=CARTESIAN_POINT('',(1.4,0.64,10.9));
#1468=CARTESIAN_POINT('',(-1.4,-1.86,10.9));
#1469=CARTESIAN_POINT('',(1.4,-1.86,10.9));
#1470=CARTESIAN_POINT('',(-1.4,-1.86,10.9));
#1471=CARTESIAN_POINT('',(-1.4,0.64,2.79999999999996));
#1472=CARTESIAN_POINT('',(-1.4,0.64,2.8));
#1473=CARTESIAN_POINT('',(1.4,0.64,2.8));
#1474=CARTESIAN_POINT('',(-1.4,0.64,2.8));
#1475=CARTESIAN_POINT('',(1.4,0.64,2.8));
#1476=CARTESIAN_POINT('',(-1.4,0.64,2.8));
#1477=CARTESIAN_POINT('',(-1.875,2.25,0.805000000000009));
#1478=CARTESIAN_POINT('',(-1.875,2.25,0.804999999999985));
#1479=CARTESIAN_POINT('',(1.875,2.25,0.804999999999985));
#1480=CARTESIAN_POINT('',(-1.7484369828252,1.82101798389172,1.33656467213416));
#1481=CARTESIAN_POINT('',(1.7484369828252,1.82101798389172,1.33656467213416));
#1482=CARTESIAN_POINT('',(0.,2.25,0.804999999999988));
#1483=CARTESIAN_POINT('',(0.975,-0.6,-1.5));
#1484=CARTESIAN_POINT('',(0.975,-0.6,-1.5));
#1485=CARTESIAN_POINT('',(0.675000000000008,-0.6,-1.5));
#1486=CARTESIAN_POINT('',(0.975,-0.6,-0.5));
#1487=CARTESIAN_POINT('',(0.975,-0.6,-0.5));
#1488=CARTESIAN_POINT('',(0.975,-0.6,-0.5));
#1489=CARTESIAN_POINT('',(0.675000000000009,-0.6,-0.5));
#1490=CARTESIAN_POINT('',(0.675000000000009,-0.6,-0.5));
#1491=CARTESIAN_POINT('',(0.975,-0.6,-0.5));
#1492=CARTESIAN_POINT('',(-1.875,2.25,-3.65));
#1493=CARTESIAN_POINT('',(-1.8749999999958,2.25,-3.65));
#1494=CARTESIAN_POINT('',(-1.8749999999958,1.60000000000003,-3.65));
#1495=CARTESIAN_POINT('',(-1.8749999999958,2.95000000000004,-3.65));
#1496=CARTESIAN_POINT('',(-1.8749999999958,2.95000000000004,-3.65));
#1497=CARTESIAN_POINT('',(-1.8749999999958,1.60000000000003,-3.65));
#1498=CARTESIAN_POINT('',(-1.8749999999958,2.95000000000004,-1.2));
#1499=CARTESIAN_POINT('',(-1.8749999999958,2.95000000000004,-1.2));
#1500=CARTESIAN_POINT('',(-1.875,2.95000000000004,0.));
#1501=CARTESIAN_POINT('',(-1.8749999999958,2.95000000000004,-3.65));
#1502=CARTESIAN_POINT('',(-1.875,2.25,-1.2));
#1503=CARTESIAN_POINT('',(-1.875,2.25,-1.2));
#1504=CARTESIAN_POINT('',(-1.8749999999958,1.60000000000003,-1.2));
#1505=CARTESIAN_POINT('',(-1.8749999999958,1.60000000000003,-1.2));
#1506=CARTESIAN_POINT('',(-1.875,2.25,-1.2));
#1507=CARTESIAN_POINT('',(1.875,2.25,-1.2));
#1508=CARTESIAN_POINT('',(1.875,1.60000000000003,-1.2));
#1509=CARTESIAN_POINT('',(1.875,2.95000000000004,-1.2));
#1510=CARTESIAN_POINT('',(-1.8749999999958,2.95000000000004,-1.2));
#1511=CARTESIAN_POINT('',(1.575,1.60000000000003,-1.2));
#1512=CARTESIAN_POINT('',(1.575,2.95000000000004,-3.65));
#1513=CARTESIAN_POINT('',(1.875,2.95000000000004,-3.65));
#1514=CARTESIAN_POINT('',(1.875,2.95000000000004,0.));
#1515=CARTESIAN_POINT('',(1.575,2.95000000000004,-3.65));
#1516=CARTESIAN_POINT('',(1.875,1.60000000000003,-3.65));
#1517=CARTESIAN_POINT('',(1.875,2.25,-3.65));
#1518=CARTESIAN_POINT('',(-1.875,2.25,-3.65));
#1519=CARTESIAN_POINT('',(1.575,1.60000000000003,-3.65));
#1520=CARTESIAN_POINT('',(-1.875,2.25,-4.85));
#1521=CARTESIAN_POINT('',(-1.875,2.25,-4.85));
#1522=CARTESIAN_POINT('',(1.875,2.25,-4.85));
#1523=CARTESIAN_POINT('',(-1.875,2.25,0.805));
#1524=CARTESIAN_POINT('',(-1.875,2.25,0.805));
#1525=CARTESIAN_POINT('',(1.875,2.25,0.));
#1526=CARTESIAN_POINT('',(1.875,2.25,0.));
#1527=CARTESIAN_POINT('',(-1.875,2.25,0.805));
#1528=CARTESIAN_POINT('',(1.875,2.35000000000004,-4.85));
#1529=CARTESIAN_POINT('',(1.875,2.35000000000004,-4.85));
#1530=CARTESIAN_POINT('',(-1.875,2.35000000000004,-4.85));
#1531=CARTESIAN_POINT('',(-1.875,2.35000000000004,-4.85));
#1532=CARTESIAN_POINT('',(1.875,1.60000000000003,-4.85));
#1533=CARTESIAN_POINT('',(-1.875,1.60000000000003,-4.85));
#1534=CARTESIAN_POINT('',(-1.875,2.35000000000004,0.));
#1535=CARTESIAN_POINT('',(1.875,2.35000000000004,0.));
#1536=CARTESIAN_POINT('',(-1.875,2.35000000000004,0.));
#1537=CARTESIAN_POINT('',(-1.4,-8.47123297435342E-17,2.8));
#1538=CARTESIAN_POINT('',(-1.875,2.25,0.805000000000014));
#1539=CARTESIAN_POINT('',(-1.875,1.125,0.805));
#1540=CARTESIAN_POINT('',(-1.4,2.5,10.9));
#1541=CARTESIAN_POINT('',(-1.4,0.32,2.8));
#1542=CARTESIAN_POINT('',(1.4,2.5,10.9));
#1543=CARTESIAN_POINT('',(-1.4,2.5,10.9));
#1544=CARTESIAN_POINT('',(1.4,0.32,2.8));
#1545=CARTESIAN_POINT('',(1.4,0.32,2.8));
#1546=CARTESIAN_POINT('',(1.875,-2.22044604925032E-16,0.804999999999985));
#1547=CARTESIAN_POINT('',(1.875,1.125,0.805));
#1548=CARTESIAN_POINT('',(0.675000000000009,-0.6,-0.5));
#1549=CARTESIAN_POINT('',(0.675000000000008,-0.6,-1.5));
#1550=CARTESIAN_POINT('',(0.675000000000008,-0.2,-0.5));
#1551=CARTESIAN_POINT('',(0.975,-0.6,-1.5));
#1552=CARTESIAN_POINT('',(0.975,-0.6,-1.5));
#1553=CARTESIAN_POINT('',(0.975,-0.6,-0.5));
#1554=CARTESIAN_POINT('',(0.975,-0.2,-0.5));
#1555=CARTESIAN_POINT('',(0.975,-0.6,-0.5));
#1556=CARTESIAN_POINT('',(-1.875,3.28626015289047E-14,-6.35));
#1557=CARTESIAN_POINT('',(-1.875,3.29008022945507E-14,0.));
#1558=CARTESIAN_POINT('',(1.875,3.1150026833554E-14,-6.35));
#1559=CARTESIAN_POINT('',(1.875,2.35000000000004,0.));
#1560=CARTESIAN_POINT('',(0.400159329836876,3.28626015289047E-14,-9.64999999999982));
#1561=CARTESIAN_POINT('',(0.400159329836876,0.300000002000033,-9.64999999999982));
#1562=CARTESIAN_POINT('',(0.40015932983713,0.625000000000033,-9.64999999999982));
#1563=CARTESIAN_POINT('',(0.40015932983713,1.25000000000003,-9.64999999999982));
#1564=CARTESIAN_POINT('',(0.400159329836876,1.25000000000003,-9.64999999999982));
#1565=CARTESIAN_POINT('',(-0.399840670158958,1.25000000000003,-9.64999999999982));
#1566=CARTESIAN_POINT('',(-0.39984067016287,0.625000000000033,-9.64999999999982));
#1567=CARTESIAN_POINT('',(-0.399840670158958,3.28626015289047E-14,-9.64999999999982));
#1568=CARTESIAN_POINT('',(-0.399840670160836,0.300000002000033,-9.64999999999982));
#1569=CARTESIAN_POINT('',(-0.39984067016287,0.625000000000033,-9.64999999999982));
#1570=CARTESIAN_POINT('',(-0.399840670158958,0.949999998000033,-9.64999999999982));
#1571=CARTESIAN_POINT('',(0.400159329836876,0.949999998000033,-9.64999999999982));
#1572=CARTESIAN_POINT('',(0.40015932983713,0.949999998000033,-9.64999999999982));
#1573=CARTESIAN_POINT('',(0.40015932983713,0.625000000000033,-9.64999999999982));
#1574=CARTESIAN_POINT('',(0.375159329837131,0.650000000000032,-9.64999999999982));
#1575=CARTESIAN_POINT('',(0.40015932983713,0.625000000000033,-13.2499999999998));
#1576=CARTESIAN_POINT('',(0.40015932983713,1.25000000000003,-13.2499999999998));
#1577=CARTESIAN_POINT('',(0.40015932983713,1.25000000000003,22.39));
#1578=CARTESIAN_POINT('',(0.40015932983713,0.625000000000033,22.39));
#1579=CARTESIAN_POINT('',(0.400159329836876,1.25000000000003,-13.2499999999998));
#1580=CARTESIAN_POINT('',(-0.399840670158958,1.25000000000003,-13.2499999999998));
#1581=CARTESIAN_POINT('',(-0.399840670158958,1.25000000000003,22.39));
#1582=CARTESIAN_POINT('',(0.400159329836876,1.25000000000003,22.39));
#1583=CARTESIAN_POINT('',(-0.39984067016287,0.625000000000033,-13.2499999999998));
#1584=CARTESIAN_POINT('',(-0.39984067016287,0.625000000000033,22.39));
#1585=CARTESIAN_POINT('',(-0.39984067016287,0.625000000000033,-13.2499999999998));
#1586=CARTESIAN_POINT('',(-0.399840670160836,0.949999998000033,-13.2499999999998));
#1587=CARTESIAN_POINT('',(-0.399840670158958,0.300000000000031,-13.2499999999998));
#1588=CARTESIAN_POINT('',(-0.399840670158958,3.28626015289047E-14,-13.2499999999998));
#1589=CARTESIAN_POINT('',(0.400159329836876,-0.292261231575421,-13.2499999999998));
#1590=CARTESIAN_POINT('',(0.400159329836998,0.300000002000033,-13.2499999999998));
#1591=CARTESIAN_POINT('',(0.40015932983713,0.625000000000033,-13.2499999999998));
#1592=CARTESIAN_POINT('',(0.40015932983713,0.949999998000033,-13.2499999999998));
#1593=CARTESIAN_POINT('',(0.400159329836876,0.949999998000033,-13.2499999999998));
#1594=CARTESIAN_POINT('',(0.40015932983713,0.625000000000033,-13.2499999999998));
#1595=CARTESIAN_POINT('',(-0.399840670158958,0.300000002000033,22.39));
#1596=CARTESIAN_POINT('',(-0.399840670158958,0.300000002000033,-9.64999999999982));
#1597=CARTESIAN_POINT('',(1.8690528761139,0.300000002000033,-6.36330686712209));
#1598=CARTESIAN_POINT('',(0.400159329836998,0.300000002000033,22.39));
#1599=CARTESIAN_POINT('',(-0.399840670158958,0.300000002000033,-13.2499999999998));
#1600=CARTESIAN_POINT('',(-0.399840670158958,0.300000002000033,22.39));
#1601=CARTESIAN_POINT('',(0.40015932983713,0.949999998000033,22.39));
#1602=CARTESIAN_POINT('',(0.40015932983713,0.625000000000033,22.39));
#1603=CARTESIAN_POINT('',(-0.399840670160836,0.949999998000033,22.39));
#1604=CARTESIAN_POINT('',(0.400159329836876,0.949999998000033,22.39));
#1605=CARTESIAN_POINT('',(-0.39984067016287,0.625000000000033,22.39));
#1606=CARTESIAN_POINT('',(-0.399840670158958,3.28626015289047E-14,-9.64999999999982));
#1607=CARTESIAN_POINT('',(1.8690528761139,3.29006482543954E-14,-6.36330686712209));
#1608=CARTESIAN_POINT('',(0.200000042645763,1.80067396416578,-18.45));
#1609=CARTESIAN_POINT('',(0.200000042645763,1.80067396416578,-16.2354466562069));
#1610=CARTESIAN_POINT('',(0.200000042645763,1.80067396416578,-14.85));
#1611=CARTESIAN_POINT('',(0.200000042645763,1.80067396416578,-16.2354466562069));
#1612=CARTESIAN_POINT('',(0.0666705364625264,1.80067396416578,-16.2364568815257));
#1613=CARTESIAN_POINT('',(-0.0666704511281908,1.80067396416578,-16.2364568817445));
#1614=CARTESIAN_POINT('',(-0.199999957314668,1.80067396416578,-16.2354466568534));
#1615=CARTESIAN_POINT('',(-0.199999957314668,1.80067396416578,-16.2354466568534));
#1616=CARTESIAN_POINT('',(-0.199999957314668,1.80067396416578,-18.45));
#1617=CARTESIAN_POINT('',(-0.199999957314668,1.80067396416578,-14.85));
#1618=CARTESIAN_POINT('',(0.200000042645763,1.80067396416578,-14.85));
#1619=CARTESIAN_POINT('',(0.200000042645763,1.80067396416578,-18.45));
#1620=CARTESIAN_POINT('',(-0.199999957314668,1.80067396416578,-16.2354466568534));
#1621=CARTESIAN_POINT('',(-0.328592200904045,1.8006739641702,-16.2344723257466));
#1622=CARTESIAN_POINT('',(-0.458965305453996,1.77849176433318,-16.234451774283));
#1623=CARTESIAN_POINT('',(-0.580322038767491,1.73596430061474,-16.2353858736404));
#1624=CARTESIAN_POINT('',(-0.701678193301431,1.69343703972005,-16.2363199685428));
#1625=CARTESIAN_POINT('',(-0.817364031562892,1.62939273430634,-16.2382351965266));
#1626=CARTESIAN_POINT('',(-0.917808813028938,1.54914513605444,-16.2410504312943));
#1627=CARTESIAN_POINT('',(-1.01827177625922,1.46888301198158,-16.2438661756547));
#1628=CARTESIAN_POINT('',(-1.10625697123611,1.37020135459871,-16.2476620659607));
#1629=CARTESIAN_POINT('',(-1.17450462806264,1.26128074988595,-16.252277601108));
#1630=CARTESIAN_POINT('',(-1.24279949457533,1.15228480035104,-16.256896329009));
#1631=CARTESIAN_POINT('',(-1.29321131867649,1.03003531231224,-16.2624666943835));
#1632=CARTESIAN_POINT('',(-1.32160293576134,0.90465577223149,-16.2687536223195));
#1633=CARTESIAN_POINT('',(-1.35002518433351,0.779140961173344,-16.2750473331714));
#1634=CARTESIAN_POINT('',(-1.35716354861823,0.647035078975683,-16.2822374068561));
#1635=CARTESIAN_POINT('',(-1.34246748123546,0.519266365920078,-16.2900210032449));
#1636=CARTESIAN_POINT('',(-1.32775165990723,0.39132591057965,-16.2978150620748));
#1637=CARTESIAN_POINT('',(-1.29073924134027,0.264213453050785,-16.3064249591753));
#1638=CARTESIAN_POINT('',(-1.23453178113479,0.148435071222109,-16.3154886549726));
#1639=CARTESIAN_POINT('',(-1.17824238000194,0.0324879041833777,-16.3245655640985));
#1640=CARTESIAN_POINT('',(-1.10115404356577,-0.07528342813277,-16.3343546814169));
#1641=CARTESIAN_POINT('',(-1.00967983167787,-0.165976818675491,-16.3444447743222));
#1642=CARTESIAN_POINT('',(-0.918076908534526,-0.256797821797945,-16.3545490647647));
#1643=CARTESIAN_POINT('',(-0.80952669119499,-0.332993408222882,-16.36524155678));
#1644=CARTESIAN_POINT('',(-0.693042389803294,-0.388272213364468,-16.3760724410158));
#1645=CARTESIAN_POINT('',(-0.576418636412221,-0.443617196864924,-16.3869162917065));
#1646=CARTESIAN_POINT('',(-0.448630332622567,-0.479519862449377,-16.3982088683368));
#1647=CARTESIAN_POINT('',(-0.320283371119985,-0.493018258581604,-16.4094608426704));
#1648=CARTESIAN_POINT('',(-0.280353213272814,-0.497217758764026,-16.4129614562102));
#1649=CARTESIAN_POINT('',(-0.24014929483995,-0.499326035834217,-16.4164782432684));
#1650=CARTESIAN_POINT('',(-0.19999995735424,-0.499326035834217,-16.4199908352026));
#1651=CARTESIAN_POINT('',(-0.19999995735424,-0.499326035834217,-16.4199908352026));
#1652=CARTESIAN_POINT('',(-0.19999995735424,-0.499326035834217,-18.45));
#1653=CARTESIAN_POINT('',(-0.19999995735424,-0.499326035834218,-14.85));
#1654=CARTESIAN_POINT('',(-0.19999995735424,0.650673964165782,-14.85));
#1655=CARTESIAN_POINT('',(-0.19999995735424,0.650673964165782,-18.45));
#1656=CARTESIAN_POINT('',(-0.19999995735424,-0.499326035834217,-16.4199908352026));
#1657=CARTESIAN_POINT('',(-0.133333296274135,-0.499326035834217,-16.425823379166));
#1658=CARTESIAN_POINT('',(-0.066916140180591,-0.499326035834217,-16.437474511939));
#1659=CARTESIAN_POINT('',(5.15882299728544E-6,-0.499326035834217,-16.4374296975744));
#1660=CARTESIAN_POINT('',(0.0669230601509618,-0.499326035834217,-16.437384885485));
#1661=CARTESIAN_POINT('',(0.133336766313006,-0.499326035834217,-16.4258230755787));
#1662=CARTESIAN_POINT('',(0.200000042645761,-0.499326035834217,-16.4199908277406));
#1663=CARTESIAN_POINT('',(0.200000042645761,-0.499326035834217,-16.4199908277406));
#1664=CARTESIAN_POINT('',(0.200000042645761,-0.499326035834217,-18.45));
#1665=CARTESIAN_POINT('',(0.200000042645761,-0.499326035834217,-14.85));
#1666=CARTESIAN_POINT('',(0.450159329824818,-0.499326035834221,-14.85));
#1667=CARTESIAN_POINT('',(-0.19999995731467,-0.499326035834217,-18.45));
#1668=CARTESIAN_POINT('',(0.200000042645761,-0.499326035834217,-16.4199908277406));
#1669=CARTESIAN_POINT('',(0.266792055807129,-0.499326035834217,-16.4141473169533));
#1670=CARTESIAN_POINT('',(0.333834611867891,-0.493463284007482,-16.4082860144484));
#1671=CARTESIAN_POINT('',(0.399616848842902,-0.481868807955277,-16.4024907522362));
#1672=CARTESIAN_POINT('',(0.526830528666454,-0.459446706913208,-16.3912835226641));
#1673=CARTESIAN_POINT('',(0.651928382578241,-0.41466981328966,-16.3800764594231));
#1674=CARTESIAN_POINT('',(0.764504712630901,-0.351241440229703,-16.3693487221541));
#1675=CARTESIAN_POINT('',(0.877065166246908,-0.287822012358724,-16.3586224977984));
#1676=CARTESIAN_POINT('',(0.980214161657486,-0.204003853126004,-16.348069490308));
#1677=CARTESIAN_POINT('',(1.06534756694147,-0.106738514075297,-16.3381352785751));
#1678=CARTESIAN_POINT('',(1.15040363903699,-0.00956152857711156,-16.328210090847));
#1679=CARTESIAN_POINT('',(1.21982541444349,0.103723956127021,-16.31862026671));
#1680=CARTESIAN_POINT('',(1.26780186844818,0.223708788989832,-16.3097709160961));
#1681=CARTESIAN_POINT('',(1.31571884777897,0.343544880997268,-16.3009325357018));
#1682=CARTESIAN_POINT('',(1.34356633897475,0.473376023603557,-16.2925813781236));
#1683=CARTESIAN_POINT('',(1.34898669308316,0.602407235287237,-16.2850707858316));
#1684=CARTESIAN_POINT('',(1.35439930962556,0.731254254665777,-16.2775709149247));
#1685=CARTESIAN_POINT('',(1.33759693720806,0.862864670485979,-16.2706958657756));
#1686=CARTESIAN_POINT('',(1.29993779239519,0.986288246752454,-16.2647369633811));
#1687=CARTESIAN_POINT('',(1.2623333632526,1.10953249861478,-16.2587867187865));
#1688=CARTESIAN_POINT('',(1.20289258950584,1.22801892029088,-16.2535807292144));
#1689=CARTESIAN_POINT('',(1.12652494033891,1.33188730369657,-16.2493398320941));
#1690=CARTESIAN_POINT('',(1.05025758859394,1.43561927160182,-16.2451045047543));
#1691=CARTESIAN_POINT('',(0.955000689911836,1.52763644738288,-16.2417113255223));
#1692=CARTESIAN_POINT('',(0.848645203620976,1.60028412372782,-16.2393043018673));
#1693=CARTESIAN_POINT('',(0.742398717054995,1.67285734621043,-16.2368997450799));
#1694=CARTESIAN_POINT('',(0.622143360291668,1.72810411499692,-16.2354109940644));
#1695=CARTESIAN_POINT('',(0.497846008671396,1.76143396548121,-16.234901220241));
#1696=CARTESIAN_POINT('',(0.401123655119851,1.78736968768557,-16.2345045382254));
#1697=CARTESIAN_POINT('',(0.300137233778146,1.80067396416578,-16.2346879259847));
#1698=CARTESIAN_POINT('',(0.200000042645763,1.80067396416578,-16.2354466562069));
#1699=CARTESIAN_POINT('',(0.200000042645761,0.650673964165782,-14.85));
#1700=CARTESIAN_POINT('',(0.200000042645761,0.650673964165782,-18.45));
#1701=CARTESIAN_POINT('',(-0.19999995735424,-0.199326035834217,-18.45));
#1702=CARTESIAN_POINT('',(-0.19999995735424,-0.199326035834217,-16.4058951012255));
#1703=CARTESIAN_POINT('',(-0.19999995735424,-0.19932603583422,-14.85));
#1704=CARTESIAN_POINT('',(-0.19999995735424,-0.199326035834217,-16.4058951012255));
#1705=CARTESIAN_POINT('',(-0.294540152949774,-0.199326035834217,-16.4013141953636));
#1706=CARTESIAN_POINT('',(-0.390189428908301,-0.183127202528322,-16.3935772235852));
#1707=CARTESIAN_POINT('',(-0.479273945016187,-0.152137370965576,-16.3856770583151));
#1708=CARTESIAN_POINT('',(-0.568326904884949,-0.121158516872068,-16.3777796915057));
#1709=CARTESIAN_POINT('',(-0.65324230325674,-0.0745544897245403,-16.3692884589212));
#1710=CARTESIAN_POINT('',(-0.727182789145781,-0.0160930580123172,-16.3610693948926));
#1711=CARTESIAN_POINT('',(-0.802076710022172,0.0431222120569954,-16.3527443490988));
#1712=CARTESIAN_POINT('',(-0.86775378833881,0.116138233345042,-16.3444252943232));
#1713=CARTESIAN_POINT('',(-0.918745351630349,0.196906338384834,-16.3366004836255));
#1714=CARTESIAN_POINT('',(-0.96972473711133,0.277655154377206,-16.3287775416499));
#1715=CARTESIAN_POINT('',(-1.00743118314758,0.368384528783402,-16.3212194798048));
#1716=CARTESIAN_POINT('',(-1.02869372607328,0.461553268084584,-16.3142943274813));
#1717=CARTESIAN_POINT('',(-1.04992531961496,0.554586392605303,-16.3073792552879));
#1718=CARTESIAN_POINT('',(-1.05534599950968,0.652624431898542,-16.3008969577357));
#1719=CARTESIAN_POINT('',(-1.04446652280134,0.74750484685291,-16.2951432727873));
#1720=CARTESIAN_POINT('',(-1.03360679988365,0.842212988093756,-16.2894000347648));
#1721=CARTESIAN_POINT('',(-1.00620437649171,0.936393625889396,-16.2842188914517));
#1722=CARTESIAN_POINT('',(-0.964505879565047,1.02219878824164,-16.2798302869025));
#1723=CARTESIAN_POINT('',(-0.922883406192694,1.10784751297862,-16.2754496835366));
#1724=CARTESIAN_POINT('',(-0.865865554015422,1.18751844233311,-16.2717339631795));
#1725=CARTESIAN_POINT('',(-0.798169458262223,1.25457233987439,-16.2688464956301));
#1726=CARTESIAN_POINT('',(-0.730579918143185,1.32152069262027,-16.2659635730391));
#1727=CARTESIAN_POINT('',(-0.6504782694329,1.37774090322466,-16.2638242756137));
#1728=CARTESIAN_POINT('',(-0.564504397455157,1.41855189271088,-16.262522128976));
#1729=CARTESIAN_POINT('',(-0.478627283264438,1.45931695218444,-16.2612214478164));
#1730=CARTESIAN_POINT('',(-0.384520854673803,1.48583281016189,-16.2607190546191));
#1731=CARTESIAN_POINT('',(-0.289985337937208,1.49589738509148,-16.2610368500232));
#1732=CARTESIAN_POINT('',(-0.260116402089446,1.49907733431357,-16.261137258958));
#1733=CARTESIAN_POINT('',(-0.230036720823631,1.50067396416578,-16.2613185586694));
#1734=CARTESIAN_POINT('',(-0.19999995735424,1.50067396416578,-16.2615799548646));
#1735=CARTESIAN_POINT('',(-0.19999995735424,1.50067396416578,-16.2615799548646));
#1736=CARTESIAN_POINT('',(-0.19999995735424,1.50067396416578,-18.45));
#1737=CARTESIAN_POINT('',(-0.19999995735424,1.50067396416578,-14.85));
#1738=CARTESIAN_POINT('',(-0.19999995735424,0.650673964165782,-14.85));
#1739=CARTESIAN_POINT('',(-0.19999995735424,0.650673964165782,-18.45));
#1740=CARTESIAN_POINT('',(-0.19999995735424,1.50067396416578,-16.2615799548646));
#1741=CARTESIAN_POINT('',(-0.0666716726832733,1.50067396416578,-16.2627402498597));
#1742=CARTESIAN_POINT('',(0.0666717579790601,1.50067396416578,-16.2627402496074));
#1743=CARTESIAN_POINT('',(0.200000042645763,1.50067396416578,-16.2615799541223));
#1744=CARTESIAN_POINT('',(0.200000042645763,1.50067396416578,-16.2615799541223));
#1745=CARTESIAN_POINT('',(0.200000042645763,1.50067396416578,-18.45));
#1746=CARTESIAN_POINT('',(0.200000042645763,1.50067396416578,-14.85));
#1747=CARTESIAN_POINT('',(-0.199999957314668,1.50067396416578,-14.85));
#1748=CARTESIAN_POINT('',(-0.199999957314668,1.50067396416578,-18.45));
#1749=CARTESIAN_POINT('',(0.200000042645763,1.50067396416578,-16.2615799541223));
#1750=CARTESIAN_POINT('',(0.295018245732345,1.50067396416578,-16.2607530538714));
#1751=CARTESIAN_POINT('',(0.391354113259333,1.48428786437035,-16.2607353647637));
#1752=CARTESIAN_POINT('',(0.481029068022838,1.45287262216491,-16.2615276571117));
#1753=CARTESIAN_POINT('',(0.570703454741211,1.42145757895902,-16.2623199444408));
#1754=CARTESIAN_POINT('',(0.656189183911231,1.37414808312769,-16.2639446729568));
#1755=CARTESIAN_POINT('',(0.73041619978071,1.31487175116164,-16.2663310668721));
#1756=CARTESIAN_POINT('',(0.80466105784522,1.25558117074624,-16.2687180344128));
#1757=CARTESIAN_POINT('',(0.869687524044341,1.1826859852364,-16.2719346914653));
#1758=CARTESIAN_POINT('',(0.920136390056833,1.10223087213801,-16.2758406079305));
#1759=CARTESIAN_POINT('',(0.97063152311146,1.02170197303803,-16.2797501065416));
#1760=CARTESIAN_POINT('',(1.00791325374516,0.931383862907736,-16.2844609176681));
#1761=CARTESIAN_POINT('',(1.02893036581199,0.838755115096764,-16.2897658503907));
#1762=CARTESIAN_POINT('',(1.04997738129359,0.745994573923512,-16.2950783310391));
#1763=CARTESIAN_POINT('',(1.05529396739965,0.648365674743818,-16.3011372651499));
#1764=CARTESIAN_POINT('',(1.04447781946849,0.55394090646294,-16.3076711299412));
#1765=CARTESIAN_POINT('',(1.03364271661527,0.459350662068531,-16.3142164451027));
#1766=CARTESIAN_POINT('',(1.00632188340877,0.365374279864871,-16.3214245505891));
#1767=CARTESIAN_POINT('',(0.964809037497754,0.279773436539462,-16.328956760447));
#1768=CARTESIAN_POINT('',(0.923219381393967,0.194014208089337,-16.3365029069667));
#1769=CARTESIAN_POINT('',(0.866242542330406,0.114301885147207,-16.3445919308492));
#1770=CARTESIAN_POINT('',(0.798614147870913,0.0472162995152368,-16.3527903178695));
#1771=CARTESIAN_POINT('',(0.730874170673635,-0.0199799732529661,-16.3610022317298));
#1772=CARTESIAN_POINT('',(0.650584361318138,-0.0763591758709721,-16.3695780455444));
#1773=CARTESIAN_POINT('',(0.564384276544347,-0.117261013606516,-16.3778281466784));
#1774=CARTESIAN_POINT('',(0.478103210408111,-0.158201276902255,-16.3860859984362));
#1775=CARTESIAN_POINT('',(0.383517445091599,-0.184771897602594,-16.3943992481366));
#1776=CARTESIAN_POINT('',(0.288388578574644,-0.194717937094425,-16.4007470589097));
#1777=CARTESIAN_POINT('',(0.259060588330146,-0.197784276049865,-16.4027040730027));
#1778=CARTESIAN_POINT('',(0.229518132507415,-0.199326035834217,-16.4044648099011));
#1779=CARTESIAN_POINT('',(0.200000042645761,-0.199326035834218,-16.4058950970927));
#1780=CARTESIAN_POINT('',(0.200000042645761,-0.199326035834218,-16.4058950970927));
#1781=CARTESIAN_POINT('',(0.200000042645761,-0.199326035834218,-18.45));
#1782=CARTESIAN_POINT('',(0.200000042645761,-0.199326035834218,-14.85));
#1783=CARTESIAN_POINT('',(0.200000042645761,0.650673964165782,-14.85));
#1784=CARTESIAN_POINT('',(0.200000042645761,0.650673964165782,-18.45));
#1785=CARTESIAN_POINT('',(0.200000042645761,-0.199326035834218,-16.4058950970927));
#1786=CARTESIAN_POINT('',(0.0668229574385251,-0.199326035834218,-16.4123481392809));
#1787=CARTESIAN_POINT('',(-0.0668228720547774,-0.199326035834217,-16.4123481415103));
#1788=CARTESIAN_POINT('',(-0.19999995735424,-0.199326035834217,-16.4058951012255));
#1789=CARTESIAN_POINT('',(-0.449840670150558,-0.199326035834219,-14.85));
#1790=CARTESIAN_POINT('',(0.200000042645761,-0.199326035834218,-18.45));
#1791=CARTESIAN_POINT('',(0.200000042645761,-0.499326035834217,-14.85));
#1792=CARTESIAN_POINT('',(-0.19999995735424,3.28626015289047E-14,-14.85));
#1793=CARTESIAN_POINT('',(-0.19999995735424,0.650673964165782,-14.85));
#1794=CARTESIAN_POINT('',(0.,-0.5,-16.4374886635259));
#1795=CARTESIAN_POINT('',(-0.389334197652781,0.273748315878803,-13.3341187752682));
#1796=CARTESIAN_POINT('',(0.283003813025093,0.00773876842457506,-14.1864982735968));
#1797=CARTESIAN_POINT('',(0.283003813025093,0.00773876842457506,-14.1864982735968));
#1798=CARTESIAN_POINT('',(-0.280546647799629,-0.29807045044724,-14.2051128651219));
#1799=CARTESIAN_POINT('',(-0.399840670158958,3.28626015289047E-14,-13.2499999999998));
#1800=CARTESIAN_POINT('',(0.283003813025093,-0.292261231575423,-14.1864982735968));
#1801=CARTESIAN_POINT('',(-0.116996186974908,-0.292261231575422,-14.1864982735968));
#1802=CARTESIAN_POINT('',(0.283003813025093,-0.292261231575421,-14.1864982735968));
#1803=MECHANICAL_DESIGN_GEOMETRIC_PRESENTATION_REPRESENTATION('',(#32),
#1804);
#1804=(
GEOMETRIC_REPRESENTATION_CONTEXT(3)
GLOBAL_UNCERTAINTY_ASSIGNED_CONTEXT((#1805))
GLOBAL_UNIT_ASSIGNED_CONTEXT((#1811,#1807,#1806))
REPRESENTATION_CONTEXT('15304723_3D_STP','TOP_LEVEL_ASSEMBLY_PART')
);
#1805=UNCERTAINTY_MEASURE_WITH_UNIT(LENGTH_MEASURE(0.0508),#1811,
'DISTANCE_ACCURACY_VALUE','Maximum Tolerance applied to model');
#1806=(
NAMED_UNIT(*)
SI_UNIT($,.STERADIAN.)
SOLID_ANGLE_UNIT()
);
#1807=(
CONVERSION_BASED_UNIT('DEGREE',#1809)
NAMED_UNIT(#1808)
PLANE_ANGLE_UNIT()
);
#1808=DIMENSIONAL_EXPONENTS(0.,0.,0.,0.,0.,0.,0.);
#1809=PLANE_ANGLE_MEASURE_WITH_UNIT(PLANE_ANGLE_MEASURE(0.0174532925),#1810);
#1810=(
NAMED_UNIT(*)
PLANE_ANGLE_UNIT()
SI_UNIT($,.RADIAN.)
);
#1811=(
LENGTH_UNIT()
NAMED_UNIT(*)
SI_UNIT(.MILLI.,.METRE.)
);
ENDSEC;
END-ISO-10303-21;
