ISO-10303-21;
HEADER;
/* Generated by software containing ST-Developer
 * from STEP Tools, Inc. (www.steptools.com) 
 */
/* OPTION: using custom schema-name function */

FILE_DESCRIPTION(
/* description */ (''),
/* implementation_level */ '2;1');

FILE_NAME(
/* name */ '33386365_3D_STP.stp',
/* time_stamp */ '2024-04-22T18:37:15+05:00',
/* author */ (''),
/* organization */ (''),
/* preprocessor_version */ 'ST-DEVELOPER v16',
/* originating_system */ 'SIEMENS PLM Software NX 11.0',
/* authorisation */ '');

FILE_SCHEMA (('AUTOMOTIVE_DESIGN { 1 0 10303 214 3 1 1 1 }'));
ENDSEC;

DATA;
#10=PROPERTY_DEFINITION_REPRESENTATION(#14,#12);
#11=PROPERTY_DEFINITION_REPRESENTATION(#15,#13);
#12=REPRESENTATION('',(#16),#2188);
#13=REPRESENTATION('',(#17),#2188);
#14=PROPERTY_DEFINITION('pmi validation property','',#21);
#15=PROPERTY_DEFINITION('pmi validation property','',#21);
#16=VALUE_REPRESENTATION_ITEM('number of annotations',COUNT_MEASURE(0.));
#17=VALUE_REPRESENTATION_ITEM('number of views',COUNT_MEASURE(0.));
#18=SHAPE_REPRESENTATION_RELATIONSHIP('None',
'relationship between hy3t598C8991btsv-None and hy3t598C8991btsv-None',
#30,#19);
#19=ADVANCED_BREP_SHAPE_REPRESENTATION('hy3t598C8991btsv-None',(#40),#2188);
#20=SHAPE_DEFINITION_REPRESENTATION(#21,#30);
#21=PRODUCT_DEFINITION_SHAPE('','',#22);
#22=PRODUCT_DEFINITION(' ','',#24,#23);
#23=PRODUCT_DEFINITION_CONTEXT('part definition',#29,'design');
#24=PRODUCT_DEFINITION_FORMATION_WITH_SPECIFIED_SOURCE(' ',' ',#26,
 .NOT_KNOWN.);
#25=PRODUCT_RELATED_PRODUCT_CATEGORY('part','',(#26));
#26=PRODUCT('hy3t598C8991btsv','hy3t598C8991btsv',' ',(#27));
#27=PRODUCT_CONTEXT(' ',#29,'mechanical');
#28=APPLICATION_PROTOCOL_DEFINITION('international standard',
'automotive_design',2010,#29);
#29=APPLICATION_CONTEXT(
'core data for automotive mechanical design processes');
#30=SHAPE_REPRESENTATION('hy3t598C8991btsv-None',(#1345),#2188);
#31=PRESENTATION_LAYER_ASSIGNMENT('1','Layer 1',(#40));
#32=STYLED_ITEM('',(#33),#40);
#33=PRESENTATION_STYLE_ASSIGNMENT((#34));
#34=SURFACE_STYLE_USAGE(.BOTH.,#35);
#35=SURFACE_SIDE_STYLE('',(#36));
#36=SURFACE_STYLE_FILL_AREA(#37);
#37=FILL_AREA_STYLE('',(#38));
#38=FILL_AREA_STYLE_COLOUR('',#39);
#39=DRAUGHTING_PRE_DEFINED_COLOUR('magenta');
#40=MANIFOLD_SOLID_BREP('HEALED_BODY_1  ',#41);
#41=CLOSED_SHELL('',(#89,#90,#91,#92,#93,#94,#95,#96,#97,#98,#99,#100,#101,
#102,#103,#104,#105,#106,#107,#108,#109,#110,#111,#112,#113,#114,#115,#116,
#117,#118,#119,#120,#121,#122,#123,#124,#125,#126,#127,#128,#129,#130,#131,
#132,#133,#134,#135,#136,#137,#138,#139,#140,#141,#142,#143,#144,#145,#146,
#147,#148,#149,#150,#151,#152,#153,#154,#155,#156,#157,#158));
#42=B_SPLINE_CURVE_WITH_KNOTS('',3,(#1995,#1996,#1997,#1998),
 .UNSPECIFIED.,.F.,.F.,(4,4),(0.,1.),.UNSPECIFIED.);
#43=CYLINDRICAL_SURFACE('',#1373,2.05);
#44=CYLINDRICAL_SURFACE('',#1380,2.05);
#45=CYLINDRICAL_SURFACE('',#1399,1.);
#46=CYLINDRICAL_SURFACE('',#1401,1.);
#47=CYLINDRICAL_SURFACE('',#1406,0.602);
#48=CYLINDRICAL_SURFACE('',#1407,0.602);
#49=CYLINDRICAL_SURFACE('',#1425,2.7764982330859);
#50=CYLINDRICAL_SURFACE('',#1427,2.7764982330859);
#51=CYLINDRICAL_SURFACE('',#1429,2.7764982330859);
#52=CYLINDRICAL_SURFACE('',#1432,2.7764982330859);
#53=CYLINDRICAL_SURFACE('',#1438,2.3784982330859);
#54=CYLINDRICAL_SURFACE('',#1440,2.3784982330859);
#55=CYLINDRICAL_SURFACE('',#1441,2.3784982330859);
#56=CYLINDRICAL_SURFACE('',#1443,2.3784982330859);
#57=ELLIPSE('',#1370,2.89913780286484,2.05);
#58=ELLIPSE('',#1371,2.89913780286484,2.05);
#59=ELLIPSE('',#1378,2.89913780286484,2.05);
#60=ELLIPSE('',#1379,2.89913780286484,2.05);
#61=ELLIPSE('',#1420,2.38294290194722,2.3784982330859);
#62=ELLIPSE('',#1421,2.38294290194722,2.3784982330859);
#63=ELLIPSE('',#1422,2.78168663939558,2.7764982330859);
#64=ELLIPSE('',#1423,2.78168663939558,2.7764982330859);
#65=ELLIPSE('',#1428,2.78168663939558,2.7764982330859);
#66=ELLIPSE('',#1431,2.78168663939558,2.7764982330859);
#67=ELLIPSE('',#1433,2.38294290194722,2.3784982330859);
#68=ELLIPSE('',#1434,2.38294290194722,2.3784982330859);
#69=CIRCLE('',#1369,2.05);
#70=CIRCLE('',#1372,2.05);
#71=CIRCLE('',#1374,2.05);
#72=CIRCLE('',#1376,2.05);
#73=CIRCLE('',#1390,1.);
#74=CIRCLE('',#1391,0.602);
#75=CIRCLE('',#1392,0.602);
#76=CIRCLE('',#1393,1.);
#77=CIRCLE('',#1398,1.);
#78=CIRCLE('',#1400,1.);
#79=CIRCLE('',#1403,0.602);
#80=CIRCLE('',#1404,0.602);
#81=CIRCLE('',#1409,2.7764982330859);
#82=CIRCLE('',#1410,2.7764982330859);
#83=CIRCLE('',#1411,2.7764982330859);
#84=CIRCLE('',#1412,2.7764982330859);
#85=CIRCLE('',#1413,2.3784982330859);
#86=CIRCLE('',#1414,2.3784982330859);
#87=CIRCLE('',#1415,2.3784982330859);
#88=CIRCLE('',#1416,2.3784982330859);
#89=ADVANCED_FACE('',(#215),#159,.F.);
#90=ADVANCED_FACE('',(#216),#160,.T.);
#91=ADVANCED_FACE('',(#217),#161,.T.);
#92=ADVANCED_FACE('',(#218),#162,.T.);
#93=ADVANCED_FACE('',(#219),#163,.F.);
#94=ADVANCED_FACE('',(#220),#164,.F.);
#95=ADVANCED_FACE('',(#221),#165,.T.);
#96=ADVANCED_FACE('',(#222),#166,.T.);
#97=ADVANCED_FACE('',(#223),#167,.T.);
#98=ADVANCED_FACE('',(#224),#168,.T.);
#99=ADVANCED_FACE('',(#225),#169,.T.);
#100=ADVANCED_FACE('',(#226),#170,.T.);
#101=ADVANCED_FACE('',(#227),#171,.T.);
#102=ADVANCED_FACE('',(#228),#172,.T.);
#103=ADVANCED_FACE('',(#229),#173,.T.);
#104=ADVANCED_FACE('',(#230),#174,.F.);
#105=ADVANCED_FACE('',(#231),#175,.T.);
#106=ADVANCED_FACE('',(#232),#176,.T.);
#107=ADVANCED_FACE('',(#233),#177,.F.);
#108=ADVANCED_FACE('',(#234),#178,.F.);
#109=ADVANCED_FACE('',(#235),#179,.F.);
#110=ADVANCED_FACE('',(#236),#180,.F.);
#111=ADVANCED_FACE('',(#237),#181,.T.);
#112=ADVANCED_FACE('',(#238),#43,.T.);
#113=ADVANCED_FACE('',(#239),#182,.T.);
#114=ADVANCED_FACE('',(#240),#183,.T.);
#115=ADVANCED_FACE('',(#241),#44,.T.);
#116=ADVANCED_FACE('',(#242),#184,.T.);
#117=ADVANCED_FACE('',(#243),#185,.T.);
#118=ADVANCED_FACE('',(#244),#186,.F.);
#119=ADVANCED_FACE('',(#245),#187,.T.);
#120=ADVANCED_FACE('',(#246),#188,.T.);
#121=ADVANCED_FACE('',(#247),#189,.F.);
#122=ADVANCED_FACE('',(#248),#190,.F.);
#123=ADVANCED_FACE('',(#249),#191,.T.);
#124=ADVANCED_FACE('',(#250),#192,.F.);
#125=ADVANCED_FACE('',(#251),#193,.T.);
#126=ADVANCED_FACE('',(#252),#194,.T.);
#127=ADVANCED_FACE('',(#253),#195,.T.);
#128=ADVANCED_FACE('',(#254),#196,.T.);
#129=ADVANCED_FACE('',(#255),#45,.T.);
#130=ADVANCED_FACE('',(#256),#46,.T.);
#131=ADVANCED_FACE('',(#257),#197,.F.);
#132=ADVANCED_FACE('',(#258),#198,.F.);
#133=ADVANCED_FACE('',(#259),#47,.F.);
#134=ADVANCED_FACE('',(#260),#48,.F.);
#135=ADVANCED_FACE('',(#261),#199,.T.);
#136=ADVANCED_FACE('',(#262),#200,.F.);
#137=ADVANCED_FACE('',(#263),#201,.F.);
#138=ADVANCED_FACE('',(#264),#202,.F.);
#139=ADVANCED_FACE('',(#265),#203,.F.);
#140=ADVANCED_FACE('',(#266),#49,.T.);
#141=ADVANCED_FACE('',(#267),#204,.F.);
#142=ADVANCED_FACE('',(#268),#50,.T.);
#143=ADVANCED_FACE('',(#269),#51,.T.);
#144=ADVANCED_FACE('',(#270),#205,.F.);
#145=ADVANCED_FACE('',(#271),#52,.T.);
#146=ADVANCED_FACE('',(#272),#206,.F.);
#147=ADVANCED_FACE('',(#273),#207,.T.);
#148=ADVANCED_FACE('',(#274),#208,.T.);
#149=ADVANCED_FACE('',(#275),#53,.F.);
#150=ADVANCED_FACE('',(#276),#209,.T.);
#151=ADVANCED_FACE('',(#277),#54,.F.);
#152=ADVANCED_FACE('',(#278),#55,.F.);
#153=ADVANCED_FACE('',(#279),#210,.T.);
#154=ADVANCED_FACE('',(#280),#56,.F.);
#155=ADVANCED_FACE('',(#281),#211,.F.);
#156=ADVANCED_FACE('',(#282),#212,.F.);
#157=ADVANCED_FACE('',(#283),#213,.F.);
#158=ADVANCED_FACE('',(#284),#214,.F.);
#159=PLANE('',#1346);
#160=PLANE('',#1347);
#161=PLANE('',#1348);
#162=PLANE('',#1349);
#163=PLANE('',#1350);
#164=PLANE('',#1351);
#165=PLANE('',#1352);
#166=PLANE('',#1353);
#167=PLANE('',#1354);
#168=PLANE('',#1355);
#169=PLANE('',#1356);
#170=PLANE('',#1357);
#171=PLANE('',#1358);
#172=PLANE('',#1359);
#173=PLANE('',#1360);
#174=PLANE('',#1361);
#175=PLANE('',#1362);
#176=PLANE('',#1363);
#177=PLANE('',#1364);
#178=PLANE('',#1365);
#179=PLANE('',#1366);
#180=PLANE('',#1367);
#181=PLANE('',#1368);
#182=PLANE('',#1375);
#183=PLANE('',#1377);
#184=PLANE('',#1381);
#185=PLANE('',#1382);
#186=PLANE('',#1383);
#187=PLANE('',#1384);
#188=PLANE('',#1385);
#189=PLANE('',#1386);
#190=PLANE('',#1387);
#191=PLANE('',#1388);
#192=PLANE('',#1389);
#193=PLANE('',#1394);
#194=PLANE('',#1395);
#195=PLANE('',#1396);
#196=PLANE('',#1397);
#197=PLANE('',#1402);
#198=PLANE('',#1405);
#199=PLANE('',#1408);
#200=PLANE('',#1417);
#201=PLANE('',#1418);
#202=PLANE('',#1419);
#203=PLANE('',#1424);
#204=PLANE('',#1426);
#205=PLANE('',#1430);
#206=PLANE('',#1435);
#207=PLANE('',#1436);
#208=PLANE('',#1437);
#209=PLANE('',#1439);
#210=PLANE('',#1442);
#211=PLANE('',#1444);
#212=PLANE('',#1445);
#213=PLANE('',#1446);
#214=PLANE('',#1447);
#215=FACE_OUTER_BOUND('',#285,.T.);
#216=FACE_OUTER_BOUND('',#286,.T.);
#217=FACE_OUTER_BOUND('',#287,.T.);
#218=FACE_OUTER_BOUND('',#288,.T.);
#219=FACE_OUTER_BOUND('',#289,.T.);
#220=FACE_OUTER_BOUND('',#290,.T.);
#221=FACE_OUTER_BOUND('',#291,.T.);
#222=FACE_OUTER_BOUND('',#292,.T.);
#223=FACE_OUTER_BOUND('',#293,.T.);
#224=FACE_OUTER_BOUND('',#294,.T.);
#225=FACE_OUTER_BOUND('',#295,.T.);
#226=FACE_OUTER_BOUND('',#296,.T.);
#227=FACE_OUTER_BOUND('',#297,.T.);
#228=FACE_OUTER_BOUND('',#298,.T.);
#229=FACE_OUTER_BOUND('',#299,.T.);
#230=FACE_OUTER_BOUND('',#300,.T.);
#231=FACE_OUTER_BOUND('',#301,.T.);
#232=FACE_OUTER_BOUND('',#302,.T.);
#233=FACE_OUTER_BOUND('',#303,.T.);
#234=FACE_OUTER_BOUND('',#304,.T.);
#235=FACE_OUTER_BOUND('',#305,.T.);
#236=FACE_OUTER_BOUND('',#306,.T.);
#237=FACE_OUTER_BOUND('',#307,.T.);
#238=FACE_OUTER_BOUND('',#308,.T.);
#239=FACE_OUTER_BOUND('',#309,.T.);
#240=FACE_OUTER_BOUND('',#310,.T.);
#241=FACE_OUTER_BOUND('',#311,.T.);
#242=FACE_OUTER_BOUND('',#312,.T.);
#243=FACE_OUTER_BOUND('',#313,.T.);
#244=FACE_OUTER_BOUND('',#314,.T.);
#245=FACE_OUTER_BOUND('',#315,.T.);
#246=FACE_OUTER_BOUND('',#316,.T.);
#247=FACE_OUTER_BOUND('',#317,.T.);
#248=FACE_OUTER_BOUND('',#318,.T.);
#249=FACE_OUTER_BOUND('',#319,.T.);
#250=FACE_OUTER_BOUND('',#320,.T.);
#251=FACE_OUTER_BOUND('',#321,.T.);
#252=FACE_OUTER_BOUND('',#322,.T.);
#253=FACE_OUTER_BOUND('',#323,.T.);
#254=FACE_OUTER_BOUND('',#324,.T.);
#255=FACE_OUTER_BOUND('',#325,.T.);
#256=FACE_OUTER_BOUND('',#326,.T.);
#257=FACE_OUTER_BOUND('',#327,.T.);
#258=FACE_OUTER_BOUND('',#328,.T.);
#259=FACE_OUTER_BOUND('',#329,.T.);
#260=FACE_OUTER_BOUND('',#330,.T.);
#261=FACE_OUTER_BOUND('',#331,.T.);
#262=FACE_OUTER_BOUND('',#332,.T.);
#263=FACE_OUTER_BOUND('',#333,.T.);
#264=FACE_OUTER_BOUND('',#334,.T.);
#265=FACE_OUTER_BOUND('',#335,.T.);
#266=FACE_OUTER_BOUND('',#336,.T.);
#267=FACE_OUTER_BOUND('',#337,.T.);
#268=FACE_OUTER_BOUND('',#338,.T.);
#269=FACE_OUTER_BOUND('',#339,.T.);
#270=FACE_OUTER_BOUND('',#340,.T.);
#271=FACE_OUTER_BOUND('',#341,.T.);
#272=FACE_OUTER_BOUND('',#342,.T.);
#273=FACE_OUTER_BOUND('',#343,.T.);
#274=FACE_OUTER_BOUND('',#344,.T.);
#275=FACE_OUTER_BOUND('',#345,.T.);
#276=FACE_OUTER_BOUND('',#346,.T.);
#277=FACE_OUTER_BOUND('',#347,.T.);
#278=FACE_OUTER_BOUND('',#348,.T.);
#279=FACE_OUTER_BOUND('',#349,.T.);
#280=FACE_OUTER_BOUND('',#350,.T.);
#281=FACE_OUTER_BOUND('',#351,.T.);
#282=FACE_OUTER_BOUND('',#352,.T.);
#283=FACE_OUTER_BOUND('',#353,.T.);
#284=FACE_OUTER_BOUND('',#354,.T.);
#285=EDGE_LOOP('',(#355,#356,#357,#358,#359,#360,#361,#362));
#286=EDGE_LOOP('',(#363,#364,#365,#366));
#287=EDGE_LOOP('',(#367,#368,#369,#370,#371));
#288=EDGE_LOOP('',(#372,#373,#374,#375,#376));
#289=EDGE_LOOP('',(#377,#378,#379,#380,#381,#382));
#290=EDGE_LOOP('',(#383,#384,#385,#386,#387,#388));
#291=EDGE_LOOP('',(#389,#390,#391,#392));
#292=EDGE_LOOP('',(#393,#394,#395,#396,#397,#398,#399,#400));
#293=EDGE_LOOP('',(#401,#402,#403,#404,#405,#406,#407,#408));
#294=EDGE_LOOP('',(#409,#410,#411,#412));
#295=EDGE_LOOP('',(#413,#414,#415,#416,#417,#418,#419,#420,#421,#422));
#296=EDGE_LOOP('',(#423,#424,#425,#426));
#297=EDGE_LOOP('',(#427,#428,#429,#430,#431,#432));
#298=EDGE_LOOP('',(#433,#434,#435,#436,#437,#438,#439,#440,#441,#442,#443,
#444));
#299=EDGE_LOOP('',(#445,#446,#447,#448,#449,#450));
#300=EDGE_LOOP('',(#451,#452,#453,#454));
#301=EDGE_LOOP('',(#455,#456,#457,#458,#459,#460));
#302=EDGE_LOOP('',(#461,#462,#463,#464,#465,#466));
#303=EDGE_LOOP('',(#467,#468,#469,#470,#471));
#304=EDGE_LOOP('',(#472,#473,#474,#475,#476));
#305=EDGE_LOOP('',(#477,#478,#479,#480));
#306=EDGE_LOOP('',(#481,#482,#483,#484));
#307=EDGE_LOOP('',(#485,#486,#487,#488));
#308=EDGE_LOOP('',(#489,#490,#491,#492,#493,#494));
#309=EDGE_LOOP('',(#495,#496,#497,#498,#499,#500));
#310=EDGE_LOOP('',(#501,#502,#503,#504,#505,#506));
#311=EDGE_LOOP('',(#507,#508,#509,#510,#511,#512));
#312=EDGE_LOOP('',(#513,#514,#515,#516));
#313=EDGE_LOOP('',(#517,#518,#519,#520));
#314=EDGE_LOOP('',(#521,#522,#523,#524,#525,#526));
#315=EDGE_LOOP('',(#527,#528,#529,#530,#531,#532));
#316=EDGE_LOOP('',(#533,#534,#535,#536,#537,#538));
#317=EDGE_LOOP('',(#539,#540,#541));
#318=EDGE_LOOP('',(#542,#543,#544));
#319=EDGE_LOOP('',(#545,#546,#547,#548));
#320=EDGE_LOOP('',(#549,#550,#551,#552));
#321=EDGE_LOOP('',(#553,#554,#555,#556,#557,#558,#559,#560));
#322=EDGE_LOOP('',(#561,#562,#563,#564));
#323=EDGE_LOOP('',(#565,#566,#567,#568,#569,#570));
#324=EDGE_LOOP('',(#571,#572,#573,#574));
#325=EDGE_LOOP('',(#575,#576,#577,#578));
#326=EDGE_LOOP('',(#579,#580,#581,#582));
#327=EDGE_LOOP('',(#583,#584,#585,#586));
#328=EDGE_LOOP('',(#587,#588,#589,#590,#591,#592,#593,#594));
#329=EDGE_LOOP('',(#595,#596,#597,#598));
#330=EDGE_LOOP('',(#599,#600,#601,#602));
#331=EDGE_LOOP('',(#603,#604,#605,#606));
#332=EDGE_LOOP('',(#607,#608,#609,#610,#611,#612,#613,#614,#615,#616,#617,
#618,#619,#620,#621,#622));
#333=EDGE_LOOP('',(#623,#624,#625,#626,#627));
#334=EDGE_LOOP('',(#628,#629,#630,#631,#632));
#335=EDGE_LOOP('',(#633,#634,#635,#636,#637,#638,#639,#640,#641,#642,#643,
#644));
#336=EDGE_LOOP('',(#645,#646,#647,#648));
#337=EDGE_LOOP('',(#649,#650,#651,#652));
#338=EDGE_LOOP('',(#653,#654,#655,#656));
#339=EDGE_LOOP('',(#657,#658,#659,#660));
#340=EDGE_LOOP('',(#661,#662,#663,#664));
#341=EDGE_LOOP('',(#665,#666,#667,#668));
#342=EDGE_LOOP('',(#669,#670,#671,#672,#673,#674,#675,#676,#677,#678,#679,
#680));
#343=EDGE_LOOP('',(#681,#682,#683,#684,#685));
#344=EDGE_LOOP('',(#686,#687,#688,#689,#690));
#345=EDGE_LOOP('',(#691,#692,#693,#694));
#346=EDGE_LOOP('',(#695,#696,#697,#698));
#347=EDGE_LOOP('',(#699,#700,#701,#702));
#348=EDGE_LOOP('',(#703,#704,#705,#706));
#349=EDGE_LOOP('',(#707,#708,#709,#710));
#350=EDGE_LOOP('',(#711,#712,#713,#714));
#351=EDGE_LOOP('',(#715,#716,#717,#718));
#352=EDGE_LOOP('',(#719,#720,#721,#722));
#353=EDGE_LOOP('',(#723,#724,#725,#726));
#354=EDGE_LOOP('',(#727,#728,#729,#730));
#355=ORIENTED_EDGE('',*,*,#847,.F.);
#356=ORIENTED_EDGE('',*,*,#848,.T.);
#357=ORIENTED_EDGE('',*,*,#849,.T.);
#358=ORIENTED_EDGE('',*,*,#850,.F.);
#359=ORIENTED_EDGE('',*,*,#851,.T.);
#360=ORIENTED_EDGE('',*,*,#852,.F.);
#361=ORIENTED_EDGE('',*,*,#853,.T.);
#362=ORIENTED_EDGE('',*,*,#854,.T.);
#363=ORIENTED_EDGE('',*,*,#855,.F.);
#364=ORIENTED_EDGE('',*,*,#856,.T.);
#365=ORIENTED_EDGE('',*,*,#857,.T.);
#366=ORIENTED_EDGE('',*,*,#858,.T.);
#367=ORIENTED_EDGE('',*,*,#859,.F.);
#368=ORIENTED_EDGE('',*,*,#860,.T.);
#369=ORIENTED_EDGE('',*,*,#861,.T.);
#370=ORIENTED_EDGE('',*,*,#862,.T.);
#371=ORIENTED_EDGE('',*,*,#863,.F.);
#372=ORIENTED_EDGE('',*,*,#864,.T.);
#373=ORIENTED_EDGE('',*,*,#865,.F.);
#374=ORIENTED_EDGE('',*,*,#866,.T.);
#375=ORIENTED_EDGE('',*,*,#867,.T.);
#376=ORIENTED_EDGE('',*,*,#868,.T.);
#377=ORIENTED_EDGE('',*,*,#869,.F.);
#378=ORIENTED_EDGE('',*,*,#870,.T.);
#379=ORIENTED_EDGE('',*,*,#871,.T.);
#380=ORIENTED_EDGE('',*,*,#872,.F.);
#381=ORIENTED_EDGE('',*,*,#873,.F.);
#382=ORIENTED_EDGE('',*,*,#866,.F.);
#383=ORIENTED_EDGE('',*,*,#874,.T.);
#384=ORIENTED_EDGE('',*,*,#875,.T.);
#385=ORIENTED_EDGE('',*,*,#863,.T.);
#386=ORIENTED_EDGE('',*,*,#876,.F.);
#387=ORIENTED_EDGE('',*,*,#877,.F.);
#388=ORIENTED_EDGE('',*,*,#878,.T.);
#389=ORIENTED_EDGE('',*,*,#849,.F.);
#390=ORIENTED_EDGE('',*,*,#879,.T.);
#391=ORIENTED_EDGE('',*,*,#880,.T.);
#392=ORIENTED_EDGE('',*,*,#881,.F.);
#393=ORIENTED_EDGE('',*,*,#882,.F.);
#394=ORIENTED_EDGE('',*,*,#883,.F.);
#395=ORIENTED_EDGE('',*,*,#884,.T.);
#396=ORIENTED_EDGE('',*,*,#877,.T.);
#397=ORIENTED_EDGE('',*,*,#885,.T.);
#398=ORIENTED_EDGE('',*,*,#886,.F.);
#399=ORIENTED_EDGE('',*,*,#879,.F.);
#400=ORIENTED_EDGE('',*,*,#848,.F.);
#401=ORIENTED_EDGE('',*,*,#854,.F.);
#402=ORIENTED_EDGE('',*,*,#887,.T.);
#403=ORIENTED_EDGE('',*,*,#858,.F.);
#404=ORIENTED_EDGE('',*,*,#888,.T.);
#405=ORIENTED_EDGE('',*,*,#872,.T.);
#406=ORIENTED_EDGE('',*,*,#889,.T.);
#407=ORIENTED_EDGE('',*,*,#890,.F.);
#408=ORIENTED_EDGE('',*,*,#891,.F.);
#409=ORIENTED_EDGE('',*,*,#853,.F.);
#410=ORIENTED_EDGE('',*,*,#892,.F.);
#411=ORIENTED_EDGE('',*,*,#855,.T.);
#412=ORIENTED_EDGE('',*,*,#887,.F.);
#413=ORIENTED_EDGE('',*,*,#883,.T.);
#414=ORIENTED_EDGE('',*,*,#893,.T.);
#415=ORIENTED_EDGE('',*,*,#894,.F.);
#416=ORIENTED_EDGE('',*,*,#895,.F.);
#417=ORIENTED_EDGE('',*,*,#896,.T.);
#418=ORIENTED_EDGE('',*,*,#897,.F.);
#419=ORIENTED_EDGE('',*,*,#890,.T.);
#420=ORIENTED_EDGE('',*,*,#898,.T.);
#421=ORIENTED_EDGE('',*,*,#899,.T.);
#422=ORIENTED_EDGE('',*,*,#900,.T.);
#423=ORIENTED_EDGE('',*,*,#901,.F.);
#424=ORIENTED_EDGE('',*,*,#880,.F.);
#425=ORIENTED_EDGE('',*,*,#886,.T.);
#426=ORIENTED_EDGE('',*,*,#902,.T.);
#427=ORIENTED_EDGE('',*,*,#903,.F.);
#428=ORIENTED_EDGE('',*,*,#904,.F.);
#429=ORIENTED_EDGE('',*,*,#905,.T.);
#430=ORIENTED_EDGE('',*,*,#850,.T.);
#431=ORIENTED_EDGE('',*,*,#881,.T.);
#432=ORIENTED_EDGE('',*,*,#901,.T.);
#433=ORIENTED_EDGE('',*,*,#906,.T.);
#434=ORIENTED_EDGE('',*,*,#907,.T.);
#435=ORIENTED_EDGE('',*,*,#903,.T.);
#436=ORIENTED_EDGE('',*,*,#902,.F.);
#437=ORIENTED_EDGE('',*,*,#885,.F.);
#438=ORIENTED_EDGE('',*,*,#876,.T.);
#439=ORIENTED_EDGE('',*,*,#862,.F.);
#440=ORIENTED_EDGE('',*,*,#908,.T.);
#441=ORIENTED_EDGE('',*,*,#867,.F.);
#442=ORIENTED_EDGE('',*,*,#873,.T.);
#443=ORIENTED_EDGE('',*,*,#888,.F.);
#444=ORIENTED_EDGE('',*,*,#857,.F.);
#445=ORIENTED_EDGE('',*,*,#852,.T.);
#446=ORIENTED_EDGE('',*,*,#909,.T.);
#447=ORIENTED_EDGE('',*,*,#910,.T.);
#448=ORIENTED_EDGE('',*,*,#906,.F.);
#449=ORIENTED_EDGE('',*,*,#856,.F.);
#450=ORIENTED_EDGE('',*,*,#892,.T.);
#451=ORIENTED_EDGE('',*,*,#911,.F.);
#452=ORIENTED_EDGE('',*,*,#868,.F.);
#453=ORIENTED_EDGE('',*,*,#908,.F.);
#454=ORIENTED_EDGE('',*,*,#861,.F.);
#455=ORIENTED_EDGE('',*,*,#860,.F.);
#456=ORIENTED_EDGE('',*,*,#912,.F.);
#457=ORIENTED_EDGE('',*,*,#874,.F.);
#458=ORIENTED_EDGE('',*,*,#878,.F.);
#459=ORIENTED_EDGE('',*,*,#913,.F.);
#460=ORIENTED_EDGE('',*,*,#914,.F.);
#461=ORIENTED_EDGE('',*,*,#864,.F.);
#462=ORIENTED_EDGE('',*,*,#915,.F.);
#463=ORIENTED_EDGE('',*,*,#916,.F.);
#464=ORIENTED_EDGE('',*,*,#871,.F.);
#465=ORIENTED_EDGE('',*,*,#870,.F.);
#466=ORIENTED_EDGE('',*,*,#917,.F.);
#467=ORIENTED_EDGE('',*,*,#918,.T.);
#468=ORIENTED_EDGE('',*,*,#898,.F.);
#469=ORIENTED_EDGE('',*,*,#889,.F.);
#470=ORIENTED_EDGE('',*,*,#916,.T.);
#471=ORIENTED_EDGE('',*,*,#919,.T.);
#472=ORIENTED_EDGE('',*,*,#920,.T.);
#473=ORIENTED_EDGE('',*,*,#921,.F.);
#474=ORIENTED_EDGE('',*,*,#913,.T.);
#475=ORIENTED_EDGE('',*,*,#884,.F.);
#476=ORIENTED_EDGE('',*,*,#900,.F.);
#477=ORIENTED_EDGE('',*,*,#918,.F.);
#478=ORIENTED_EDGE('',*,*,#922,.F.);
#479=ORIENTED_EDGE('',*,*,#920,.F.);
#480=ORIENTED_EDGE('',*,*,#899,.F.);
#481=ORIENTED_EDGE('',*,*,#922,.T.);
#482=ORIENTED_EDGE('',*,*,#923,.T.);
#483=ORIENTED_EDGE('',*,*,#924,.F.);
#484=ORIENTED_EDGE('',*,*,#925,.T.);
#485=ORIENTED_EDGE('',*,*,#926,.T.);
#486=ORIENTED_EDGE('',*,*,#927,.T.);
#487=ORIENTED_EDGE('',*,*,#928,.T.);
#488=ORIENTED_EDGE('',*,*,#929,.F.);
#489=ORIENTED_EDGE('',*,*,#924,.T.);
#490=ORIENTED_EDGE('',*,*,#930,.T.);
#491=ORIENTED_EDGE('',*,*,#931,.F.);
#492=ORIENTED_EDGE('',*,*,#929,.T.);
#493=ORIENTED_EDGE('',*,*,#932,.T.);
#494=ORIENTED_EDGE('',*,*,#933,.T.);
#495=ORIENTED_EDGE('',*,*,#934,.F.);
#496=ORIENTED_EDGE('',*,*,#935,.F.);
#497=ORIENTED_EDGE('',*,*,#930,.F.);
#498=ORIENTED_EDGE('',*,*,#923,.F.);
#499=ORIENTED_EDGE('',*,*,#919,.F.);
#500=ORIENTED_EDGE('',*,*,#936,.F.);
#501=ORIENTED_EDGE('',*,*,#937,.F.);
#502=ORIENTED_EDGE('',*,*,#938,.F.);
#503=ORIENTED_EDGE('',*,*,#921,.T.);
#504=ORIENTED_EDGE('',*,*,#925,.F.);
#505=ORIENTED_EDGE('',*,*,#933,.F.);
#506=ORIENTED_EDGE('',*,*,#939,.F.);
#507=ORIENTED_EDGE('',*,*,#940,.T.);
#508=ORIENTED_EDGE('',*,*,#934,.T.);
#509=ORIENTED_EDGE('',*,*,#941,.T.);
#510=ORIENTED_EDGE('',*,*,#937,.T.);
#511=ORIENTED_EDGE('',*,*,#942,.F.);
#512=ORIENTED_EDGE('',*,*,#943,.F.);
#513=ORIENTED_EDGE('',*,*,#944,.T.);
#514=ORIENTED_EDGE('',*,*,#945,.T.);
#515=ORIENTED_EDGE('',*,*,#946,.T.);
#516=ORIENTED_EDGE('',*,*,#943,.T.);
#517=ORIENTED_EDGE('',*,*,#947,.F.);
#518=ORIENTED_EDGE('',*,*,#927,.F.);
#519=ORIENTED_EDGE('',*,*,#948,.F.);
#520=ORIENTED_EDGE('',*,*,#945,.F.);
#521=ORIENTED_EDGE('',*,*,#941,.F.);
#522=ORIENTED_EDGE('',*,*,#936,.T.);
#523=ORIENTED_EDGE('',*,*,#915,.T.);
#524=ORIENTED_EDGE('',*,*,#911,.T.);
#525=ORIENTED_EDGE('',*,*,#914,.T.);
#526=ORIENTED_EDGE('',*,*,#938,.T.);
#527=ORIENTED_EDGE('',*,*,#948,.T.);
#528=ORIENTED_EDGE('',*,*,#926,.F.);
#529=ORIENTED_EDGE('',*,*,#931,.T.);
#530=ORIENTED_EDGE('',*,*,#935,.T.);
#531=ORIENTED_EDGE('',*,*,#940,.F.);
#532=ORIENTED_EDGE('',*,*,#946,.F.);
#533=ORIENTED_EDGE('',*,*,#942,.T.);
#534=ORIENTED_EDGE('',*,*,#939,.T.);
#535=ORIENTED_EDGE('',*,*,#932,.F.);
#536=ORIENTED_EDGE('',*,*,#928,.F.);
#537=ORIENTED_EDGE('',*,*,#947,.T.);
#538=ORIENTED_EDGE('',*,*,#944,.F.);
#539=ORIENTED_EDGE('',*,*,#865,.T.);
#540=ORIENTED_EDGE('',*,*,#917,.T.);
#541=ORIENTED_EDGE('',*,*,#869,.T.);
#542=ORIENTED_EDGE('',*,*,#875,.F.);
#543=ORIENTED_EDGE('',*,*,#912,.T.);
#544=ORIENTED_EDGE('',*,*,#859,.T.);
#545=ORIENTED_EDGE('',*,*,#907,.F.);
#546=ORIENTED_EDGE('',*,*,#910,.F.);
#547=ORIENTED_EDGE('',*,*,#949,.T.);
#548=ORIENTED_EDGE('',*,*,#904,.T.);
#549=ORIENTED_EDGE('',*,*,#851,.F.);
#550=ORIENTED_EDGE('',*,*,#905,.F.);
#551=ORIENTED_EDGE('',*,*,#949,.F.);
#552=ORIENTED_EDGE('',*,*,#909,.F.);
#553=ORIENTED_EDGE('',*,*,#950,.T.);
#554=ORIENTED_EDGE('',*,*,#951,.T.);
#555=ORIENTED_EDGE('',*,*,#952,.F.);
#556=ORIENTED_EDGE('',*,*,#953,.F.);
#557=ORIENTED_EDGE('',*,*,#954,.F.);
#558=ORIENTED_EDGE('',*,*,#955,.T.);
#559=ORIENTED_EDGE('',*,*,#956,.T.);
#560=ORIENTED_EDGE('',*,*,#957,.T.);
#561=ORIENTED_EDGE('',*,*,#958,.F.);
#562=ORIENTED_EDGE('',*,*,#893,.F.);
#563=ORIENTED_EDGE('',*,*,#882,.T.);
#564=ORIENTED_EDGE('',*,*,#959,.T.);
#565=ORIENTED_EDGE('',*,*,#960,.T.);
#566=ORIENTED_EDGE('',*,*,#961,.F.);
#567=ORIENTED_EDGE('',*,*,#962,.T.);
#568=ORIENTED_EDGE('',*,*,#963,.T.);
#569=ORIENTED_EDGE('',*,*,#959,.F.);
#570=ORIENTED_EDGE('',*,*,#847,.T.);
#571=ORIENTED_EDGE('',*,*,#964,.F.);
#572=ORIENTED_EDGE('',*,*,#960,.F.);
#573=ORIENTED_EDGE('',*,*,#891,.T.);
#574=ORIENTED_EDGE('',*,*,#897,.T.);
#575=ORIENTED_EDGE('',*,*,#965,.T.);
#576=ORIENTED_EDGE('',*,*,#896,.F.);
#577=ORIENTED_EDGE('',*,*,#950,.F.);
#578=ORIENTED_EDGE('',*,*,#966,.T.);
#579=ORIENTED_EDGE('',*,*,#967,.T.);
#580=ORIENTED_EDGE('',*,*,#968,.F.);
#581=ORIENTED_EDGE('',*,*,#956,.F.);
#582=ORIENTED_EDGE('',*,*,#894,.T.);
#583=ORIENTED_EDGE('',*,*,#969,.T.);
#584=ORIENTED_EDGE('',*,*,#966,.F.);
#585=ORIENTED_EDGE('',*,*,#957,.F.);
#586=ORIENTED_EDGE('',*,*,#968,.T.);
#587=ORIENTED_EDGE('',*,*,#967,.F.);
#588=ORIENTED_EDGE('',*,*,#958,.T.);
#589=ORIENTED_EDGE('',*,*,#970,.T.);
#590=ORIENTED_EDGE('',*,*,#971,.T.);
#591=ORIENTED_EDGE('',*,*,#972,.T.);
#592=ORIENTED_EDGE('',*,*,#964,.T.);
#593=ORIENTED_EDGE('',*,*,#965,.F.);
#594=ORIENTED_EDGE('',*,*,#969,.F.);
#595=ORIENTED_EDGE('',*,*,#972,.F.);
#596=ORIENTED_EDGE('',*,*,#973,.F.);
#597=ORIENTED_EDGE('',*,*,#952,.T.);
#598=ORIENTED_EDGE('',*,*,#961,.T.);
#599=ORIENTED_EDGE('',*,*,#970,.F.);
#600=ORIENTED_EDGE('',*,*,#963,.F.);
#601=ORIENTED_EDGE('',*,*,#954,.T.);
#602=ORIENTED_EDGE('',*,*,#974,.T.);
#603=ORIENTED_EDGE('',*,*,#971,.F.);
#604=ORIENTED_EDGE('',*,*,#974,.F.);
#605=ORIENTED_EDGE('',*,*,#953,.T.);
#606=ORIENTED_EDGE('',*,*,#973,.T.);
#607=ORIENTED_EDGE('',*,*,#975,.F.);
#608=ORIENTED_EDGE('',*,*,#976,.F.);
#609=ORIENTED_EDGE('',*,*,#977,.F.);
#610=ORIENTED_EDGE('',*,*,#978,.F.);
#611=ORIENTED_EDGE('',*,*,#979,.F.);
#612=ORIENTED_EDGE('',*,*,#980,.F.);
#613=ORIENTED_EDGE('',*,*,#981,.F.);
#614=ORIENTED_EDGE('',*,*,#982,.F.);
#615=ORIENTED_EDGE('',*,*,#983,.F.);
#616=ORIENTED_EDGE('',*,*,#984,.T.);
#617=ORIENTED_EDGE('',*,*,#985,.T.);
#618=ORIENTED_EDGE('',*,*,#986,.T.);
#619=ORIENTED_EDGE('',*,*,#987,.T.);
#620=ORIENTED_EDGE('',*,*,#988,.T.);
#621=ORIENTED_EDGE('',*,*,#989,.T.);
#622=ORIENTED_EDGE('',*,*,#990,.T.);
#623=ORIENTED_EDGE('',*,*,#991,.F.);
#624=ORIENTED_EDGE('',*,*,#992,.F.);
#625=ORIENTED_EDGE('',*,*,#993,.T.);
#626=ORIENTED_EDGE('',*,*,#979,.T.);
#627=ORIENTED_EDGE('',*,*,#994,.F.);
#628=ORIENTED_EDGE('',*,*,#995,.T.);
#629=ORIENTED_EDGE('',*,*,#996,.F.);
#630=ORIENTED_EDGE('',*,*,#997,.F.);
#631=ORIENTED_EDGE('',*,*,#998,.F.);
#632=ORIENTED_EDGE('',*,*,#999,.T.);
#633=ORIENTED_EDGE('',*,*,#1000,.F.);
#634=ORIENTED_EDGE('',*,*,#1001,.F.);
#635=ORIENTED_EDGE('',*,*,#1002,.F.);
#636=ORIENTED_EDGE('',*,*,#1003,.F.);
#637=ORIENTED_EDGE('',*,*,#1004,.F.);
#638=ORIENTED_EDGE('',*,*,#1005,.T.);
#639=ORIENTED_EDGE('',*,*,#991,.T.);
#640=ORIENTED_EDGE('',*,*,#1006,.T.);
#641=ORIENTED_EDGE('',*,*,#1007,.T.);
#642=ORIENTED_EDGE('',*,*,#1008,.T.);
#643=ORIENTED_EDGE('',*,*,#998,.T.);
#644=ORIENTED_EDGE('',*,*,#1009,.T.);
#645=ORIENTED_EDGE('',*,*,#978,.T.);
#646=ORIENTED_EDGE('',*,*,#1010,.F.);
#647=ORIENTED_EDGE('',*,*,#1006,.F.);
#648=ORIENTED_EDGE('',*,*,#994,.T.);
#649=ORIENTED_EDGE('',*,*,#977,.T.);
#650=ORIENTED_EDGE('',*,*,#1011,.F.);
#651=ORIENTED_EDGE('',*,*,#1007,.F.);
#652=ORIENTED_EDGE('',*,*,#1010,.T.);
#653=ORIENTED_EDGE('',*,*,#976,.T.);
#654=ORIENTED_EDGE('',*,*,#999,.F.);
#655=ORIENTED_EDGE('',*,*,#1008,.F.);
#656=ORIENTED_EDGE('',*,*,#1011,.T.);
#657=ORIENTED_EDGE('',*,*,#982,.T.);
#658=ORIENTED_EDGE('',*,*,#1012,.F.);
#659=ORIENTED_EDGE('',*,*,#1013,.F.);
#660=ORIENTED_EDGE('',*,*,#996,.T.);
#661=ORIENTED_EDGE('',*,*,#981,.T.);
#662=ORIENTED_EDGE('',*,*,#1014,.F.);
#663=ORIENTED_EDGE('',*,*,#1015,.F.);
#664=ORIENTED_EDGE('',*,*,#1012,.T.);
#665=ORIENTED_EDGE('',*,*,#980,.T.);
#666=ORIENTED_EDGE('',*,*,#993,.F.);
#667=ORIENTED_EDGE('',*,*,#1016,.F.);
#668=ORIENTED_EDGE('',*,*,#1014,.T.);
#669=ORIENTED_EDGE('',*,*,#1017,.F.);
#670=ORIENTED_EDGE('',*,*,#1009,.F.);
#671=ORIENTED_EDGE('',*,*,#997,.T.);
#672=ORIENTED_EDGE('',*,*,#1013,.T.);
#673=ORIENTED_EDGE('',*,*,#1015,.T.);
#674=ORIENTED_EDGE('',*,*,#1016,.T.);
#675=ORIENTED_EDGE('',*,*,#992,.T.);
#676=ORIENTED_EDGE('',*,*,#1005,.F.);
#677=ORIENTED_EDGE('',*,*,#1018,.F.);
#678=ORIENTED_EDGE('',*,*,#1019,.F.);
#679=ORIENTED_EDGE('',*,*,#1020,.F.);
#680=ORIENTED_EDGE('',*,*,#1021,.F.);
#681=ORIENTED_EDGE('',*,*,#1004,.T.);
#682=ORIENTED_EDGE('',*,*,#1022,.T.);
#683=ORIENTED_EDGE('',*,*,#987,.F.);
#684=ORIENTED_EDGE('',*,*,#1023,.F.);
#685=ORIENTED_EDGE('',*,*,#1018,.T.);
#686=ORIENTED_EDGE('',*,*,#1024,.F.);
#687=ORIENTED_EDGE('',*,*,#1025,.F.);
#688=ORIENTED_EDGE('',*,*,#1000,.T.);
#689=ORIENTED_EDGE('',*,*,#1017,.T.);
#690=ORIENTED_EDGE('',*,*,#1026,.T.);
#691=ORIENTED_EDGE('',*,*,#988,.F.);
#692=ORIENTED_EDGE('',*,*,#1022,.F.);
#693=ORIENTED_EDGE('',*,*,#1003,.T.);
#694=ORIENTED_EDGE('',*,*,#1027,.T.);
#695=ORIENTED_EDGE('',*,*,#989,.F.);
#696=ORIENTED_EDGE('',*,*,#1027,.F.);
#697=ORIENTED_EDGE('',*,*,#1002,.T.);
#698=ORIENTED_EDGE('',*,*,#1028,.T.);
#699=ORIENTED_EDGE('',*,*,#990,.F.);
#700=ORIENTED_EDGE('',*,*,#1028,.F.);
#701=ORIENTED_EDGE('',*,*,#1001,.T.);
#702=ORIENTED_EDGE('',*,*,#1025,.T.);
#703=ORIENTED_EDGE('',*,*,#984,.F.);
#704=ORIENTED_EDGE('',*,*,#1026,.F.);
#705=ORIENTED_EDGE('',*,*,#1021,.T.);
#706=ORIENTED_EDGE('',*,*,#1029,.T.);
#707=ORIENTED_EDGE('',*,*,#985,.F.);
#708=ORIENTED_EDGE('',*,*,#1029,.F.);
#709=ORIENTED_EDGE('',*,*,#1020,.T.);
#710=ORIENTED_EDGE('',*,*,#1030,.T.);
#711=ORIENTED_EDGE('',*,*,#986,.F.);
#712=ORIENTED_EDGE('',*,*,#1030,.F.);
#713=ORIENTED_EDGE('',*,*,#1019,.T.);
#714=ORIENTED_EDGE('',*,*,#1023,.T.);
#715=ORIENTED_EDGE('',*,*,#975,.T.);
#716=ORIENTED_EDGE('',*,*,#1031,.F.);
#717=ORIENTED_EDGE('',*,*,#951,.F.);
#718=ORIENTED_EDGE('',*,*,#1032,.T.);
#719=ORIENTED_EDGE('',*,*,#1024,.T.);
#720=ORIENTED_EDGE('',*,*,#1033,.F.);
#721=ORIENTED_EDGE('',*,*,#962,.F.);
#722=ORIENTED_EDGE('',*,*,#1031,.T.);
#723=ORIENTED_EDGE('',*,*,#983,.T.);
#724=ORIENTED_EDGE('',*,*,#1034,.F.);
#725=ORIENTED_EDGE('',*,*,#955,.F.);
#726=ORIENTED_EDGE('',*,*,#1033,.T.);
#727=ORIENTED_EDGE('',*,*,#995,.F.);
#728=ORIENTED_EDGE('',*,*,#1032,.F.);
#729=ORIENTED_EDGE('',*,*,#895,.T.);
#730=ORIENTED_EDGE('',*,*,#1034,.T.);
#731=VERTEX_POINT('',#1811);
#732=VERTEX_POINT('',#1812);
#733=VERTEX_POINT('',#1814);
#734=VERTEX_POINT('',#1816);
#735=VERTEX_POINT('',#1818);
#736=VERTEX_POINT('',#1820);
#737=VERTEX_POINT('',#1822);
#738=VERTEX_POINT('',#1824);
#739=VERTEX_POINT('',#1828);
#740=VERTEX_POINT('',#1829);
#741=VERTEX_POINT('',#1831);
#742=VERTEX_POINT('',#1833);
#743=VERTEX_POINT('',#1837);
#744=VERTEX_POINT('',#1838);
#745=VERTEX_POINT('',#1840);
#746=VERTEX_POINT('',#1842);
#747=VERTEX_POINT('',#1844);
#748=VERTEX_POINT('',#1848);
#749=VERTEX_POINT('',#1849);
#750=VERTEX_POINT('',#1851);
#751=VERTEX_POINT('',#1853);
#752=VERTEX_POINT('',#1855);
#753=VERTEX_POINT('',#1859);
#754=VERTEX_POINT('',#1861);
#755=VERTEX_POINT('',#1863);
#756=VERTEX_POINT('',#1865);
#757=VERTEX_POINT('',#1869);
#758=VERTEX_POINT('',#1870);
#759=VERTEX_POINT('',#1873);
#760=VERTEX_POINT('',#1875);
#761=VERTEX_POINT('',#1879);
#762=VERTEX_POINT('',#1881);
#763=VERTEX_POINT('',#1885);
#764=VERTEX_POINT('',#1887);
#765=VERTEX_POINT('',#1890);
#766=VERTEX_POINT('',#1896);
#767=VERTEX_POINT('',#1898);
#768=VERTEX_POINT('',#1904);
#769=VERTEX_POINT('',#1906);
#770=VERTEX_POINT('',#1908);
#771=VERTEX_POINT('',#1910);
#772=VERTEX_POINT('',#1913);
#773=VERTEX_POINT('',#1915);
#774=VERTEX_POINT('',#1919);
#775=VERTEX_POINT('',#1923);
#776=VERTEX_POINT('',#1925);
#777=VERTEX_POINT('',#1929);
#778=VERTEX_POINT('',#1934);
#779=VERTEX_POINT('',#1941);
#780=VERTEX_POINT('',#1945);
#781=VERTEX_POINT('',#1950);
#782=VERTEX_POINT('',#1954);
#783=VERTEX_POINT('',#1960);
#784=VERTEX_POINT('',#1962);
#785=VERTEX_POINT('',#1966);
#786=VERTEX_POINT('',#1967);
#787=VERTEX_POINT('',#1969);
#788=VERTEX_POINT('',#1971);
#789=VERTEX_POINT('',#1975);
#790=VERTEX_POINT('',#1978);
#791=VERTEX_POINT('',#1982);
#792=VERTEX_POINT('',#1983);
#793=VERTEX_POINT('',#1988);
#794=VERTEX_POINT('',#1989);
#795=VERTEX_POINT('',#1994);
#796=VERTEX_POINT('',#2000);
#797=VERTEX_POINT('',#2004);
#798=VERTEX_POINT('',#2006);
#799=VERTEX_POINT('',#2021);
#800=VERTEX_POINT('',#2023);
#801=VERTEX_POINT('',#2025);
#802=VERTEX_POINT('',#2027);
#803=VERTEX_POINT('',#2029);
#804=VERTEX_POINT('',#2032);
#805=VERTEX_POINT('',#2036);
#806=VERTEX_POINT('',#2040);
#807=VERTEX_POINT('',#2048);
#808=VERTEX_POINT('',#2052);
#809=VERTEX_POINT('',#2058);
#810=VERTEX_POINT('',#2060);
#811=VERTEX_POINT('',#2069);
#812=VERTEX_POINT('',#2070);
#813=VERTEX_POINT('',#2072);
#814=VERTEX_POINT('',#2074);
#815=VERTEX_POINT('',#2076);
#816=VERTEX_POINT('',#2078);
#817=VERTEX_POINT('',#2080);
#818=VERTEX_POINT('',#2082);
#819=VERTEX_POINT('',#2084);
#820=VERTEX_POINT('',#2086);
#821=VERTEX_POINT('',#2088);
#822=VERTEX_POINT('',#2090);
#823=VERTEX_POINT('',#2092);
#824=VERTEX_POINT('',#2094);
#825=VERTEX_POINT('',#2096);
#826=VERTEX_POINT('',#2098);
#827=VERTEX_POINT('',#2102);
#828=VERTEX_POINT('',#2103);
#829=VERTEX_POINT('',#2105);
#830=VERTEX_POINT('',#2111);
#831=VERTEX_POINT('',#2113);
#832=VERTEX_POINT('',#2115);
#833=VERTEX_POINT('',#2119);
#834=VERTEX_POINT('',#2120);
#835=VERTEX_POINT('',#2122);
#836=VERTEX_POINT('',#2124);
#837=VERTEX_POINT('',#2126);
#838=VERTEX_POINT('',#2128);
#839=VERTEX_POINT('',#2131);
#840=VERTEX_POINT('',#2133);
#841=VERTEX_POINT('',#2143);
#842=VERTEX_POINT('',#2147);
#843=VERTEX_POINT('',#2153);
#844=VERTEX_POINT('',#2155);
#845=VERTEX_POINT('',#2157);
#846=VERTEX_POINT('',#2159);
#847=EDGE_CURVE('',#731,#732,#1035,.T.);
#848=EDGE_CURVE('',#731,#733,#1036,.T.);
#849=EDGE_CURVE('',#733,#734,#1037,.T.);
#850=EDGE_CURVE('',#735,#734,#1038,.T.);
#851=EDGE_CURVE('',#735,#736,#1039,.T.);
#852=EDGE_CURVE('',#737,#736,#1040,.T.);
#853=EDGE_CURVE('',#737,#738,#1041,.T.);
#854=EDGE_CURVE('',#738,#732,#1042,.T.);
#855=EDGE_CURVE('',#739,#740,#1043,.T.);
#856=EDGE_CURVE('',#739,#741,#1044,.T.);
#857=EDGE_CURVE('',#741,#742,#1045,.T.);
#858=EDGE_CURVE('',#742,#740,#1046,.T.);
#859=EDGE_CURVE('',#743,#744,#1047,.T.);
#860=EDGE_CURVE('',#743,#745,#1048,.T.);
#861=EDGE_CURVE('',#745,#746,#1049,.T.);
#862=EDGE_CURVE('',#746,#747,#1050,.T.);
#863=EDGE_CURVE('',#744,#747,#1051,.T.);
#864=EDGE_CURVE('',#748,#749,#1052,.T.);
#865=EDGE_CURVE('',#750,#749,#1053,.T.);
#866=EDGE_CURVE('',#750,#751,#1054,.T.);
#867=EDGE_CURVE('',#751,#752,#1055,.T.);
#868=EDGE_CURVE('',#752,#748,#1056,.T.);
#869=EDGE_CURVE('',#753,#750,#1057,.T.);
#870=EDGE_CURVE('',#753,#754,#1058,.T.);
#871=EDGE_CURVE('',#754,#755,#1059,.T.);
#872=EDGE_CURVE('',#756,#755,#1060,.T.);
#873=EDGE_CURVE('',#751,#756,#1061,.T.);
#874=EDGE_CURVE('',#757,#758,#1062,.T.);
#875=EDGE_CURVE('',#758,#744,#1063,.T.);
#876=EDGE_CURVE('',#759,#747,#1064,.T.);
#877=EDGE_CURVE('',#760,#759,#1065,.T.);
#878=EDGE_CURVE('',#760,#757,#1066,.T.);
#879=EDGE_CURVE('',#733,#761,#1067,.T.);
#880=EDGE_CURVE('',#761,#762,#1068,.T.);
#881=EDGE_CURVE('',#734,#762,#1069,.T.);
#882=EDGE_CURVE('',#763,#731,#1070,.T.);
#883=EDGE_CURVE('',#764,#763,#1071,.T.);
#884=EDGE_CURVE('',#764,#760,#1072,.T.);
#885=EDGE_CURVE('',#759,#765,#1073,.T.);
#886=EDGE_CURVE('',#761,#765,#1074,.T.);
#887=EDGE_CURVE('',#738,#740,#1075,.T.);
#888=EDGE_CURVE('',#742,#756,#1076,.T.);
#889=EDGE_CURVE('',#755,#766,#1077,.T.);
#890=EDGE_CURVE('',#767,#766,#1078,.T.);
#891=EDGE_CURVE('',#732,#767,#1079,.T.);
#892=EDGE_CURVE('',#739,#737,#1080,.T.);
#893=EDGE_CURVE('',#763,#768,#1081,.T.);
#894=EDGE_CURVE('',#769,#768,#1082,.T.);
#895=EDGE_CURVE('',#770,#769,#1083,.T.);
#896=EDGE_CURVE('',#770,#771,#1084,.T.);
#897=EDGE_CURVE('',#767,#771,#1085,.T.);
#898=EDGE_CURVE('',#766,#772,#1086,.T.);
#899=EDGE_CURVE('',#772,#773,#1087,.T.);
#900=EDGE_CURVE('',#773,#764,#1088,.T.);
#901=EDGE_CURVE('',#762,#774,#1089,.T.);
#902=EDGE_CURVE('',#765,#774,#1090,.T.);
#903=EDGE_CURVE('',#775,#774,#1091,.T.);
#904=EDGE_CURVE('',#776,#775,#1092,.T.);
#905=EDGE_CURVE('',#776,#735,#1093,.T.);
#906=EDGE_CURVE('',#741,#777,#1094,.T.);
#907=EDGE_CURVE('',#777,#775,#1095,.T.);
#908=EDGE_CURVE('',#746,#752,#1096,.T.);
#909=EDGE_CURVE('',#736,#778,#1097,.T.);
#910=EDGE_CURVE('',#778,#777,#1098,.T.);
#911=EDGE_CURVE('',#748,#745,#1099,.T.);
#912=EDGE_CURVE('',#758,#743,#1100,.T.);
#913=EDGE_CURVE('',#779,#760,#1101,.T.);
#914=EDGE_CURVE('',#745,#779,#1102,.T.);
#915=EDGE_CURVE('',#780,#748,#1103,.T.);
#916=EDGE_CURVE('',#755,#780,#1104,.T.);
#917=EDGE_CURVE('',#749,#753,#1105,.T.);
#918=EDGE_CURVE('',#781,#772,#1106,.T.);
#919=EDGE_CURVE('',#780,#781,#1107,.T.);
#920=EDGE_CURVE('',#773,#782,#1108,.T.);
#921=EDGE_CURVE('',#779,#782,#1109,.T.);
#922=EDGE_CURVE('',#782,#781,#1110,.T.);
#923=EDGE_CURVE('',#781,#783,#1111,.T.);
#924=EDGE_CURVE('',#784,#783,#1112,.T.);
#925=EDGE_CURVE('',#784,#782,#1113,.T.);
#926=EDGE_CURVE('',#785,#786,#1114,.T.);
#927=EDGE_CURVE('',#786,#787,#1115,.T.);
#928=EDGE_CURVE('',#787,#788,#1116,.T.);
#929=EDGE_CURVE('',#785,#788,#1117,.T.);
#930=EDGE_CURVE('',#783,#789,#69,.T.);
#931=EDGE_CURVE('',#785,#789,#57,.T.);
#932=EDGE_CURVE('',#788,#790,#58,.T.);
#933=EDGE_CURVE('',#790,#784,#70,.T.);
#934=EDGE_CURVE('',#791,#792,#71,.T.);
#935=EDGE_CURVE('',#789,#791,#1118,.T.);
#936=EDGE_CURVE('',#792,#780,#1119,.T.);
#937=EDGE_CURVE('',#793,#794,#72,.T.);
#938=EDGE_CURVE('',#779,#793,#1120,.T.);
#939=EDGE_CURVE('',#794,#790,#1121,.T.);
#940=EDGE_CURVE('',#795,#791,#59,.T.);
#941=EDGE_CURVE('',#792,#793,#42,.T.);
#942=EDGE_CURVE('',#796,#794,#60,.T.);
#943=EDGE_CURVE('',#795,#796,#1122,.T.);
#944=EDGE_CURVE('',#796,#797,#1123,.T.);
#945=EDGE_CURVE('',#797,#798,#1124,.T.);
#946=EDGE_CURVE('',#798,#795,#1125,.T.);
#947=EDGE_CURVE('',#787,#797,#1126,.T.);
#948=EDGE_CURVE('',#798,#786,#1127,.T.);
#949=EDGE_CURVE('',#778,#776,#1128,.T.);
#950=EDGE_CURVE('',#799,#770,#73,.T.);
#951=EDGE_CURVE('',#770,#800,#1129,.T.);
#952=EDGE_CURVE('',#801,#800,#74,.T.);
#953=EDGE_CURVE('',#802,#801,#1130,.T.);
#954=EDGE_CURVE('',#803,#802,#75,.T.);
#955=EDGE_CURVE('',#803,#769,#1131,.T.);
#956=EDGE_CURVE('',#769,#804,#76,.T.);
#957=EDGE_CURVE('',#804,#799,#1132,.T.);
#958=EDGE_CURVE('',#768,#805,#1133,.T.);
#959=EDGE_CURVE('',#731,#805,#1134,.T.);
#960=EDGE_CURVE('',#732,#806,#1135,.T.);
#961=EDGE_CURVE('',#800,#806,#1136,.T.);
#962=EDGE_CURVE('',#800,#803,#1137,.T.);
#963=EDGE_CURVE('',#803,#805,#1138,.T.);
#964=EDGE_CURVE('',#806,#771,#1139,.T.);
#965=EDGE_CURVE('',#807,#771,#77,.T.);
#966=EDGE_CURVE('',#799,#807,#1140,.T.);
#967=EDGE_CURVE('',#768,#808,#78,.T.);
#968=EDGE_CURVE('',#804,#808,#1141,.T.);
#969=EDGE_CURVE('',#808,#807,#1142,.T.);
#970=EDGE_CURVE('',#805,#809,#79,.T.);
#971=EDGE_CURVE('',#809,#810,#1143,.T.);
#972=EDGE_CURVE('',#810,#806,#80,.T.);
#973=EDGE_CURVE('',#801,#810,#1144,.T.);
#974=EDGE_CURVE('',#802,#809,#1145,.T.);
#975=EDGE_CURVE('',#811,#812,#1146,.T.);
#976=EDGE_CURVE('',#813,#811,#81,.T.);
#977=EDGE_CURVE('',#814,#813,#1147,.T.);
#978=EDGE_CURVE('',#815,#814,#82,.T.);
#979=EDGE_CURVE('',#816,#815,#1148,.T.);
#980=EDGE_CURVE('',#817,#816,#83,.T.);
#981=EDGE_CURVE('',#818,#817,#1149,.T.);
#982=EDGE_CURVE('',#819,#818,#84,.T.);
#983=EDGE_CURVE('',#820,#819,#1150,.T.);
#984=EDGE_CURVE('',#820,#821,#85,.T.);
#985=EDGE_CURVE('',#821,#822,#1151,.T.);
#986=EDGE_CURVE('',#822,#823,#86,.T.);
#987=EDGE_CURVE('',#823,#824,#1152,.T.);
#988=EDGE_CURVE('',#824,#825,#87,.T.);
#989=EDGE_CURVE('',#825,#826,#1153,.T.);
#990=EDGE_CURVE('',#826,#812,#88,.T.);
#991=EDGE_CURVE('',#827,#828,#1154,.T.);
#992=EDGE_CURVE('',#829,#827,#1155,.T.);
#993=EDGE_CURVE('',#829,#816,#1156,.T.);
#994=EDGE_CURVE('',#828,#815,#1157,.T.);
#995=EDGE_CURVE('',#811,#819,#1158,.T.);
#996=EDGE_CURVE('',#830,#819,#1159,.T.);
#997=EDGE_CURVE('',#831,#830,#1160,.T.);
#998=EDGE_CURVE('',#832,#831,#1161,.T.);
#999=EDGE_CURVE('',#832,#811,#1162,.T.);
#1000=EDGE_CURVE('',#833,#834,#1163,.T.);
#1001=EDGE_CURVE('',#835,#833,#61,.T.);
#1002=EDGE_CURVE('',#836,#835,#1164,.T.);
#1003=EDGE_CURVE('',#837,#836,#62,.T.);
#1004=EDGE_CURVE('',#838,#837,#1165,.T.);
#1005=EDGE_CURVE('',#838,#827,#1166,.T.);
#1006=EDGE_CURVE('',#828,#839,#63,.T.);
#1007=EDGE_CURVE('',#839,#840,#1167,.T.);
#1008=EDGE_CURVE('',#840,#832,#64,.T.);
#1009=EDGE_CURVE('',#831,#834,#1168,.T.);
#1010=EDGE_CURVE('',#839,#814,#1169,.T.);
#1011=EDGE_CURVE('',#840,#813,#1170,.T.);
#1012=EDGE_CURVE('',#841,#818,#1171,.T.);
#1013=EDGE_CURVE('',#830,#841,#65,.T.);
#1014=EDGE_CURVE('',#842,#817,#1172,.T.);
#1015=EDGE_CURVE('',#841,#842,#1173,.T.);
#1016=EDGE_CURVE('',#842,#829,#66,.T.);
#1017=EDGE_CURVE('',#834,#843,#1174,.T.);
#1018=EDGE_CURVE('',#844,#838,#1175,.T.);
#1019=EDGE_CURVE('',#845,#844,#67,.T.);
#1020=EDGE_CURVE('',#846,#845,#1176,.T.);
#1021=EDGE_CURVE('',#843,#846,#68,.T.);
#1022=EDGE_CURVE('',#837,#824,#1177,.T.);
#1023=EDGE_CURVE('',#844,#823,#1178,.T.);
#1024=EDGE_CURVE('',#812,#820,#1179,.T.);
#1025=EDGE_CURVE('',#833,#812,#1180,.T.);
#1026=EDGE_CURVE('',#843,#820,#1181,.T.);
#1027=EDGE_CURVE('',#836,#825,#1182,.T.);
#1028=EDGE_CURVE('',#835,#826,#1183,.T.);
#1029=EDGE_CURVE('',#846,#821,#1184,.T.);
#1030=EDGE_CURVE('',#845,#822,#1185,.T.);
#1031=EDGE_CURVE('',#800,#812,#1186,.T.);
#1032=EDGE_CURVE('',#770,#811,#1187,.T.);
#1033=EDGE_CURVE('',#803,#820,#1188,.T.);
#1034=EDGE_CURVE('',#769,#819,#1189,.T.);
#1035=LINE('',#1810,#1190);
#1036=LINE('',#1813,#1191);
#1037=LINE('',#1815,#1192);
#1038=LINE('',#1817,#1193);
#1039=LINE('',#1819,#1194);
#1040=LINE('',#1821,#1195);
#1041=LINE('',#1823,#1196);
#1042=LINE('',#1825,#1197);
#1043=LINE('',#1827,#1198);
#1044=LINE('',#1830,#1199);
#1045=LINE('',#1832,#1200);
#1046=LINE('',#1834,#1201);
#1047=LINE('',#1836,#1202);
#1048=LINE('',#1839,#1203);
#1049=LINE('',#1841,#1204);
#1050=LINE('',#1843,#1205);
#1051=LINE('',#1845,#1206);
#1052=LINE('',#1847,#1207);
#1053=LINE('',#1850,#1208);
#1054=LINE('',#1852,#1209);
#1055=LINE('',#1854,#1210);
#1056=LINE('',#1856,#1211);
#1057=LINE('',#1858,#1212);
#1058=LINE('',#1860,#1213);
#1059=LINE('',#1862,#1214);
#1060=LINE('',#1864,#1215);
#1061=LINE('',#1866,#1216);
#1062=LINE('',#1868,#1217);
#1063=LINE('',#1871,#1218);
#1064=LINE('',#1872,#1219);
#1065=LINE('',#1874,#1220);
#1066=LINE('',#1876,#1221);
#1067=LINE('',#1878,#1222);
#1068=LINE('',#1880,#1223);
#1069=LINE('',#1882,#1224);
#1070=LINE('',#1884,#1225);
#1071=LINE('',#1886,#1226);
#1072=LINE('',#1888,#1227);
#1073=LINE('',#1889,#1228);
#1074=LINE('',#1891,#1229);
#1075=LINE('',#1893,#1230);
#1076=LINE('',#1894,#1231);
#1077=LINE('',#1895,#1232);
#1078=LINE('',#1897,#1233);
#1079=LINE('',#1899,#1234);
#1080=LINE('',#1901,#1235);
#1081=LINE('',#1903,#1236);
#1082=LINE('',#1905,#1237);
#1083=LINE('',#1907,#1238);
#1084=LINE('',#1909,#1239);
#1085=LINE('',#1911,#1240);
#1086=LINE('',#1912,#1241);
#1087=LINE('',#1914,#1242);
#1088=LINE('',#1916,#1243);
#1089=LINE('',#1918,#1244);
#1090=LINE('',#1920,#1245);
#1091=LINE('',#1922,#1246);
#1092=LINE('',#1924,#1247);
#1093=LINE('',#1926,#1248);
#1094=LINE('',#1928,#1249);
#1095=LINE('',#1930,#1250);
#1096=LINE('',#1931,#1251);
#1097=LINE('',#1933,#1252);
#1098=LINE('',#1935,#1253);
#1099=LINE('',#1937,#1254);
#1100=LINE('',#1939,#1255);
#1101=LINE('',#1940,#1256);
#1102=LINE('',#1942,#1257);
#1103=LINE('',#1944,#1258);
#1104=LINE('',#1946,#1259);
#1105=LINE('',#1947,#1260);
#1106=LINE('',#1949,#1261);
#1107=LINE('',#1951,#1262);
#1108=LINE('',#1953,#1263);
#1109=LINE('',#1955,#1264);
#1110=LINE('',#1957,#1265);
#1111=LINE('',#1959,#1266);
#1112=LINE('',#1961,#1267);
#1113=LINE('',#1963,#1268);
#1114=LINE('',#1965,#1269);
#1115=LINE('',#1968,#1270);
#1116=LINE('',#1970,#1271);
#1117=LINE('',#1972,#1272);
#1118=LINE('',#1984,#1273);
#1119=LINE('',#1985,#1274);
#1120=LINE('',#1990,#1275);
#1121=LINE('',#1991,#1276);
#1122=LINE('',#2001,#1277);
#1123=LINE('',#2003,#1278);
#1124=LINE('',#2005,#1279);
#1125=LINE('',#2007,#1280);
#1126=LINE('',#2009,#1281);
#1127=LINE('',#2010,#1282);
#1128=LINE('',#2017,#1283);
#1129=LINE('',#2022,#1284);
#1130=LINE('',#2026,#1285);
#1131=LINE('',#2030,#1286);
#1132=LINE('',#2033,#1287);
#1133=LINE('',#2035,#1288);
#1134=LINE('',#2037,#1289);
#1135=LINE('',#2039,#1290);
#1136=LINE('',#2041,#1291);
#1137=LINE('',#2042,#1292);
#1138=LINE('',#2043,#1293);
#1139=LINE('',#2045,#1294);
#1140=LINE('',#2049,#1295);
#1141=LINE('',#2053,#1296);
#1142=LINE('',#2055,#1297);
#1143=LINE('',#2059,#1298);
#1144=LINE('',#2063,#1299);
#1145=LINE('',#2065,#1300);
#1146=LINE('',#2068,#1301);
#1147=LINE('',#2073,#1302);
#1148=LINE('',#2077,#1303);
#1149=LINE('',#2081,#1304);
#1150=LINE('',#2085,#1305);
#1151=LINE('',#2089,#1306);
#1152=LINE('',#2093,#1307);
#1153=LINE('',#2097,#1308);
#1154=LINE('',#2101,#1309);
#1155=LINE('',#2104,#1310);
#1156=LINE('',#2106,#1311);
#1157=LINE('',#2107,#1312);
#1158=LINE('',#2109,#1313);
#1159=LINE('',#2110,#1314);
#1160=LINE('',#2112,#1315);
#1161=LINE('',#2114,#1316);
#1162=LINE('',#2116,#1317);
#1163=LINE('',#2118,#1318);
#1164=LINE('',#2123,#1319);
#1165=LINE('',#2127,#1320);
#1166=LINE('',#2129,#1321);
#1167=LINE('',#2132,#1322);
#1168=LINE('',#2135,#1323);
#1169=LINE('',#2137,#1324);
#1170=LINE('',#2139,#1325);
#1171=LINE('',#2142,#1326);
#1172=LINE('',#2146,#1327);
#1173=LINE('',#2148,#1328);
#1174=LINE('',#2152,#1329);
#1175=LINE('',#2154,#1330);
#1176=LINE('',#2158,#1331);
#1177=LINE('',#2162,#1332);
#1178=LINE('',#2163,#1333);
#1179=LINE('',#2165,#1334);
#1180=LINE('',#2166,#1335);
#1181=LINE('',#2167,#1336);
#1182=LINE('',#2169,#1337);
#1183=LINE('',#2171,#1338);
#1184=LINE('',#2174,#1339);
#1185=LINE('',#2176,#1340);
#1186=LINE('',#2179,#1341);
#1187=LINE('',#2180,#1342);
#1188=LINE('',#2182,#1343);
#1189=LINE('',#2184,#1344);
#1190=VECTOR('',#1450,1.);
#1191=VECTOR('',#1451,1.);
#1192=VECTOR('',#1452,1.);
#1193=VECTOR('',#1453,1.);
#1194=VECTOR('',#1454,1.);
#1195=VECTOR('',#1455,1.);
#1196=VECTOR('',#1456,1.);
#1197=VECTOR('',#1457,1.);
#1198=VECTOR('',#1460,1.);
#1199=VECTOR('',#1461,1.);
#1200=VECTOR('',#1462,1.);
#1201=VECTOR('',#1463,1.);
#1202=VECTOR('',#1466,1.);
#1203=VECTOR('',#1467,1.);
#1204=VECTOR('',#1468,1.);
#1205=VECTOR('',#1469,1.);
#1206=VECTOR('',#1470,1.);
#1207=VECTOR('',#1473,1.);
#1208=VECTOR('',#1474,1.);
#1209=VECTOR('',#1475,1.);
#1210=VECTOR('',#1476,1.);
#1211=VECTOR('',#1477,1.);
#1212=VECTOR('',#1480,1.);
#1213=VECTOR('',#1481,1.);
#1214=VECTOR('',#1482,1.);
#1215=VECTOR('',#1483,1.);
#1216=VECTOR('',#1484,1.);
#1217=VECTOR('',#1487,1.);
#1218=VECTOR('',#1488,1.);
#1219=VECTOR('',#1489,1.);
#1220=VECTOR('',#1490,1.);
#1221=VECTOR('',#1491,1.);
#1222=VECTOR('',#1494,1.);
#1223=VECTOR('',#1495,1.);
#1224=VECTOR('',#1496,1.);
#1225=VECTOR('',#1499,1.);
#1226=VECTOR('',#1500,1.);
#1227=VECTOR('',#1501,1.);
#1228=VECTOR('',#1502,1.);
#1229=VECTOR('',#1503,1.);
#1230=VECTOR('',#1506,1.);
#1231=VECTOR('',#1507,1.);
#1232=VECTOR('',#1508,1.);
#1233=VECTOR('',#1509,1.);
#1234=VECTOR('',#1510,1.);
#1235=VECTOR('',#1513,1.);
#1236=VECTOR('',#1516,1.);
#1237=VECTOR('',#1517,1.);
#1238=VECTOR('',#1518,1.);
#1239=VECTOR('',#1519,1.);
#1240=VECTOR('',#1520,1.);
#1241=VECTOR('',#1521,1.);
#1242=VECTOR('',#1522,1.);
#1243=VECTOR('',#1523,1.);
#1244=VECTOR('',#1526,1.);
#1245=VECTOR('',#1527,1.);
#1246=VECTOR('',#1530,1.);
#1247=VECTOR('',#1531,1.);
#1248=VECTOR('',#1532,1.);
#1249=VECTOR('',#1535,1.);
#1250=VECTOR('',#1536,1.);
#1251=VECTOR('',#1537,1.);
#1252=VECTOR('',#1540,1.);
#1253=VECTOR('',#1541,1.);
#1254=VECTOR('',#1544,1.);
#1255=VECTOR('',#1547,1.);
#1256=VECTOR('',#1548,1.);
#1257=VECTOR('',#1549,1.);
#1258=VECTOR('',#1552,1.);
#1259=VECTOR('',#1553,1.);
#1260=VECTOR('',#1554,1.);
#1261=VECTOR('',#1557,1.);
#1262=VECTOR('',#1558,1.);
#1263=VECTOR('',#1561,1.);
#1264=VECTOR('',#1562,1.);
#1265=VECTOR('',#1565,1.);
#1266=VECTOR('',#1568,1.);
#1267=VECTOR('',#1569,1.);
#1268=VECTOR('',#1570,1.);
#1269=VECTOR('',#1573,1.);
#1270=VECTOR('',#1574,1.);
#1271=VECTOR('',#1575,1.);
#1272=VECTOR('',#1576,1.);
#1273=VECTOR('',#1591,1.);
#1274=VECTOR('',#1592,1.);
#1275=VECTOR('',#1597,1.);
#1276=VECTOR('',#1598,1.);
#1277=VECTOR('',#1605,1.);
#1278=VECTOR('',#1608,0.999999999999999);
#1279=VECTOR('',#1609,1.);
#1280=VECTOR('',#1610,0.999999999999999);
#1281=VECTOR('',#1613,1.);
#1282=VECTOR('',#1614,1.);
#1283=VECTOR('',#1627,1.);
#1284=VECTOR('',#1634,1.);
#1285=VECTOR('',#1637,1.);
#1286=VECTOR('',#1640,1.);
#1287=VECTOR('',#1643,1.);
#1288=VECTOR('',#1646,1.);
#1289=VECTOR('',#1647,1.);
#1290=VECTOR('',#1650,1.);
#1291=VECTOR('',#1651,1.);
#1292=VECTOR('',#1652,1.);
#1293=VECTOR('',#1653,1.);
#1294=VECTOR('',#1656,1.);
#1295=VECTOR('',#1661,1.);
#1296=VECTOR('',#1666,1.);
#1297=VECTOR('',#1669,1.);
#1298=VECTOR('',#1674,1.);
#1299=VECTOR('',#1679,1.);
#1300=VECTOR('',#1682,1.);
#1301=VECTOR('',#1687,1.);
#1302=VECTOR('',#1690,1.);
#1303=VECTOR('',#1693,1.);
#1304=VECTOR('',#1696,1.);
#1305=VECTOR('',#1699,1.);
#1306=VECTOR('',#1702,1.);
#1307=VECTOR('',#1705,1.);
#1308=VECTOR('',#1708,1.);
#1309=VECTOR('',#1713,1.);
#1310=VECTOR('',#1714,1.);
#1311=VECTOR('',#1715,1.);
#1312=VECTOR('',#1716,1.);
#1313=VECTOR('',#1719,1.);
#1314=VECTOR('',#1720,1.);
#1315=VECTOR('',#1721,1.);
#1316=VECTOR('',#1722,1.);
#1317=VECTOR('',#1723,1.);
#1318=VECTOR('',#1726,1.);
#1319=VECTOR('',#1729,1.);
#1320=VECTOR('',#1732,1.);
#1321=VECTOR('',#1733,1.);
#1322=VECTOR('',#1736,1.);
#1323=VECTOR('',#1739,1.);
#1324=VECTOR('',#1742,1.);
#1325=VECTOR('',#1745,1.);
#1326=VECTOR('',#1750,1.);
#1327=VECTOR('',#1755,1.);
#1328=VECTOR('',#1756,1.);
#1329=VECTOR('',#1763,1.);
#1330=VECTOR('',#1764,1.);
#1331=VECTOR('',#1767,1.);
#1332=VECTOR('',#1772,1.);
#1333=VECTOR('',#1773,1.);
#1334=VECTOR('',#1776,1.);
#1335=VECTOR('',#1777,1.);
#1336=VECTOR('',#1778,1.);
#1337=VECTOR('',#1781,1.);
#1338=VECTOR('',#1784,1.);
#1339=VECTOR('',#1789,1.);
#1340=VECTOR('',#1792,1.);
#1341=VECTOR('',#1797,1.);
#1342=VECTOR('',#1798,1.);
#1343=VECTOR('',#1801,1.);
#1344=VECTOR('',#1804,1.);
#1345=AXIS2_PLACEMENT_3D('',#1809,#1448,#1449);
#1346=AXIS2_PLACEMENT_3D('',#1826,#1458,#1459);
#1347=AXIS2_PLACEMENT_3D('',#1835,#1464,#1465);
#1348=AXIS2_PLACEMENT_3D('',#1846,#1471,#1472);
#1349=AXIS2_PLACEMENT_3D('',#1857,#1478,#1479);
#1350=AXIS2_PLACEMENT_3D('',#1867,#1485,#1486);
#1351=AXIS2_PLACEMENT_3D('',#1877,#1492,#1493);
#1352=AXIS2_PLACEMENT_3D('',#1883,#1497,#1498);
#1353=AXIS2_PLACEMENT_3D('',#1892,#1504,#1505);
#1354=AXIS2_PLACEMENT_3D('',#1900,#1511,#1512);
#1355=AXIS2_PLACEMENT_3D('',#1902,#1514,#1515);
#1356=AXIS2_PLACEMENT_3D('',#1917,#1524,#1525);
#1357=AXIS2_PLACEMENT_3D('',#1921,#1528,#1529);
#1358=AXIS2_PLACEMENT_3D('',#1927,#1533,#1534);
#1359=AXIS2_PLACEMENT_3D('',#1932,#1538,#1539);
#1360=AXIS2_PLACEMENT_3D('',#1936,#1542,#1543);
#1361=AXIS2_PLACEMENT_3D('',#1938,#1545,#1546);
#1362=AXIS2_PLACEMENT_3D('',#1943,#1550,#1551);
#1363=AXIS2_PLACEMENT_3D('',#1948,#1555,#1556);
#1364=AXIS2_PLACEMENT_3D('',#1952,#1559,#1560);
#1365=AXIS2_PLACEMENT_3D('',#1956,#1563,#1564);
#1366=AXIS2_PLACEMENT_3D('',#1958,#1566,#1567);
#1367=AXIS2_PLACEMENT_3D('',#1964,#1571,#1572);
#1368=AXIS2_PLACEMENT_3D('',#1973,#1577,#1578);
#1369=AXIS2_PLACEMENT_3D('',#1974,#1579,#1580);
#1370=AXIS2_PLACEMENT_3D('',#1976,#1581,#1582);
#1371=AXIS2_PLACEMENT_3D('',#1977,#1583,#1584);
#1372=AXIS2_PLACEMENT_3D('',#1979,#1585,#1586);
#1373=AXIS2_PLACEMENT_3D('',#1980,#1587,#1588);
#1374=AXIS2_PLACEMENT_3D('',#1981,#1589,#1590);
#1375=AXIS2_PLACEMENT_3D('',#1986,#1593,#1594);
#1376=AXIS2_PLACEMENT_3D('',#1987,#1595,#1596);
#1377=AXIS2_PLACEMENT_3D('',#1992,#1599,#1600);
#1378=AXIS2_PLACEMENT_3D('',#1993,#1601,#1602);
#1379=AXIS2_PLACEMENT_3D('',#1999,#1603,#1604);
#1380=AXIS2_PLACEMENT_3D('',#2002,#1606,#1607);
#1381=AXIS2_PLACEMENT_3D('',#2008,#1611,#1612);
#1382=AXIS2_PLACEMENT_3D('',#2011,#1615,#1616);
#1383=AXIS2_PLACEMENT_3D('',#2012,#1617,#1618);
#1384=AXIS2_PLACEMENT_3D('',#2013,#1619,#1620);
#1385=AXIS2_PLACEMENT_3D('',#2014,#1621,#1622);
#1386=AXIS2_PLACEMENT_3D('',#2015,#1623,#1624);
#1387=AXIS2_PLACEMENT_3D('',#2016,#1625,#1626);
#1388=AXIS2_PLACEMENT_3D('',#2018,#1628,#1629);
#1389=AXIS2_PLACEMENT_3D('',#2019,#1630,#1631);
#1390=AXIS2_PLACEMENT_3D('',#2020,#1632,#1633);
#1391=AXIS2_PLACEMENT_3D('',#2024,#1635,#1636);
#1392=AXIS2_PLACEMENT_3D('',#2028,#1638,#1639);
#1393=AXIS2_PLACEMENT_3D('',#2031,#1641,#1642);
#1394=AXIS2_PLACEMENT_3D('',#2034,#1644,#1645);
#1395=AXIS2_PLACEMENT_3D('',#2038,#1648,#1649);
#1396=AXIS2_PLACEMENT_3D('',#2044,#1654,#1655);
#1397=AXIS2_PLACEMENT_3D('',#2046,#1657,#1658);
#1398=AXIS2_PLACEMENT_3D('',#2047,#1659,#1660);
#1399=AXIS2_PLACEMENT_3D('',#2050,#1662,#1663);
#1400=AXIS2_PLACEMENT_3D('',#2051,#1664,#1665);
#1401=AXIS2_PLACEMENT_3D('',#2054,#1667,#1668);
#1402=AXIS2_PLACEMENT_3D('',#2056,#1670,#1671);
#1403=AXIS2_PLACEMENT_3D('',#2057,#1672,#1673);
#1404=AXIS2_PLACEMENT_3D('',#2061,#1675,#1676);
#1405=AXIS2_PLACEMENT_3D('',#2062,#1677,#1678);
#1406=AXIS2_PLACEMENT_3D('',#2064,#1680,#1681);
#1407=AXIS2_PLACEMENT_3D('',#2066,#1683,#1684);
#1408=AXIS2_PLACEMENT_3D('',#2067,#1685,#1686);
#1409=AXIS2_PLACEMENT_3D('',#2071,#1688,#1689);
#1410=AXIS2_PLACEMENT_3D('',#2075,#1691,#1692);
#1411=AXIS2_PLACEMENT_3D('',#2079,#1694,#1695);
#1412=AXIS2_PLACEMENT_3D('',#2083,#1697,#1698);
#1413=AXIS2_PLACEMENT_3D('',#2087,#1700,#1701);
#1414=AXIS2_PLACEMENT_3D('',#2091,#1703,#1704);
#1415=AXIS2_PLACEMENT_3D('',#2095,#1706,#1707);
#1416=AXIS2_PLACEMENT_3D('',#2099,#1709,#1710);
#1417=AXIS2_PLACEMENT_3D('',#2100,#1711,#1712);
#1418=AXIS2_PLACEMENT_3D('',#2108,#1717,#1718);
#1419=AXIS2_PLACEMENT_3D('',#2117,#1724,#1725);
#1420=AXIS2_PLACEMENT_3D('',#2121,#1727,#1728);
#1421=AXIS2_PLACEMENT_3D('',#2125,#1730,#1731);
#1422=AXIS2_PLACEMENT_3D('',#2130,#1734,#1735);
#1423=AXIS2_PLACEMENT_3D('',#2134,#1737,#1738);
#1424=AXIS2_PLACEMENT_3D('',#2136,#1740,#1741);
#1425=AXIS2_PLACEMENT_3D('',#2138,#1743,#1744);
#1426=AXIS2_PLACEMENT_3D('',#2140,#1746,#1747);
#1427=AXIS2_PLACEMENT_3D('',#2141,#1748,#1749);
#1428=AXIS2_PLACEMENT_3D('',#2144,#1751,#1752);
#1429=AXIS2_PLACEMENT_3D('',#2145,#1753,#1754);
#1430=AXIS2_PLACEMENT_3D('',#2149,#1757,#1758);
#1431=AXIS2_PLACEMENT_3D('',#2150,#1759,#1760);
#1432=AXIS2_PLACEMENT_3D('',#2151,#1761,#1762);
#1433=AXIS2_PLACEMENT_3D('',#2156,#1765,#1766);
#1434=AXIS2_PLACEMENT_3D('',#2160,#1768,#1769);
#1435=AXIS2_PLACEMENT_3D('',#2161,#1770,#1771);
#1436=AXIS2_PLACEMENT_3D('',#2164,#1774,#1775);
#1437=AXIS2_PLACEMENT_3D('',#2168,#1779,#1780);
#1438=AXIS2_PLACEMENT_3D('',#2170,#1782,#1783);
#1439=AXIS2_PLACEMENT_3D('',#2172,#1785,#1786);
#1440=AXIS2_PLACEMENT_3D('',#2173,#1787,#1788);
#1441=AXIS2_PLACEMENT_3D('',#2175,#1790,#1791);
#1442=AXIS2_PLACEMENT_3D('',#2177,#1793,#1794);
#1443=AXIS2_PLACEMENT_3D('',#2178,#1795,#1796);
#1444=AXIS2_PLACEMENT_3D('',#2181,#1799,#1800);
#1445=AXIS2_PLACEMENT_3D('',#2183,#1802,#1803);
#1446=AXIS2_PLACEMENT_3D('',#2185,#1805,#1806);
#1447=AXIS2_PLACEMENT_3D('',#2186,#1807,#1808);
#1448=DIRECTION('',(0.,0.,1.));
#1449=DIRECTION('',(1.,0.,0.));
#1450=DIRECTION('',(1.,0.,0.));
#1451=DIRECTION('',(-2.71050543121376E-16,1.89735365120885E-14,1.));
#1452=DIRECTION('',(1.,8.47655406785639E-28,4.46756674089504E-14));
#1453=DIRECTION('',(-1.49791077727014E-14,-1.89735365120885E-14,-1.));
#1454=DIRECTION('',(1.,0.,0.));
#1455=DIRECTION('',(-1.49791077727014E-14,1.89735365120885E-14,1.));
#1456=DIRECTION('',(1.,2.84746058209165E-27,1.50075373680466E-13));
#1457=DIRECTION('',(-2.71050543121361E-16,-1.89735365120885E-14,-1.));
#1458=DIRECTION('',(0.,-1.,1.89735365120885E-14));
#1459=DIRECTION('',(0.,-1.89726706567583E-14,-1.));
#1460=DIRECTION('',(1.,0.,1.50075373680466E-13));
#1461=DIRECTION('',(0.,0.,1.));
#1462=DIRECTION('',(1.,0.,0.));
#1463=DIRECTION('',(-2.71050543121361E-16,0.,-1.));
#1464=DIRECTION('',(0.,1.,0.));
#1465=DIRECTION('',(0.,0.,1.));
#1466=DIRECTION('',(-0.690966942232667,0.606263511356001,0.393712127753172));
#1467=DIRECTION('',(0.686115260399402,-0.666435016917411,-0.291736555257223));
#1468=DIRECTION('',(-0.690966942232667,0.606263511356001,0.393712127753173));
#1469=DIRECTION('',(-0.625474335242214,0.780244741060977,0.));
#1470=DIRECTION('',(-0.461764783844854,0.,0.887002415104218));
#1471=DIRECTION('',(-0.722886356726725,-0.579493637873784,-0.376327568644884));
#1472=DIRECTION('',(-0.690966942232667,0.606263511356001,0.393712127753172));
#1473=DIRECTION('',(0.686115260399401,0.66643501691742,0.291736555257207));
#1474=DIRECTION('',(-0.690966942232667,-0.606263511356001,-0.393712127753172));
#1475=DIRECTION('',(0.461764783844854,0.,0.887002415104218));
#1476=DIRECTION('',(-0.625474335242214,-0.780244741060977,0.));
#1477=DIRECTION('',(-0.690966942232667,-0.606263511356001,-0.393712127753173));
#1478=DIRECTION('',(0.722886356726725,-0.579493637873784,-0.376327568644884));
#1479=DIRECTION('',(0.690966942232667,0.606263511356001,0.393712127753172));
#1480=DIRECTION('',(0.,0.,1.));
#1481=DIRECTION('',(1.,0.,0.));
#1482=DIRECTION('',(1.,1.30758050953026E-14,0.));
#1483=DIRECTION('',(-2.71050543121361E-16,0.,-1.));
#1484=DIRECTION('',(1.,0.,0.));
#1485=DIRECTION('',(0.,1.,0.));
#1486=DIRECTION('',(0.,0.,1.));
#1487=DIRECTION('',(1.,0.,0.));
#1488=DIRECTION('',(0.,0.,1.));
#1489=DIRECTION('',(1.,0.,0.));
#1490=DIRECTION('',(-2.71050543121376E-16,0.,1.));
#1491=DIRECTION('',(1.,1.30758050953026E-14,0.));
#1492=DIRECTION('',(0.,1.,0.));
#1493=DIRECTION('',(0.,0.,1.));
#1494=DIRECTION('',(0.,-1.,0.));
#1495=DIRECTION('',(1.,0.,4.46756674089504E-14));
#1496=DIRECTION('',(-0.61964428857902,-0.784882765533427,-1.50444137618041E-13));
#1497=DIRECTION('',(-4.46756674089504E-14,0.,1.));
#1498=DIRECTION('',(1.,0.,4.46756347194377E-14));
#1499=DIRECTION('',(-2.71050543121376E-16,1.89735365120885E-14,1.));
#1500=DIRECTION('',(0.,1.,0.));
#1501=DIRECTION('',(-2.71050543121376E-16,0.,1.));
#1502=DIRECTION('',(0.,1.,0.));
#1503=DIRECTION('',(-2.71050543121376E-16,0.,1.));
#1504=DIRECTION('',(-1.,0.,-2.71050543121376E-16));
#1505=DIRECTION('',(-2.70616862252382E-16,0.,1.));
#1506=DIRECTION('',(0.,-1.,0.));
#1507=DIRECTION('',(7.45926206458071E-32,-1.,2.75198196568117E-16));
#1508=DIRECTION('',(0.,0.,-1.));
#1509=DIRECTION('',(0.,-1.,0.));
#1510=DIRECTION('',(1.09588529854304E-14,-1.89735365120885E-14,-1.));
#1511=DIRECTION('',(1.,0.,-2.71050543121361E-16));
#1512=DIRECTION('',(-2.70616862252382E-16,0.,-1.));
#1513=DIRECTION('',(-0.61964428857902,0.784882765533427,-3.5542558696885E-14));
#1514=DIRECTION('',(-1.50075373680466E-13,-7.31966504851628E-14,1.));
#1515=DIRECTION('',(-0.438371146789077,0.898794046299167,0.));
#1516=DIRECTION('',(0.50015322255244,0.865936922627976,0.));
#1517=DIRECTION('',(0.,-1.,0.));
#1518=DIRECTION('',(-1.,-2.15139494839522E-16,0.));
#1519=DIRECTION('',(0.,-1.,0.));
#1520=DIRECTION('',(-0.500153222552383,0.865936922628009,0.));
#1521=DIRECTION('',(-0.336982685132503,-0.941510844292772,-1.03903202457593E-14));
#1522=DIRECTION('',(-1.,0.,1.08888322589407E-16));
#1523=DIRECTION('',(-0.336981323170376,0.941511331760984,3.46344187511944E-15));
#1524=DIRECTION('',(0.,0.,-1.));
#1525=DIRECTION('',(-1.,0.,0.));
#1526=DIRECTION('',(0.,0.,1.));
#1527=DIRECTION('',(1.,0.,0.));
#1528=DIRECTION('',(0.,1.,0.));
#1529=DIRECTION('',(0.,0.,1.));
#1530=DIRECTION('',(-0.61964428857902,-0.784882765533427,0.));
#1531=DIRECTION('',(0.,0.,1.));
#1532=DIRECTION('',(-0.61964428857902,-0.784882765533427,0.));
#1533=DIRECTION('',(-0.784882765533427,0.61964428857902,0.));
#1534=DIRECTION('',(-0.61964428857902,-0.784882765533427,0.));
#1535=DIRECTION('',(-0.61964428857902,0.784882765533427,0.));
#1536=DIRECTION('',(-1.,0.,0.));
#1537=DIRECTION('',(1.,0.,0.));
#1538=DIRECTION('',(0.,0.,1.));
#1539=DIRECTION('',(-1.,0.,0.));
#1540=DIRECTION('',(-0.61964428857902,0.784882765533427,0.));
#1541=DIRECTION('',(0.,0.,1.));
#1542=DIRECTION('',(0.784882765533427,0.61964428857902,0.));
#1543=DIRECTION('',(-0.61964428857902,0.784882765533427,0.));
#1544=DIRECTION('',(-1.,0.,0.));
#1545=DIRECTION('',(0.,0.544639035015028,-0.838670567945424));
#1546=DIRECTION('',(0.,0.838670567945424,0.544639035015028));
#1547=DIRECTION('',(0.722180385674118,-0.633650598444682,-0.277384948471034));
#1548=DIRECTION('',(-0.311556108745266,0.870475977949357,0.381056902465523));
#1549=DIRECTION('',(-1.,0.,0.));
#1550=DIRECTION('',(0.,-0.401016387347258,0.916070879942679));
#1551=DIRECTION('',(0.,-0.916070879942679,-0.401016387347258));
#1552=DIRECTION('',(-1.,-1.96137076429532E-14,1.06326122184926E-28));
#1553=DIRECTION('',(-0.311557909221069,-0.870475437162267,-0.381056665732219));
#1554=DIRECTION('',(0.722180385674122,0.633650598444685,0.277384948471017));
#1555=DIRECTION('',(7.86541818146218E-15,-0.401016387347243,0.916070879942685));
#1556=DIRECTION('',(0.,-0.916070879942685,-0.401016387347243));
#1557=DIRECTION('',(0.28750113340776,0.803262146075669,-0.521644536989667));
#1558=DIRECTION('',(0.,0.,-1.));
#1559=DIRECTION('',(-0.941510844292775,0.336982685132496,0.));
#1560=DIRECTION('',(-0.336982685132496,-0.941510844292775,0.));
#1561=DIRECTION('',(0.287499930927221,-0.803262448796378,0.521644733578793));
#1562=DIRECTION('',(0.,0.,-1.));
#1563=DIRECTION('',(0.941511331760985,0.336981323170374,0.));
#1564=DIRECTION('',(-0.336981323170374,0.941511331760985,0.));
#1565=DIRECTION('',(1.,0.,0.));
#1566=DIRECTION('',(9.13214313486823E-17,0.544639035015026,0.838670567945424));
#1567=DIRECTION('',(0.,-0.838670567945425,0.544639035015026));
#1568=DIRECTION('',(0.,-1.,-5.42101086242752E-17));
#1569=DIRECTION('',(1.,0.,0.));
#1570=DIRECTION('',(-1.1938199164934E-22,1.,5.42101086242752E-17));
#1571=DIRECTION('',(0.,-5.42101086242752E-17,1.));
#1572=DIRECTION('',(0.,-1.,-5.42101086242752E-17));
#1573=DIRECTION('',(-0.684781248589876,-0.684781248589876,0.249297579529726));
#1574=DIRECTION('',(-1.,0.,0.));
#1575=DIRECTION('',(-0.684781248589876,0.684781248589876,-0.249297579529726));
#1576=DIRECTION('',(-1.,0.,0.));
#1577=DIRECTION('',(0.,-0.342089921632202,-0.939667220625299));
#1578=DIRECTION('',(0.,0.939667220625299,-0.342089921632202));
#1579=DIRECTION('',(-1.,0.,0.));
#1580=DIRECTION('',(0.,0.,-1.));
#1581=DIRECTION('',(0.707106781186549,-0.707106781186549,0.));
#1582=DIRECTION('',(-0.707106781186548,-0.707106781186548,0.));
#1583=DIRECTION('',(0.707106781186549,0.707106781186549,0.));
#1584=DIRECTION('',(-0.707106781186548,0.707106781186548,0.));
#1585=DIRECTION('',(0.999999999997575,0.,2.20220904695978E-6));
#1586=DIRECTION('',(-2.2022090468949E-6,0.,0.999999999997575));
#1587=DIRECTION('',(-1.,0.,0.));
#1588=DIRECTION('',(0.,0.,1.));
#1589=DIRECTION('',(-1.,0.,0.));
#1590=DIRECTION('',(0.,0.,-1.));
#1591=DIRECTION('',(0.,0.,1.));
#1592=DIRECTION('',(0.,1.,-5.42101086242747E-15));
#1593=DIRECTION('',(1.,0.,0.));
#1594=DIRECTION('',(0.,0.,-1.));
#1595=DIRECTION('',(0.999999999997575,0.,2.20220904695978E-6));
#1596=DIRECTION('',(-2.2022090468949E-6,0.,0.999999999997575));
#1597=DIRECTION('',(-1.19381991649339E-20,-1.,5.42101086242747E-15));
#1598=DIRECTION('',(2.20220904695443E-6,-2.20220904695443E-6,-0.99999999999515));
#1599=DIRECTION('',(-0.999999999997575,0.,-2.20220904695978E-6));
#1600=DIRECTION('',(-2.20220904695962E-6,0.,0.999999999997575));
#1601=DIRECTION('',(-0.707106781186549,0.707106781186549,0.));
#1602=DIRECTION('',(-0.707106781186548,-0.707106781186548,0.));
#1603=DIRECTION('',(-0.707106781186549,-0.707106781186549,0.));
#1604=DIRECTION('',(-0.707106781186548,0.707106781186548,0.));
#1605=DIRECTION('',(-1.,0.,0.));
#1606=DIRECTION('',(-1.,0.,0.));
#1607=DIRECTION('',(0.,0.,1.));
#1608=DIRECTION('',(0.684781248589877,-0.684781248589877,-0.249297579529719));
#1609=DIRECTION('',(1.,0.,0.));
#1610=DIRECTION('',(0.684781248589877,0.684781248589877,0.249297579529719));
#1611=DIRECTION('',(0.,-0.342089921632194,0.939667220625302));
#1612=DIRECTION('',(0.,-0.939667220625302,-0.342089921632194));
#1613=DIRECTION('',(-3.66726145159988E-14,3.66726145159988E-14,1.));
#1614=DIRECTION('',(-3.66726145159988E-14,-3.66726145159988E-14,-1.));
#1615=DIRECTION('',(0.,-1.,3.66726145159988E-14));
#1616=DIRECTION('',(0.,-3.66720542821497E-14,-1.));
#1617=DIRECTION('',(0.,-5.42101086242747E-15,-1.));
#1618=DIRECTION('',(0.,1.,-5.42101086242752E-15));
#1619=DIRECTION('',(0.707106781186548,-0.707106781186548,0.));
#1620=DIRECTION('',(0.707106781186548,0.707106781186548,0.));
#1621=DIRECTION('',(-0.707106781186548,-0.707106781186548,0.));
#1622=DIRECTION('',(0.707106781186548,-0.707106781186548,0.));
#1623=DIRECTION('',(-0.65953135973613,0.751677048688206,0.));
#1624=DIRECTION('',(-0.751677048688206,-0.65953135973613,0.));
#1625=DIRECTION('',(0.65953135973613,0.751677048688206,0.));
#1626=DIRECTION('',(-0.751677048688206,0.65953135973613,0.));
#1627=DIRECTION('',(-1.,0.,0.));
#1628=DIRECTION('',(0.,1.,0.));
#1629=DIRECTION('',(0.,0.,1.));
#1630=DIRECTION('',(0.,0.,1.));
#1631=DIRECTION('',(-1.,0.,0.));
#1632=DIRECTION('',(-2.15139494839522E-16,1.,7.81547992077208E-16));
#1633=DIRECTION('',(0.,0.,1.));
#1634=DIRECTION('',(-0.049890876741314,-7.91308208680291E-16,0.998754674791554));
#1635=DIRECTION('',(-2.15139494839522E-16,1.,7.81547992077208E-16));
#1636=DIRECTION('',(0.,0.,1.));
#1637=DIRECTION('',(1.,2.15139494839522E-16,0.));
#1638=DIRECTION('',(-2.15139494839522E-16,1.,7.81547992077208E-16));
#1639=DIRECTION('',(0.,0.,1.));
#1640=DIRECTION('',(1.20784689684514E-16,7.81547992077208E-16,-1.));
#1641=DIRECTION('',(-2.15139494839522E-16,1.,7.81547992077208E-16));
#1642=DIRECTION('',(0.,0.,1.));
#1643=DIRECTION('',(1.,2.15139494839522E-16,0.));
#1644=DIRECTION('',(-2.15139494839522E-16,1.,7.81547992077208E-16));
#1645=DIRECTION('',(-0.265401676597091,-8.11850586757146E-16,0.964137931034483));
#1646=DIRECTION('',(0.,0.,1.));
#1647=DIRECTION('',(0.50015322255244,0.865936922627976,0.));
#1648=DIRECTION('',(-0.865936922627976,0.50015322255244,0.));
#1649=DIRECTION('',(-0.50015322255244,-0.865936922627976,0.));
#1650=DIRECTION('',(-0.500153222552383,0.865936922628009,0.));
#1651=DIRECTION('',(0.,-1.,0.));
#1652=DIRECTION('',(-1.,-2.15139494839522E-16,4.69395261468048E-17));
#1653=DIRECTION('',(0.,-1.,0.));
#1654=DIRECTION('',(0.,0.,1.));
#1655=DIRECTION('',(1.,0.,0.));
#1656=DIRECTION('',(0.,0.,-1.));
#1657=DIRECTION('',(0.865936922628009,0.500153222552383,0.));
#1658=DIRECTION('',(-0.500153222552383,0.865936922628009,0.));
#1659=DIRECTION('',(0.,1.,0.));
#1660=DIRECTION('',(1.,0.,0.));
#1661=DIRECTION('',(0.,-1.,0.));
#1662=DIRECTION('',(0.,-1.,0.));
#1663=DIRECTION('',(0.,0.,-1.));
#1664=DIRECTION('',(0.,1.,0.));
#1665=DIRECTION('',(1.,0.,0.));
#1666=DIRECTION('',(0.,-1.,0.));
#1667=DIRECTION('',(0.,-1.,0.));
#1668=DIRECTION('',(0.,0.,-1.));
#1669=DIRECTION('',(1.,0.,0.));
#1670=DIRECTION('',(0.,0.,-1.));
#1671=DIRECTION('',(-1.,0.,0.));
#1672=DIRECTION('',(0.,1.,0.));
#1673=DIRECTION('',(0.,0.,1.));
#1674=DIRECTION('',(1.,0.,0.));
#1675=DIRECTION('',(0.,1.,0.));
#1676=DIRECTION('',(0.,0.,1.));
#1677=DIRECTION('',(0.,1.,0.));
#1678=DIRECTION('',(0.,0.,1.));
#1679=DIRECTION('',(0.,-1.,0.));
#1680=DIRECTION('',(0.,-1.,0.));
#1681=DIRECTION('',(0.,0.,-1.));
#1682=DIRECTION('',(0.,-1.,0.));
#1683=DIRECTION('',(0.,-1.,0.));
#1684=DIRECTION('',(0.,0.,-1.));
#1685=DIRECTION('',(0.,0.,-1.));
#1686=DIRECTION('',(-1.,0.,0.));
#1687=DIRECTION('',(-0.0498908767413127,-8.70634764373112E-15,0.998754674791554));
#1688=DIRECTION('',(0.,1.,0.));
#1689=DIRECTION('',(-0.678280102733066,0.,0.734803444627488));
#1690=DIRECTION('',(-1.0112430323495E-13,0.,-1.));
#1691=DIRECTION('',(0.,1.,0.));
#1692=DIRECTION('',(-0.9989685402103,0.,-0.0454076609186501));
#1693=DIRECTION('',(1.,0.,0.));
#1694=DIRECTION('',(0.,1.,0.));
#1695=DIRECTION('',(0.678280102733066,0.,-0.734803444627488));
#1696=DIRECTION('',(-6.18748704070425E-13,0.,1.));
#1697=DIRECTION('',(0.,1.,0.));
#1698=DIRECTION('',(0.678280102733066,0.,0.734803444627488));
#1699=DIRECTION('',(1.34720416133258E-15,8.71720339686839E-15,-1.));
#1700=DIRECTION('',(0.,1.,0.));
#1701=DIRECTION('',(0.,0.,1.));
#1702=DIRECTION('',(-6.18748704070425E-13,0.,1.));
#1703=DIRECTION('',(0.,1.,0.));
#1704=DIRECTION('',(0.,0.,1.));
#1705=DIRECTION('',(1.,0.,0.));
#1706=DIRECTION('',(0.,1.,0.));
#1707=DIRECTION('',(0.,0.,1.));
#1708=DIRECTION('',(-1.0112430323495E-13,0.,-1.));
#1709=DIRECTION('',(0.,1.,0.));
#1710=DIRECTION('',(0.,0.,1.));
#1711=DIRECTION('',(0.,1.,0.));
#1712=DIRECTION('',(0.,0.,1.));
#1713=DIRECTION('',(0.999781272680269,-0.0209142725864634,0.));
#1714=DIRECTION('',(0.999781272680269,0.0209142725864634,0.));
#1715=DIRECTION('',(0.,-1.,0.));
#1716=DIRECTION('',(0.,-1.,0.));
#1717=DIRECTION('',(0.,0.,-1.));
#1718=DIRECTION('',(-1.,0.,0.));
#1719=DIRECTION('',(-1.,0.,0.));
#1720=DIRECTION('',(0.,-1.,0.));
#1721=DIRECTION('',(-0.999781272680269,-0.0209142725864634,0.));
#1722=DIRECTION('',(-0.999781272680269,0.0209142725864634,0.));
#1723=DIRECTION('',(0.,-1.,0.));
#1724=DIRECTION('',(0.,0.,1.));
#1725=DIRECTION('',(1.,0.,0.));
#1726=DIRECTION('',(-0.999781272680269,0.0209142725864634,0.));
#1727=DIRECTION('',(0.0208798302415347,0.998134798421867,0.0573668621106623));
#1728=DIRECTION('',(0.341382206814586,-0.0610485395348574,0.937939904626658));
#1729=DIRECTION('',(-1.00957695551612E-13,0.0573793712392964,-0.998352446662091));
#1730=DIRECTION('',(0.0208798302415347,0.998134798421867,0.0573668621106623));
#1731=DIRECTION('',(0.341382206814586,-0.0610485395348574,0.937939904626658));
#1732=DIRECTION('',(0.999781272680269,-0.0209142725864634,0.));
#1733=DIRECTION('',(6.55568059801581E-17,-0.0573793712392943,0.998352446662091));
#1734=DIRECTION('',(0.0208798302415347,0.998134798421867,0.0573668621106623));
#1735=DIRECTION('',(0.341382206814586,-0.0610485395348574,0.937939904626658));
#1736=DIRECTION('',(-1.00957695551612E-13,0.0573793712392964,-0.998352446662091));
#1737=DIRECTION('',(0.0208798302415347,0.998134798421867,0.0573668621106623));
#1738=DIRECTION('',(0.341382206814586,-0.0610485395348574,0.937939904626658));
#1739=DIRECTION('',(6.55568059801581E-17,-0.0573793712392943,0.998352446662091));
#1740=DIRECTION('',(-0.0208798302415348,-0.998134798421867,-0.0573668621106623));
#1741=DIRECTION('',(-0.341382206814586,0.0610485395348575,-0.937939904626658));
#1742=DIRECTION('',(0.,-1.,0.));
#1743=DIRECTION('',(0.,-1.,0.));
#1744=DIRECTION('',(0.,0.,-1.));
#1745=DIRECTION('',(0.,-1.,0.));
#1746=DIRECTION('',(-1.,0.,1.0112430323495E-13));
#1747=DIRECTION('',(1.01124403989461E-13,0.,1.));
#1748=DIRECTION('',(0.,-1.,0.));
#1749=DIRECTION('',(0.,0.,-1.));
#1750=DIRECTION('',(0.,-1.,0.));
#1751=DIRECTION('',(-0.0208798302415347,0.998134798421867,0.0573668621106623));
#1752=DIRECTION('',(-0.341382206814586,-0.0610485395348574,0.937939904626658));
#1753=DIRECTION('',(0.,-1.,0.));
#1754=DIRECTION('',(0.,0.,-1.));
#1755=DIRECTION('',(0.,-1.,0.));
#1756=DIRECTION('',(-6.17729427492226E-13,-0.0573793712393072,0.99835244666209));
#1757=DIRECTION('',(1.,0.,6.18748704070425E-13));
#1758=DIRECTION('',(6.1874854198618E-13,0.,-1.));
#1759=DIRECTION('',(-0.0208798302415347,0.998134798421867,0.0573668621106623));
#1760=DIRECTION('',(-0.341382206814586,-0.0610485395348574,0.937939904626658));
#1761=DIRECTION('',(0.,-1.,0.));
#1762=DIRECTION('',(0.,0.,-1.));
#1763=DIRECTION('',(-0.999781272680269,-0.0209142725864634,0.));
#1764=DIRECTION('',(0.999781272680269,0.0209142725864634,0.));
#1765=DIRECTION('',(-0.0208798302415347,0.998134798421867,0.0573668621106623));
#1766=DIRECTION('',(-0.341382206814586,-0.0610485395348574,0.937939904626658));
#1767=DIRECTION('',(-6.17729427492226E-13,-0.0573793712393072,0.99835244666209));
#1768=DIRECTION('',(-0.0208798302415347,0.998134798421867,0.0573668621106623));
#1769=DIRECTION('',(-0.341382206814586,-0.0610485395348574,0.937939904626658));
#1770=DIRECTION('',(0.0208798302415348,-0.998134798421867,-0.0573668621106623));
#1771=DIRECTION('',(0.341382206814586,0.0610485395348575,-0.937939904626658));
#1772=DIRECTION('',(0.,-1.,0.));
#1773=DIRECTION('',(0.,-1.,0.));
#1774=DIRECTION('',(0.,0.,-1.));
#1775=DIRECTION('',(-1.,0.,0.));
#1776=DIRECTION('',(-1.,0.,0.));
#1777=DIRECTION('',(0.,-1.,0.));
#1778=DIRECTION('',(0.,-1.,0.));
#1779=DIRECTION('',(0.,0.,1.));
#1780=DIRECTION('',(1.,0.,0.));
#1781=DIRECTION('',(0.,-1.,0.));
#1782=DIRECTION('',(0.,-1.,0.));
#1783=DIRECTION('',(0.,0.,-1.));
#1784=DIRECTION('',(0.,-1.,0.));
#1785=DIRECTION('',(-1.,0.,1.0112430323495E-13));
#1786=DIRECTION('',(1.01124403989461E-13,0.,1.));
#1787=DIRECTION('',(0.,-1.,0.));
#1788=DIRECTION('',(0.,0.,-1.));
#1789=DIRECTION('',(0.,-1.,0.));
#1790=DIRECTION('',(0.,-1.,0.));
#1791=DIRECTION('',(0.,0.,-1.));
#1792=DIRECTION('',(0.,-1.,0.));
#1793=DIRECTION('',(1.,0.,6.18748704070425E-13));
#1794=DIRECTION('',(6.1874854198618E-13,0.,-1.));
#1795=DIRECTION('',(0.,-1.,0.));
#1796=DIRECTION('',(0.,0.,-1.));
#1797=DIRECTION('',(-0.149300980830589,0.966065170080295,-0.210777855290246));
#1798=DIRECTION('',(-0.149300980830589,0.966065170080295,-0.210777855290246));
#1799=DIRECTION('',(-0.985392837976119,-0.163027637529421,-0.0492234117767716));
#1800=DIRECTION('',(0.163225500600356,-0.986588787668785,0.));
#1801=DIRECTION('',(0.149300980830415,0.96606517008032,-0.210777855290251));
#1802=DIRECTION('',(0.,-0.213167075216725,-0.977015761409992));
#1803=DIRECTION('',(0.,0.977015761409992,-0.213167075216725));
#1804=DIRECTION('',(0.149300980830415,0.96606517008032,-0.210777855290251));
#1805=DIRECTION('',(0.988267602905219,-0.15273226590335,0.));
#1806=DIRECTION('',(0.15273226590335,0.988267602905219,0.));
#1807=DIRECTION('',(0.,0.213167075216725,0.977015761409992));
#1808=DIRECTION('',(0.,-0.977015761409992,0.213167075216725));
#1809=CARTESIAN_POINT('',(0.,0.,0.));
#1810=CARTESIAN_POINT('',(-3.67499974954597,11.6640877061468,-1.702));
#1811=CARTESIAN_POINT('',(-4.025,11.6640877061468,-1.702));
#1812=CARTESIAN_POINT('',(4.025,11.6640877061468,-1.702));
#1813=CARTESIAN_POINT('',(-4.025,11.6640877061468,-1.6));
#1814=CARTESIAN_POINT('',(-4.025,11.6640877061469,1.6));
#1815=CARTESIAN_POINT('',(-4.025,11.6640877061469,1.59999999999983));
#1816=CARTESIAN_POINT('',(-2.59131578955417,11.6640877061469,1.59999999999964));
#1817=CARTESIAN_POINT('',(-2.5913157895542,11.6640877061469,-1.27032349329696E-7));
#1818=CARTESIAN_POINT('',(-2.59131578947362,11.6640877061469,1.702));
#1819=CARTESIAN_POINT('',(-0.565000000000046,11.6640877061469,1.702));
#1820=CARTESIAN_POINT('',(2.59131578955418,11.6640877061469,1.702));
#1821=CARTESIAN_POINT('',(2.59131578955421,11.6640877061469,-1.27032239233261E-7));
#1822=CARTESIAN_POINT('',(2.59131578955419,11.6640877061469,1.60000000000042));
#1823=CARTESIAN_POINT('',(3.53621617133018,11.6640877061469,1.60000000000056));
#1824=CARTESIAN_POINT('',(4.025,11.6640877061469,1.60000000000018));
#1825=CARTESIAN_POINT('',(4.025,11.6640877061469,1.60000000000018));
#1826=CARTESIAN_POINT('',(-3.67499974954597,11.6640877061469,-1.27032333097077E-7));
#1827=CARTESIAN_POINT('',(-3.52500000000048,11.0640877062489,1.59999999999946));
#1828=CARTESIAN_POINT('',(3.065,11.0640877062489,1.60000000000045));
#1829=CARTESIAN_POINT('',(4.025,11.0640877062489,1.60000000000018));
#1830=CARTESIAN_POINT('',(3.065,11.0640877062489,1.702));
#1831=CARTESIAN_POINT('',(3.065,11.0640877062489,2.1));
#1832=CARTESIAN_POINT('',(0.0650000000000035,11.0640877062489,2.1));
#1833=CARTESIAN_POINT('',(4.025,11.0640877062489,2.1));
#1834=CARTESIAN_POINT('',(4.025,11.0640877062489,-1.5999999999997));
#1835=CARTESIAN_POINT('',(-3.525,11.0640877062489,-1.5999999999997));
#1836=CARTESIAN_POINT('',(-0.926443178363408,1.79458327744836,0.277831988131557));
#1837=CARTESIAN_POINT('',(-2.87521132040267,3.50445815625783,1.3882377178481));
#1838=CARTESIAN_POINT('',(-3.42654104264841,3.98820212849996,1.70226431665241));
#1839=CARTESIAN_POINT('',(-0.953713974036744,1.6380762370061,0.571216075684991));
#1840=CARTESIAN_POINT('',(-0.568681327712304,1.26408770624871,0.407499999999863));
#1841=CARTESIAN_POINT('',(-0.926242893464884,1.57781694151238,0.61123814758817));
#1842=CARTESIAN_POINT('',(-3.5390281046905,3.87030915750505,2.1));
#1843=CARTESIAN_POINT('',(-1.50393538140316,1.33164321160097,2.1));
#1844=CARTESIAN_POINT('',(-3.63353566594942,3.98820212849996,2.1));
#1845=CARTESIAN_POINT('',(-3.22049753522937,3.98820212849996,1.30659644845955));
#1846=CARTESIAN_POINT('',(-0.926443178363408,1.79458327744836,0.277831988131558));
#1847=CARTESIAN_POINT('',(0.953713974036752,1.63807623700608,0.571216075685039));
#1848=CARTESIAN_POINT('',(0.568681327712407,1.26408770624879,0.407499999999968));
#1849=CARTESIAN_POINT('',(2.87521132040268,3.50445815625785,1.38823771784811));
#1850=CARTESIAN_POINT('',(0.926443178363408,1.79458327744836,0.277831988131557));
#1851=CARTESIAN_POINT('',(3.42654104264841,3.98820212849996,1.70226431665241));
#1852=CARTESIAN_POINT('',(2.30997584681701,3.98820212849996,-0.442421590338925));
#1853=CARTESIAN_POINT('',(3.63353566594942,3.98820212849996,2.1));
#1854=CARTESIAN_POINT('',(1.50393538140316,1.33164321160097,2.1));
#1855=CARTESIAN_POINT('',(3.5390281046905,3.87030915750505,2.1));
#1856=CARTESIAN_POINT('',(0.926443178363408,1.57799267412477,0.611352269681025));
#1857=CARTESIAN_POINT('',(0.926443178363408,1.79458327744836,0.277831988131558));
#1858=CARTESIAN_POINT('',(3.42654104264841,3.98820212849996,0.0278319881315568));
#1859=CARTESIAN_POINT('',(3.42654104264841,3.98820212849996,1.6));
#1860=CARTESIAN_POINT('',(-27.9049827679311,3.98820212850001,1.6));
#1861=CARTESIAN_POINT('',(3.627,3.98820212849999,1.6));
#1862=CARTESIAN_POINT('',(3.826,3.98820212849998,1.6));
#1863=CARTESIAN_POINT('',(4.025,3.98820212849998,1.6));
#1864=CARTESIAN_POINT('',(4.025,3.98820212849993,1.60000000000018));
#1865=CARTESIAN_POINT('',(4.025,3.98820212849996,2.1));
#1866=CARTESIAN_POINT('',(2.55,3.98820212849996,2.1));
#1867=CARTESIAN_POINT('',(3.525,3.98820212849996,-1.5999999999997));
#1868=CARTESIAN_POINT('',(-3.04999952822042,3.98820212850007,1.60000000000004));
#1869=CARTESIAN_POINT('',(-3.627,3.98820212850007,1.6));
#1870=CARTESIAN_POINT('',(-3.42654104264853,3.98820212849996,1.6));
#1871=CARTESIAN_POINT('',(-3.42654104264841,3.98820212849996,1.45238472658567));
#1872=CARTESIAN_POINT('',(2.55,3.98820212849996,2.1));
#1873=CARTESIAN_POINT('',(-4.025,3.98820212849996,2.1));
#1874=CARTESIAN_POINT('',(-4.025,3.9882021285,-1.6));
#1875=CARTESIAN_POINT('',(-4.025,3.98820212849998,1.6));
#1876=CARTESIAN_POINT('',(-3.826,3.98820212850007,1.6));
#1877=CARTESIAN_POINT('',(3.525,3.98820212849996,-1.5999999999997));
#1878=CARTESIAN_POINT('',(-4.025,11.5640877062489,1.6));
#1879=CARTESIAN_POINT('',(-4.025,11.0640877062489,1.59999999999983));
#1880=CARTESIAN_POINT('',(-3.52500000000014,11.0640877062489,1.59999999999985));
#1881=CARTESIAN_POINT('',(-3.065,11.0640877062489,1.59999999999952));
#1882=CARTESIAN_POINT('',(0.248801905481262,15.2615701198585,1.60000000000033));
#1883=CARTESIAN_POINT('',(-4.025,11.5640877062489,1.59999999999983));
#1884=CARTESIAN_POINT('',(-4.025,11.6640877061468,-1.6));
#1885=CARTESIAN_POINT('',(-4.025,11.6640877061468,-2.1));
#1886=CARTESIAN_POINT('',(-4.025,11.5640877062489,-2.1));
#1887=CARTESIAN_POINT('',(-4.025,3.98820212849996,-2.1));
#1888=CARTESIAN_POINT('',(-4.025,3.9882021285,-1.6));
#1889=CARTESIAN_POINT('',(-4.025,11.5640877062489,2.1));
#1890=CARTESIAN_POINT('',(-4.025,11.0640877062489,2.1));
#1891=CARTESIAN_POINT('',(-4.025,11.0640877062489,-1.5999999999997));
#1892=CARTESIAN_POINT('',(-4.025,11.5640877062489,-1.6));
#1893=CARTESIAN_POINT('',(4.025,11.5640877062489,1.60000000000018));
#1894=CARTESIAN_POINT('',(4.025,5.56408770624887,2.1));
#1895=CARTESIAN_POINT('',(4.025,3.98820212849996,0.2));
#1896=CARTESIAN_POINT('',(4.025,3.98820212849996,-2.1));
#1897=CARTESIAN_POINT('',(4.025,11.5640877062489,-2.1));
#1898=CARTESIAN_POINT('',(4.025,11.6640877061468,-2.1));
#1899=CARTESIAN_POINT('',(4.025,11.6640877061469,-1.27032248713912E-7));
#1900=CARTESIAN_POINT('',(4.025,11.5640877062488,1.60000000000018));
#1901=CARTESIAN_POINT('',(2.46672245816819,11.8219059259025,1.60000000000042));
#1902=CARTESIAN_POINT('',(3.53621617133018,12.6662430678725,1.60000000000063));
#1903=CARTESIAN_POINT('',(-0.449758611087994,17.8540578720234,-2.1));
#1904=CARTESIAN_POINT('',(-0.674999999999492,17.4640877061468,-2.1));
#1905=CARTESIAN_POINT('',(-0.674999999999491,18.1640877061469,-2.1));
#1906=CARTESIAN_POINT('',(-0.674999999999491,21.2140877061468,-2.1));
#1907=CARTESIAN_POINT('',(0.674999999999983,21.2140877061468,-2.1));
#1908=CARTESIAN_POINT('',(0.675,21.2140877061468,-2.1));
#1909=CARTESIAN_POINT('',(0.675,18.1640877061469,-2.1));
#1910=CARTESIAN_POINT('',(0.675,17.4640877061468,-2.1));
#1911=CARTESIAN_POINT('',(0.900068950148574,17.0744160909642,-2.1));
#1912=CARTESIAN_POINT('',(4.025,3.98820212849996,-2.1));
#1913=CARTESIAN_POINT('',(3.98280410797716,3.87030915750506,-2.1));
#1914=CARTESIAN_POINT('',(3.98280410797716,3.87030915750506,-2.1));
#1915=CARTESIAN_POINT('',(-3.98280430036456,3.87030915750506,-2.1));
#1916=CARTESIAN_POINT('',(-3.98280430036456,3.87030915750506,-2.1));
#1917=CARTESIAN_POINT('',(3.525,11.5640877062489,-2.1));
#1918=CARTESIAN_POINT('',(-3.065,11.0640877062489,1.702));
#1919=CARTESIAN_POINT('',(-3.065,11.0640877062489,2.1));
#1920=CARTESIAN_POINT('',(-3.525,11.0640877062489,2.1));
#1921=CARTESIAN_POINT('',(-3.525,11.0640877062489,-1.5999999999997));
#1922=CARTESIAN_POINT('',(-1.565,12.9640877062489,2.1));
#1923=CARTESIAN_POINT('',(-1.565,12.9640877061468,2.1));
#1924=CARTESIAN_POINT('',(-1.565,12.9640877061468,1.702));
#1925=CARTESIAN_POINT('',(-1.565,12.9640877061468,1.702));
#1926=CARTESIAN_POINT('',(-1.565,12.9640877061468,1.702));
#1927=CARTESIAN_POINT('',(-1.565,12.9640877062489,1.702));
#1928=CARTESIAN_POINT('',(3.065,11.0640877062489,2.1));
#1929=CARTESIAN_POINT('',(1.565,12.9640877061468,2.1));
#1930=CARTESIAN_POINT('',(-0.065000000000008,12.9640877061468,2.1));
#1931=CARTESIAN_POINT('',(0.000200284898524194,3.87030915750505,2.1));
#1932=CARTESIAN_POINT('',(-0.565000000000047,1.61508770624886,2.1));
#1933=CARTESIAN_POINT('',(3.065,11.0640877061468,1.702));
#1934=CARTESIAN_POINT('',(1.565,12.9640877061468,1.702));
#1935=CARTESIAN_POINT('',(1.565,12.9640877061468,1.702));
#1936=CARTESIAN_POINT('',(3.065,11.0640877062489,1.702));
#1937=CARTESIAN_POINT('',(2.55,1.26408770624876,0.40749999999993));
#1938=CARTESIAN_POINT('',(0.000200284898524194,0.159972511650702,-0.3095207911368));
#1939=CARTESIAN_POINT('',(-0.803866940531363,1.68703326917048,0.592647356390074));
#1940=CARTESIAN_POINT('',(-3.04999952822042,1.26408770624887,0.40749999999993));
#1941=CARTESIAN_POINT('',(-3.04999863082024,1.26409021354641,0.407499999999931));
#1942=CARTESIAN_POINT('',(-3.04999952822042,1.26408770624886,0.40749999999993));
#1943=CARTESIAN_POINT('',(-3.04999952822042,1.26408770624887,0.40749999999993));
#1944=CARTESIAN_POINT('',(0.4,1.26408770624871,0.40749999999993));
#1945=CARTESIAN_POINT('',(3.04999328798714,1.26408770624881,0.40749999999993));
#1946=CARTESIAN_POINT('',(4.025,3.98820212849999,1.6));
#1947=CARTESIAN_POINT('',(-16.0827333458603,-13.1294926147057,-5.89338971026192));
#1948=CARTESIAN_POINT('',(0.4,1.26408770624887,0.4075));
#1949=CARTESIAN_POINT('',(3.04999328798716,1.26408770624887,-0.4075));
#1950=CARTESIAN_POINT('',(3.04999328798716,1.26408770624887,-0.4075));
#1951=CARTESIAN_POINT('',(3.04999328798716,1.26408770624887,1.8925));
#1952=CARTESIAN_POINT('',(3.04999328798716,1.26408770624887,1.8925));
#1953=CARTESIAN_POINT('',(-3.98280430036456,3.87030915750506,-2.1));
#1954=CARTESIAN_POINT('',(-3.04999773342005,1.26408770624887,-0.4075));
#1955=CARTESIAN_POINT('',(-3.04999773342005,1.26408770624887,1.8925));
#1956=CARTESIAN_POINT('',(-3.98280430036456,3.87030915750506,0.2));
#1957=CARTESIAN_POINT('',(-3.04999773342005,1.26408770624887,-0.4075));
#1958=CARTESIAN_POINT('',(3.36907731901707E-17,0.160148244263085,0.309406669043943));
#1959=CARTESIAN_POINT('',(3.04999328798716,-11.7359122937511,-0.4075));
#1960=CARTESIAN_POINT('',(3.04999328798716,-11.7359122937512,-0.4075));
#1961=CARTESIAN_POINT('',(2.75198539455466,-11.7359122937512,-0.4075));
#1962=CARTESIAN_POINT('',(-3.04999773342005,-11.7359122937512,-0.4075));
#1963=CARTESIAN_POINT('',(-3.04999773342005,-11.7359122937511,-0.4075));
#1964=CARTESIAN_POINT('',(2.55,-11.7359122937511,-0.4075));
#1965=CARTESIAN_POINT('',(2.58220701426239,-12.5037052794887,-0.259605041495323));
#1966=CARTESIAN_POINT('',(2.64871566065398,-12.4371966330972,-0.283817802281874));
#1967=CARTESIAN_POINT('',(2.45,-12.6359122937511,-0.211474505327262));
#1968=CARTESIAN_POINT('',(-2.38786796564404,-12.6359122937511,-0.211474505327262));
#1969=CARTESIAN_POINT('',(-2.45,-12.6359122937511,-0.211474505327262));
#1970=CARTESIAN_POINT('',(-2.01949658415802,-13.0664157095931,-0.0547478721583637));
#1971=CARTESIAN_POINT('',(-2.64871566065398,-12.4371966330972,-0.283817802281874));
#1972=CARTESIAN_POINT('',(-2.43779337646664,-12.4371966330972,-0.283817802281862));
#1973=CARTESIAN_POINT('',(-2.43779337646664,-12.6481189172845,-0.207030631159614));
#1974=CARTESIAN_POINT('',(3.04999328798716,-11.7359122937512,1.6425));
#1975=CARTESIAN_POINT('',(3.04999328798716,-12.035919005764,-0.385428986120387));
#1976=CARTESIAN_POINT('',(3.34999999999997,-11.7359122937512,1.6425));
#1977=CARTESIAN_POINT('',(-3.34999999999997,-11.7359122937512,1.6425));
#1978=CARTESIAN_POINT('',(-3.04999778202356,-12.0359145117276,-0.385429650951738));
#1979=CARTESIAN_POINT('',(-3.05000224794859,-11.7359122937512,1.6425));
#1980=CARTESIAN_POINT('',(-2.43779337646664,-11.7359122937512,1.6425));
#1981=CARTESIAN_POINT('',(3.04999328798716,-11.7359122937511,-1.6425));
#1982=CARTESIAN_POINT('',(3.04999328798716,-12.035919005764,0.38542898612038));
#1983=CARTESIAN_POINT('',(3.04999328798716,-11.7760494128008,0.407297226472868));
#1984=CARTESIAN_POINT('',(3.04999328798716,-12.035919005764,2.3103025));
#1985=CARTESIAN_POINT('',(3.04999328798716,-11.6566950898532,0.4075));
#1986=CARTESIAN_POINT('',(3.04999328798716,1.26408770624887,-0.4075));
#1987=CARTESIAN_POINT('',(-3.04999501369187,-11.7359122937511,-1.6425));
#1988=CARTESIAN_POINT('',(-3.04999952780137,-11.7760494128007,0.407297226472868));
#1989=CARTESIAN_POINT('',(-3.04999947961745,-12.0359128141337,0.385429902084927));
#1990=CARTESIAN_POINT('',(-3.04999952822041,-11.6566950898532,0.4075));
#1991=CARTESIAN_POINT('',(-3.05000371858348,-12.0359085751677,2.31029985733277));
#1992=CARTESIAN_POINT('',(-3.04999952850183,1.26408770624887,0.407627784944468));
#1993=CARTESIAN_POINT('',(3.35,-11.7359122937511,-1.6425));
#1994=CARTESIAN_POINT('',(2.64871566065402,-12.4371966330971,0.283817802281867));
#1995=CARTESIAN_POINT('',(3.04999328798716,-11.7766870218811,0.407094452945736));
#1996=CARTESIAN_POINT('',(1.0166623492513,-11.7766870218811,0.407094452945736));
#1997=CARTESIAN_POINT('',(-1.01666858948456,-11.7766870218811,0.407094452945736));
#1998=CARTESIAN_POINT('',(-3.04999952822042,-11.7766870218811,0.407094452945736));
#1999=CARTESIAN_POINT('',(-3.35,-11.7359122937511,-1.6425));
#2000=CARTESIAN_POINT('',(-2.64871566065402,-12.4371966330971,0.283817802281869));
#2001=CARTESIAN_POINT('',(2.55,-12.4371966330971,0.28381780228187));
#2002=CARTESIAN_POINT('',(2.55,-11.7359122937511,-1.6425));
#2003=CARTESIAN_POINT('',(-2.80829996826151,-12.2776123254896,0.341915160670987));
#2004=CARTESIAN_POINT('',(-2.45,-12.6359122937511,0.211474505327249));
#2005=CARTESIAN_POINT('',(-2.38786796564404,-12.6359122937511,0.211474505327249));
#2006=CARTESIAN_POINT('',(2.45,-12.6359122937511,0.211474505327248));
#2007=CARTESIAN_POINT('',(3.37101039836589,-11.7149018953852,0.546772330007942));
#2008=CARTESIAN_POINT('',(-2.648715660654,-12.4371966330971,0.28381780228186));
#2009=CARTESIAN_POINT('',(-2.45000000000009,-12.635912293751,2.3103025));
#2010=CARTESIAN_POINT('',(2.45000000000009,-12.635912293751,2.31030250000005));
#2011=CARTESIAN_POINT('',(-2.38786796564404,-12.6359122937511,0.283817802281866));
#2012=CARTESIAN_POINT('',(2.55,-11.6566950898532,0.4075));
#2013=CARTESIAN_POINT('',(3.05,-12.0359122937511,2.3103025));
#2014=CARTESIAN_POINT('',(-2.45,-12.6359122937511,2.3103025));
#2015=CARTESIAN_POINT('',(0.926443178363408,1.79458327744836,0.0278319881315568));
#2016=CARTESIAN_POINT('',(-0.926443178363408,1.79458327744836,0.0278319881315568));
#2017=CARTESIAN_POINT('',(-0.065000000000008,12.9640877061468,1.702));
#2018=CARTESIAN_POINT('',(-0.065000000000008,12.9640877061468,1.702));
#2019=CARTESIAN_POINT('',(-0.565000000000046,1.61508770614683,1.702));
#2020=CARTESIAN_POINT('',(0.675,21.2140877061468,-1.1));
#2021=CARTESIAN_POINT('',(0.675,21.2140877061468,-0.1));
#2022=CARTESIAN_POINT('',(0.699280353424877,21.2140877061468,-2.58606314566135));
#2023=CARTESIAN_POINT('',(0.665071707820316,21.2133708129204,-1.70209125234081));
#2024=CARTESIAN_POINT('',(0.675,21.2140877061468,-1.1));
#2025=CARTESIAN_POINT('',(0.675,21.2140877061468,-0.498));
#2026=CARTESIAN_POINT('',(-0.674999999999492,21.2140877061468,-0.498));
#2027=CARTESIAN_POINT('',(-0.675,21.2140877061468,-0.498));
#2028=CARTESIAN_POINT('',(-0.675,21.2140877061468,-1.1));
#2029=CARTESIAN_POINT('',(-0.674999999999491,21.2140877061468,-1.702));
#2030=CARTESIAN_POINT('',(-0.674999999999491,21.2140877061468,-2.1));
#2031=CARTESIAN_POINT('',(-0.675,21.2140877061468,-1.1));
#2032=CARTESIAN_POINT('',(-0.675,21.2140877061468,-0.1));
#2033=CARTESIAN_POINT('',(-0.674999999999492,21.2140877061468,-0.1));
#2034=CARTESIAN_POINT('',(-0.556641391428941,21.2140877061468,-2.4477347160731));
#2035=CARTESIAN_POINT('',(-0.674999999999491,17.4640877061468,0.));
#2036=CARTESIAN_POINT('',(-0.674999999999491,17.4640877061468,-1.702));
#2037=CARTESIAN_POINT('',(-0.674999999999491,17.4640877061468,-1.702));
#2038=CARTESIAN_POINT('',(-0.674999999999491,17.4640877061468,-2.1));
#2039=CARTESIAN_POINT('',(0.900068950148574,17.0744160909642,-1.702));
#2040=CARTESIAN_POINT('',(0.675,17.4640877061468,-1.702));
#2041=CARTESIAN_POINT('',(0.675,18.1640877061469,-1.702));
#2042=CARTESIAN_POINT('',(0.297304113712215,21.2140877061468,-1.702));
#2043=CARTESIAN_POINT('',(-0.674999999999693,18.1640877061469,-1.702));
#2044=CARTESIAN_POINT('',(-0.449931049850919,17.0744160909642,-1.702));
#2045=CARTESIAN_POINT('',(0.675,17.4640877061468,-1.702));
#2046=CARTESIAN_POINT('',(0.900068950148574,17.0744160909642,-1.702));
#2047=CARTESIAN_POINT('',(0.675,17.4640877061468,-1.1));
#2048=CARTESIAN_POINT('',(0.675,17.4640877061468,-0.1));
#2049=CARTESIAN_POINT('',(0.675,18.1640877061469,-0.1));
#2050=CARTESIAN_POINT('',(0.675,18.1640877061469,-1.1));
#2051=CARTESIAN_POINT('',(-0.675,17.4640877061468,-1.1));
#2052=CARTESIAN_POINT('',(-0.675,17.4640877061468,-0.1));
#2053=CARTESIAN_POINT('',(-0.675,18.1640877061469,-0.1));
#2054=CARTESIAN_POINT('',(-0.675,18.1640877061469,-1.1));
#2055=CARTESIAN_POINT('',(-0.674999999999491,17.4640877061468,-0.1));
#2056=CARTESIAN_POINT('',(-0.674999999999491,18.1640877061469,-0.1));
#2057=CARTESIAN_POINT('',(-0.675,17.4640877061468,-1.1));
#2058=CARTESIAN_POINT('',(-0.675,17.4640877061468,-0.498));
#2059=CARTESIAN_POINT('',(-0.674999999999491,17.4640877061468,-0.498));
#2060=CARTESIAN_POINT('',(0.675,17.4640877061468,-0.498));
#2061=CARTESIAN_POINT('',(0.675,17.4640877061468,-1.1));
#2062=CARTESIAN_POINT('',(0.675,17.4640877061468,-1.1));
#2063=CARTESIAN_POINT('',(0.675,18.1640877061469,-0.498));
#2064=CARTESIAN_POINT('',(0.675,18.1640877061469,-1.1));
#2065=CARTESIAN_POINT('',(-0.675,18.1640877061469,-0.498));
#2066=CARTESIAN_POINT('',(-0.675,18.1640877061469,-1.1));
#2067=CARTESIAN_POINT('',(-0.674999999999491,18.1640877061469,-0.498));
#2068=CARTESIAN_POINT('',(0.250000000000006,23.9640877061469,-2.7));
#2069=CARTESIAN_POINT('',(0.250000000000006,23.9640877061469,-2.7));
#2070=CARTESIAN_POINT('',(0.230118672338449,23.9640877061469,-2.302));
#2071=CARTESIAN_POINT('',(-0.0164233576642337,23.9640877061469,0.0636861313868613));
#2072=CARTESIAN_POINT('',(2.7499999999997,23.9640877061469,-0.172627737229772));
#2073=CARTESIAN_POINT('',(2.74999999999985,23.9640877061469,1.27262773722806));
#2074=CARTESIAN_POINT('',(2.74999999999985,23.9640877061469,1.27262773722806));
#2075=CARTESIAN_POINT('',(-0.0164233576642339,23.9640877061469,1.03631386861314));
#2076=CARTESIAN_POINT('',(0.25,23.9640877061469,3.8));
#2077=CARTESIAN_POINT('',(-0.25,23.9640877061469,3.8));
#2078=CARTESIAN_POINT('',(-0.250000000000005,23.9640877061469,3.8));
#2079=CARTESIAN_POINT('',(0.0164233576642333,23.9640877061469,1.03631386861314));
#2080=CARTESIAN_POINT('',(-2.75000000000059,23.9640877061469,1.2726277372193));
#2081=CARTESIAN_POINT('',(-2.74999999999971,23.9640877061469,-0.172627737229762));
#2082=CARTESIAN_POINT('',(-2.7499999999997,23.9640877061469,-0.172627737229762));
#2083=CARTESIAN_POINT('',(0.0164233576642335,23.9640877061469,0.0636861313868611));
#2084=CARTESIAN_POINT('',(-0.25,23.9640877061469,-2.7));
#2085=CARTESIAN_POINT('',(-0.250000000000004,23.9640877061469,-2.09999999999997));
#2086=CARTESIAN_POINT('',(-0.240059336169225,23.9648045993733,-2.30163400677501));
#2087=CARTESIAN_POINT('',(0.0164233576642335,23.9640877061469,0.0636861313868611));
#2088=CARTESIAN_POINT('',(-2.35199999999972,23.9640877061469,-0.155002331193038));
#2089=CARTESIAN_POINT('',(-2.35199999999971,23.9640877061469,-0.172627737229516));
#2090=CARTESIAN_POINT('',(-2.35200000000059,23.9640877061469,1.25500233118359));
#2091=CARTESIAN_POINT('',(0.0164233576642333,23.9640877061469,1.03631386861314));
#2092=CARTESIAN_POINT('',(-0.230118672338447,23.9640877061469,3.402));
#2093=CARTESIAN_POINT('',(-0.25,23.9640877061469,3.402));
#2094=CARTESIAN_POINT('',(0.230118672338447,23.9640877061469,3.402));
#2095=CARTESIAN_POINT('',(-0.0164233576642339,23.9640877061469,1.03631386861314));
#2096=CARTESIAN_POINT('',(2.35199999999984,23.9640877061469,1.2550023311916));
#2097=CARTESIAN_POINT('',(2.35199999999985,23.9640877061469,1.2726277372281));
#2098=CARTESIAN_POINT('',(2.35199999999971,23.9640877061469,-0.155002331193142));
#2099=CARTESIAN_POINT('',(-0.0164233576642337,23.9640877061469,0.0636861313868613));
#2100=CARTESIAN_POINT('',(0.0164233576642335,23.9640877061469,0.0636861313868611));
#2101=CARTESIAN_POINT('',(-0.229223689817973,25.6572738544824,3.8));
#2102=CARTESIAN_POINT('',(-2.3760843371372E-15,25.6524787589318,3.8));
#2103=CARTESIAN_POINT('',(0.25,25.6472490469043,3.8));
#2104=CARTESIAN_POINT('',(-0.270557606783118,25.6468190054505,3.8));
#2105=CARTESIAN_POINT('',(-0.250000000000005,25.6472490469043,3.8));
#2106=CARTESIAN_POINT('',(-0.250000000000005,24.6640877061469,3.8));
#2107=CARTESIAN_POINT('',(0.25,24.6640877061469,3.8));
#2108=CARTESIAN_POINT('',(-0.25,24.6640877061469,3.8));
#2109=CARTESIAN_POINT('',(0.25,23.9640877061469,-2.7));
#2110=CARTESIAN_POINT('',(-0.25,24.6640877061469,-2.7));
#2111=CARTESIAN_POINT('',(-0.25,26.0208304552561,-2.7));
#2112=CARTESIAN_POINT('',(0.221412215367134,26.0306918557865,-2.7));
#2113=CARTESIAN_POINT('',(-2.80290678876309E-15,26.0260601672836,-2.7));
#2114=CARTESIAN_POINT('',(0.278369081233955,26.0202370067547,-2.7));
#2115=CARTESIAN_POINT('',(0.250000000000006,26.0208304552561,-2.7));
#2116=CARTESIAN_POINT('',(0.250000000000006,24.6640877061469,-2.7));
#2117=CARTESIAN_POINT('',(0.25,24.6640877061469,-2.7));
#2118=CARTESIAN_POINT('',(0.277890778644504,25.9973723352902,-2.302));
#2119=CARTESIAN_POINT('',(0.230118672338449,25.9983716727259,-2.302));
#2120=CARTESIAN_POINT('',(-2.62153278802622E-15,26.0031854902799,-2.302));
#2121=CARTESIAN_POINT('',(-0.0164233576642337,25.8675634546687,0.0636861313868613));
#2122=CARTESIAN_POINT('',(2.35199999999971,25.8305876806265,-0.155002331193142));
#2123=CARTESIAN_POINT('',(2.35199999999986,25.7449655512986,1.33475017840472));
#2124=CARTESIAN_POINT('',(2.35199999999984,25.7495489840794,1.2550023311916));
#2125=CARTESIAN_POINT('',(-0.0164233576642339,25.8116625869956,1.03631386861314));
#2126=CARTESIAN_POINT('',(0.230118672338447,25.6705396183816,3.402));
#2127=CARTESIAN_POINT('',(-0.228745387228521,25.6801385259468,3.402));
#2128=CARTESIAN_POINT('',(-2.24697967047636E-15,25.6753534359355,3.402));
#2129=CARTESIAN_POINT('',(-2.60208521396521E-15,25.9861637706419,-2.00583649942722));
#2130=CARTESIAN_POINT('',(-0.0164233576642339,25.8116625869956,1.03631386861314));
#2131=CARTESIAN_POINT('',(2.74999999999985,25.7402102788377,1.27262773722806));
#2132=CARTESIAN_POINT('',(2.74999999999985,25.736667261226,1.33427324195972));
#2133=CARTESIAN_POINT('',(2.7499999999997,25.8232749827725,-0.172627737229772));
#2134=CARTESIAN_POINT('',(-0.0164233576642337,25.8675634546687,0.0636861313868613));
#2135=CARTESIAN_POINT('',(-2.60208521396521E-15,25.9861637706419,-2.00583649942722));
#2136=CARTESIAN_POINT('',(1.41082082031494,25.9567481917288,-2.00752713225766));
#2137=CARTESIAN_POINT('',(2.74999999999985,24.6640877061469,1.27262773722806));
#2138=CARTESIAN_POINT('',(-0.0164233576642339,24.6640877061469,1.03631386861314));
#2139=CARTESIAN_POINT('',(2.7499999999997,24.6640877061469,-0.172627737229772));
#2140=CARTESIAN_POINT('',(2.74999999999985,24.6640877061469,1.27262773722806));
#2141=CARTESIAN_POINT('',(-0.0164233576642337,24.6640877061469,0.0636861313868613));
#2142=CARTESIAN_POINT('',(-2.7499999999997,24.6640877061469,-0.172627737229762));
#2143=CARTESIAN_POINT('',(-2.7499999999997,25.8232749827725,-0.172627737229762));
#2144=CARTESIAN_POINT('',(0.0164233576642335,25.8675634546687,0.0636861313868611));
#2145=CARTESIAN_POINT('',(0.0164233576642335,24.6640877061469,0.0636861313868611));
#2146=CARTESIAN_POINT('',(-2.75000000000059,24.6640877061469,1.2726277372193));
#2147=CARTESIAN_POINT('',(-2.75000000000059,25.7402102788382,1.2726277372193));
#2148=CARTESIAN_POINT('',(-2.74999999999974,25.8194584835738,-0.106223884583657));
#2149=CARTESIAN_POINT('',(-2.74999999999971,24.6640877061469,-0.172627737229762));
#2150=CARTESIAN_POINT('',(0.0164233576642333,25.8116625869956,1.03631386861314));
#2151=CARTESIAN_POINT('',(0.0164233576642333,24.6640877061469,1.03631386861314));
#2152=CARTESIAN_POINT('',(0.221890517956585,26.007827184322,-2.302));
#2153=CARTESIAN_POINT('',(-0.230118672338446,25.9983716727259,-2.302));
#2154=CARTESIAN_POINT('',(-0.271035909372569,25.669683676915,3.402));
#2155=CARTESIAN_POINT('',(-0.230118672338447,25.6705396183816,3.402));
#2156=CARTESIAN_POINT('',(0.0164233576642333,25.8116625869956,1.03631386861314));
#2157=CARTESIAN_POINT('',(-2.35200000000059,25.7495489840798,1.25500233118359));
#2158=CARTESIAN_POINT('',(-2.35199999999975,25.8277567736464,-0.105746948138453));
#2159=CARTESIAN_POINT('',(-2.35199999999972,25.8305876806265,-0.155002331193039));
#2160=CARTESIAN_POINT('',(0.0164233576642335,25.8675634546687,0.0636861313868611));
#2161=CARTESIAN_POINT('',(-1.41082082031494,25.9567481917288,-2.00752713225766));
#2162=CARTESIAN_POINT('',(0.230118672338447,25.6705396183816,3.402));
#2163=CARTESIAN_POINT('',(-0.230118672338447,25.6705396183816,3.402));
#2164=CARTESIAN_POINT('',(-0.25,24.6640877061469,3.402));
#2165=CARTESIAN_POINT('',(0.25,23.9640877061469,-2.302));
#2166=CARTESIAN_POINT('',(0.230118672338449,25.9983716727259,-2.302));
#2167=CARTESIAN_POINT('',(-0.230118672338446,25.9983716727259,-2.302));
#2168=CARTESIAN_POINT('',(0.25,24.6640877061469,-2.302));
#2169=CARTESIAN_POINT('',(2.35199999999984,25.7495489840794,1.2550023311916));
#2170=CARTESIAN_POINT('',(-0.0164233576642339,24.6640877061469,1.03631386861314));
#2171=CARTESIAN_POINT('',(2.35199999999971,25.8305876806265,-0.155002331193142));
#2172=CARTESIAN_POINT('',(2.35199999999985,24.6640877061469,1.2726277372281));
#2173=CARTESIAN_POINT('',(-0.0164233576642337,24.6640877061469,0.0636861313868613));
#2174=CARTESIAN_POINT('',(-2.35199999999972,25.8305876806265,-0.155002331193039));
#2175=CARTESIAN_POINT('',(0.0164233576642335,24.6640877061469,0.0636861313868611));
#2176=CARTESIAN_POINT('',(-2.35200000000059,25.7495489840798,1.25500233118359));
#2177=CARTESIAN_POINT('',(-2.35199999999971,24.6640877061469,-0.172627737229516));
#2178=CARTESIAN_POINT('',(0.0164233576642333,24.6640877061469,1.03631386861314));
#2179=CARTESIAN_POINT('',(0.297304113712214,23.5293583796107,-2.20714996511939));
#2180=CARTESIAN_POINT('',(0.317185441373771,23.5293583796107,-2.60514996511939));
#2181=CARTESIAN_POINT('',(0.317185441373771,23.5293583796107,-2.60514996511939));
#2182=CARTESIAN_POINT('',(-0.66247520246769,21.2951305137057,-1.71968206710374));
#2183=CARTESIAN_POINT('',(0.297304113712214,23.5293583796107,-2.20714996511939));
#2184=CARTESIAN_POINT('',(-0.314190209201384,23.5487392936668,-2.60937852818617));
#2185=CARTESIAN_POINT('',(-0.674999999999491,21.2140877061468,-2.1));
#2186=CARTESIAN_POINT('',(-0.182814558626237,23.5293583796107,-2.60514996511939));
#2187=MECHANICAL_DESIGN_GEOMETRIC_PRESENTATION_REPRESENTATION('',(#32),
#2188);
#2188=(
GEOMETRIC_REPRESENTATION_CONTEXT(3)
GLOBAL_UNCERTAINTY_ASSIGNED_CONTEXT((#2189))
GLOBAL_UNIT_ASSIGNED_CONTEXT((#2195,#2191,#2190))
REPRESENTATION_CONTEXT('33386365_3D_STP','TOP_LEVEL_ASSEMBLY_PART')
);
#2189=UNCERTAINTY_MEASURE_WITH_UNIT(LENGTH_MEASURE(0.0508),#2195,
'DISTANCE_ACCURACY_VALUE','Maximum Tolerance applied to model');
#2190=(
NAMED_UNIT(*)
SI_UNIT($,.STERADIAN.)
SOLID_ANGLE_UNIT()
);
#2191=(
CONVERSION_BASED_UNIT('DEGREE',#2193)
NAMED_UNIT(#2192)
PLANE_ANGLE_UNIT()
);
#2192=DIMENSIONAL_EXPONENTS(0.,0.,0.,0.,0.,0.,0.);
#2193=PLANE_ANGLE_MEASURE_WITH_UNIT(PLANE_ANGLE_MEASURE(0.0174532925),#2194);
#2194=(
NAMED_UNIT(*)
PLANE_ANGLE_UNIT()
SI_UNIT($,.RADIAN.)
);
#2195=(
LENGTH_UNIT()
NAMED_UNIT(*)
SI_UNIT(.MILLI.,.METRE.)
);
ENDSEC;
END-ISO-10303-21;
